<svg xmlns="http://www.w3.org/2000/svg" width="30" height="29.667" viewBox="0 0 30 29.667">
  <path id="Tracciato_131" data-name="Tracciato 131" d="M10.389,25.94a4.636,4.636,0,0,1-6.5-6.483C1.2,18.808-.287,17.233-.1,14.362c.186-2.13,1.485-3.427,3.9-3.983-1.207-2.223-1.207-4.26.743-6.205A4.325,4.325,0,0,1,7.418,3.063a4.462,4.462,0,0,1,2.971,1.019A4.4,4.4,0,0,1,14.659.1a4.337,4.337,0,0,1,3.156,1.019,4.114,4.114,0,0,1,1.578,2.964c2.321-1.389,4.456-1.3,6.312.648a3.249,3.249,0,0,1,1.207,2.779,4.053,4.053,0,0,1-1.021,2.871c2.506.556,3.9,2.038,3.992,4.538a4.363,4.363,0,0,1-1.114,2.964,4.572,4.572,0,0,1-2.878,1.482,4.458,4.458,0,0,1,.835,3.983,4.191,4.191,0,0,1-1.485,2.315,4.472,4.472,0,0,1-5.755.093c-.65,2.686-2.228,4.168-5.013,3.983C12.245,29.737,10.853,28.255,10.389,25.94ZM22.921,14.918c-.093-.185-.278-.278-.371-.463A10.766,10.766,0,0,0,20.6,12.973c-.371-.278-.371-.278-.278-.741A8.241,8.241,0,0,0,20.6,9.639c0-.37,0-.37-.464-.463a12.4,12.4,0,0,0-2.6.278c-.464.093-.464.093-.743-.278a8.062,8.062,0,0,0-1.578-1.945c-.093-.093-.278-.185-.371-.278a.724.724,0,0,0-.371.37c-.464.648-1.021,1.2-1.485,1.852-.371.463-.278.463-.928.37-.743-.093-1.485-.185-2.135-.278-.65,0-.65,0-.65.741.093.834.186,1.575.278,2.408a.388.388,0,0,1-.278.556,1.942,1.942,0,0,0-.557.37,7.539,7.539,0,0,0-1.764,1.667c.093.093.186.278.278.37a8.571,8.571,0,0,0,2.042,1.575c.371.185.371.278.278.648a8.533,8.533,0,0,0-.278,2.686c0,.37,0,.37.371.37a11.769,11.769,0,0,0,2.6-.278c.464-.093.464-.093.743.278a10.112,10.112,0,0,0,1.207,1.575,2.5,2.5,0,0,0,.743.648,7.643,7.643,0,0,0,1.949-2.315c.186-.37.278-.37.65-.278a8.011,8.011,0,0,0,2.6.278c.464,0,.464,0,.464-.463a12.318,12.318,0,0,0-.278-2.593c-.093-.463-.093-.463.278-.648s.65-.463,1.021-.648A4.333,4.333,0,0,0,22.921,14.918ZM4.447,19.734h0c-.093.093-.093.093-.093.185a9.839,9.839,0,0,0,.093,5.187c.093.278.278.37.557.463a9.853,9.853,0,0,0,4.642.185,2.366,2.366,0,0,0,.65-.185,4.208,4.208,0,0,1-1.671-1.945A4.264,4.264,0,0,1,8.9,21.031,3.322,3.322,0,0,1,4.447,19.734Zm15.224,5.742c.186.093.186.093.278.093a9.82,9.82,0,0,0,4.92-.093.788.788,0,0,0,.65-.648,12.1,12.1,0,0,0,.278-4.075,7.3,7.3,0,0,0-.278-1.2c-1.207,1.667-2.692,2.223-4.642,1.3C21.9,22.883,21.435,24.365,19.672,25.476ZM10.2,4.452a.288.288,0,0,0-.186-.093,9.836,9.836,0,0,0-4.92,0,.884.884,0,0,0-.743.741,10.16,10.16,0,0,0-.093,4.724c0,.093.093.185.186.37a1.278,1.278,0,0,1,.278-.37,3.177,3.177,0,0,1,3.62-1.111A5.927,5.927,0,0,0,9,8.9,3.2,3.2,0,0,1,10.2,4.452ZM25.52,10.194a14.348,14.348,0,0,0,.371-1.945,8.489,8.489,0,0,0-.371-3.427c-.093-.185-.186-.37-.371-.37a8.758,8.758,0,0,0-4.085-.278q-.557.139-1.392.278A3.424,3.424,0,0,1,21.343,6.4a4.264,4.264,0,0,1-.278,2.593,3.212,3.212,0,0,1,4.456,1.2ZM6.4,15.011a3.373,3.373,0,0,1-2.228-4.168,10.418,10.418,0,0,0-3.806,3.7.693.693,0,0,0,0,.834,9.165,9.165,0,0,0,2.321,2.686c.464.37.928.648,1.392,1.019a4.129,4.129,0,0,1,.278-2.593A4.042,4.042,0,0,1,6.4,15.011Zm17.174,0A3.315,3.315,0,0,1,25.8,19.086h.093a10.164,10.164,0,0,0,3.713-3.7.782.782,0,0,0,0-.648,9.921,9.921,0,0,0-3.62-3.7H25.8A3.326,3.326,0,0,1,23.57,15.011ZM19.022,4.081a.323.323,0,0,0-.093-.185,9.431,9.431,0,0,0-3.62-3.52.7.7,0,0,0-.835,0,7.987,7.987,0,0,0-2.692,2.315c-.371.463-.65.926-1.114,1.482.464,0,.835-.093,1.207-.093a3.1,3.1,0,0,1,2.878,2.038c0,.093.093.185.186.278C16.051,4.452,16.7,4.081,19.022,4.081ZM10.853,25.754a9.382,9.382,0,0,0,3.806,3.8.565.565,0,0,0,.743,0,9.922,9.922,0,0,0,3.713-3.612v-.185a3.366,3.366,0,0,1-4.085-2.223A3.548,3.548,0,0,1,10.853,25.754Zm10.211-5.187h.278a9.47,9.47,0,0,0,3.9-1.111c.186-.093.186-.278.093-.463a9.831,9.831,0,0,0-1.671-3.056c-.186-.185-.278-.37-.464-.556a3.592,3.592,0,0,1-.557,1.019,3.2,3.2,0,0,1-.835.741c-.278.185-.743.185-1.114.37a2.194,2.194,0,0,1,.371,3.056Zm-14.3-5.279c-.093.093-.093.093-.186.093A10.3,10.3,0,0,0,4.54,18.9c-.093.278,0,.37.186.556a13.726,13.726,0,0,0,2.506.926,5.151,5.151,0,0,0,1.671.185,2.4,2.4,0,0,1,.278-3.149A2.572,2.572,0,0,1,6.768,15.288Zm14.3-5.835a2.4,2.4,0,0,1-.278,3.149,2.484,2.484,0,0,1,2.414,2.13c.278-.278.371-.463.557-.648a7.449,7.449,0,0,0,1.485-2.964c.093-.37.093-.463-.278-.648a10.208,10.208,0,0,0-3.249-1.019C21.621,9.361,21.343,9.453,21.064,9.453ZM9.367,8.9a2.532,2.532,0,0,1,3.156.278,2.409,2.409,0,0,1,1.949-2.408V6.582a.093.093,0,0,0-.093-.093,10.226,10.226,0,0,0-3.249-1.852c-.464-.185-.464-.093-.65.278A9.978,9.978,0,0,0,9.46,8.249,1.371,1.371,0,0,0,9.367,8.9Zm7.983.37A2.534,2.534,0,0,1,20.6,8.99a4.884,4.884,0,0,1-.093-1.111,11.012,11.012,0,0,0-.928-2.964c-.186-.37-.278-.37-.557-.278a9.621,9.621,0,0,0-3.063,1.575c-.186.185-.371.278-.557.463A2.54,2.54,0,0,1,17.351,9.268ZM8.9,9.453H8.532a8.661,8.661,0,0,0-3.713,1.111c-.278.093-.278.278-.186.556A9.831,9.831,0,0,0,6.3,14.177c.093.185.278.278.464.556A2.5,2.5,0,0,1,9.275,12.6,2.319,2.319,0,0,1,8.9,9.453Zm6.5,13.708c0,.093,0,.093.093.093l.093.093a9.715,9.715,0,0,0,3.435,1.945c.278.093.371,0,.557-.278A10.6,10.6,0,0,0,20.6,22.142a4.882,4.882,0,0,0,.093-1.2,2.869,2.869,0,0,1-1.671.463,3.219,3.219,0,0,1-1.485-.741A2.688,2.688,0,0,1,15.4,23.161Zm-2.785-2.408a2.418,2.418,0,0,1-3.156.278v.278a9.009,9.009,0,0,0,1.114,3.8c.093.278.278.185.557.093a9.621,9.621,0,0,0,3.063-1.575,3.147,3.147,0,0,0,.557-.556A2.255,2.255,0,0,1,12.617,20.753Z" transform="translate(0.117 -0.085)" fill="#dadada"/>
</svg>
