<svg id="Raggruppa_910" data-name="Raggruppa 910" xmlns="http://www.w3.org/2000/svg" xmlns:xlink="http://www.w3.org/1999/xlink" width="41.37" height="41.347" viewBox="0 0 41.37 41.347">
  <defs>
    <clipPath id="clip-path">
      <rect id="Rettangolo_496" data-name="Rettangolo 496" width="41.37" height="41.347" fill="#2b4261"/>
    </clipPath>
  </defs>
  <g id="Raggruppa_629" data-name="Raggruppa 629" clip-path="url(#clip-path)">
    <path id="Tracciato_658" data-name="Tracciato 658" d="M0,40.3V36.582a.708.708,0,0,1,.839-.3c.361.129.378.443.375.768-.007.861.015,1.723-.01,2.584-.011.388.111.508.5.507,5.6-.011,11.2-.006,16.8-.016a1.017,1.017,0,0,0,.571-.2,2.653,2.653,0,0,1,3.162-.033,1.235,1.235,0,0,0,.68.235q8.3.019,16.6.01c.627,0,.627,0,.627-.611q0-12.256,0-24.511a.9.9,0,0,0-.009-.32c-.043-.1-.141-.258-.224-.264-.384-.028-.771-.012-1.2-.012v.563q0,11.448,0,22.9c0,.819-.145.964-.959.964H3.628c-.849,0-.984-.135-.984-.978q0-11.448,0-22.9v-.556H1.792c-.58,0-.58,0-.58.578,0,5.976.01,17.117.013,23.093,0,.325-.018.633-.385.759a.686.686,0,0,1-.828-.322L0,14.291a1.588,1.588,0,0,1,1.8-1.1,3.2,3.2,0,0,0,.6-.006c.085-.009.221-.084.232-.148a.9.9,0,0,1,.713-.69c.969-.321,1.932-.659,2.912-.941a.484.484,0,0,0,.43-.569c-.014-2.53-.009-5.06-.007-7.59,0-.806.26-1.026,1.047-.816.856.229,1.7.506,2.546.763.134.041.267.086.446.143,0-.926-.009-1.786,0-2.645.007-.529.316-.78.811-.67a11.56,11.56,0,0,1,5.384,2.691A13.2,13.2,0,0,1,20.833,9.76c.177.756.284,1.527.428,2.316.086-.057.164-.1.235-.158A22.906,22.906,0,0,1,35.455,7.19c.649-.012.837.179.838.835,0,1.1.014,2.207-.008,3.311a.465.465,0,0,0,.394.534,14.985,14.985,0,0,1,1.509.565c.183.08.418.247.454.412.077.354.278.37.55.351.147-.01.3,0,.444,0,1.209,0,1.724.512,1.724,1.712q0,12.335.01,24.669a1.637,1.637,0,0,1-1.141,1.771H22.053c-.13-.112-.268-.217-.389-.337a1.349,1.349,0,0,0-1.968,0c-.122.121-.259.225-.389.338H1.131A1.844,1.844,0,0,1,0,40.3M36.32,13.012c-.011.175-.023.291-.025.407-.006.417.015,5.912-.009,6.328a.53.53,0,0,1-.554.529.549.549,0,0,1-.612-.467,2.008,2.008,0,0,1-.029-.441c0-1.8-.007-8.684-.008-10.487,0-.154-.014-.307-.027-.565-1.408.195-2.765.31-4.091.58a20.517,20.517,0,0,0-9.348,4.5.857.857,0,0,0-.335.722q.014,10.982.008,21.965c0,.139.015.277.027.485A23.131,23.131,0,0,1,35.082,31.7v-.556q0-6.218,0-12.436a3.045,3.045,0,0,1,.014-.443.584.584,0,0,1,.64-.538.564.564,0,0,1,.551.584c.007.121.005.242.005.363q0,6.642,0,13.284c0,.821-.133.957-.964.965A22.2,22.2,0,0,0,27.564,34.4c-.1.038-.2.077-.3.121s-.186.093-.279.14a23.126,23.126,0,0,1,5.284-.2A26.071,26.071,0,0,1,37.5,35.491V13.9a.923.923,0,0,0-.008-.281.4.4,0,0,0-.165-.23c-.317-.135-.645-.245-1.011-.38M11.955,1.378c-.009.125-.02.2-.02.283q0,11.324-.006,22.649a.358.358,0,0,0,.319.412,11.389,11.389,0,0,1,7.63,6.657c.038.085.092.163.181.317.009-.164.016-.23.016-.3,0-5.975.016-11.95-.008-17.925a14.692,14.692,0,0,0-1.832-7.194,9.938,9.938,0,0,0-6.28-4.9m6.879,34.666c-.05-.078-.1-.158-.152-.233A18.864,18.864,0,0,0,7.454,28.122c-.707-.168-.771-.249-.771-.988q0-7.025,0-14.051v-.5a2.056,2.056,0,0,0-.319.04c-.705.22-1.405.457-2.114.665a.492.492,0,0,0-.4.572q.017,10.578.008,21.157V35.5a20.985,20.985,0,0,1,14.978.547M7.894,3.656V17.8q0,4.4,0,8.8c0,.229,0,.388.3.464a20.025,20.025,0,0,1,11.294,7.782c.079.106.162.209.243.313l.1-.053c-.256-.846-.466-1.71-.777-2.535a10.243,10.243,0,0,0-7.5-6.787c-.79-.192-.831-.24-.831-1.062q0-7.811,0-15.622c0-1.359,0-2.718-.007-4.077,0-.137-.064-.361-.156-.4-.858-.334-1.729-.636-2.664-.971m-4,33.945H18.871l.038-.119c-.892-.354-1.767-.764-2.68-1.054a19.464,19.464,0,0,0-11.718.15c-.731.219-.729.224-.617,1.022m18.486,0H37.474a1.656,1.656,0,0,0,.027-.18c0-.121-.009-.244,0-.363.026-.214-.074-.3-.271-.367a20.043,20.043,0,0,0-11.605-.424A14.512,14.512,0,0,0,22.38,37.6" transform="translate(0 0)" fill="#2b4261"/>
    <path id="Tracciato_659" data-name="Tracciato 659" d="M178.95,376.923c.13-.112.268-.217.389-.338a1.349,1.349,0,0,1,1.968,0c.122.121.259.225.389.337Z" transform="translate(-159.643 -335.576)" fill="#2b4261"/>
    <path id="Tracciato_660" data-name="Tracciato 660" d="M0,373.508a1.844,1.844,0,0,0,1.131,1.05H0Z" transform="translate(0 -333.211)" fill="#2b4261"/>
  </g>
</svg>
