<svg xmlns="http://www.w3.org/2000/svg" xmlns:xlink="http://www.w3.org/1999/xlink" width="42.164" height="42.164" viewBox="0 0 42.164 42.164">
  <defs>
    <clipPath id="clip-path">
      <rect id="Rettangolo_491" data-name="Rettangolo 491" width="42.164" height="42.164" fill="#50978e"/>
    </clipPath>
  </defs>
  <g id="Raggruppa_621" data-name="Raggruppa 621" transform="translate(-0.001)">
    <g id="Raggruppa_618" data-name="Raggruppa 618" transform="translate(0.001)" clip-path="url(#clip-path)">
      <path id="Tracciato_651" data-name="Tracciato 651" d="M42.1,29.109a8.882,8.882,0,0,1-.433,1.1,2.991,2.991,0,0,1-1.988,1.534.613.613,0,0,0-.523.546,3.821,3.821,0,0,1-7.441-.066,5.228,5.228,0,0,1-.107-1.141c-.009-2.782-.005-5.564,0-8.346a3.846,3.846,0,0,1,3.448-4.183,1.314,1.314,0,0,0,.184-.079c-.176-5.209-2.314-9.408-6.761-12.186a13.266,13.266,0,0,0-14.968.061A13.965,13.965,0,0,0,6.94,18.52c.207.043.422.078.632.131a3.737,3.737,0,0,1,2.878,3.568q.048,4.645,0,9.291a3.774,3.774,0,0,1-3.431,3.683A3.862,3.862,0,0,1,2.87,32.151a.494.494,0,0,0-.257-.333A3.3,3.3,0,0,1,.047,29.174C.042,29.15.016,29.131,0,29.109v-4.44c.037-.129.073-.258.112-.386a3.2,3.2,0,0,1,2.349-2.3c.3-.08.354-.2.35-.47-.013-1.014,0-2.028-.005-3.042A18.347,18.347,0,0,1,8.6,4.933c.229-.217.5-.367.764-.141a1.064,1.064,0,0,1,.314.646c.015.141-.17.329-.3.457a17.02,17.02,0,0,0-5.062,9.381,19.364,19.364,0,0,0-.263,4.154l1.582-.843A15.615,15.615,0,0,1,20.99,2.848,15.6,15.6,0,0,1,36.467,18.592l1.578.848a16.853,16.853,0,0,0-1.622-8.4C33.332,4.9,28.336,1.587,21.454,1.255a16.074,16.074,0,0,0-8.912,2.272c-.464.267-.785.215-.99-.146s-.081-.653.382-.923A17.531,17.531,0,0,1,17.715.319c.7-.125,1.4-.213,2.1-.319H22.2c.514.066,1.03.119,1.542.2A17.976,17.976,0,0,1,34.9,6.424a17.63,17.63,0,0,1,4.318,10.608c.092,1.488.058,2.985.066,4.478,0,.269.045.4.351.47A2.967,2.967,0,0,1,41.6,23.424a9.268,9.268,0,0,1,.5,1.245Zm-4.042-2.222c0-1.479.009-2.958,0-4.437a2.627,2.627,0,0,0-2.581-2.695,2.6,2.6,0,0,0-2.629,2.639c-.025,2.985-.011,5.97,0,8.955a2.6,2.6,0,1,0,5.209.015c.028-1.492.007-2.985.008-4.478M9.227,26.868h0q0-2.239,0-4.478c0-.041,0-.082,0-.123a2.6,2.6,0,0,0-5.189.022q-.029,4.58,0,9.161a2.426,2.426,0,0,0,1.141,2.075,2.464,2.464,0,0,0,2.611.173A2.422,2.422,0,0,0,9.22,31.469c.025-1.533.006-3.067.006-4.6M2.775,23.207a1.9,1.9,0,0,0-1.531,1.8q-.039,1.867,0,3.735a1.892,1.892,0,0,0,1.53,1.792Zm36.538,7.336a1.919,1.919,0,0,0,1.544-1.81c.027-1.246.029-2.493,0-3.738a1.877,1.877,0,0,0-1.543-1.786Z" transform="translate(-0.129 0.11)" fill="#50978e"/>
      <path id="Tracciato_652" data-name="Tracciato 652" d="M114.865,135.509a2.089,2.089,0,0,1-1.513-1.523,1.919,1.919,0,0,1,1.748-2.344c.693-.03,1.389-.006,2.128-.006,0-1.067.009-2.077-.016-3.087,0-.091-.214-.213-.35-.259a8.877,8.877,0,0,1-5.636-5.312,8.7,8.7,0,0,1-.594-3.294c0-1.3,0-2.6,0-3.906a1.468,1.468,0,0,1,1.655-1.639h1.164c0-.189,0-.348,0-.507a32.472,32.472,0,0,1,.114-3.691,6.075,6.075,0,0,1,11.974.02,31.871,31.871,0,0,1,.11,3.568c0,.188,0,.376,0,.61.452,0,.859,0,1.266,0a1.428,1.428,0,0,1,1.548,1.5c.012,1.521.044,3.044-.026,4.563a8.92,8.92,0,0,1-6.168,8.065.486.486,0,0,0-.406.573c.022.914.008,1.829.008,2.8.714,0,1.381-.013,2.048,0a1.9,1.9,0,0,1,1.805,1.417,1.916,1.916,0,0,1-.826,2.144,5.947,5.947,0,0,1-.661.312Zm10.786-20.135c0,.207,0,.355,0,.5,0,1.411.013,2.823-.016,4.234a5.489,5.489,0,0,1-1.077,3.136.737.737,0,0,1-.576.269.725.725,0,0,1-.5-.4.861.861,0,0,1,.134-.634,4.819,4.819,0,0,0,.794-2.554c.006-3.028.029-6.057-.005-9.085a4.856,4.856,0,0,0-9.707-.017c-.037,3.042-.03,6.084,0,9.126a4.536,4.536,0,0,0,1.845,3.648,4.762,4.762,0,0,0,4.614.787c.468-.148.761-.014.88.385.112.377-.045.657-.51.779a8.16,8.16,0,0,1-1.6.318,6.071,6.071,0,0,1-6.47-6.1c-.01-1.3,0-2.6,0-3.905v-.487c-.412,0-.779.017-1.144,0s-.452.13-.448.459c.012,1.137-.008,2.275.009,3.412a12.772,12.772,0,0,0,.115,1.8,7.647,7.647,0,0,0,15.1-.02,49.733,49.733,0,0,0,.15-5.332c0-.224-.114-.318-.334-.315-.4,0-.791,0-1.251,0m-6.1,18.9c1.411,0,2.822,0,4.232,0a.715.715,0,0,0,.779-.718.707.707,0,0,0-.761-.69c-.233-.008-.466,0-.7,0h-7.438c-.123,0-.247,0-.37,0a.707.707,0,0,0-.759.693.715.715,0,0,0,.782.715c1.411.006,2.822,0,4.232,0m-1.062-2.669h2.123v-2.925h-2.123Z" transform="translate(-98.63 -93.298)" fill="#50978e"/>
      <path id="Tracciato_653" data-name="Tracciato 653" d="M187.149,225.11a.744.744,0,0,1-.788.765.734.734,0,0,1-.721-.786.746.746,0,0,1,.742-.772.758.758,0,0,1,.766.792" transform="translate(-165.415 -199.614)" fill="#50978e"/>
      <path id="Tracciato_654" data-name="Tracciato 654" d="M208.514,239.148a.709.709,0,0,1,.741.753.739.739,0,0,1-.748.8.751.751,0,0,1-.748-.806.725.725,0,0,1,.754-.748" transform="translate(-185.109 -212.818)" fill="#50978e"/>
      <path id="Tracciato_655" data-name="Tracciato 655" d="M186.381,253.393a.739.739,0,0,1,.775.774.761.761,0,0,1-.738.78.747.747,0,0,1-.769-.785.722.722,0,0,1,.732-.769" transform="translate(-165.423 -225.501)" fill="#50978e"/>
      <path id="Tracciato_656" data-name="Tracciato 656" d="M7.934,6.736a17.715,17.715,0,0,1,5.337-4.32c2.284-1.167,1.961.349.869.919A18.566,18.566,0,0,0,9.7,6.562C8.182,8.1,7.934,6.736,7.934,6.736Z" transform="translate(-0.816 -0.204)" fill="#50978e"/>
      <path id="Tracciato_657" data-name="Tracciato 657" d="M24.471,34.51a4.482,4.482,0,0,0,3.011-2.13c.485-.705,1.454-.367,1.234.308a7.643,7.643,0,0,1-3.54,2.894C23.943,35.89,22.65,34.907,24.471,34.51Z" transform="translate(-2.425 -3.291)" fill="#50978e"/>
    </g>
  </g>
</svg>
