<svg xmlns="http://www.w3.org/2000/svg" width="31.694" height="24.828" viewBox="0 0 31.694 24.828">
  <path id="Tracciato_1919" data-name="Tracciato 1919" d="M31.593,49.941c-.189.321-.516.328-.83.368l-3.1.4v5.949h.967c0-.157,0-.309,0-.459a.492.492,0,1,1,.984.009c0,1.082,0,2.164,0,3.245,0,.051.005.1.009.171h.485c0-.164-.007-.326,0-.487a.477.477,0,0,1,.494-.48.468.468,0,0,1,.487.485q.009,1.994,0,3.987a.461.461,0,0,1-.47.471c-.082.005-.164,0-.247,0H1.721c-.613,0-.729-.118-.729-.742q0-1.793,0-3.586c0-.4.165-.61.482-.616s.5.205.5.627c0,.111,0,.222,0,.346h.495v-.323c0-1.03,0-2.061,0-3.091a.479.479,0,0,1,.478-.527.485.485,0,0,1,.506.532c0,.082,0,.165,0,.247,0,.059.006.119.01.194h.954V50.715c-.4-.051-.817-.1-1.231-.153-.9-.1-1.794-.211-2.693-.307a.494.494,0,0,1-.479-.365.5.5,0,0,1,.241-.582c.649-.435,1.278-.9,1.944-1.308a2.212,2.212,0,0,0,1.008-1.615,5.784,5.784,0,0,0,.062-.582.487.487,0,0,1,.514-.5c.369-.007.738,0,1.129,0V42.717c-.813-.124-1.63-.254-2.45-.372a.494.494,0,0,1-.485-.431.51.51,0,0,1,.341-.56c.68-.338,1.365-.668,2.035-1.026a4.4,4.4,0,0,0,.807-.559,1.022,1.022,0,0,0,.263-.469.506.506,0,0,1,.524-.425H26.96c.514,0,.557.059.7.566a.95.95,0,0,0,.36.479c.6.412,1.224.793,1.839,1.183a2.268,2.268,0,0,1,.492.312.748.748,0,0,1,.227.514.615.615,0,0,1-.393.393c-.689.157-1.389.262-2.087.383-.3.053-.605.1-.928.153v2.448c.384,0,.762,0,1.138,0a.517.517,0,0,1,.568.545,6.851,6.851,0,0,0,.135,1,1.979,1.979,0,0,0,.748,1.169c.5.376.979.785,1.462,1.185.132.11.248.24.372.361ZM27.9,46.307H4.222a3.693,3.693,0,0,1-2.251,3.072,2.605,2.605,0,0,0,.553.1c1.124.093,2.247.257,3.372.263,6.218.025,12.436.013,18.654.011a22.968,22.968,0,0,0,4.086-.181c.384-.069.773-.109,1.159-.163l.043-.079A3.607,3.607,0,0,1,27.9,46.307m2.2,14.35H2V62.6H30.1ZM3.473,59.626H28.607V57.684H3.473Zm.661-17.987c.914.072,1.758.193,2.6.2q9.959.024,19.92,0a18.736,18.736,0,0,0,1.969-.2c0-.027.005-.056.007-.083a5.331,5.331,0,0,1-.617-.387,8.822,8.822,0,0,1-1.132-1.024.624.624,0,0,0-.542-.275q-9.821.009-19.643,0a.519.519,0,0,0-.542.273,1.616,1.616,0,0,1-.476.516c-.47.327-.963.619-1.549.989m9.2,15.034V51.892c0-.51.145-.652.663-.652h4.133c.474,0,.631.155.631.622q0,2.241,0,4.481v.32h.988v-.349q0-2.225,0-4.45c0-.47.156-.624.63-.624h4.657c.486,0,.634.153.635.65v4.774h.968v-5.9H5.448v5.894h.973V51.889c0-.5.148-.65.636-.65h4.657c.473,0,.629.155.629.625q0,2.241,0,4.481v.327ZM5.952,42.838v2.445h.469c0-.474,0-.927,0-1.379,0-.408.171-.576.584-.576q2.375,0,4.75,0c.423,0,.586.169.587.6,0,.45,0,.9,0,1.352h.988c0-.484,0-.946,0-1.409a.482.482,0,0,1,.55-.547q2.159,0,4.318,0c.386,0,.555.178.558.571,0,.46,0,.92,0,1.385h.988c0-.483,0-.945,0-1.408a.484.484,0,0,1,.549-.549q2.405,0,4.812,0c.387,0,.557.176.56.569,0,.461,0,.921,0,1.389h.471V42.838Zm8.384,13.82h3.412V52.234H14.337Zm-2.993-12.32H7.434v.951h3.91Zm9.4.948H24.66v-.944H20.741ZM7.421,56.664h1.45V54.228H7.421Zm2.474-.006h1.439V54.213H9.894ZM22.2,54.223H20.754v2.434H22.2Zm2.461.008H23.218v2.435h1.444ZM14.336,45.285H17.75V44.33H14.336Zm-5.461,6.96H7.428v.95H8.874Zm1.016.953h1.443v-.955H9.891Zm12.3-.945H20.751V53.2h1.444Zm1.022.949h1.448V52.25H23.216Z" transform="translate(0.051 -38.826)" fill="#0e83a4" stroke="#0e83a4" stroke-width="0.1"/>
</svg>
