<svg xmlns="http://www.w3.org/2000/svg" width="15.588" height="14.905" viewBox="0 0 15.588 14.905">
  <path id="Tracciato_688" data-name="Tracciato 688" d="M4.033,92.313c.035-.162.065-.326.107-.485A3.61,3.61,0,0,1,5.122,90.2q4.089-4.088,8.174-8.18c.245-.246.6-.151.643.126a.662.662,0,0,1-.075.313c-.02.051-.078.087-.12.128Q9.7,86.631,5.651,90.677A2.855,2.855,0,0,0,4.8,92.158a2.68,2.68,0,0,0,.646,2.311A2.881,2.881,0,0,0,7.39,95.545a2.454,2.454,0,0,0,1.945-.627c.4-.352.773-.74,1.151-1.118,2.411-2.409,4.813-4.826,7.232-7.226a2.078,2.078,0,0,0-.324-3.323,1.98,1.98,0,0,0-2.615.245Q12.2,86.072,9.622,88.651a1.439,1.439,0,0,0-.5,1.073,1.6,1.6,0,0,0,1.258,1.442,1.3,1.3,0,0,0,1.035-.27,2.687,2.687,0,0,0,.263-.236q2.215-2.212,4.427-4.427a.386.386,0,0,1,.429-.145.352.352,0,0,1,.165.553,1.035,1.035,0,0,1-.09.1q-2.239,2.24-4.479,4.48a2.105,2.105,0,0,1-1.573.68A2.3,2.3,0,0,1,8.42,89.887a2.034,2.034,0,0,1,.542-1.578c.052-.059.108-.115.163-.17q2.578-2.579,5.157-5.155a2.685,2.685,0,0,1,1.966-.829,3.012,3.012,0,0,1,2.844,2.52,2.634,2.634,0,0,1-.786,2.307q-4.09,4.109-8.2,8.2A3.5,3.5,0,0,1,8.2,96.229a3.3,3.3,0,0,1-2.487-.57,3.678,3.678,0,0,1-1.649-2.587.2.2,0,0,0-.026-.052Z" transform="translate(-3.783 -81.622)" fill="#0e83a4" stroke="#0e83a4" stroke-width="0.5"/>
</svg>
