<svg xmlns="http://www.w3.org/2000/svg" width="18.485" height="14.511" viewBox="0 0 18.485 14.511">
  <path id="Tracciato_687" data-name="Tracciato 687" d="M18.284,45.28c-.109.186-.3.19-.48.213l-1.793.232v3.443h.56c0-.091,0-.179,0-.266a.285.285,0,1,1,.569.005c0,.626,0,1.252,0,1.878,0,.029,0,.058.005.1h.281c0-.1,0-.189,0-.282a.276.276,0,0,1,.286-.278.271.271,0,0,1,.282.28q.005,1.154,0,2.308a.267.267,0,0,1-.272.272c-.047,0-.1,0-.143,0H1c-.355,0-.422-.068-.422-.429q0-1.038,0-2.075c0-.233.1-.353.279-.357s.29.119.291.363c0,.064,0,.129,0,.2h.286V50.7c0-.6,0-1.193,0-1.789a.277.277,0,0,1,.277-.305A.281.281,0,0,1,2,48.915c0,.048,0,.1,0,.143s0,.069.006.112H2.56V45.728c-.233-.029-.473-.061-.712-.089-.519-.061-1.039-.122-1.558-.177a.286.286,0,0,1-.277-.211.289.289,0,0,1,.139-.337c.375-.252.74-.522,1.125-.757a1.28,1.28,0,0,0,.583-.935,3.347,3.347,0,0,0,.036-.337.282.282,0,0,1,.3-.288c.213,0,.427,0,.653,0V41.1c-.47-.072-.943-.147-1.418-.215a.286.286,0,0,1-.281-.249.3.3,0,0,1,.2-.324c.393-.2.79-.387,1.177-.594a2.548,2.548,0,0,0,.467-.324.591.591,0,0,0,.152-.271.293.293,0,0,1,.3-.246H15.6c.3,0,.322.034.4.328a.55.55,0,0,0,.208.277c.348.238.708.459,1.064.684a1.313,1.313,0,0,1,.285.18.433.433,0,0,1,.131.3.356.356,0,0,1-.228.227c-.4.091-.8.152-1.208.222-.175.031-.35.058-.537.088V42.6c.222,0,.441,0,.659,0a.3.3,0,0,1,.329.316,3.965,3.965,0,0,0,.078.581,1.145,1.145,0,0,0,.433.676c.29.218.566.455.846.686.077.064.144.139.215.209Zm-2.136-2.1H2.444a2.137,2.137,0,0,1-1.3,1.778,1.508,1.508,0,0,0,.32.059c.65.054,1.3.149,1.951.152,3.6.015,7.2.008,10.8.006a13.292,13.292,0,0,0,2.365-.1c.222-.04.447-.063.671-.094l.025-.046a2.088,2.088,0,0,1-1.121-1.751m1.272,8.3H1.159V52.6h16.26Zm-15.409-.6H16.556V49.761H2.01Zm.383-10.41c.529.041,1.018.112,1.506.113q5.764.014,11.529,0a10.844,10.844,0,0,0,1.14-.118c0-.016,0-.032,0-.048a3.085,3.085,0,0,1-.357-.224,5.106,5.106,0,0,1-.655-.593.361.361,0,0,0-.314-.159q-5.684.005-11.368,0a.3.3,0,0,0-.314.158.935.935,0,0,1-.275.3c-.272.189-.558.358-.9.573m5.323,8.7V46.409c0-.3.084-.378.384-.378h2.392c.275,0,.365.09.365.36q0,1.3,0,2.594v.185h.572v-.2q0-1.288,0-2.576c0-.272.09-.361.365-.361h2.7c.281,0,.367.088.368.376V49.17h.56V45.758H3.153v3.411h.563V46.407c0-.288.086-.376.368-.376h2.7c.274,0,.364.09.364.362q0,1.3,0,2.594v.189Zm-4.27-8.007v1.415h.271c0-.275,0-.536,0-.8,0-.236.1-.333.338-.333q1.374,0,2.749,0c.245,0,.339.1.34.35s0,.521,0,.782h.572c0-.28,0-.548,0-.815a.279.279,0,0,1,.319-.316q1.249,0,2.5,0c.223,0,.321.1.323.331,0,.266,0,.532,0,.8h.572c0-.28,0-.547,0-.815a.28.28,0,0,1,.318-.318q1.392,0,2.785,0c.224,0,.322.1.324.329,0,.267,0,.533,0,.8h.272V41.169Zm4.852,8h1.975V46.607H8.3Zm-1.732-7.13H4.3v.55H6.565ZM12,42.585h2.268v-.546H12ZM4.295,49.17h.839v-1.41H4.295Zm1.432,0h.833V47.752H5.726Zm7.123-1.409h-.838v1.409h.838Zm1.424,0h-.835v1.409h.835ZM8.3,42.585h1.976v-.553H8.3ZM5.136,46.613H4.3v.55h.837Zm.588.551h.835v-.553H5.724Zm7.121-.547h-.835v.551h.835Zm.591.549h.838v-.55h-.838Z" transform="translate(0.101 -38.776)" fill="#0e83a4" stroke="#0e83a4" stroke-width="0.2"/>
</svg>
