<svg xmlns="http://www.w3.org/2000/svg" width="26.405" height="25.233" viewBox="0 0 26.405 25.233">
  <path id="Tracciato_1920" data-name="Tracciato 1920" d="M4.033,99.8c.061-.278.111-.559.184-.833a6.2,6.2,0,0,1,1.686-2.8q7.021-7.019,14.035-14.044c.421-.422,1.026-.26,1.1.216a1.137,1.137,0,0,1-.128.537c-.034.087-.134.149-.206.22q-6.948,6.949-13.9,13.9a4.9,4.9,0,0,0-1.463,2.543A4.6,4.6,0,0,0,6.456,103.5,4.947,4.947,0,0,0,9.8,105.346a4.214,4.214,0,0,0,3.339-1.077c.69-.6,1.326-1.271,1.976-1.92,4.139-4.136,8.264-8.285,12.417-12.407a3.568,3.568,0,0,0-.556-5.706,3.4,3.4,0,0,0-4.491.421q-4.428,4.425-8.854,8.852a2.471,2.471,0,0,0-.855,1.843,2.74,2.74,0,0,0,2.159,2.476,2.225,2.225,0,0,0,1.776-.463,4.616,4.616,0,0,0,.451-.405q3.8-3.8,7.6-7.6a.662.662,0,0,1,.737-.248.6.6,0,0,1,.283.949,1.775,1.775,0,0,1-.155.166q-3.845,3.846-7.69,7.692a3.614,3.614,0,0,1-2.7,1.167,3.942,3.942,0,0,1-3.671-3.452,3.493,3.493,0,0,1,.931-2.71c.089-.1.185-.2.281-.292Q17.2,88.2,21.632,83.778a4.61,4.61,0,0,1,3.375-1.424,5.172,5.172,0,0,1,4.883,4.326,4.523,4.523,0,0,1-1.349,3.961Q21.52,97.7,14.471,104.722a6.007,6.007,0,0,1-3.291,1.8,5.668,5.668,0,0,1-4.27-.979A6.315,6.315,0,0,1,4.078,101.1a.335.335,0,0,0-.045-.089Z" transform="translate(-3.783 -81.621)" fill="#0e83a4" stroke="#0e83a4" stroke-width="0.5"/>
</svg>
