<svg xmlns="http://www.w3.org/2000/svg" xmlns:xlink="http://www.w3.org/1999/xlink" width="28.684" height="37.43" viewBox="0 0 28.684 37.43">
  <defs>
    <clipPath id="clip-path">
      <rect id="Rettangolo_490" data-name="Rettangolo 490" width="28.684" height="37.43" fill="#b68a47"/>
    </clipPath>
  </defs>
  <g id="Raggruppa_620" data-name="Raggruppa 620" transform="translate(0)">
    <g id="Raggruppa_616" data-name="Raggruppa 616" transform="translate(0)" clip-path="url(#clip-path)">
      <path id="Tracciato_643" data-name="Tracciato 643" d="M24.943,34.929c0,.622.03,1.182-.014,1.737a1.083,1.083,0,0,1-.315.653c-.227.21-.511.088-.751-.076a9.413,9.413,0,0,1-.932-.636.648.648,0,0,0-.974.012,5.07,5.07,0,0,1-.974.64.846.846,0,0,1-.672.064.892.892,0,0,1-.341-.625c-.047-.567-.016-1.14-.016-1.769H19.49q-7.831,0-15.662,0A3.725,3.725,0,0,1,.033,31.655,4.4,4.4,0,0,1,0,30.995Q0,17.784,0,4.573A4.371,4.371,0,0,1,4.586,0Q16.177,0,27.768,0c.743,0,.916.174.916.916q0,16.543,0,33.086c0,.76-.169.926-.945.926h-2.8m2.466-7.485V1.248H4.585A3.125,3.125,0,0,0,1.248,4.586q0,11.675,0,23.35v.468A4.689,4.689,0,0,1,4.7,27.436q11.107.023,22.214.008Zm.013,1.247H6.617c-.961,0-1.923-.008-2.884,0a2.384,2.384,0,0,0-1.957.959,2.363,2.363,0,0,0-.276,2.6,2.385,2.385,0,0,0,2.281,1.42q7.93.011,15.86,0c.1,0,.2-.017.295-.027V31.81H14c-2.325,0-8.489.009-10.814.008-.5,0-.781-.223-.79-.609s.283-.633.8-.637h.273l23.478-.008h.469ZM23.672,35.7V31.837h-2.44v3.856a1.415,1.415,0,0,1,2.44.009m1.3-2.051h2.447V31.828H24.97Z" transform="translate(0 0)" fill="#b68a47"/>
      <path id="Tracciato_644" data-name="Tracciato 644" d="M73.687,80.285c-.184.171-.341.412-.558.5a.55.55,0,0,1-.719-.367c-.257-.6-.512-1.191-.746-1.8a.407.407,0,0,0-.457-.3q-1.344.024-2.688,0a.405.405,0,0,0-.447.315c-.22.568-.46,1.129-.7,1.689-.183.427-.506.59-.853.445a.634.634,0,0,1-.3-.913q1.514-3.646,3.035-7.29a.639.639,0,0,1,1.237.012q1.516,3.645,3.035,7.289a3.356,3.356,0,0,1,.1.332Zm-2.681-3.223-1.138-2.727-1.133,2.727Z" transform="translate(-59.269 -64.601)" fill="#b68a47"/>
      <path id="Tracciato_645" data-name="Tracciato 645" d="M181.9,79.51h2.692c.376,0,.754-.012,1.129.007a.61.61,0,0,1,.6.6.6.6,0,0,1-.6.635c-1.675.011-3.35.016-5.025,0a.6.6,0,0,1-.512-.929c.143-.261.324-.5.489-.749l3.606-5.409c.07-.106.135-.215.23-.367-.149-.008-.258-.02-.367-.02-1.091,0-2.181,0-3.272,0-.491,0-.776-.234-.776-.623s.284-.622.776-.623c1.545,0,3.09,0,4.635,0a.737.737,0,0,1,.738.327c.177.312.031.568-.141.827q-1.979,2.962-3.952,5.928c-.077.115-.145.236-.248.405" transform="translate(-161.385 -64.54)" fill="#b68a47"/>
      <path id="Tracciato_646" data-name="Tracciato 646" d="M35.987,65.9q0-5.266,0-10.532a4.1,4.1,0,0,1,.01-.528c.06-.457.268-.731.613-.731s.552.276.614.731a4.02,4.02,0,0,1,.01.528q0,10.584,0,21.169c0,.053,0,.106,0,.159,0,.714-.226,1.108-.624,1.109s-.623-.39-.623-1.108q0-5.4,0-10.8" transform="translate(-32.245 -51.613)" fill="#b68a47"/>
      <path id="Tracciato_647" data-name="Tracciato 647" d="M145.639,108.042c.312,0,.624-.012.935,0a.619.619,0,1,1,0,1.237q-.934.022-1.87,0a.608.608,0,0,1-.62-.619.624.624,0,0,1,.621-.621c.026,0,.052,0,.078,0h.857Z" transform="translate(-129.114 -96.813)" fill="#b68a47"/>
    </g>
  </g>
</svg>
