<?xml version="1.0" encoding="UTF-8"?><svg id="Livello_2" xmlns="http://www.w3.org/2000/svg" viewBox="0 0 787.49 224.28"><defs><style>.cls-1{fill:#fff;}</style></defs><g id="Livello_1-2"><path class="cls-1" d="m458.98,178.35l-1.57,6.55c-.7-.26-1.44-.49-2.23-.69-.79-.2-1.58-.35-2.39-.46-.81-.11-1.61-.2-2.42-.26-.81-.07-1.58-.1-2.32-.1-2.18,0-3.87.42-5.07,1.28-1.2.85-1.8,2.11-1.8,3.77,0,.96.2,1.82.59,2.58.39.76.97,1.48,1.73,2.16.76.68,1.71,1.34,2.85,2,1.13.65,2.44,1.33,3.93,2.03,1.61.79,3.05,1.61,4.32,2.49,1.27.87,2.35,1.86,3.24,2.95.89,1.09,1.57,2.32,2.03,3.7.46,1.37.69,2.96.69,4.74,0,2.58-.59,4.79-1.77,6.64-1.18,1.86-2.92,3.28-5.24,4.29-2.31,1-5.13,1.51-8.44,1.51-1.05,0-2.13-.06-3.24-.16-1.11-.11-2.24-.26-3.37-.46-1.14-.2-2.24-.45-3.31-.75-1.07-.3-2.08-.66-3.04-1.05l1.64-6.55c.92.35,1.87.66,2.85.92.98.26,1.96.48,2.95.66s1.95.31,2.91.39c.96.09,1.88.13,2.75.13,1.53,0,2.84-.19,3.93-.56,1.09-.37,1.93-.94,2.52-1.7.59-.76.88-1.71.88-2.85,0-.96-.24-1.82-.72-2.59-.48-.76-1.16-1.48-2.03-2.16-.87-.67-1.94-1.37-3.21-2.09-1.27-.72-2.71-1.47-4.32-2.26-1.44-.79-2.73-1.64-3.86-2.55-1.14-.92-2.09-1.93-2.88-3.04s-1.4-2.35-1.83-3.7c-.44-1.35-.66-2.86-.66-4.52s.28-3.28.85-4.75c.57-1.46,1.44-2.76,2.62-3.89,1.18-1.13,2.68-2.02,4.52-2.65,1.83-.63,4.04-.95,6.61-.95,1.4,0,2.81.09,4.25.26s2.78.42,4.03.72c1.24.31,2.26.63,3.04.98Z"/><path class="cls-1" d="m469.85,205.12c0-3.01.21-5.66.62-7.95.41-2.29,1.12-4.2,2.13-5.73,1-1.53,2.37-2.69,4.09-3.47,1.72-.78,3.87-1.18,6.45-1.18s4.71.39,6.41,1.18c1.7.78,3.05,1.94,4.06,3.47,1,1.53,1.72,3.44,2.16,5.73.44,2.29.66,4.94.66,7.95s-.23,5.67-.69,7.99-1.19,4.23-2.19,5.76c-1,1.53-2.37,2.69-4.09,3.47-1.72.78-3.83,1.18-6.32,1.18s-4.65-.39-6.35-1.18c-1.7-.78-3.07-1.94-4.09-3.47-1.03-1.53-1.76-3.45-2.19-5.76-.44-2.31-.66-4.97-.66-7.99Zm8.05,0c0,3.14.17,5.56.52,7.27.35,1.7.91,2.88,1.67,3.53.76.66,1.78.98,3.04.98s2.21-.33,2.98-.98c.76-.66,1.32-1.83,1.67-3.53.35-1.7.52-4.12.52-7.27s-.16-5.55-.49-7.23c-.33-1.68-.87-2.85-1.64-3.5-.76-.65-1.78-.98-3.04-.98s-2.35.33-3.11.98c-.76.66-1.31,1.82-1.64,3.5-.33,1.68-.49,4.09-.49,7.23Z"/><path class="cls-1" d="m532.36,214.94c-.13,0-.27.01-.43.03-.15.02-.29.03-.42.03-.57,0-1.18-.17-1.83-.52-.65-.35-1.47-1.05-2.45-2.09s-2.3-2.62-3.96-4.71l-1.41-1.81c.67-.84,1.34-1.7,2-2.61,1.18-1.59,2.3-3.25,3.37-4.97,1.07-1.72,2-3.5,2.78-5.33.78-1.83,1.37-3.67,1.77-5.5l-7.79-.59c-.31,1.79-.74,3.42-1.31,4.91-.57,1.48-1.26,2.89-2.06,4.22-.81,1.33-1.71,2.63-2.72,3.89-.12.15-.24.29-.36.44l-2.85-3.65v-22.26h-7.46v48.44h7.46v-14.47l6.61,8.31c1.13,1.44,2.12,2.61,2.95,3.5.83.89,1.57,1.57,2.23,2.03.65.46,1.29.78,1.9.95.61.17,1.24.26,1.9.26.44,0,.83-.02,1.18-.06.35-.04.68-.11.98-.2l-.07-8.25Z"/><path class="cls-1" d="m540.73,213.7c0-2.05.35-3.75,1.05-5.11.7-1.35,1.74-2.44,3.14-3.27,1.4-.83,3.12-1.49,5.17-2,2.05-.5,4.43-.91,7.13-1.21v-3.73c0-1.44-.48-2.52-1.44-3.24-.96-.72-2.27-1.08-3.93-1.08-.66,0-1.4.03-2.23.1-.83.06-1.73.2-2.68.39-.96.2-1.99.47-3.08.82l-1.51-6.74c1.61-.57,3.34-1.02,5.17-1.34s3.49-.49,4.97-.49c2.97,0,5.37.44,7.2,1.31,1.83.87,3.17,2.16,4.03,3.86.85,1.7,1.28,3.8,1.28,6.28v15.38c0,1,.13,1.67.39,2s.59.49.98.49c.22,0,.46-.02.72-.06s.52-.11.79-.2l.65,6.35c-.65.35-1.39.66-2.19.92-.81.26-1.73.39-2.78.39-1.53,0-2.75-.31-3.67-.92-.92-.61-1.59-1.51-2.03-2.69-.83.7-1.68,1.32-2.55,1.87-.87.55-1.82.97-2.85,1.28-1.03.3-2.19.46-3.5.46s-2.48-.24-3.5-.72c-1.03-.48-1.89-1.15-2.59-2-.7-.85-1.23-1.88-1.6-3.08s-.56-2.54-.56-4.03Zm7.85-.65c0,1.57.29,2.73.88,3.47.59.74,1.38,1.11,2.39,1.11.65,0,1.31-.11,1.96-.33.65-.22,1.28-.51,1.87-.88s1.1-.8,1.54-1.28v-8.11c-1.31.17-2.49.37-3.53.59-1.05.22-1.96.55-2.75.98-.78.44-1.37,1.02-1.77,1.73-.39.72-.59,1.63-.59,2.72Z"/><path class="cls-1" d="m597.16,200.48c0-5.54.61-10.08,1.83-13.61,1.22-3.53,3.06-6.16,5.53-7.89,2.46-1.72,5.57-2.58,9.33-2.58.96,0,1.92.03,2.88.1.96.06,1.89.17,2.78.33.89.15,1.77.33,2.62.52.85.2,1.64.42,2.39.69l-1.44,6.87c-1.35-.39-2.77-.7-4.25-.92-1.48-.22-2.88-.33-4.19-.33-2.18,0-3.97.59-5.37,1.77-1.4,1.18-2.43,3.02-3.11,5.53-.68,2.51-1.02,5.79-1.02,9.85,0,3.8.3,6.85.88,9.16.59,2.31,1.48,4,2.68,5.07,1.2,1.07,2.72,1.6,4.55,1.6,1.05,0,2.02-.06,2.91-.2.89-.13,1.67-.31,2.32-.52v-11.13h-6.15v-6.81h13.42v22.78c-1.75.92-3.72,1.6-5.92,2.06-2.2.46-4.61.69-7.23.69-3.49,0-6.37-.83-8.64-2.49-2.27-1.66-3.97-4.19-5.11-7.59-1.13-3.4-1.7-7.72-1.7-12.96Z"/><path class="cls-1" d="m635.77,213.7c0-2.05.35-3.75,1.05-5.11.7-1.35,1.75-2.44,3.14-3.27,1.4-.83,3.12-1.49,5.17-2,2.05-.5,4.43-.91,7.14-1.21v-3.73c0-1.44-.48-2.52-1.44-3.24-.96-.72-2.27-1.08-3.93-1.08-.65,0-1.4.03-2.22.1-.83.06-1.72.2-2.68.39-.96.2-1.99.47-3.08.82l-1.5-6.74c1.61-.57,3.34-1.02,5.17-1.34,1.83-.33,3.49-.49,4.97-.49,2.97,0,5.37.44,7.2,1.31,1.83.87,3.17,2.16,4.02,3.86.85,1.7,1.28,3.8,1.28,6.28v15.38c0,1,.13,1.67.39,2,.26.33.59.49.98.49.22,0,.46-.02.72-.06.26-.04.52-.11.78-.2l.66,6.35c-.66.35-1.39.66-2.19.92-.81.26-1.73.39-2.78.39-1.53,0-2.75-.31-3.67-.92-.92-.61-1.59-1.51-2.03-2.69-.83.7-1.68,1.32-2.55,1.87s-1.82.97-2.85,1.28c-1.03.3-2.19.46-3.5.46s-2.48-.24-3.5-.72c-1.03-.48-1.89-1.15-2.59-2-.7-.85-1.23-1.88-1.6-3.08s-.56-2.54-.56-4.03Zm7.86-.65c0,1.57.3,2.73.88,3.47.59.74,1.38,1.11,2.39,1.11.66,0,1.31-.11,1.96-.33.66-.22,1.28-.51,1.87-.88s1.1-.8,1.54-1.28v-8.11c-1.31.17-2.49.37-3.53.59-1.05.22-1.96.55-2.75.98-.78.44-1.37,1.02-1.77,1.73s-.59,1.63-.59,2.72Z"/><path class="cls-1" d="m698.09,214.94c-.13,0-.27.01-.42.03-.15.02-.3.03-.43.03-.57,0-1.18-.17-1.83-.52-.66-.35-1.47-1.05-2.45-2.09-.98-1.05-2.3-2.62-3.96-4.71l-1.41-1.81c.67-.84,1.33-1.7,2-2.61,1.18-1.59,2.3-3.25,3.37-4.97,1.07-1.72,2-3.5,2.78-5.33.78-1.83,1.38-3.67,1.77-5.5l-7.79-.59c-.31,1.79-.74,3.42-1.31,4.91-.57,1.48-1.25,2.89-2.06,4.22-.81,1.33-1.71,2.63-2.72,3.89-.12.15-.24.29-.36.44l-2.85-3.65v-22.26h-7.46v48.44h7.46v-14.47l6.61,8.31c1.13,1.44,2.11,2.61,2.94,3.5.83.89,1.57,1.57,2.23,2.03.66.46,1.29.78,1.9.95.61.17,1.24.26,1.9.26.44,0,.83-.02,1.18-.06.35-.04.68-.11.98-.2l-.06-8.25Z"/><path class="cls-1" d="m732.91,214.94c-.13,0-.27.01-.42.03-.15.02-.3.03-.43.03-.57,0-1.18-.17-1.83-.52-.66-.35-1.47-1.05-2.45-2.09-.98-1.05-2.3-2.62-3.96-4.71l-1.41-1.81c.67-.84,1.33-1.7,2-2.61,1.18-1.59,2.3-3.25,3.37-4.97,1.07-1.72,2-3.5,2.78-5.33.78-1.83,1.38-3.67,1.77-5.5l-7.79-.59c-.31,1.79-.74,3.42-1.31,4.91-.57,1.48-1.25,2.89-2.06,4.22-.81,1.33-1.71,2.63-2.72,3.89-.12.15-.24.29-.36.44l-2.85-3.65v-22.26h-7.46v48.44h7.46v-14.47l6.61,8.31c1.13,1.44,2.11,2.61,2.94,3.5.83.89,1.57,1.57,2.23,2.03.66.46,1.29.78,1.9.95.61.17,1.24.26,1.9.26.44,0,.83-.02,1.18-.06.35-.04.68-.11.98-.2l-.06-8.25Z"/><path class="cls-1" d="m741.29,213.7c0-2.05.35-3.75,1.05-5.11.7-1.35,1.75-2.44,3.14-3.27,1.4-.83,3.12-1.49,5.17-2,2.05-.5,4.43-.91,7.14-1.21v-3.73c0-1.44-.48-2.52-1.44-3.24-.96-.72-2.27-1.08-3.93-1.08-.65,0-1.4.03-2.22.1-.83.06-1.72.2-2.68.39-.96.2-1.99.47-3.08.82l-1.5-6.74c1.61-.57,3.34-1.02,5.17-1.34s3.49-.49,4.97-.49c2.97,0,5.37.44,7.2,1.31,1.83.87,3.17,2.16,4.02,3.86.85,1.7,1.28,3.8,1.28,6.28v15.38c0,1,.13,1.67.39,2,.26.33.59.49.98.49.22,0,.46-.02.72-.06.26-.04.52-.11.78-.2l.66,6.35c-.66.35-1.39.66-2.19.92-.81.26-1.73.39-2.78.39-1.53,0-2.75-.31-3.67-.92-.92-.61-1.59-1.51-2.03-2.69-.83.7-1.68,1.32-2.55,1.87s-1.82.97-2.85,1.28c-1.03.3-2.19.46-3.5.46s-2.48-.24-3.5-.72c-1.03-.48-1.89-1.15-2.58-2-.7-.85-1.23-1.88-1.6-3.08-.37-1.2-.56-2.54-.56-4.03Zm7.85-.65c0,1.57.3,2.73.88,3.47.59.74,1.38,1.11,2.39,1.11.66,0,1.31-.11,1.96-.33.66-.22,1.28-.51,1.87-.88s1.1-.8,1.54-1.28v-8.11c-1.31.17-2.49.37-3.53.59-1.05.22-1.96.55-2.75.98-.78.44-1.37,1.02-1.77,1.73s-.59,1.63-.59,2.72Z"/><path class="cls-1" d="m782.39,182.41c-1.57,0-2.73-.35-3.47-1.05-.74-.7-1.11-1.83-1.11-3.41s.37-2.7,1.11-3.4c.74-.7,1.9-1.05,3.47-1.05s2.78.35,3.5,1.05c.72.7,1.08,1.83,1.08,3.4s-.36,2.71-1.08,3.41-1.89,1.05-3.5,1.05Zm-3.93,40.45v-35.41h7.79v35.41h-7.79Z"/><path class="cls-1" d="m383.32,172.48c-4.44,0-7.89,3.21-7.66,7.41-2.78.98-4.87,5.09-2.51,8.32-1.56,1.56-1.96,4.82.81,6.35-.48-1.67-.79-3.38-.79-5.2,0-7.28,4.13-13.69,10.14-16.9h0Z"/><path class="cls-1" d="m383.32,172.48c4.44,0,7.89,3.21,7.66,7.41,2.78.98,4.87,5.09,2.51,8.32,1.56,1.56,1.96,4.82-.81,6.35.48-1.67.79-3.38.79-5.2,0-7.28-4.13-13.69-10.14-16.9h0Z"/><path class="cls-1" d="m365,180.06c-3.14,3.14-3.31,7.85-.17,10.66-1.28,2.66.15,7.05,4.11,7.66,0,2.21,2.02,4.79,5.07,3.92-1.51-.84-2.95-1.83-4.23-3.12-5.15-5.15-6.76-12.6-4.78-19.12h0Z"/><path class="cls-1" d="m365,180.06c3.14-3.14,7.85-3.31,10.66-.17,2.66-1.28,7.05.16,7.66,4.11,2.21,0,4.79,2.02,3.92,5.07-.84-1.51-1.83-2.95-3.12-4.23-5.15-5.15-12.6-6.76-19.12-4.78h0Z"/><path class="cls-1" d="m357.41,198.38c0,4.44,3.21,7.89,7.41,7.66.98,2.78,5.09,4.87,8.32,2.51,1.56,1.56,4.82,1.96,6.35-.81-1.67.48-3.38.79-5.2.79-7.28,0-13.69-4.13-16.9-10.14h0Z"/><path class="cls-1" d="m357.41,198.38c0-4.44,3.21-7.89,7.41-7.66.98-2.78,5.09-4.87,8.32-2.51,1.56-1.56,4.82-1.96,6.35.81-1.67-.48-3.38-.79-5.2-.79-7.28,0-13.69,4.13-16.9,10.14h0Z"/><path class="cls-1" d="m365,216.69c3.14,3.14,7.85,3.31,10.66.17,2.66,1.28,7.05-.15,7.66-4.11,2.21,0,4.79-2.02,3.92-5.07-.84,1.51-1.83,2.95-3.12,4.23-5.15,5.15-12.6,6.76-19.12,4.78h0Z"/><path class="cls-1" d="m365,216.69c-3.14-3.14-3.31-7.85-.17-10.66-1.28-2.66.15-7.05,4.11-7.66,0-2.21,2.02-4.79,5.07-3.92-1.51.84-2.95,1.83-4.23,3.12-5.15,5.15-6.76,12.6-4.78,19.12h0Z"/><path class="cls-1" d="m383.32,224.28c4.44,0,7.89-3.21,7.66-7.41,2.78-.98,4.87-5.09,2.51-8.32,1.56-1.56,1.96-4.82-.81-6.35.48,1.67.79,3.38.79,5.2,0,7.29-4.13,13.69-10.14,16.9h0Z"/><path class="cls-1" d="m383.32,224.28c-4.44,0-7.89-3.21-7.66-7.41-2.78-.98-4.87-5.09-2.51-8.32-1.56-1.56-1.96-4.82.81-6.35-.48,1.67-.79,3.38-.79,5.2,0,7.29,4.13,13.69,10.14,16.9h0Z"/><path class="cls-1" d="m401.63,216.69c3.14-3.14,3.31-7.85.17-10.66,1.28-2.66-.15-7.05-4.11-7.66,0-2.21-2.02-4.79-5.07-3.92,1.51.84,2.95,1.83,4.23,3.12,5.15,5.15,6.76,12.6,4.78,19.12h0Z"/><path class="cls-1" d="m401.63,216.69c-3.13,3.14-7.85,3.31-10.66.17-2.66,1.28-7.05-.15-7.66-4.11-2.21,0-4.79-2.02-3.92-5.07.84,1.51,1.83,2.95,3.12,4.23,5.15,5.15,12.6,6.76,19.12,4.78h0Z"/><path class="cls-1" d="m409.22,198.38c0-4.44-3.21-7.89-7.42-7.66-.98-2.78-5.09-4.87-8.32-2.51-1.56-1.56-4.82-1.96-6.35.81,1.67-.48,3.38-.79,5.2-.79,7.28,0,13.69,4.13,16.9,10.14h0Z"/><path class="cls-1" d="m409.22,198.38c0,4.44-3.21,7.89-7.42,7.66-.98,2.78-5.09,4.87-8.32,2.51-1.56,1.56-4.82,1.96-6.35-.81,1.67.48,3.38.79,5.2.79,7.28,0,13.69-4.13,16.9-10.14h0Z"/><path class="cls-1" d="m401.63,180.06c-3.13-3.14-7.85-3.31-10.66-.17-2.66-1.28-7.05.16-7.66,4.11-2.21,0-4.79,2.02-3.92,5.07.84-1.51,1.83-2.95,3.12-4.23,5.15-5.15,12.6-6.76,19.12-4.78h0Z"/><path class="cls-1" d="m401.63,180.06c3.14,3.14,3.31,7.85.17,10.66,1.28,2.66-.15,7.05-4.11,7.66,0,2.21-2.02,4.79-5.07,3.92,1.51-.84,2.95-1.83,4.23-3.12,5.15-5.15,6.76-12.6,4.78-19.12h0Z"/><path class="cls-1" d="m423.72,160.79v-89.61h15.49v89.61h-15.49Z"/><path class="cls-1" d="m448.55,117.14c0-11.44,1.22-20.61,3.65-27.52,2.43-6.91,6.08-11.93,10.95-15.04,4.86-3.11,10.97-4.67,18.31-4.67,1.96,0,3.82.06,5.57.19,1.75.13,3.41.32,4.99.58,1.58.26,3.11.57,4.61.96,1.49.38,2.96.83,4.42,1.34l-3.07,13.31c-1.79-.51-3.5-.92-5.12-1.22-1.62-.3-3.22-.51-4.8-.64-1.58-.13-3.18-.19-4.8-.19-3.24,0-6.06.51-8.45,1.54-2.39,1.02-4.35,2.8-5.89,5.31-1.54,2.52-2.69,5.91-3.46,10.18-.77,4.27-1.15,9.6-1.15,16,0,5.89.38,10.8,1.15,14.72.77,3.93,1.92,7.04,3.46,9.35,1.54,2.3,3.46,3.97,5.76,4.99,2.3,1.03,5.03,1.54,8.19,1.54,2.56,0,5.33-.21,8.32-.64,2.99-.43,5.63-1.02,7.94-1.79l2.69,13.31c-1.45.51-2.99.98-4.61,1.41-1.62.43-3.33.79-5.12,1.09-1.79.3-3.69.51-5.7.64-2.01.13-4.08.19-6.21.19-5.21,0-9.79-.79-13.76-2.37-3.97-1.58-7.28-4.1-9.92-7.55-2.65-3.46-4.63-8.07-5.95-13.83-1.32-5.76-1.98-12.82-1.98-21.19Z"/><path class="cls-1" d="m578.74,160.79v-89.61h15.49v89.61h-15.49Z"/><path class="cls-1" d="m661.05,162.07c-1.96,0-3.84-.28-5.63-.83-1.79-.55-3.58-1.52-5.38-2.88-1.79-1.36-3.61-3.28-5.44-5.76-1.84-2.47-3.8-5.63-5.89-9.47-2.09-3.84-4.33-8.53-6.72-14.08-.43.09-1.05.15-1.86.19-.81.04-1.43.06-1.86.06h-3.33c-1.2,0-2.26-.04-3.2-.13v31.62h-15.62v-89.74c3.33-.26,6.42-.47,9.28-.64,2.86-.17,5.61-.3,8.26-.38,2.64-.08,5.25-.13,7.81-.13,5.21,0,9.68.51,13.44,1.54,3.75,1.03,6.83,2.62,9.22,4.8,2.39,2.18,4.18,4.99,5.38,8.45,1.19,3.46,1.79,7.62,1.79,12.48s-.58,9.11-1.73,12.74c-1.15,3.63-2.82,6.66-4.99,9.09-2.18,2.43-4.84,4.29-8,5.57,1.88,4.18,3.65,7.64,5.31,10.37,1.66,2.73,3.16,4.89,4.48,6.46,1.32,1.58,2.58,2.69,3.78,3.33,1.19.64,2.35.96,3.46.96.17,0,.45-.02.83-.06.38-.04.66-.06.83-.06l.26,16c-.51.08-1.13.19-1.85.32-.73.13-1.6.19-2.62.19Zm-30.34-45.96c2.47,0,4.63-.32,6.47-.96,1.83-.64,3.37-1.62,4.61-2.94,1.24-1.32,2.13-3.05,2.69-5.19.55-2.13.83-4.65.83-7.55,0-3.84-.41-6.93-1.22-9.28-.81-2.35-2.22-4.08-4.22-5.19-2.01-1.11-4.8-1.66-8.38-1.66h-2.37c-.73,0-1.45.02-2.18.06-.73.04-1.52.11-2.37.19-.85.09-1.79.17-2.82.26v32c.85,0,1.64.02,2.37.06.72.04,1.45.09,2.18.13.73.04,1.45.06,2.18.06h2.24Z"/><path class="cls-1" d="m398.36,71.18v65.22c-10.7-7.63-18.44-18.61-23.09-32.8-1.74-5.31-2.79-10.36-3.42-14.64v-17.79h-15.49v89.61h15.49v-31.92c6.81,10.22,15.74,18.37,26.51,24.12v7.8h15.49v-89.61h-15.49Z"/><path class="cls-1" d="m551.53,71.18v15.34c-1.33,11.15-6.38,25.2-25.68,36.79v-52.13h-15.49v89.61h15.49v-21.37c11.55-5.72,19.8-12.3,25.68-19.07v40.44h15.49v-89.61h-15.49Z"/><path class="cls-1" d="m772,71.18v64.19c-18.16-15.37-24.45-40.35-26.51-52.55v-11.64h-15.49v89.61h15.49v-35.48c6.09,10.39,14.61,20.34,26.51,27.42v8.06h15.49v-89.61h-15.49Z"/><path class="cls-1" d="m688.57,146.33v-22.11c8.55-7.31,14.09-8.89,20.77-9.03l-.29-14.16c-7.49.15-13.91,1.88-20.48,5.74v-20.87h31.36v-14.72h-46.98v89.61h48.77v-14.47h-33.16Z"/><path class="cls-1" d="m356.07,51.33V2.53h8.5v40.92h16.1v7.88h-24.61Z"/><path class="cls-1" d="m382.63,51.33l11.43-49.15h10.81l11.64,49.15h-8.99l-2.3-10.46h-11.64l-2.3,10.46h-8.64Zm12.2-18.33h9.13l-4.53-23.63-4.6,23.63Z"/><path class="cls-1" d="m434.35,51.26V2.67c1.95-.19,3.74-.34,5.37-.45,1.63-.12,3.12-.21,4.5-.28,1.37-.07,2.66-.1,3.87-.1,3.44,0,6.23.42,8.37,1.26,2.14.84,3.71,2.14,4.7,3.9,1,1.77,1.5,4.07,1.5,6.9,0,2.6-.5,4.86-1.5,6.76-1,1.91-2.45,3.32-4.36,4.25v.14c2.46.88,4.38,2.41,5.75,4.57,1.37,2.16,2.06,4.77,2.06,7.84,0,2.56-.31,4.75-.94,6.59-.63,1.84-1.58,3.33-2.86,4.5-1.28,1.16-2.96,2.03-5.05,2.61-2.09.58-4.6.87-7.53.87-1.02,0-1.94-.01-2.75-.04-.81-.02-1.57-.05-2.27-.07-.7-.02-1.45-.07-2.27-.14-.81-.07-1.74-.15-2.79-.24-1.05-.09-2.31-.19-3.8-.28Zm8.5-27.88h6.69c1.12,0,2.07-.29,2.86-.87.79-.58,1.39-1.41,1.81-2.48.42-1.07.63-2.3.63-3.69,0-1.63-.23-2.96-.7-4.01-.47-1.05-1.2-1.82-2.2-2.34-1-.51-2.34-.77-4.01-.77h-1.01c-.3,0-.6.01-.91.04-.3.02-.6.05-.91.07-.3.02-.63.06-.98.1-.35.05-.78.09-1.29.14v13.8Zm0,20.91c.65.05,1.22.09,1.71.14.49.05.93.08,1.32.1.39.02.77.05,1.12.07s.69.03,1.01.03c2,0,3.59-.25,4.78-.77,1.18-.51,2.02-1.32,2.51-2.44s.73-2.56.73-4.32c0-2.28-.53-4.02-1.6-5.23-1.07-1.21-2.7-1.81-4.88-1.81h-6.69v14.22Z"/><path class="cls-1" d="m469.28,51.33V2.53h8.43v48.8h-8.43Z"/><path class="cls-1" d="m484.2,51.26V2.67c1.95-.19,3.74-.34,5.37-.45,1.63-.12,3.12-.21,4.5-.28,1.37-.07,2.66-.1,3.87-.1,3.44,0,6.23.42,8.37,1.26,2.14.84,3.71,2.14,4.7,3.9,1,1.77,1.5,4.07,1.5,6.9,0,2.6-.5,4.86-1.5,6.76-1,1.91-2.45,3.32-4.36,4.25v.14c2.46.88,4.38,2.41,5.75,4.57,1.37,2.16,2.06,4.77,2.06,7.84,0,2.56-.31,4.75-.94,6.59-.63,1.84-1.58,3.33-2.86,4.5-1.28,1.16-2.96,2.03-5.05,2.61-2.09.58-4.6.87-7.53.87-1.02,0-1.94-.01-2.75-.04-.81-.02-1.57-.05-2.27-.07-.7-.02-1.45-.07-2.27-.14-.81-.07-1.74-.15-2.79-.24-1.05-.09-2.31-.19-3.8-.28Zm8.5-27.88h6.69c1.12,0,2.07-.29,2.86-.87.79-.58,1.39-1.41,1.81-2.48.42-1.07.63-2.3.63-3.69,0-1.63-.23-2.96-.7-4.01-.47-1.05-1.2-1.82-2.2-2.34-1-.51-2.34-.77-4.01-.77h-1.01c-.3,0-.6.01-.91.04-.3.02-.6.05-.91.07-.3.02-.63.06-.98.1-.35.05-.78.09-1.29.14v13.8Zm0,20.91c.65.05,1.22.09,1.71.14.49.05.93.08,1.32.1.39.02.77.05,1.12.07s.69.03,1.01.03c2,0,3.59-.25,4.78-.77,1.18-.51,2.02-1.32,2.51-2.44s.73-2.56.73-4.32c0-2.28-.53-4.02-1.6-5.23-1.07-1.21-2.7-1.81-4.88-1.81h-6.69v14.22Z"/><path class="cls-1" d="m519.12,51.33V2.53h8.5v40.92h16.1v7.88h-24.61Z"/><path class="cls-1" d="m547.77,51.33V2.53h8.43v48.8h-8.43Z"/><path class="cls-1" d="m578.02,52.02c-2.14,0-4.07-.26-5.79-.77-1.72-.51-3.26-1.35-4.63-2.51s-2.52-2.71-3.45-4.64c-.93-1.93-1.63-4.31-2.09-7.14-.46-2.83-.7-6.16-.7-9.97s.23-7.26.7-10.07,1.15-5.18,2.06-7.11,2.03-3.49,3.38-4.67c1.35-1.18,2.89-2.03,4.63-2.54,1.74-.51,3.71-.77,5.89-.77s4.15.26,5.89.77c1.74.51,3.29,1.35,4.63,2.51,1.35,1.16,2.48,2.7,3.38,4.6.91,1.91,1.6,4.28,2.09,7.11.49,2.84.73,6.16.73,9.97s-.23,7.27-.7,10.11c-.46,2.84-1.16,5.23-2.09,7.18-.93,1.95-2.07,3.51-3.42,4.67-1.35,1.16-2.89,2-4.63,2.51-1.74.51-3.71.77-5.89.77Zm0-7.39c.97,0,1.89-.16,2.75-.49.86-.32,1.61-.88,2.27-1.67.65-.79,1.21-1.85,1.67-3.17.46-1.32.81-3.01,1.05-5.05s.35-4.48.35-7.32-.12-5.34-.35-7.39-.58-3.74-1.05-5.09c-.46-1.35-1.02-2.4-1.67-3.17-.65-.77-1.41-1.31-2.27-1.64-.86-.33-1.78-.49-2.75-.49-1.02,0-1.94.16-2.75.49-.81.32-1.55.86-2.2,1.6s-1.21,1.81-1.67,3.21c-.46,1.4-.81,3.12-1.05,5.16-.23,2.05-.35,4.51-.35,7.39s.12,5.26.35,7.28c.23,2.02.58,3.71,1.05,5.05s1.03,2.41,1.71,3.17c.67.77,1.42,1.31,2.23,1.64.81.33,1.71.49,2.69.49Z"/><path class="cls-1" d="m626.19,10.55h-10.81v40.78h-8.43V10.55h-10.81V2.53h30.04v8.02Z"/><path class="cls-1" d="m659.37,27.56c0-6.23.66-11.22,1.99-14.99,1.32-3.77,3.31-6.49,5.96-8.19,2.65-1.7,5.97-2.54,9.97-2.54,1.07,0,2.08.04,3.03.1.95.07,1.86.18,2.72.31.86.14,1.7.32,2.51.52s1.62.45,2.41.73l-1.67,7.25c-.98-.28-1.91-.5-2.79-.66-.88-.16-1.76-.28-2.61-.35-.86-.07-1.73-.1-2.61-.1-1.77,0-3.3.28-4.6.84-1.3.56-2.37,1.52-3.21,2.89-.84,1.37-1.46,3.22-1.88,5.54-.42,2.33-.63,5.23-.63,8.72,0,3.21.21,5.88.63,8.02s1.05,3.83,1.88,5.09c.84,1.26,1.88,2.16,3.14,2.72,1.25.56,2.74.84,4.46.84,1.39,0,2.9-.12,4.53-.35,1.63-.23,3.07-.56,4.32-.98l1.46,7.25c-.79.28-1.63.53-2.51.77-.88.23-1.81.43-2.79.59-.98.16-2.01.28-3.1.35-1.09.07-2.22.1-3.38.1-2.84,0-5.33-.43-7.49-1.29-2.16-.86-3.96-2.23-5.4-4.11-1.44-1.88-2.52-4.39-3.24-7.53-.72-3.14-1.08-6.98-1.08-11.54Z"/><path class="cls-1" d="m690.33,51.33l11.43-49.15h10.81l11.64,49.15h-8.99l-2.3-10.46h-11.64l-2.3,10.46h-8.64Zm12.2-18.33h9.13l-4.53-23.63-4.6,23.63Z"/><path class="cls-1" d="m755.36,52.02c-1.63,0-3.21-.02-4.74-.07s-3.01-.12-4.43-.21c-1.42-.09-2.8-.19-4.15-.28V2.53c1.53-.19,3.01-.32,4.43-.42,1.42-.09,2.85-.16,4.29-.21,1.44-.05,2.9-.07,4.39-.07,4.46,0,8.04.86,10.74,2.58,2.69,1.72,4.65,4.42,5.86,8.09,1.21,3.67,1.81,8.46,1.81,14.36s-.65,10.7-1.95,14.39c-1.3,3.7-3.28,6.41-5.92,8.16-2.65,1.74-6.09,2.61-10.32,2.61Zm.56-7.32c2.05,0,3.72-.56,5.02-1.67,1.3-1.12,2.27-2.96,2.89-5.54.63-2.58.94-6.07.94-10.49s-.3-8.18-.91-10.73-1.56-4.37-2.86-5.44c-1.3-1.07-3.02-1.6-5.16-1.6-.56,0-1.15.01-1.78.04-.63.02-1.23.06-1.81.1-.58.05-1.15.09-1.71.14v34.92c.42.05.85.09,1.29.14.44.05.91.07,1.39.07s.95.01,1.39.04c.44.02.87.04,1.29.04Z"/><path class="cls-1" d="m778.58,51.33V2.53h8.43v48.8h-8.43Z"/><path class="cls-1" d="m638.67,43.45v-7.69c6-5.57,7.3-6.35,11.54-6.44l-.2-9.46c-4.85.1-8.05,1.23-11.34,3.52v-12.84h17.08V2.53h-25.58v48.8h26.56v-7.88h-18.05Z"/><path class="cls-1" d="m320.93,6.64s-7.01,2.8-10.2,3.73V3.76s-9.18,2.83-12.12,3.85V1.33l-6.83,2.37c-15.04,4.82-45.73,13.98-64.8,5.26-34.93-15.99-58.21-6.62-66.5-1.94-8.29-4.68-31.57-14.04-66.5,1.94-20.05,9.18-52.96-1.43-67.01-5.96v.02c-2.61-.9-4.63-1.68-4.63-1.68v6.6c-3.1-.94-12.12-4.16-12.12-4.16v6.8C9.18,10.23.02,6.64.02,6.64l-.02,210.93s7.74.04,7.93.06v5.84l137.32-13.05c1.23,3.16,7.88,5.58,15.92,5.58s14.51-2.35,15.87-5.45l135.98,12.93v-5.28c.37-.03,7.93-.78,7.93-.78l-.02-210.76Zm-5.09,206.1c-1.18.14-2.91.3-5.11.45V15.69c1.97-.56,3.71-1.08,5.11-1.52v198.59ZM22.6,191.26h-.03s0,7.94,0,7.94l3.15.11h0c.57.05,5.53.46,12.93.46,14.42,0,38.11-1.56,56.59-10.42,32.01-15.34,56.36,4,61.96,9.1l-.02,2.25c-7.81-4.63-33.69-16.34-72.06,2.85-19.39,9.69-50.74,10.45-68.53,9.62V11.48c1.5.52,3.45,1.13,6,1.86v177.92Zm273.03,7.99v-.04s2.75-.46,2.75-.46v-7.5h-.03s0-178.13,0-178.13c2.42-.88,4.43-1.53,6-2.02v202.43c-17.57.67-48.7-.07-68.53-9.99-38.37-19.18-64.25-7.47-72.06-2.85l-.02-2.01c6.44-4.81,34.07-22.96,65.46-6.88,14.7,7.52,31.11,9.43,43.95,9.43,12.57,0,21.72-1.82,22.46-1.98ZM10.22,212.77c-2.17-.18-3.9-.37-5.11-.55V14.31c1.33.46,3.01.98,5.11,1.59v196.87ZM224.32,14.76c6.6,3.02,14.28,4.17,22.19,4.17,16.44,0,33.93-4.97,45.02-8.46v182.55c-8.71,1.3-36.67,4.24-59.21-7.3-16.46-8.43-34.56-9.57-52.33-3.29-6.91,2.44-12.48,5.54-16.31,8v-.4s1.66-178.35,1.66-178.35c8.41-4.14,28.95-10.68,58.99,3.06Zm-127.68,0c30.27-13.85,50.62-7.3,58.99-3.11l1.66,178.12c-3.43-2.53-8.22-5.58-14.18-8.1-11.55-4.88-29.73-8.57-50.81,1.53-21.95,10.52-53.03,9.99-62.87,9.51V10.47c11.09,3.49,28.58,8.46,45.02,8.46,7.92,0,15.59-1.15,22.19-4.17Z"/><path class="cls-1" d="m176.74,51.52s.24-.06,1.23-.24h0c5.04-.84,23.16-2.72,44.71,8.54,8.26,4.31,18.42,5.75,28.3,5.75,10.95,0,21.56-1.77,28.85-3.35,0,0,0,0,0,0l.08-7.83s-1.39.27-1.88.38c-12.9,2.78-36.59,6.2-51.79-1.75-22.99-12.01-42.25-10.51-49.49-9.3,0,0,0,0,0,0h0s-.02,0-.03,0l.03.19v7.6Z"/><path class="cls-1" d="m176.74,26.87v7.6s.24-.06,1.23-.24h0c5.04-.84,23.16-2.72,44.71,8.54,7.36,3.85,16.82,5.78,28.21,5.78,2.99,0,6.12-.13,9.37-.4v-.08s0,.06,0,.06l.08-7.67s-1.1.08-1.69.13c-13.71,1.01-24.62-.53-32.42-4.61-22.99-12.01-42.25-10.51-49.49-9.3,0,0,0,0,0,0h0s-.02,0-.03,0l.03.19Z"/><path class="cls-1" d="m176.74,68.57s.24-.06,1.23-.24h0c5.04-.84,23.16-2.72,44.71,8.54,8.26,4.31,18.42,5.75,28.3,5.75,10.95,0,21.56-1.77,28.85-3.35h0s.08-7.83.08-7.83c0,0-1.43.28-1.91.39-12.9,2.78-36.58,6.19-51.77-1.75-22.99-12.01-42.25-10.51-49.49-9.3,0,0,0,0,0,0h0s-.02,0-.03,0l.03.19v7.6Z"/><path class="cls-1" d="m176.74,85.63s.24-.06,1.23-.24h0c5.04-.84,23.16-2.72,44.71,8.54,8.26,4.31,18.42,5.75,28.3,5.75,10.95,0,21.56-1.77,28.85-3.35h0s.08-7.83.08-7.83c0,0-1.4.27-1.89.39-12.9,2.78-36.58,6.19-51.78-1.75-22.99-12.01-42.25-10.51-49.49-9.3,0,0,0,0,0,0h0s-.02,0-.03,0l.03.19v7.6Z"/><path class="cls-1" d="m176.74,102.68s.24-.06,1.23-.24h0c5.04-.84,23.16-2.72,44.71,8.54,8.26,4.31,18.42,5.75,28.3,5.75,10.95,0,21.56-1.77,28.85-3.35,0,0,0,0,0,0l.08-7.83s-1.38.27-1.88.38c-12.9,2.78-36.59,6.2-51.79-1.75-22.99-12.01-42.25-10.51-49.49-9.3,0,0,0,0,0,0h0s-.02,0-.03,0l.03.19v7.6Z"/><path class="cls-1" d="m209.44,122.46c4.49,1.44,8.95,3.31,13.25,5.56,8.26,4.31,18.42,5.75,28.3,5.75,10.95,0,21.56-1.77,28.85-3.35h0s.08-7.83.08-7.83c0,0-1.42.28-1.91.39-12.9,2.78-36.58,6.18-51.77-1.75-4.69-2.45-9.57-4.49-14.48-6.07v.03c-.07-.04-.12-.08-.2-.1-1.77-.32-2.12-.41-2.12-.41v7.76s0,0,0,0v.03s.01-.02.01-.03Z"/><path class="cls-1" d="m176.74,136.78s.24-.06,1.23-.24h0c5.04-.84,23.16-2.73,44.71,8.54,8.26,4.32,18.42,5.75,28.3,5.75,10.95,0,21.56-1.77,28.85-3.35h0s0,0,0,0l.08-7.83s-1.4.27-1.89.39c-12.9,2.78-36.58,6.19-51.79-1.75-22.99-12.01-42.25-10.51-49.5-9.3,0,0,0,0,0,0h0s-.02,0-.03,0l.03.19v7.6Z"/><path class="cls-1" d="m226.24,153.56c-22.99-12.01-42.25-10.51-49.49-9.3,0,0,0,0,0,0h0s-.02,0-.03,0l.03.19v7.6s.24-.06,1.23-.24h0c5.04-.84,23.16-2.72,44.71,8.54,8.26,4.31,18.42,5.75,28.3,5.75,10.95,0,21.56-1.77,28.85-3.35h0s.08-7.83.08-7.83c0,0-1.36.27-1.87.38-12.89,2.78-36.6,6.2-51.81-1.74Z"/><path class="cls-1" d="m41.67,62.88c7.29,1.58,17.9,3.35,28.85,3.35,9.88,0,20.04-1.44,28.3-5.75,21.55-11.26,39.67-9.37,44.71-8.53h0c.99.18,1.23.24,1.23.24v-7.6l.03-.19s-.02,0-.03,0h0s0,0,0,0c-7.25-1.21-26.51-2.71-49.49,9.3-15.2,7.94-38.88,4.53-51.78,1.75-.49-.11-1.9-.39-1.9-.39l.08,7.83h0Z"/><path class="cls-1" d="m144.77,145.35h0s0,0,0,0c-7.25-1.21-26.51-2.71-49.49,9.3-7.81,4.08-18.72,5.62-32.42,4.61-.6-.05-1.69-.13-1.69-.13l.08,7.67s0-.03.01-.05v.08c3.25.27,6.37.4,9.37.4,11.38,0,20.84-1.94,28.21-5.78,21.55-11.26,39.67-9.38,44.71-8.53h0c.99.18,1.23.24,1.23.24v-7.6l.03-.19s-.02,0-.03,0Z"/><path class="cls-1" d="m41.67,79.93c7.29,1.58,17.9,3.35,28.85,3.35,9.88,0,20.04-1.44,28.3-5.75,21.55-11.26,39.67-9.37,44.71-8.53h0c.99.18,1.23.24,1.23.24v-7.6l.03-.19s-.02,0-.03,0h0s0,0,0,0c-7.25-1.21-26.51-2.71-49.49,9.3-15.21,7.94-38.9,4.53-51.79,1.75-.5-.11-1.88-.38-1.88-.38l.08,7.83s0,0,0,0Z"/><path class="cls-1" d="m41.67,130.94c7.29,1.58,17.9,3.35,28.85,3.35,9.88,0,20.04-1.44,28.3-5.75,21.55-11.26,39.67-9.37,44.71-8.53h0c.99.18,1.23.24,1.23.24v-7.6l.03-.19s-.02,0-.03,0h0s0,0,0,0c-7.25-1.21-26.51-2.71-49.49,9.3-15.19,7.94-38.86,4.53-51.77,1.75-.47-.11-1.91-.39-1.91-.39l.08,7.83h0Z"/><path class="cls-1" d="m41.67,114.03c7.29,1.58,17.9,3.35,28.85,3.35,9.88,0,20.04-1.44,28.3-5.75,21.55-11.26,39.67-9.37,44.71-8.53h0c.99.18,1.23.24,1.23.24v-7.6l.03-.19s-.02,0-.03,0h0s0,0,0,0c-7.25-1.21-26.51-2.71-49.49,9.3-15.2,7.94-38.88,4.53-51.78,1.75-.49-.11-1.9-.39-1.9-.39l.08,7.83h0Z"/><path class="cls-1" d="m41.67,96.55c7.29,1.58,17.9,3.35,28.85,3.35,9.88,0,20.04-1.44,28.3-5.75,4.3-2.25,8.76-4.12,13.25-5.56,0,0,.01.03.01.03v-.03s0,0,.01,0v-.05s-.01-7.72-.01-7.72c0,0-.35.09-2.12.41-.08.01-.13.06-.19.1v-.03c-4.93,1.58-9.8,3.62-14.49,6.07-15.2,7.94-38.9,4.53-51.79,1.75-.5-.11-1.89-.38-1.89-.38l.08,7.83h0Z"/><path class="cls-1" d="m41.67,148.13c7.29,1.58,17.9,3.35,28.85,3.35,9.88,0,20.04-1.44,28.3-5.75,21.55-11.26,39.67-9.37,44.71-8.53h0c.99.18,1.23.24,1.23.24v-7.6l.03-.19s-.02,0-.03,0h0s0,0,0,0c-7.25-1.21-26.51-2.71-49.49,9.3-15.23,7.95-38.96,4.52-51.85,1.74-.54-.12-1.83-.37-1.83-.37l.08,7.83h0Z"/><path class="cls-1" d="m41.67,46.67h0c7.29,1.58,17.9,3.35,28.85,3.35,9.88,0,20.04-1.44,28.3-5.75,21.55-11.26,39.67-9.38,44.71-8.53h0c.99.18,1.23.24,1.23.24v-7.6l.03-.19s-.02,0-.03,0h0s0,0,0,0c-7.25-1.21-26.51-2.71-49.49,9.3-15.2,7.94-38.89,4.53-51.79,1.75-.5-.11-1.89-.38-1.89-.38l.08,7.83Z"/></g></svg>