<svg xmlns="http://www.w3.org/2000/svg" width="71.861" height="71.064" viewBox="0 0 71.861 71.064">
  <path id="Tracciato_131" data-name="Tracciato 131" d="M25.047,62.016A11.105,11.105,0,0,1,9.482,46.486C3.034,44.933-.524,41.162-.079,34.284c.445-5.1,3.558-8.209,9.339-9.54C6.369,19.42,6.369,14.539,11.039,9.88a10.36,10.36,0,0,1,6.893-2.662,10.689,10.689,0,0,1,7.116,2.44C26.159,3.89,29.495.562,35.276.118a10.389,10.389,0,0,1,7.56,2.44,9.855,9.855,0,0,1,3.78,7.1C52.176,6.33,57.29,6.552,61.737,11.211a7.784,7.784,0,0,1,2.891,6.656,9.708,9.708,0,0,1-2.446,6.878c6,1.331,9.339,4.881,9.562,10.871a10.451,10.451,0,0,1-2.668,7.1,10.951,10.951,0,0,1-6.893,3.55,10.679,10.679,0,0,1,2,9.54,10.039,10.039,0,0,1-3.558,5.546,10.712,10.712,0,0,1-13.786.222c-1.557,6.434-5.337,9.983-12.008,9.54C29.495,71.112,26.159,67.562,25.047,62.016Zm30.019-26.4c-.222-.444-.667-.666-.889-1.109a25.789,25.789,0,0,0-4.67-3.55c-.889-.666-.889-.666-.667-1.775a19.74,19.74,0,0,0,.667-6.212c0-.887,0-.887-1.112-1.109a29.7,29.7,0,0,0-6.226.666c-1.112.222-1.112.222-1.779-.666A19.311,19.311,0,0,0,36.61,17.2c-.222-.222-.667-.444-.889-.666a1.735,1.735,0,0,0-.889.887c-1.112,1.553-2.446,2.884-3.558,4.437-.889,1.109-.667,1.109-2.224.887-1.779-.222-3.558-.444-5.114-.666-1.557,0-1.557,0-1.557,1.775.222,2,.445,3.772.667,5.768a.929.929,0,0,1-.667,1.331,4.653,4.653,0,0,0-1.334.887,18.059,18.059,0,0,0-4.225,3.993c.222.222.445.666.667.887A20.532,20.532,0,0,0,22.379,40.5c.889.444.889.666.667,1.553a20.439,20.439,0,0,0-.667,6.434c0,.887,0,.887.889.887a28.19,28.19,0,0,0,6.226-.666c1.112-.222,1.112-.222,1.779.666a24.222,24.222,0,0,0,2.891,3.772,6,6,0,0,0,1.779,1.553,18.307,18.307,0,0,0,4.67-5.546c.445-.887.667-.887,1.557-.666a19.189,19.189,0,0,0,6.226.666c1.112,0,1.112,0,1.112-1.109a29.505,29.505,0,0,0-.667-6.212c-.222-1.109-.222-1.109.667-1.553s1.557-1.109,2.446-1.553A10.379,10.379,0,0,0,55.066,35.615ZM10.816,47.152h0c-.222.222-.222.222-.222.444a23.567,23.567,0,0,0,.222,12.424c.222.666.667.887,1.334,1.109a23.6,23.6,0,0,0,11.118.444,5.668,5.668,0,0,0,1.557-.444,10.081,10.081,0,0,1-4-4.659,10.213,10.213,0,0,1,.667-6.212A7.957,7.957,0,0,1,10.816,47.152ZM47.284,60.907c.445.222.445.222.667.222a23.522,23.522,0,0,0,11.785-.222,1.888,1.888,0,0,0,1.557-1.553,28.977,28.977,0,0,0,.667-9.762,17.479,17.479,0,0,0-.667-2.884C58.4,50.7,54.844,52.033,50.174,49.814,52.62,54.695,51.509,58.244,47.284,60.907ZM24.6,10.545a.69.69,0,0,0-.445-.222,23.56,23.56,0,0,0-11.785,0A2.117,2.117,0,0,0,10.594,12.1a24.337,24.337,0,0,0-.222,11.315c0,.222.222.444.445.887a3.062,3.062,0,0,1,.667-.887,7.61,7.61,0,0,1,8.672-2.662,14.2,14.2,0,0,0,1.557.444A7.658,7.658,0,0,1,24.6,10.545ZM61.292,24.3a34.368,34.368,0,0,0,.889-4.659,20.334,20.334,0,0,0-.889-8.209c-.222-.444-.445-.887-.889-.887a20.979,20.979,0,0,0-9.784-.666q-1.334.333-3.335.666a8.2,8.2,0,0,1,4,4.659,10.213,10.213,0,0,1-.667,6.212A7.694,7.694,0,0,1,61.292,24.3ZM15.486,35.837a8.079,8.079,0,0,1-5.337-9.984,24.954,24.954,0,0,0-9.117,8.874,1.661,1.661,0,0,0,0,2,21.953,21.953,0,0,0,5.559,6.434c1.112.887,2.224,1.553,3.335,2.44a9.89,9.89,0,0,1,.667-6.212,9.683,9.683,0,0,1,4.892-3.55Zm41.137,0A7.94,7.94,0,0,1,61.96,45.6h.222a24.346,24.346,0,0,0,8.895-8.874,1.873,1.873,0,0,0,0-1.553A23.764,23.764,0,0,0,62.4,26.3H61.96A7.966,7.966,0,0,1,56.623,35.837ZM45.727,9.658a.774.774,0,0,0-.222-.444A22.59,22.59,0,0,0,36.833.784a1.671,1.671,0,0,0-2,0A19.131,19.131,0,0,0,28.383,6.33c-.889,1.109-1.557,2.219-2.668,3.55,1.112,0,2-.222,2.891-.222A7.432,7.432,0,0,1,35.5,14.539c0,.222.222.444.445.666C38.612,10.545,40.168,9.658,45.727,9.658ZM26.159,61.572a22.473,22.473,0,0,0,9.117,9.1,1.354,1.354,0,0,0,1.779,0,23.768,23.768,0,0,0,8.894-8.652v-.444a8.064,8.064,0,0,1-9.784-5.325A8.5,8.5,0,0,1,26.159,61.572Zm24.46-12.424h.667a22.684,22.684,0,0,0,9.339-2.662c.445-.222.445-.666.222-1.109a23.549,23.549,0,0,0-4-7.321c-.445-.444-.667-.887-1.112-1.331a8.6,8.6,0,0,1-1.334,2.44,7.666,7.666,0,0,1-2,1.775c-.667.444-1.779.444-2.668.887a5.257,5.257,0,0,1,.889,7.321ZM16.375,36.5c-.222.222-.222.222-.445.222a24.684,24.684,0,0,0-4.892,8.431c-.222.666,0,.887.445,1.331a32.879,32.879,0,0,0,6,2.219,12.339,12.339,0,0,0,4,.444,5.759,5.759,0,0,1,.667-7.543A6.161,6.161,0,0,1,16.375,36.5ZM50.619,22.526a5.759,5.759,0,0,1-.667,7.543,5.95,5.95,0,0,1,5.781,5.1c.667-.666.889-1.109,1.334-1.553a17.844,17.844,0,0,0,3.558-7.1c.222-.887.222-1.109-.667-1.553a24.451,24.451,0,0,0-7.783-2.44C51.953,22.3,51.286,22.526,50.619,22.526ZM22.6,21.195a6.065,6.065,0,0,1,7.56.666,5.771,5.771,0,0,1,4.67-5.768v-.444a.222.222,0,0,0-.222-.222,24.494,24.494,0,0,0-7.783-4.437c-1.112-.444-1.112-.222-1.557.666a23.9,23.9,0,0,0-2.446,7.987A3.283,3.283,0,0,0,22.6,21.195Zm19.123.887a6.07,6.07,0,0,1,7.783-.666,11.7,11.7,0,0,1-.222-2.662,26.377,26.377,0,0,0-2.224-7.1c-.445-.887-.667-.887-1.334-.666a23.047,23.047,0,0,0-7.338,3.772c-.445.444-.889.666-1.334,1.109A6.083,6.083,0,0,1,41.725,22.082Zm-20.235.444H20.6a20.746,20.746,0,0,0-8.894,2.662c-.667.222-.667.666-.445,1.331a23.549,23.549,0,0,0,4,7.321c.222.444.667.666,1.112,1.331a6,6,0,0,1,6-5.1,5.555,5.555,0,0,1-.889-7.543ZM37.055,55.36c0,.222,0,.222.222.222l.222.222a23.27,23.27,0,0,0,8.227,4.659c.667.222.889,0,1.334-.666a25.4,25.4,0,0,0,2.446-6.878,11.7,11.7,0,0,0,.222-2.884,6.872,6.872,0,0,1-4,1.109,7.712,7.712,0,0,1-3.558-1.775A6.438,6.438,0,0,1,37.055,55.36Zm-6.671-5.768a5.791,5.791,0,0,1-7.56.666v.666a21.581,21.581,0,0,0,2.668,9.1c.222.666.667.444,1.334.222a23.047,23.047,0,0,0,7.338-3.772A7.538,7.538,0,0,0,35.5,55.138,5.4,5.4,0,0,1,30.384,49.592Z" transform="translate(0.117 -0.085)" fill="#2b4261"/>
</svg>
