<?xml version="1.0" encoding="UTF-8"?><svg id="Livello_1" xmlns="http://www.w3.org/2000/svg" viewBox="0 0 275.85 88.59"><defs><style>.cls-1{fill:#571413;}</style></defs><path class="cls-1" d="m3.46,51.16c0-10.5,0-21,0-31.51,0-.92-.07-1.87.79-2.44,1.34-.88,1.35-2.2,1.34-3.56-.02-2.25.05-4.51-.04-6.76-.05-1.37.34-1.68,1.68-1.29,8.72,2.55,17.4,3.02,26.19,0,4.2-1.44,8.42-2.99,12.94-3.33,4.17-.32,8.13.85,12.05,1.85,2.35.6,4.29-.07,6.37-.5,3.68-.75,7.3-1.78,11.14-1.32,3.25.39,6.4,1.25,9.43,2.35,5.98,2.16,12.05,3.51,18.41,2.9,3.49-.33,7.02-.66,10.35-1.92,1.34-.51,1.87-.25,1.82,1.27-.08,2.57-.02,5.15-.02,7.73,0,.77-.06,1.35.99,1.74,1.78.66,1.96,2.42,1.97,4.06.02,6.31-.01,12.63-.02,18.94-.02,14.04-.04,28.09-.03,42.13,0,3.97-.92,4.88-4.85,4.86-13.59-.07-27.19-.09-40.78-.12-1.1,0-2.24.1-3.11-.73-.5-.48-.96-.27-1.42-.1-4.26,1.55-8.81,1.32-12.97.56-2.63-.48-4.79.23-7.17.24-13.79.04-27.58.05-41.36.04-2.69,0-3.67-1.07-3.68-3.79,0-10.44,0-20.88,0-31.31h-.02Zm55.67-13.49h0c0-9.72,0-19.45-.02-29.17,0-.64.4-1.62-.53-1.85-4.16-1.02-8.28-2.26-12.66-1.88-4.77.42-9.22,2.14-13.67,3.63-7.54,2.52-14.96,2.16-22.48.32-1.61-.39-1.99-.1-1.99,1.9-.01,19.25,0,38.5-.05,57.76,0,1.3.5,1.75,1.7,2.07,2.3.62,4.63.86,6.97,1.21,6.49.97,12.57-.5,18.65-2.5,4.11-1.35,8.24-2.88,12.66-2.73,3.32.11,6.63.65,9.82,1.6,1.63.48,1.64-.12,1.63-1.37-.03-9.66-.02-19.32-.02-28.98Zm3.14,0h-.02c0,9.66.01,19.32-.02,28.97,0,1.28.06,1.84,1.66,1.37,3.06-.91,6.23-1.49,9.42-1.62,4.49-.18,8.77,1.16,12.86,2.71,8.52,3.23,17.07,3.57,25.83,1.29,1.21-.32,1.66-.88,1.66-2.13-.04-19.25-.03-38.5-.05-57.75,0-1.95-.42-2.09-2.34-1.68-4.77,1-9.58,1.89-14.49,1.38-4.47-.46-8.66-2.13-12.95-3.34-2.39-.67-4.72-1.53-7.2-1.9-4.29-.64-8.39.35-12.51,1.3-1.48.34-1.9.92-1.89,2.42.07,9.66.04,19.32.04,28.97Zm-4.31,38.79c.5.11,1.06.27,1.14-.53.08-.82-.41-1.13-1.09-1.33-7.38-2.16-14.66-2.02-21.89.73-4.91,1.87-9.96,3.49-15.29,3.17-3.83-.23-7.66-.74-11.38-1.78-.61-.17-1.37-.49-1.62.4-.21.77.21,1.39,1.02,1.6,1.05.27,2.11.55,3.17.73,4.9.81,9.78,1.28,14.76.35,4.24-.79,8.2-2.43,12.34-3.51,3.84-1,7.66-2.12,11.7-1.26,2.38.51,4.76.95,7.15,1.42Zm-37.24-.33c4.5.5,8.76-.9,12.88-2.4,7.85-2.86,15.72-4.1,23.9-1.72.51.15,1.21.97,1.57-.11.3-.9-.35-1.26-1.12-1.45-3.8-.94-7.6-1.82-11.56-1.62-4.21.21-8.17,1.59-12.05,2.98-6.84,2.44-13.72,3.16-20.83,1.67-1.56-.33-3.12-.66-4.68-.99-.38-.08-.79-.18-.98.3-.18.45-.16.93.26,1.22.36.25.78.45,1.21.56,3.72.98,7.46,1.84,11.4,1.57Zm79.68,4.17c4.01.03,7.94-.59,11.83-1.52.84-.2,1.59-.58,1.34-1.52-.26-1.01-1.1-.53-1.77-.37-3.76.86-7.57,1.48-11.41,1.68-5.21.28-10.11-1.4-14.94-3.09-5.66-1.98-11.36-3.2-17.36-1.92-1.57.33-3.13.7-4.69,1.08-.73.18-1.15.69-.94,1.42.2.68.83.44,1.32.33.88-.18,1.75-.43,2.63-.57,3.27-.51,6.47-1.52,9.89-.9,2.98.54,5.86,1.36,8.73,2.24,5.02,1.55,9.97,3.4,15.36,3.13Zm-.13-4.19c4.12.26,8-.57,11.84-1.56.79-.2,1.82-.52,1.45-1.63-.32-.97-1.29-.37-1.84-.23-2.42.61-4.88.99-7.34,1.4-7.34,1.2-14.13-1.04-20.85-3.39-6.74-2.36-13.41-2.33-20.15-.19-.66.21-1.29.42-1.09,1.27.26,1.08.91.44,1.5.33,4.59-.83,9.1-2.12,13.88-1.16,4.1.82,7.97,2.36,11.98,3.43,3.52.94,6.98,2.17,10.61,1.73Z"/><path class="cls-1" d="m136.6,55.66c0,3.25-.16,6.52.05,9.76.18,2.74-1.65,1.92-3.03,2.1-1.64.21-1.89-.64-1.89-2.05-.01-10.11-.07-20.22-.19-30.33-.02-1.46.12-2.22,1.9-2.15,3.18.12,3.18,0,3.19,2.1.05,7.65,2.35,14.58,6.69,20.86.07.11.12.23.21.32,1.01,1.06,2.03,2.82,3.41,2.44,1.11-.31.44-2.28.45-3.5.05-6.76.07-13.53-.01-20.29-.02-1.51.36-2.17,1.91-1.91.38.06.78.05,1.16,0,1.34-.17,1.75.34,1.74,1.72-.07,7.41-.03,14.81-.03,22.22,0,2.96-.12,5.93-.01,8.89.06,1.78-1.04,1.84-2.23,1.84-1.15,0-2.6.39-2.52-1.65.03-.82-.1-1.68-1.13-2.01-3.91-1.25-6.36-4.19-8.5-7.47-.2-.31-.41-.63-.62-.94-.18.03-.36.06-.55.09Z"/><path class="cls-1" d="m256.76,55.29c0,3.78-.1,7.18.04,10.58.09,2.24-1.38,1.68-2.57,1.72-1.15.03-2.19.24-2.18-1.68.05-9.72-.07-19.44-.13-29.16,0-.26,0-.52-.01-.77-.21-2.99-.21-2.89,2.72-3.03,1.68-.08,2.21.39,2.19,2.12-.05,7.31,2.36,13.92,6.18,20.06.83,1.33,1.95,2.37,3.22,3.29.93.67,1.24.35,1.28-.63.03-.64.05-1.29.05-1.93,0-6.96.04-13.91-.04-20.87-.02-1.59.43-2.26,2.05-2.02,1.29.19,2.98-.72,2.94,1.93-.13,10.24-.09,20.48-.02,30.72.01,1.74-.82,2.11-2.23,2.04-1.27-.06-2.9.41-2.7-1.86.07-.8-.13-1.5-1.08-1.8-3.79-1.18-6.23-3.92-8.19-7.2-.2-.33-.44-.64-.68-.93-.11-.13-.29-.21-.81-.58Z"/><path class="cls-1" d="m212.29,50.16c0-5.28.05-10.56-.03-15.84-.02-1.39.43-1.81,1.77-1.72,3.2.19,6.48-.16,9.59.67,6.13,1.64,8.26,7.52,6.66,13.15-.68,2.38-1.79,4.64-3.7,6.22-1.72,1.43-1.78,3.07-1.16,4.83.73,2.08,1.9,3.92,4.14,4.78.96.37,1.67,4,.94,4.74-.62.63-1.39.17-1.99-.01-4.08-1.27-6.47-4.19-7.79-8.14-.23-.69.15-2.01-1.44-1.64-1.33.31-2.44.59-2.31,2.41.15,2.18-.02,4.38.06,6.57.05,1.22-.44,1.64-1.58,1.51-.06,0-.13,0-.19,0-3.25-.05-2.97.35-2.96-2.83.02-4.9,0-9.79,0-14.69h-.01Zm4.78-5.19s-.02,0-.03,0c0,1.86-.03,3.73,0,5.59.04,1.81.38,1.99,2.1,1.33,3.3-1.25,5.36-3.72,6.52-6.92,1.17-3.21-.45-6.35-3.62-7.11-1.1-.26-2.3-.11-3.45-.14-1.15-.04-1.58.53-1.55,1.66.05,1.86.01,3.73.01,5.59Z"/><path class="cls-1" d="m200.61,50.32c0,5.15-.1,10.31.05,15.46.07,2.27-1.29,1.82-2.61,1.91-1.45.09-2.28-.14-2.2-1.94.15-3.47.03-6.95.08-10.43.02-1.63-.61-2.19-2.24-1.84-4.42.95-6.43,3.39-6.46,7.95,0,1.48-.1,2.97,0,4.44.09,1.31-.29,1.83-1.69,1.82-2.95-.01-2.98.06-2.98-2.9,0-9.98.03-19.97,0-29.95,0-1.37.17-2.31,1.86-2.06,1.28.19,2.98-.67,2.86,1.98-.21,4.76.01,9.53-.06,14.29-.03,1.66.46,1.7,1.7.98,1.57-.91,3.28-1.52,5.11-1.47,1.35.04,1.79-.48,1.77-1.8-.03-3.99.1-7.99.03-11.98-.03-1.61.47-2.22,2.08-2.04,1.31.14,2.85-.52,2.78,1.93-.16,5.21-.05,10.43-.05,15.65h-.03Z"/><path class="cls-1" d="m233.14,50.18c0-5.15.04-10.3-.03-15.44-.02-1.32.34-1.81,1.72-1.79,4.38.07,8.75.05,13.13-.01,1.17-.02,1.67.32,1.52,1.52-.07.57-.06,1.16,0,1.74.13,1.26-.53,1.51-1.62,1.5-2.7-.03-5.41.03-8.11.01-.95,0-1.6.1-1.57,1.32.06,2.77.04,5.53.02,8.3,0,.93.18,1.26,1.23.91,1.5-.5,3.08-.77,4.62-1.15,1-.25,1.47.12,1.46,1.15,0,.58-.03,1.16.04,1.74.18,1.51-.31,2.29-1.97,2.25-1.22-.03-2.37.42-3.42,1.11-1.35.87-2.13,1.98-1.98,3.67.16,1.71-.71,3.92.34,5.03,1.07,1.14,3.29.31,5.01.39,1.41.06,2.83.06,4.25,0,1.35-.06,1.87.5,1.7,1.83-.06.51-.06,1.03,0,1.54.11,1-.27,1.35-1.29,1.35-3.34.02-6.68.19-10.02.17-1.11,0-2.16.26-3.25.31-1.3.06-1.82-.42-1.81-1.8.07-5.21.03-10.42.03-15.64Z"/><path class="cls-1" d="m163.29,49.88c0-2.45-.02-4.89,0-7.34.05-4.58,2.48-7.66,6.48-9.41,3.84-1.69,7.23-.3,10.25,2.25,1.17.99,1.68,1.98.04,3.02-.26.17-.48.43-.67.69-.79,1.09-1.43,1.39-2.48.1-1.28-1.55-3.04-2.51-5.13-1.68-2.2.87-3.6,2.53-3.63,4.98-.06,5.02-.07,10.04.02,15.06.04,2.4,1.33,4,3.58,4.99,2.17.95,3.76-.07,4.93-1.49,1.77-2.15,2.48-.25,3.57.59,1.47,1.13,1.03,2.1-.17,3.06-3.17,2.54-6.56,4.08-10.61,2.11-3.75-1.83-6.06-4.71-6.2-9-.09-2.64-.02-5.28-.02-7.92.01,0,.02,0,.03,0Z"/><path class="cls-1" d="m203.97,50.28c0-5.21.05-10.42-.03-15.62-.02-1.39.28-1.97,1.78-1.95,2.95.02,3.13.12,3.13,3.03,0,9.97-.04,19.93.03,29.9.01,1.57-.36,2.14-2,2.07-3.19-.14-2.81.32-2.78-2.95.04-4.82.01-9.64.01-14.46-.04,0-.08,0-.13,0Z"/><path class="cls-1" d="m155,49.97c0-5.08,0-10.17,0-15.25,0-1-.21-2.33,1.49-1.91,1.27.31,3.41-.98,3.38,1.97-.09,10.36-.09,20.73.02,31.09.02,2.14-1.18,1.8-2.46,1.81-1.32,0-2.51.22-2.45-1.87.13-5.27.04-10.56.04-15.83,0,0-.01,0-.02,0Z"/><path class="cls-1" d="m151.19,17.81c0-2.83.06-5.66-.03-8.48-.04-1.39.47-1.86,1.8-1.7.7.09,1.41.04,2.12.03,5.13-.03,7.6,3.61,5.56,8.3-.37.85-.35,1.42,0,2.3,1.94,4.76.55,9.97-5.95,9.71-3.5-.14-3.5,0-3.51-3.41,0-2.25,0-4.5,0-6.75h.01Zm3.01,4.11c0,3.11.71,3.81,2.98,2.88,1.37-.56,1.57-1.88,1.63-3.04.1-1.95-1.06-2.85-3.04-2.9-2.29-.06-1.46,1.56-1.56,2.69-.01.13,0,.26,0,.39Zm-.06-8.85q0,2.97,1.59,2.96c1.78-.02,2.54-.87,2.55-2.86.02-1.93-.76-2.68-2.66-2.72-2.36-.05-1.16,1.76-1.49,2.62Z"/><path class="cls-1" d="m168.12,17.79c0-2.89.03-5.78-.02-8.68-.02-1.18.44-1.65,1.6-1.53,1.21.12,2.42-.09,3.64.13,4.35.77,6.23,4.51,4.12,8.43-.4.74-.51,1.15-.01,1.98,1.38,2.29,1.44,4.85.16,7.15-1.15,2.07-3.28,2.68-5.61,2.67-3.86-.02-3.87.01-3.88-3.8,0-2.12,0-4.24,0-6.36Zm2.87,4.01c0,.88,0,1.59,0,2.3,0,.51.19.95.72.97,1.16.06,2.43.13,3.19-.9.91-1.22.75-2.69.32-4.06-.35-1.09-1.35-1.18-2.37-1.24-2.63-.14-1.56,1.88-1.85,2.92Zm.9-5.77c2.43.04,3.38-.98,3.4-2.92.01-1.7-.88-2.55-2.58-2.65-1.66-.1-1.85.96-1.62,2.09.25,1.23-1.14,3.24.8,3.47Z"/><path class="cls-1" d="m257.29,17.7c0-2.83,0-5.67,0-8.5,0-.63-.15-1.28.66-1.62,2.03-.84,7.24.64,8.68,2.45.83,1.06,1.25,2.23,1.24,3.56,0,2.83,0,5.67-.03,8.5-.03,3.05-2.71,5.74-5.78,5.85q-4.76.17-4.77-4.64c0-1.87,0-3.74,0-5.6Zm3.01.23c0,1.67-.04,3.35.02,5.02.03.72-.43,1.78.42,2.1.94.35,2.01.05,2.86-.65.84-.69,1.32-1.59,1.33-2.66.03-2.64.03-5.28-.01-7.91-.03-1.71-1.03-2.76-2.59-3.2-1.19-.34-2.14-.14-2.06,1.53.1,1.93.02,3.86.02,5.79Z"/><path class="cls-1" d="m207.29,17.9c0,1.42.05,2.84,0,4.25-.15,3.53-2.95,6.29-6.3,6.25-2.89-.03-5.6-3.13-5.63-6.46-.02-2.7.2-5.43-.04-8.11-.26-2.91,2.52-6.33,6.07-6.47,2.86-.11,5.77,3,5.89,6.29.05,1.41,0,2.83.01,4.25Zm-3.08-.03c0-1.35,0-2.7,0-4.04-.02-2.02-1.11-3.28-2.88-3.38-1.76-.09-2.95,1.11-2.99,3.21-.05,2.89-.04,5.77.02,8.66.04,1.81,1.2,2.99,2.81,3.04,1.61.04,2.98-1.3,3.04-3.06.05-1.47.01-2.95,0-4.43Z"/><path class="cls-1" d="m250.09,26.37c-.07.67.42,1.47-.51,1.53-.82.05-2.02.56-2.35-.58-.35-1.21-.99-1.5-2.08-1.46-1,.04-1.9.08-2.17,1.35-.26,1.26-1.34.7-2.06.72-1.07.03-.78-.9-.69-1.43.73-4.61,1.51-9.22,2.31-13.82.21-1.19.72-2.37.72-3.55,0-1.73,1.03-1.61,2.16-1.63,1.15-.02,1.99-.04,2.2,1.6.72,5.82,1.66,11.61,2.49,17.25Zm-4.47-10.09c-.2.02-.39.04-.59.06-.32,1.8-.63,3.61-.96,5.4-.18.94.37,1.07,1.1,1.09.71.02,1.36-.03,1.24-.97-.24-1.87-.52-3.72-.79-5.59Z"/><path class="cls-1" d="m143.63,22.2c-.06.52.33,1.15-.4,1.19-.63.04-1.57.44-1.83-.45-.27-.94-.77-1.16-1.62-1.13-.78.03-1.48.06-1.69,1.05-.2.98-1.04.55-1.61.56-.83.02-.6-.7-.54-1.11.57-3.59,1.18-7.17,1.79-10.75.16-.93.56-1.84.56-2.76,0-1.34.8-1.25,1.68-1.26.9-.01,1.55-.03,1.71,1.25.56,4.52,1.29,9.03,1.93,13.42Zm-3.48-7.85c-.15.02-.3.03-.46.05-.25,1.4-.49,2.8-.75,4.2-.14.73.29.83.86.85.55.02,1.05-.02.96-.76-.18-1.45-.41-2.9-.61-4.35Z"/><path class="cls-1" d="m218.77,17.78c0-2.76.08-5.53-.03-8.29-.06-1.4.42-1.8,1.74-1.75,2.25.08,4.5.04,6.75.02.81,0,1.39.08,1.31,1.12-.07.88-.04,1.68-1.31,1.6-1.28-.08-2.57,0-3.86-.01-.8,0-1.45.27-1.49,1.14-.07,1.41-.08,2.82-.04,4.23.02.8.57.91,1.23.69.49-.16.97-.46,1.45-.46.64,0,1.69-.63,1.77.71.05.96.42,2.15-1.23,2.27-1.2.09-2.31.54-2.92,1.61-.66,1.17-.66,2.57-.19,3.73.39.96,1.62.39,2.47.48.83.09,1.67.09,2.5.05,1.17-.06,1.59.48,1.62,1.6.03,1.26-.64,1.45-1.71,1.42-2.06-.06-4.12-.08-6.17,0-1.29.06-1.82-.26-1.75-1.69.13-2.82.04-5.66.04-8.48-.06,0-.12,0-.17,0Z"/><path class="cls-1" d="m228.94,17.63c0-1.48-.04-2.96,0-4.44.08-2.64,1.75-4.71,4.49-5.62,1.84-.61,4.17.17,5.59,1.66.76.81.55,1.28-.16,1.86-.56.46-.95,1.34-1.82.32-.89-1.05-2.17-1.32-3.34-.77-1.22.58-1.77,1.72-1.72,3.19.09,2.64.06,5.28.02,7.92-.02,1.44.52,2.49,1.81,3.13,1.33.67,2.39.11,3.24-.88,1.05-1.21,1.36.08,1.91.5.78.59.82,1.18,0,1.87-1.8,1.53-3.88,2.24-6.07,1.36-2.42-.98-3.84-2.95-3.97-5.65-.07-1.48-.01-2.96-.01-4.44,0,0,.01,0,.02,0Z"/><path class="cls-1" d="m131.56,17.89c0-2.9.03-5.79-.02-8.69-.02-1.17.43-1.59,1.59-1.59,1.26,0,1.44.56,1.43,1.67-.04,4.63.08,9.26,0,13.89-.03,1.57.49,2.01,1.98,1.93,1.99-.1,3.99.06,5.98-.02,1.34-.05,1.36.68,1.42,1.69.07,1.18-.56,1.19-1.42,1.18-3.15-.03-6.31-.07-9.46,0-1.25.03-1.53-.47-1.51-1.58.05-2.83.02-5.66.02-8.49Z"/><path class="cls-1" d="m182.76,16.04c0,2.51,0,5.01,0,7.52,0,1.13.5,1.57,1.66,1.55,2.57-.06,5.14.01,7.71-.03,1.1-.02,1.8.11,1.79,1.53,0,1.37-.71,1.37-1.7,1.36-3.47-.03-6.94-.07-10.41,0-1.36.03-1.93-.25-1.91-1.79.08-5.59.03-11.18-.01-16.77,0-1.17.28-1.77,1.61-1.78,1.55,0,1.17,1.02,1.18,1.85.02,2.19,0,4.37,0,6.56.02,0,.05,0,.07,0Z"/><path class="cls-1" d="m211.27,19.41c0-2.32-.05-4.64.02-6.95.04-1.35-.35-2.12-1.83-1.99-1.13.1-1.8-.15-1.76-1.54.04-1.41.96-1.1,1.73-1.11,2.25-.03,4.51,0,6.76-.05.93-.02,1.68.04,1.63,1.28-.04,1.01-.35,1.58-1.49,1.41-2.07-.32-2.45.8-2.41,2.61.1,4.44.02,8.88.05,13.33,0,.97.03,1.71-1.35,1.7-1.4,0-1.36-.77-1.35-1.74.03-2.32,0-4.64,0-6.95h0Z"/><path class="cls-1" d="m191.36,15.4c0,.9,0,1.8,0,2.7,0,1.26-.32,2.64,1.8,2.56,1.06-.04.58,1.07.68,1.69.12.79-.33.97-1.03.96-1.86-.02-3.73-.03-5.6,0-.81.02-1.23-.24-1.13-1.1.08-.69-.34-1.72.96-1.63,1.41.1,1.75-.61,1.7-1.87-.07-2.12-.05-4.24-.01-6.37.02-1.1-.15-1.94-1.52-1.88-1.34.06-1.09-.91-1.15-1.73-.08-1.04.54-1.13,1.33-1.13,1.73.01,3.47-.01,5.2-.01.49,0,1.13-.16,1.21.58.07.67.28,1.71-.53,1.85-2.49.44-1.87,2.25-1.91,3.81-.01.51,0,1.03,0,1.54,0,0,0,0,0,0Z"/><path class="cls-1" d="m269.57,17.65c0-2.83,0-5.65,0-8.48,0-.81-.22-1.72,1.16-1.67,1.23.04,1.67.54,1.66,1.77-.05,5.71-.05,11.43-.01,17.14,0,1.1-.22,1.58-1.48,1.6-1.41.02-1.35-.73-1.34-1.69.02-2.89,0-5.78,0-8.67Z"/><path class="cls-1" d="m163.3,17.7c0-2.83.02-5.66-.01-8.49,0-.94.09-1.66,1.29-1.65,1.14.01,1.55.49,1.54,1.66-.06,5.72-.08,11.45-.04,17.17,0,1.15-.25,1.59-1.48,1.58-1.24-.02-1.29-.61-1.27-1.58.05-2.89.02-5.79.02-8.68-.01,0-.03,0-.04,0Z"/><path class="cls-1" d="m199.58,78.61c0-.77-.02-1.54,0-2.31.05-1.93,1.44-3.38,3.35-3.48.96-.05,1.93,0,2.89-.02.67-.02,1.13.14,1.11.94-.02.71-.35,1.07-1.05,1.09-.26,0-.51.02-.77.03q-3.56.12-3.57,3.76c0,.77,0,1.54.02,2.31.06,1.4,1.04,1.58,2.15,1.62,1.3.05.97-.88.99-1.6.02-.71.03-1.41.03-2.12,0-.68.29-1.1,1.01-1.13.69-.02,1.11.3,1.13,1.01.02,1.61.04,3.21.02,4.82-.01.85-.64.95-1.34,1.02-4.48.45-5.97-.87-5.98-5.37,0-.19,0-.39,0-.58Z"/><path class="cls-1" d="m239.75,78.62c0-1.54.02-3.08,0-4.62-.01-.73.1-1.22,1.03-1.21.94.01,1.02.54,1,1.25-.02.64-.03,1.29.01,1.93.04.59-.25,1.43.71,1.51.98.08,1.33-.58,1.36-1.48.01-.31.02-.66.15-.93.23-.5.74-.42,1.18-.39.57.04.81.43.73.93-.25,1.61.18,2.99,1,4.41.6,1.05.26,2.39.24,3.61-.01.63-.39.94-.97.97-.66.04-1.13-.26-1.18-.97-.04-.64-.08-1.29-.03-1.92.1-1.46-.68-1.87-1.99-1.88-1.46-.01-1.07,1.03-1.25,1.86-.23,1.01.92,2.91-1.1,2.82-1.75-.07-.63-1.83-.83-2.8-.2-.99-.04-2.05-.05-3.07Z"/><path class="cls-1" d="m162.54,78.48c0-1.48,0-2.96,0-4.44,0-.76.24-1.21,1.1-1.23.93-.02.82.6.82,1.17,0,.77,0,1.55,0,2.32,0,.59-.04,1.27.76,1.3.76.02,1.41-.28,1.42-1.21,0-.96.03-1.94,1.41-1.66,1.42.29.87,1.3.67,2.14-.18.73-.09,1.35.41,1.98,1.08,1.35,1.04,2.99.99,4.61-.02.71-.36,1.06-1.07,1.09-.78.03-.99-.45-.99-1.11,0-.71.11-1.44-.03-2.12-.26-1.32-1.22-1.62-2.47-1.58-1.36.05-1.08.99-1.11,1.78-.03.64,0,1.29-.02,1.93-.01.51.07,1.08-.71,1.1-.73.02-1.1-.37-1.11-1.04-.03-1.67-.01-3.35-.01-5.02-.02,0-.04,0-.06,0Z"/><path class="cls-1" d="m226.29,78.43c0-1.48.02-2.96,0-4.44-.01-.76.15-1.2,1.06-1.2.95,0,1.03.55,1.02,1.25,0,.71-.04,1.42.03,2.12.05.52-.18,1.34.64,1.39.8.05,1.27-.53,1.4-1.32.06-.38.03-.78.13-1.14.13-.47.59-.42.96-.42.47,0,1.12.13.97.65-.69,2.43,1.41,4.32,1.18,6.6-.09.93.76,2.54-.97,2.58-1.76.05-.99-1.6-1.1-2.54-.11-.99-.04-1.93-1.38-2.14-1.24-.19-2.03-.02-1.86,1.51.08.7-.01,1.41-.02,2.12,0,.67-.23,1.11-1.01,1.08-.74-.03-1.04-.4-1.04-1.09,0-1.67,0-3.35,0-5.02h0Z"/><path class="cls-1" d="m260.61,81.39c0,.71.03,1.42,0,2.12-.03.56-.31,1.16-.89,1.04-1.15-.25-2.29.17-3.39-.03-2.54-.44-3.62-2.33-3.24-5.44.26-2.15,1.8-3.31,4.23-3.19,1.91.1,3.21,1.54,3.34,3.76.04.58,0,1.16,0,1.74-.02,0-.03,0-.05,0Zm-2.04-1.19c-.09-1.12-.23-2.26-1.75-2.21-1.35.04-1.59.99-1.62,2.13-.03,1.22.25,2.29,1.62,2.35,1.44.06,1.67-1.11,1.76-2.28Z"/><path class="cls-1" d="m220.32,81.63c0,.64,0,1.29,0,1.93,0,.5-.18,1.05-.7.95-1.82-.33-3.81.52-5.48-.85-1.38-1.14-1.35-2.69-1.29-4.24.08-2,1.31-3.34,3.12-3.52,2.4-.24,3.65.66,4.23,2.88.25.97.12,1.9.11,2.86Zm-2.05-1.41c.01-1.07-.12-2.21-1.62-2.24-1.33-.02-1.65.87-1.66,2.07,0,1.27.13,2.44,1.7,2.44,1.33,0,1.6-1.05,1.57-2.27Z"/><path class="cls-1" d="m137.92,84.46c-.34,0-.86.05-1.37-.01-.63-.08-.81-.54-.78-1.12.02-.61.42-.74.91-.75.9-.02,1.8-.01,2.7-.02.89-.01,1.5-.46,1.64-1.32.16-.99-.55-1.34-1.38-1.51-.06-.01-.13,0-.19-.02-2.55-.6-3.99-2.11-3.68-3.87.38-2.18,2.57-3.42,5.24-3.05.64.09.91.28.9.94-.01.67-.17,1.12-.95,1.13-1.25,0-2.98-.36-3.03,1.42-.05,1.65,1.7,1.33,2.84,1.59,1.62.36,2.4,1.64,2.46,3.08.05,1.34-.59,2.62-2.11,3.09-.98.31-1.96.64-3.18.42Z"/><path class="cls-1" d="m183.5,81.45c0,.58-.02,1.15,0,1.73.05,1.1-.53,1.7-1.5,1.3-1.15-.48-2.2.37-3.37-.15-2.17-.95-3.26-3.08-2.6-5.66.49-1.9,2.26-3.01,4.42-2.77,1.82.2,3.11,2.03,3.11,4.4,0,.38,0,.77,0,1.15-.02,0-.05,0-.07,0Zm-2.07-1.4c-.05-1.02-.21-2.14-1.72-2.12-1.47.01-1.72,1.07-1.74,2.27-.02,1.24.39,2.3,1.74,2.31,1.39,0,1.73-1.1,1.72-2.46Z"/><path class="cls-1" d="m156.7,80.13c.02,2.62-1.5,4.42-3.75,4.45-2.26.02-3.9-1.82-3.91-4.38,0-2.64,1.46-4.28,3.83-4.3,2.4-.02,3.82,1.55,3.84,4.23Zm-5.41-.09c.03,1.11-.02,2.38,1.49,2.44,1.45.06,1.94-.93,1.93-2.28,0-1.25-.4-2.21-1.78-2.25-1.34-.03-1.67.94-1.65,2.09Z"/><path class="cls-1" d="m268.04,80.55c0,1.02,0,2.05,0,3.07,0,.62-.31.96-.92.98-.67.02-1.11-.25-1.11-.99,0-2.11,0-4.22,0-6.33,0-.73.42-1,1.12-.97.65.03.9.38.9.99,0,1.09,0,2.17,0,3.26,0,0,0,0-.01,0Z"/><path class="cls-1" d="m266.02,74.3c0-.78-.13-1.5,1-1.51,1.11-.02,1.01.68,1.04,1.4.03.8-.05,1.38-1.1,1.35-.98-.03-.97-.63-.94-1.24Z"/><path class="cls-1" d="m52.67,20.02c-.79-.13-1.92-.34-3.07-.48-4.54-.56-8.71,1.01-12.96,2.2-3.63,1.02-7.11,2.52-10.87,3.08-4,.6-7.95-.05-11.91-.44-1.74-.17-1.62-1.47-1.42-2.59.28-1.54,1.29-.57,2.09-.47,6.28.77,12.41.58,18.53-1.58,5.37-1.89,10.8-4.13,16.75-3.44,1.27.15,2.54.36,3.79.62,1.33.28.81,1.4.87,2.22.09,1.18-.78.9-1.82.87Z"/><path class="cls-1" d="m52.49,34c-4.35-1.13-9.1-.5-13.73,1-4.19,1.35-8.35,2.76-12.66,3.69-2.74.59-5.49.3-8.25.15-1.15-.06-2.3-.22-3.44-.33-1.57-.16-2.24-.98-1.98-2.58.13-.79.35-1.11,1.25-.91,6.64,1.49,13.09.88,19.54-1.35,4.65-1.61,9.3-3.51,14.39-3.53,1.96,0,3.82.49,5.73.67,1.67.16,1.1,1.46,1.15,2.37.06,1.21-.87.78-2,.82Z"/><path class="cls-1" d="m14.25,42.13c2.16.33,4.35.32,6.53.48,5.25.38,10.07-1.18,14.94-2.8,5.71-1.89,11.48-3.48,17.63-1.96,1.66.41,1.1,1.47,1.14,2.36.06,1.19-.97.94-1.53.79-5.8-1.56-11.34-.12-16.66,1.83-7.27,2.66-14.57,3.73-22.24,2.47-1.44-.24-1.62-.78-1.63-1.96-.02-1.47.91-1.27,1.83-1.21Z"/><path class="cls-1" d="m21.26,31.75c-2.5.35-5.03-.32-7.58-.47-1.38-.08-1.18-1.06-1.24-1.95-.08-1.08.43-1.24,1.41-1.18,2.31.13,4.6.41,6.91.55,5.2.31,10.02-1.18,14.79-2.84,3.63-1.26,7.33-2.3,11.11-2.68,2.29-.23,4.69.44,7.02.82,1.37.22.74,1.41.83,2.2.11.95-.61,1.09-1.28.93-7.26-1.82-13.89.77-20.59,2.87-3.67,1.15-7.37,2.22-11.39,1.75Z"/><path class="cls-1" d="m54.5,60.7c.06,1.02-.12,1.7-1.27,1.39-5.5-1.47-10.79-.31-16.02,1.35-3.53,1.12-7.03,2.32-10.67,3.06-3.07.62-6.14.38-9.21.15-1.01-.08-2.03-.25-3.06-.29-1.54-.06-1.96-.97-1.81-2.33.08-.74.3-1.12,1.23-.98,3.11.45,6.21.82,9.38.74,3.77-.09,7.28-1.27,10.8-2.39,4.62-1.47,9.19-3.14,14.09-3.23,1.71-.03,3.42.44,5.13.67,1.19.16,1.7.77,1.41,1.86Z"/><path class="cls-1" d="m54.5,53.75c.17,1.79-1.19,1.35-2.06,1.11-1.97-.56-3.96-.43-5.94-.42-4.23.04-8.15,1.6-12.04,2.95-5.87,2.04-11.77,2.97-17.94,2.22-.96-.12-1.9-.39-2.84-.44-1.65-.1-1.15-1.29-1.19-2.12-.07-1.21.86-1.08,1.63-.94,7.57,1.3,14.85.29,22.02-2.42,5.42-2.04,11.04-3.29,16.92-1.91,1.43.34,1.52.36,1.44,1.96Z"/><path class="cls-1" d="m24.33,17.97c-3.44.03-3.58-.1-3.36-2.21.07-.69.26-1.08,1.02-1.05,5.91.26,11.21-2.17,16.67-3.84,4.54-1.38,9.1-2.03,13.81-1.16,1.2.22,2.22.4,2.09,2.09-.09,1.28-.59,1.61-1.68,1.32-4.71-1.25-9.3-.52-13.82.86-4.2,1.29-8.35,2.76-12.65,3.7-.87.19-1.77.24-2.09.28Z"/><path class="cls-1" d="m21.58,52.87c-2.5.38-4.88-.4-7.32-.45-1.56-.03-2.05-1.05-1.82-2.5.12-.77.36-1.04,1.28-.86,6.03,1.21,12.01,1.13,17.9-.93,2.16-.76,4.38-1.32,6.56-2.01.62-.2,1.39-.96,1.64.23.17.84.62,2-.7,2.46-2.35.81-4.7,1.63-7.09,2.32-3.42.98-6.8,2.27-10.44,1.75Z"/><path class="cls-1" d="m99.14,25.17c-4.75.28-9.02-1.64-13.42-2.88-4.41-1.25-8.71-3.08-13.43-2.8-1.53.09-3.06.35-4.58.54-.85.1-1.54.06-1.46-1.12.06-.93-.26-1.74,1.22-2.11,5.95-1.5,11.48.08,17.06,1.83,4.61,1.45,9.15,3.34,14.12,3.15,2.63-.1,5.25-.37,7.87-.56.61-.04,1.55-.76,1.62.47.05.99.74,2.51-1.13,2.73-2.61.3-5.24.51-7.86.76Z"/><path class="cls-1" d="m100.52,17.97c-6.17.48-11.4-1.56-16.68-3.27-5.24-1.69-10.5-2.91-16.04-1.58-.61.15-1.46.32-1.5-.63-.04-.86-.61-2.24.75-2.43,2.76-.39,5.46-1.11,8.37-.7,6.63.93,12.67,3.96,19.22,5.1,2.87.5,5.78.34,8.65.08,1.15-.11,2.31-.13,3.45-.32.7-.12,1.54-.53,1.45.69-.07.92.69,2.41-1.22,2.44-2.31.04-4.55.95-6.45.63Z"/><path class="cls-1" d="m98.62,45.9c-4.93.6-10.19-1.93-15.62-3.52-4.07-1.2-8.13-2.3-12.43-1.82-.63.07-1.26.1-1.89.24-.78.17-2,1.03-2.31-.51-.22-1.12-.41-2.19,1.53-2.54,4.67-.86,9.1-.37,13.61.95,4.1,1.19,8.06,2.86,12.31,3.54,3.53.57,7.04.35,10.56.09.7-.05,1.41-.15,2.11-.18.75-.02,1.78-.5,1.71,1-.05,1.07.24,2-1.5,2.2-2.37.28-4.73.49-8.09.56Z"/><path class="cls-1" d="m99.45,52.92c-5.74.36-10.6-1.76-15.57-3.29-3.13-.97-6.27-1.89-9.52-2.12-2.08-.15-4.2.28-6.3.43-.67.05-1.63.71-1.7-.68-.05-.98-.44-2.17,1.1-2.43,3.75-.64,7.49-1.04,11.23.1,4.8,1.46,9.59,2.99,14.42,4.33,3.05.84,6.23.93,9.34.38,1.65-.29,3.35.05,4.94-.64.58-.25.86.15.8.69-.11,1.03.6,2.52-1.24,2.69-2.61.24-5.2.84-7.5.55Z"/><path class="cls-1" d="m99.64,31.82c-5.35.45-9.88-1.24-14.43-2.69-4.71-1.5-9.4-3.03-14.46-2.5-.77.08-1.52.16-2.28.31-.73.14-1.92.89-2.12-.62-.14-1.05-.43-2.06,1.39-2.49,5.54-1.31,10.74-.14,15.93,1.53,3.45,1.11,6.88,2.31,10.47,2.97,3.2.59,6.4.32,9.6.14.83-.05,1.68-.07,2.48-.28,1.87-.49,2.15.43,2.02,1.98-.07.82-.34,1.08-1.15,1.14-2.62.18-5.21.85-7.44.53Z"/><path class="cls-1" d="m99.38,59.91c-5.91.5-11.16-2.05-16.6-3.62-3.89-1.13-7.73-2.21-11.84-1.82-.83.08-1.64.2-2.46.35-.72.13-1.92.85-2.11-.65-.14-1.1-.34-2.12,1.49-2.45,5.14-.92,10.05-.25,14.93,1.37,3.2,1.06,6.41,2.13,9.68,2.93,4.57,1.12,9.2.58,13.82.17.68-.06,1.83-.79,1.86.73.02.96.54,2.1-1.28,2.38-2.5.39-4.99.45-7.49.63Z"/><path class="cls-1" d="m98.9,38.99c-4.52.53-8.71-1.5-13.05-2.69-3.69-1.02-7.26-2.46-11.12-2.78-1.58-.13-1.1-1.27-1.17-2.15-.1-1.13.63-1.33,1.49-1.15,2.37.5,4.79.89,7.08,1.63,4.3,1.38,8.58,2.8,13,3.74,2.25.48,4.48.39,6.69.02,1.84-.31,3.74.14,5.53-.63.54-.23.89.18.8.72-.16.94.73,2.35-1.04,2.63-2.67.42-5.34.81-8.23.65Z"/><path class="cls-1" d="m73.22,58.01c4.15.56,8.17,1.5,12.1,2.86.78.27,1.53.65,2.33.84,1.7.41,1.16,1.78.94,2.65-.28,1.15-1.23.41-1.89.18-4.1-1.47-8.28-2.72-12.62-3.15-1.94-.19-3.95.33-5.92.53-.67.07-1.68.88-1.79-.44-.07-.9-.61-2.3,1.17-2.54,1.9-.25,3.78-.62,5.68-.93Z"/></svg>