<svg xmlns="http://www.w3.org/2000/svg" width="327" height="496" viewBox="0 0 327 496">
  <g id="Raggruppa_1089" data-name="Raggruppa 1089" transform="translate(20603 7137.179)">
    <g id="Rettangolo_717" data-name="Rettangolo 717" transform="translate(-20603 -7137.179)" fill="#6a0a1b" stroke="#707070" stroke-width="1">
      <rect width="327" height="496" rx="31" stroke="none"/>
      <rect x="0.5" y="0.5" width="326" height="495" rx="30.5" fill="none"/>
    </g>
    <path id="Tracciato_743" data-name="Tracciato 743" d="M-88.17-.3a13.717,13.717,0,0,0,1.6-.234.512.512,0,0,0,.233-.293V-.937q0-.244.078-1.766.019-.429.019-.839L-86.265-4.7l.02-1.317-.01-2.449.01-1.756a2.891,2.891,0,0,0-.171-1.356,1.45,1.45,0,0,0-.933-.346,4.42,4.42,0,0,1-.83-.151.17.17,0,0,1-.078-.156.7.7,0,0,1,.029-.176.778.778,0,0,1,.449-.1q.049,0,.269-.024a3.767,3.767,0,0,1,.415-.024h.8l2.568-.029a9.921,9.921,0,0,1,3.052.322,2.812,2.812,0,0,1,1.392,1.089,2.994,2.994,0,0,1,.518,1.714,2.971,2.971,0,0,1-1.882,2.744,4.922,4.922,0,0,0-.507.293q.331.7.926,1.688l1.238,2.127a12.044,12.044,0,0,0,1.026,1.472,2.342,2.342,0,0,0,.689.494,5.886,5.886,0,0,0,1.363.372q.01.1.01.156a1.37,1.37,0,0,1-.01.146q-1.338.02-3.135.02-.127,0-.352-.02Q-80.093-1.3-81.03-2.9l-1.445-2.641a1.76,1.76,0,0,0-.483-.513,1.06,1.06,0,0,0-.5-.1l-.83.009-.273-.009q-.029.313-.029,1.279v3.34a1.8,1.8,0,0,0,.078.518.623.623,0,0,0,.269.3,5.794,5.794,0,0,0,1.1.337l.4.1a.41.41,0,0,1,.078.264,2.382,2.382,0,0,1-.371.049q-.877,0-1.238-.02-.185-.01-.3-.01l-1.326.02L-87.2.01q-.088,0-.887.029l-.2-.039-.02-.1Q-88.306-.186-88.17-.3Zm3.624-6.387q.264.01.391.01a9.256,9.256,0,0,0,1.621-.166,2.652,2.652,0,0,0,1.045-.414,2.162,2.162,0,0,0,.669-.853,2.7,2.7,0,0,0,.269-1.17,2.86,2.86,0,0,0-.42-1.4,2.453,2.453,0,0,0-1.089-.946,4.106,4.106,0,0,0-1.841-.38q-.264,0-.684.029-.039.507-.039.78l.049,1.823-.01.751Q-84.585-7.869-84.546-6.689Zm16.26,5.361a.517.517,0,0,1,.059.186,1.259,1.259,0,0,1-.234.518,2.1,2.1,0,0,1-.674.713,1.211,1.211,0,0,1-.645.146A1.283,1.283,0,0,1-70.835-.2a1.829,1.829,0,0,1-.3-.908l-1.094.762a4.5,4.5,0,0,1-.879.42,4.709,4.709,0,0,1-1.172.127,1.043,1.043,0,0,1-.786-.3,1.057,1.057,0,0,1-.288-.767,2.67,2.67,0,0,1,.827-1.611A6.062,6.062,0,0,1-72.283-4q1-.42,1.223-.537.02-.322.02-.7a2.867,2.867,0,0,0-.348-1.68,1.194,1.194,0,0,0-.994-.439,1.863,1.863,0,0,0-1.264.527,2.332,2.332,0,0,0-.549,1.25,2.069,2.069,0,0,1-.225.547,1.367,1.367,0,0,1-.674.273.652.652,0,0,1-.391-.127.192.192,0,0,1-.1-.156A3.368,3.368,0,0,1-75.039-6.2a3.586,3.586,0,0,1,1.367-1.338,3.141,3.141,0,0,1,1.44-.444,3.849,3.849,0,0,1,1.25.151,1.688,1.688,0,0,1,.723.532,1.7,1.7,0,0,1,.381.83,15.264,15.264,0,0,1,.039,1.533l-.029,1.553.01,1.133q0,.225-.01.381-.01.283-.01.42a.72.72,0,0,0,.186.518.586.586,0,0,0,.439.2.766.766,0,0,0,.635-.371l.117-.156A.91.91,0,0,1-68.286-1.328Zm-2.861-.283q.069-1.24.069-1.748,0-.264-.029-.713a6.731,6.731,0,0,0-1.391.713,4.124,4.124,0,0,0-1.166,1.1,1.5,1.5,0,0,0-.314.85.851.851,0,0,0,.26.635.894.894,0,0,0,.652.254,1.717,1.717,0,0,0,.735-.215A4.91,4.91,0,0,0-71.148-1.611Zm10.85-.176.01.635a4.7,4.7,0,0,1-1.5,1.133A4.363,4.363,0,0,1-63.54.3a3.541,3.541,0,0,1-1.973-.571,3.687,3.687,0,0,1-1.353-1.616,4.944,4.944,0,0,1-.474-2.051,4.079,4.079,0,0,1,.571-2.085,3.677,3.677,0,0,1,1.514-1.465,5.163,5.163,0,0,1,2.368-.483,3.8,3.8,0,0,1,2.08.469.822.822,0,0,1,.4.7.7.7,0,0,1-.205.518.714.714,0,0,1-.527.205,1.61,1.61,0,0,1-1.074-.605,2.478,2.478,0,0,0-.654-.513,1.484,1.484,0,0,0-.654-.142,1.784,1.784,0,0,0-1.445.713,3.99,3.99,0,0,0-.8,2.549,3.691,3.691,0,0,0,.82,2.52,2.477,2.477,0,0,0,1.914.938A3.456,3.456,0,0,0-61.68-.864,5.65,5.65,0,0,0-60.3-1.787Zm8.33,0,.01.635a4.7,4.7,0,0,1-1.5,1.133A4.363,4.363,0,0,1-55.21.3a3.541,3.541,0,0,1-1.973-.571,3.687,3.687,0,0,1-1.353-1.616,4.944,4.944,0,0,1-.474-2.051,4.079,4.079,0,0,1,.571-2.085,3.677,3.677,0,0,1,1.514-1.465,5.163,5.163,0,0,1,2.368-.483,3.8,3.8,0,0,1,2.08.469.822.822,0,0,1,.4.7.7.7,0,0,1-.205.518.714.714,0,0,1-.527.205,1.61,1.61,0,0,1-1.074-.605,2.478,2.478,0,0,0-.654-.513,1.484,1.484,0,0,0-.654-.142,1.784,1.784,0,0,0-1.445.713,3.99,3.99,0,0,0-.8,2.549,3.691,3.691,0,0,0,.82,2.52A2.477,2.477,0,0,0-54.7-.615,3.456,3.456,0,0,0-53.35-.864,5.65,5.65,0,0,0-51.968-1.787Zm1.24-2.139a4.128,4.128,0,0,1,.278-1.421A3.947,3.947,0,0,1-49.6-6.7,3.925,3.925,0,0,1-48.4-7.6a5.153,5.153,0,0,1,2.168-.41,4.1,4.1,0,0,1,3.052,1.25A4.142,4.142,0,0,1-41.958-3.75,3.762,3.762,0,0,1-43.242-.962,4.514,4.514,0,0,1-46.489.264a4.42,4.42,0,0,1-2.285-.635,4.108,4.108,0,0,1-1.377-1.416A4,4,0,0,1-50.728-3.926Zm4.321,3.809a2.816,2.816,0,0,0,1.433-.4,2.776,2.776,0,0,0,1.1-1.284,4.805,4.805,0,0,0,.411-2.046,5.973,5.973,0,0,0-.318-1.768,2.941,2.941,0,0,0-.978-1.509,2.486,2.486,0,0,0-1.551-.5,3.18,3.18,0,0,0-1.316.3,2.514,2.514,0,0,0-1.135,1.162,5.215,5.215,0,0,0-.465,2.441,3.95,3.95,0,0,0,.807,2.69A2.574,2.574,0,0,0-46.406-.117ZM-40.728-12.1v-.215q.273-.088.605-.186.491-.156,1.453-.479h.461v.538q0,8.024-.049,9.568-.029.909-.029.968A4.07,4.07,0,0,0-38.2-.684q.117.176.718.244a2.482,2.482,0,0,1,.708.137.14.14,0,0,1,.078.137.21.21,0,0,1-.044.151A.227.227,0,0,1-36.9.029q-.068,0-1.025-.033L-39.2-.049l-1.641.078a.311.311,0,0,1-.234-.06.174.174,0,0,1-.059-.14.166.166,0,0,1,.063-.145,3.56,3.56,0,0,1,.7-.153,2.554,2.554,0,0,0,.732-.181.492.492,0,0,0,.122-.327q.039-.352.039-1.982l-.01-2.246.029-2.324-.01-2.324L-39.438-11a.872.872,0,0,0-.107-.493,1.074,1.074,0,0,0-.459-.3Q-40.532-12-40.728-12.1Zm6.865,2.451.3.01.039.928-.02,1.2q.186.01.234.01.254,0,.967-.039.459-.029.879-.029.2,0,.586.01.02.2.02.313a2.152,2.152,0,0,1-.059.4h-.166l-1.514.049-.752.02-.176.02a1.861,1.861,0,0,0-.078.566l.029,1.465-.02,2.578A2.348,2.348,0,0,0-33.325-.8a.888.888,0,0,0,.762.342,5.422,5.422,0,0,0,.957-.156,1.71,1.71,0,0,0,.576-.322h.088a.191.191,0,0,1,.142.054.191.191,0,0,1,.054.142l-.01.068A2.537,2.537,0,0,1-31.719,0a4.071,4.071,0,0,1-1.44.21,1.777,1.777,0,0,1-1.05-.293,1.3,1.3,0,0,1-.532-.693,7.929,7.929,0,0,1-.117-1.748l.039-2.2-.01-1.055v-.391q0-.273-.02-.547l-.166-.01-.8.029-.078.01a.233.233,0,0,1-.161-.049.153.153,0,0,1-.054-.117.258.258,0,0,1,.073-.19,1.815,1.815,0,0,1,.444-.229A2.31,2.31,0,0,0-35-7.681a3.21,3.21,0,0,0,.571-.659,5.782,5.782,0,0,0,.332-.742Q-33.94-9.482-33.862-9.648Zm10.977,8.32a.517.517,0,0,1,.059.186,1.259,1.259,0,0,1-.234.518,2.1,2.1,0,0,1-.674.713,1.211,1.211,0,0,1-.645.146A1.283,1.283,0,0,1-25.435-.2a1.829,1.829,0,0,1-.3-.908l-1.094.762a4.5,4.5,0,0,1-.879.42,4.709,4.709,0,0,1-1.172.127,1.043,1.043,0,0,1-.786-.3,1.057,1.057,0,0,1-.288-.767,2.67,2.67,0,0,1,.827-1.611A6.062,6.062,0,0,1-26.883-4q1-.42,1.223-.537.02-.322.02-.7a2.867,2.867,0,0,0-.348-1.68,1.194,1.194,0,0,0-.994-.439,1.863,1.863,0,0,0-1.264.527,2.332,2.332,0,0,0-.549,1.25,2.069,2.069,0,0,1-.225.547,1.367,1.367,0,0,1-.674.273.652.652,0,0,1-.391-.127.192.192,0,0,1-.1-.156A3.368,3.368,0,0,1-29.639-6.2a3.586,3.586,0,0,1,1.367-1.338,3.141,3.141,0,0,1,1.44-.444,3.849,3.849,0,0,1,1.25.151,1.688,1.688,0,0,1,.723.532,1.7,1.7,0,0,1,.381.83,15.263,15.263,0,0,1,.039,1.533l-.029,1.553.01,1.133q0,.225-.01.381-.01.283-.01.42a.72.72,0,0,0,.186.518.586.586,0,0,0,.439.2.766.766,0,0,0,.635-.371l.117-.156A.91.91,0,0,1-22.886-1.328Zm-2.861-.283q.069-1.24.069-1.748,0-.264-.029-.713a6.731,6.731,0,0,0-1.391.713,4.124,4.124,0,0,0-1.166,1.1,1.5,1.5,0,0,0-.314.85.851.851,0,0,0,.26.635.894.894,0,0,0,.652.254,1.717,1.717,0,0,0,.735-.215A4.91,4.91,0,0,0-25.747-1.611ZM-10.571-7.09l.01-.283-.01-1.143.01-2.158a2.108,2.108,0,0,0-.2-1.143,2.5,2.5,0,0,0-1.143-.5l-.215-.059v-.107a1.315,1.315,0,0,1,.02-.215,10.632,10.632,0,0,0,2.285-.459l.5-.01q.039.664.039,1.484l-.039,3.76.068,4.238-.029,2.256q0,.693.1.781a1.316,1.316,0,0,0,.859.205q.137,0,.371.02v.176a1.185,1.185,0,0,1-.01.146q-.3.068-.625.127L-10,.3a2.855,2.855,0,0,1-.5.059V-.576q-.166.049-.518.2a7.252,7.252,0,0,1-2.8.645,2.949,2.949,0,0,1-1.572-.5,3.288,3.288,0,0,1-1.23-1.4,4.213,4.213,0,0,1-.43-1.836,4.6,4.6,0,0,1,.283-1.606,3.882,3.882,0,0,1,.742-1.274,3.6,3.6,0,0,1,.83-.659,3.431,3.431,0,0,1,.889-.415,5.9,5.9,0,0,1,1.162-.225,5.208,5.208,0,0,1,2.168.391Q-10.708-7.139-10.571-7.09Zm.01,6.035q.039-.654.039-2.7a8.7,8.7,0,0,0-.161-2.183,1.816,1.816,0,0,0-.8-.859,2.641,2.641,0,0,0-1.44-.405,2.452,2.452,0,0,0-1.9.869A3.739,3.739,0,0,0-15.6-3.76a3.323,3.323,0,0,0,.842,2.383,2.769,2.769,0,0,0,2.1.889,4.183,4.183,0,0,0,1.313-.2A2.4,2.4,0,0,0-10.561-1.055Zm10.6-4.1-3.916.029h-.742q-.449,0-.918.041a1.722,1.722,0,0,0-.088.4l.01.1v.1l-.01.479a3.81,3.81,0,0,0,.376,1.46A2.9,2.9,0,0,0-4.18-1.235a3.31,3.31,0,0,0,1.743.483,3.594,3.594,0,0,0,.889-.137,4.5,4.5,0,0,0,.938-.5l.7-.576.059.391a1.185,1.185,0,0,1-.01.146A4.29,4.29,0,0,1-.972-.449,5.3,5.3,0,0,1-2.339.166,4.768,4.768,0,0,1-3.433.254,3.5,3.5,0,0,1-4.8-.029,3.329,3.329,0,0,1-6.367-1.411a4.411,4.411,0,0,1-.571-2.31,4.954,4.954,0,0,1,.161-1.1A5.8,5.8,0,0,1-6.2-6.26a2.813,2.813,0,0,1,.693-.85,4.586,4.586,0,0,1,1.025-.654A3.822,3.822,0,0,1-3-8.027,2.948,2.948,0,0,1-1.519-7.7,2.944,2.944,0,0,1-.352-6.562a2.651,2.651,0,0,1,.386,1.27Zm-5.449-.352h.459q.5,0,2.969-.156a1.237,1.237,0,0,0,.479-.078.52.52,0,0,0,.176-.332,1.557,1.557,0,0,0-.2-.688,1.346,1.346,0,0,0-.6-.6,2.021,2.021,0,0,0-.942-.21,2.214,2.214,0,0,0-1.816.85A1.964,1.964,0,0,0-5.415-5.508ZM3.267.645Q3.149.586,2.515.322a4.783,4.783,0,0,1-.937-.713.79.79,0,0,1-.2-.518.575.575,0,0,1,.146-.41,2.137,2.137,0,0,1,.85-.43,8.717,8.717,0,0,0,1.045-.4q-.127-.088-.4-.254a2.789,2.789,0,0,1-1.455-2.49A2.976,2.976,0,0,1,2.49-7.1a3.244,3.244,0,0,1,2.368-.9,3.719,3.719,0,0,1,1.2.186,4.49,4.49,0,0,1,.928.488q.391.244.459.273a1.177,1.177,0,0,0,.352.049q.166,0,.806-.083t.757-.083a.712.712,0,0,1,.371.088,1.343,1.343,0,0,1,.117.654.307.307,0,0,1-.083.234.336.336,0,0,1-.239.078,3.991,3.991,0,0,1-.9-.171,4.629,4.629,0,0,0-.767-.171,1.606,1.606,0,0,0-.186.02,3.474,3.474,0,0,1,.42,1.533,2.818,2.818,0,0,1-.439,1.436A2.9,2.9,0,0,1,6.44-2.344a3.426,3.426,0,0,1-1.562.391q-.059,0-.332-.01a3.159,3.159,0,0,0-1.65.449q-.361.225-.361.42t.352.4A8.935,8.935,0,0,0,6.4-.117,4.749,4.749,0,0,1,8.149.205a2.007,2.007,0,0,1,.942.835,2.253,2.253,0,0,1,.317,1.138,2.3,2.3,0,0,1-.537,1.465A3.742,3.742,0,0,1,7.241,4.736a6.97,6.97,0,0,1-2.51.42,6.074,6.074,0,0,1-2.412-.381,3.184,3.184,0,0,1-1.206-.83,1.435,1.435,0,0,1-.356-.889A1.824,1.824,0,0,1,1.147,2.1,4.379,4.379,0,0,1,2.769.908Q3.13.723,3.267.645ZM2.876-4.932a3.608,3.608,0,0,0,.264,1.47,1.925,1.925,0,0,0,.723.879,1.729,1.729,0,0,0,.928.288A1.787,1.787,0,0,0,6.2-2.944a2.963,2.963,0,0,0,.562-1.978,3.093,3.093,0,0,0-.586-2.036,1.788,1.788,0,0,0-1.416-.7,1.623,1.623,0,0,0-1.406.664A3.551,3.551,0,0,0,2.876-4.932ZM2.554,4.111A3.576,3.576,0,0,0,4.8,4.795a6.3,6.3,0,0,0,1.929-.308,2.8,2.8,0,0,0,1.406-.879,1.793,1.793,0,0,0,.444-1.079,1.357,1.357,0,0,0-.156-.62A1.433,1.433,0,0,0,8,1.4a2.072,2.072,0,0,0-.708-.317A4.623,4.623,0,0,0,6.4.957Q4.761.83,4.39.83a2.787,2.787,0,0,0-1.865.7A1.673,1.673,0,0,0,1.89,2.842,1.65,1.65,0,0,0,2.554,4.111ZM10.093-12.1v-.215q.273-.088.605-.186.491-.156,1.453-.479h.461v.538q0,8.024-.049,9.568-.029.909-.029.968a4.07,4.07,0,0,0,.088,1.222q.117.176.718.244a2.482,2.482,0,0,1,.708.137.14.14,0,0,1,.078.137.21.21,0,0,1-.044.151.227.227,0,0,1-.161.044Q13.853.029,12.9,0L11.616-.049,9.976.029a.311.311,0,0,1-.234-.06.174.174,0,0,1-.059-.14.166.166,0,0,1,.063-.145,3.56,3.56,0,0,1,.7-.153,2.554,2.554,0,0,0,.732-.181A.492.492,0,0,0,11.3-.977q.039-.352.039-1.982l-.01-2.246.029-2.324-.01-2.324L11.382-11a.872.872,0,0,0-.107-.493,1.074,1.074,0,0,0-.459-.3Q10.288-12,10.093-12.1Zm5.459.1a.739.739,0,0,1,.249-.557.845.845,0,0,1,.6-.234.887.887,0,0,1,.635.264.781.781,0,0,1,.273.566.8.8,0,0,1-.273.571.879.879,0,0,1-.635.269.822.822,0,0,1-.605-.244A.859.859,0,0,1,15.552-12Zm-.82,5.068.01-.288q.635-.186.684-.216a3.2,3.2,0,0,0,.737-.48,3.326,3.326,0,0,0,.649-.725A1.2,1.2,0,0,1,17-8.662l.117.01q.039.469.039.684,0,.049-.02.439v.518l.01,2.813-.029,2.979a.73.73,0,0,0,.117.5,1.906,1.906,0,0,0,.752.317,5.937,5.937,0,0,1,.586.186A.307.307,0,0,1,18.6-.1a.32.32,0,0,1-.049.146Q18.169.039,17.573,0,16.763-.068,16.5-.068q-.127,0-1.562.049a5.238,5.238,0,0,0-.566.049A.677.677,0,0,1,14.214,0a.215.215,0,0,1-.049-.117q0-.137.186-.215.039-.02,1-.224a.635.635,0,0,0,.41-.2,1.036,1.036,0,0,0,.166-.653q.02-.751.02-4.115a3.447,3.447,0,0,0-.059-.839.741.741,0,0,0-.259-.268A2.838,2.838,0,0,0,14.731-6.934Zm16.777-5.117q.078.645.078.742l-.039.869a6.351,6.351,0,0,1-.049.713.378.378,0,0,1-.146.039l-.088-.02a3.535,3.535,0,0,0-1.06-1.992,2.744,2.744,0,0,0-1.821-.625,2.669,2.669,0,0,0-1.826.625,1.886,1.886,0,0,0-.713,1.455,1.659,1.659,0,0,0,.5,1.162A11.266,11.266,0,0,0,28.892-7.5a16.488,16.488,0,0,1,2.236,1.321A3.461,3.461,0,0,1,32.144-5a3.282,3.282,0,0,1,.342,1.505,3.8,3.8,0,0,1-.542,1.965,3.509,3.509,0,0,1-1.46,1.383,5.414,5.414,0,0,1-2.432.464A7.665,7.665,0,0,1,25.522-.1a2.867,2.867,0,0,1-.869-.41A.467.467,0,0,1,24.5-.84a2.427,2.427,0,0,1,.02-.273,18.793,18.793,0,0,0,.146-1.895,1.685,1.685,0,0,1,.068-.537.154.154,0,0,1,.146-.068.176.176,0,0,1,.142.063.468.468,0,0,1,.073.239,3.311,3.311,0,0,0,1.113,2.148,3.188,3.188,0,0,0,2.256.947,3.152,3.152,0,0,0,1.421-.322A2.4,2.4,0,0,0,30.9-1.47a2.3,2.3,0,0,0,.366-1.187A2.179,2.179,0,0,0,30.708-4.1,7.867,7.867,0,0,0,28.472-5.63,16.681,16.681,0,0,1,26.284-6.9a4.821,4.821,0,0,1-1.23-1.387,2.756,2.756,0,0,1-.3-1.318,2.947,2.947,0,0,1,1.074-2.3,4.213,4.213,0,0,1,2.881-.942,5.824,5.824,0,0,1,1.719.225A4.094,4.094,0,0,1,31.509-12.051ZM41.128-1.787l.01.635a4.7,4.7,0,0,1-1.5,1.133A4.363,4.363,0,0,1,37.886.3a3.541,3.541,0,0,1-1.973-.571,3.687,3.687,0,0,1-1.353-1.616,4.944,4.944,0,0,1-.474-2.051,4.079,4.079,0,0,1,.571-2.085,3.677,3.677,0,0,1,1.514-1.465,5.163,5.163,0,0,1,2.368-.483,3.8,3.8,0,0,1,2.08.469.822.822,0,0,1,.4.7.7.7,0,0,1-.205.518.714.714,0,0,1-.527.205,1.61,1.61,0,0,1-1.074-.605,2.478,2.478,0,0,0-.654-.513,1.484,1.484,0,0,0-.654-.142,1.784,1.784,0,0,0-1.445.713,3.99,3.99,0,0,0-.8,2.549,3.691,3.691,0,0,0,.82,2.52,2.477,2.477,0,0,0,1.914.938,3.456,3.456,0,0,0,1.353-.249A5.65,5.65,0,0,0,41.128-1.787ZM42.056.029,42.017-.1A.448.448,0,0,1,42.1-.3l.576-.117.811-.146A.279.279,0,0,0,43.628-.7a2.623,2.623,0,0,0,.059-.751q0-3.315-.039-3.827a1.126,1.126,0,0,0-.176-.648,1.409,1.409,0,0,0-.7-.214,2.414,2.414,0,0,1-.527-.127l.039-.3a5.546,5.546,0,0,0,1.377-.724,3.656,3.656,0,0,0,.83-1.155l.332.01q.059.488.059,2.168l-.01.166a1.371,1.371,0,0,0,.02.186,5.659,5.659,0,0,1,.928-1.24l.225-.225a1.481,1.481,0,0,1,.264-.244,2.331,2.331,0,0,1,1.016-.41.926.926,0,0,1,.7.288.989.989,0,0,1,.273.708.68.68,0,0,1-.2.518.865.865,0,0,1-.605.244,2.333,2.333,0,0,1-.615-.166,2.363,2.363,0,0,0-.605-.166.617.617,0,0,0-.381.088,3.316,3.316,0,0,0-.664.879,1.8,1.8,0,0,0-.3.918l.049,1.615L45-1.174a1.47,1.47,0,0,0,.078.431.593.593,0,0,0,.2.166q1.055.088,1.25.127.137.01.205.02a1.2,1.2,0,0,1,.586.117.158.158,0,0,1,.088.146.287.287,0,0,1-.078.156l-1.084-.02-.41-.01-.6.01h-1L43.7,0ZM49.712-12a.739.739,0,0,1,.249-.557.845.845,0,0,1,.6-.234.887.887,0,0,1,.635.264.781.781,0,0,1,.273.566.8.8,0,0,1-.273.571.879.879,0,0,1-.635.269.822.822,0,0,1-.605-.244A.859.859,0,0,1,49.712-12Zm-.82,5.068.01-.288q.635-.186.684-.216a3.2,3.2,0,0,0,.737-.48,3.326,3.326,0,0,0,.649-.725,1.2,1.2,0,0,1,.186-.02l.117.01q.039.469.039.684,0,.049-.02.439v.518L51.3-4.2l-.029,2.979a.73.73,0,0,0,.117.5,1.906,1.906,0,0,0,.752.317,5.937,5.937,0,0,1,.586.186.307.307,0,0,1,.029.117.32.32,0,0,1-.049.146Q52.329.039,51.733,0q-.811-.068-1.074-.068-.127,0-1.562.049a5.238,5.238,0,0,0-.566.049A.677.677,0,0,1,48.374,0a.215.215,0,0,1-.049-.117q0-.137.186-.215.039-.02,1-.224a.635.635,0,0,0,.41-.2,1.036,1.036,0,0,0,.166-.653q.02-.751.02-4.115a3.447,3.447,0,0,0-.059-.839.741.741,0,0,0-.259-.268A2.838,2.838,0,0,0,48.892-6.934ZM55.7-9.648l.3.01.039.928-.02,1.2q.186.01.234.01.254,0,.967-.039.459-.029.879-.029.2,0,.586.01.02.2.02.313a2.152,2.152,0,0,1-.059.4h-.166L56.968-6.8l-.752.02-.176.02a1.861,1.861,0,0,0-.078.566l.029,1.465-.02,2.578A2.348,2.348,0,0,0,56.235-.8.888.888,0,0,0,57-.459a5.422,5.422,0,0,0,.957-.156,1.71,1.71,0,0,0,.576-.322h.088a.191.191,0,0,1,.142.054.191.191,0,0,1,.054.142l-.01.068A2.537,2.537,0,0,1,57.842,0a4.071,4.071,0,0,1-1.44.21,1.777,1.777,0,0,1-1.05-.293,1.3,1.3,0,0,1-.532-.693A7.929,7.929,0,0,1,54.7-2.529l.039-2.2-.01-1.055v-.391q0-.273-.02-.547l-.166-.01-.8.029-.078.01a.233.233,0,0,1-.161-.049.153.153,0,0,1-.054-.117.258.258,0,0,1,.073-.19,1.815,1.815,0,0,1,.444-.229,2.31,2.31,0,0,0,.591-.405,3.21,3.21,0,0,0,.571-.659,5.782,5.782,0,0,0,.332-.742Q55.62-9.482,55.7-9.648Zm5.83,0,.3.01.039.928-.02,1.2q.186.01.234.01.254,0,.967-.039.459-.029.879-.029.2,0,.586.01.02.2.02.313a2.152,2.152,0,0,1-.059.4h-.166L62.8-6.8l-.752.02-.176.02a1.861,1.861,0,0,0-.078.566l.029,1.465L61.8-2.148A2.348,2.348,0,0,0,62.065-.8a.888.888,0,0,0,.762.342,5.422,5.422,0,0,0,.957-.156,1.71,1.71,0,0,0,.576-.322h.088a.191.191,0,0,1,.142.054.191.191,0,0,1,.054.142l-.01.068A2.537,2.537,0,0,1,63.672,0a4.071,4.071,0,0,1-1.44.21,1.777,1.777,0,0,1-1.05-.293,1.3,1.3,0,0,1-.532-.693,7.929,7.929,0,0,1-.117-1.748l.039-2.2-.01-1.055v-.391q0-.273-.02-.547l-.166-.01-.8.029-.078.01a.233.233,0,0,1-.161-.049.153.153,0,0,1-.054-.117.258.258,0,0,1,.073-.19,1.815,1.815,0,0,1,.444-.229,2.31,2.31,0,0,0,.591-.405,3.21,3.21,0,0,0,.571-.659,5.782,5.782,0,0,0,.332-.742Q61.45-9.482,61.528-9.648ZM65.952-12a.739.739,0,0,1,.249-.557.845.845,0,0,1,.6-.234.887.887,0,0,1,.635.264.781.781,0,0,1,.273.566.8.8,0,0,1-.273.571.879.879,0,0,1-.635.269.822.822,0,0,1-.605-.244A.859.859,0,0,1,65.952-12Zm-.82,5.068.01-.288q.635-.186.684-.216a3.2,3.2,0,0,0,.737-.48,3.326,3.326,0,0,0,.649-.725,1.2,1.2,0,0,1,.186-.02l.117.01q.039.469.039.684,0,.049-.02.439v.518l.01,2.813-.029,2.979a.73.73,0,0,0,.117.5,1.906,1.906,0,0,0,.752.317,5.938,5.938,0,0,1,.586.186A.307.307,0,0,1,69-.1a.32.32,0,0,1-.049.146Q68.569.039,67.974,0,67.163-.068,66.9-.068q-.127,0-1.562.049a5.238,5.238,0,0,0-.566.049A.677.677,0,0,1,64.614,0a.215.215,0,0,1-.049-.117q0-.137.186-.215.039-.02,1-.224a.635.635,0,0,0,.41-.2,1.036,1.036,0,0,0,.166-.653q.02-.751.02-4.115a3.447,3.447,0,0,0-.059-.839.741.741,0,0,0-.259-.268A2.838,2.838,0,0,0,65.132-6.934ZM81.274-7.09l.01-.283-.01-1.143.01-2.158a2.108,2.108,0,0,0-.2-1.143,2.5,2.5,0,0,0-1.143-.5l-.215-.059v-.107a1.315,1.315,0,0,1,.02-.215,10.632,10.632,0,0,0,2.285-.459l.5-.01q.039.664.039,1.484l-.039,3.76L82.6-3.682l-.029,2.256q0,.693.1.781a1.316,1.316,0,0,0,.859.205q.137,0,.371.02v.176a1.185,1.185,0,0,1-.01.146q-.3.068-.625.127L81.851.3a2.855,2.855,0,0,1-.5.059V-.576q-.166.049-.518.2a7.252,7.252,0,0,1-2.8.645,2.949,2.949,0,0,1-1.572-.5,3.288,3.288,0,0,1-1.23-1.4,4.213,4.213,0,0,1-.43-1.836,4.6,4.6,0,0,1,.283-1.606,3.882,3.882,0,0,1,.742-1.274,3.6,3.6,0,0,1,.83-.659,3.431,3.431,0,0,1,.889-.415,5.9,5.9,0,0,1,1.162-.225,5.208,5.208,0,0,1,2.168.391Q81.138-7.139,81.274-7.09Zm.01,6.035q.039-.654.039-2.7a8.7,8.7,0,0,0-.161-2.183,1.816,1.816,0,0,0-.8-.859A2.641,2.641,0,0,0,78.92-7.2a2.452,2.452,0,0,0-1.9.869,3.739,3.739,0,0,0-.778,2.568,3.323,3.323,0,0,0,.842,2.383,2.769,2.769,0,0,0,2.1.889,4.183,4.183,0,0,0,1.313-.2A2.4,2.4,0,0,0,81.284-1.055ZM85.532-12a.739.739,0,0,1,.249-.557.845.845,0,0,1,.6-.234.887.887,0,0,1,.635.264.781.781,0,0,1,.273.566.8.8,0,0,1-.273.571.879.879,0,0,1-.635.269.822.822,0,0,1-.605-.244A.859.859,0,0,1,85.532-12Zm-.82,5.068.01-.288q.635-.186.684-.216a3.2,3.2,0,0,0,.737-.48,3.326,3.326,0,0,0,.649-.725,1.2,1.2,0,0,1,.186-.02l.117.01q.039.469.039.684,0,.049-.02.439v.518l.01,2.813-.029,2.979a.73.73,0,0,0,.117.5,1.906,1.906,0,0,0,.752.317,5.938,5.938,0,0,1,.586.186.307.307,0,0,1,.029.117.32.32,0,0,1-.049.146Q88.149.039,87.554,0q-.811-.068-1.074-.068-.127,0-1.562.049a5.238,5.238,0,0,0-.566.049A.677.677,0,0,1,84.194,0a.215.215,0,0,1-.049-.117q0-.137.186-.215.039-.02,1-.224a.635.635,0,0,0,.41-.2A1.036,1.036,0,0,0,85.9-1.4q.02-.751.02-4.115a3.447,3.447,0,0,0-.059-.839.741.741,0,0,0-.259-.268A2.838,2.838,0,0,0,84.712-6.934Z" transform="translate(-20439 -7038.179)" fill="#e0dbc5"/>
    <path id="Tracciato_744" data-name="Tracciato 744" d="M-105.358-25.678l-.021-1.008q3.254,0,4.766-.168.588-.063.819-.063.189,0,.567.021a11.649,11.649,0,0,1,1.638,1.68q.168.189.378.42l4.43,4.892.63.756q1.344,1.575,2.446,2.688t4.294,4.64l5.018,5.564q.735.819,1.89,2.037l.021-.336q-.126-2.918-.126-3.086l.084-1.26-.042-1.974v-.9q0-.861-.147-5.312-.021-.609-.168-2.3t-.147-2.971a6.931,6.931,0,0,0-.273-2.687,3.826,3.826,0,0,0-1.785-.567q-.378-.021-1.176-.126a5.877,5.877,0,0,1-1.113-.1.758.758,0,0,1-.336-.357,1.934,1.934,0,0,1,.189-.63A3.905,3.905,0,0,1-82.41-27a9.049,9.049,0,0,1,1.459.147,9.5,9.5,0,0,0,1.564.147q.966,0,3-.126,1.155-.084,1.6-.084h.357l-.042.651a2.728,2.728,0,0,1-.924.178,4.811,4.811,0,0,0-1.092.178,2.388,2.388,0,0,0-.9.4,1.645,1.645,0,0,0-.5,1.113l.231,6.635.168,3.044-.021.882.126,4.22q.126,4.325.126,7.517,0,.693-.084,3l-.979.084q-.735-.84-5.062-5.291Q-84.4-5.333-84.756-5.753l-1.806-2.079q-1.05-1.155-1.365-1.47l-.462-.462q-2.29-2.6-5.944-6.509-.987-1.05-2.9-3.275-1.2-1.407-1.512-1.722a7.472,7.472,0,0,0-.861-.714l-.063.714q0,4.094.21,11.3l.147,6.95q.021.882.1,1.7l.735.168q1.995.189,3.926.567a1.947,1.947,0,0,0,.252.189l-.021.8a1.926,1.926,0,0,1-.546.1,4.7,4.7,0,0,1-.567-.042q-2.079-.168-5.06-.168-2.1,0-3.7.1l-.294.021a5.049,5.049,0,0,1-.546-.042l-.021-.63L-104.5-.5l.987-.147a9.858,9.858,0,0,0,1.932-.42,1.539,1.539,0,0,0,.651-.441,29.017,29.017,0,0,0,.231-4.241q0-1.3-.063-4.766v-2.855l-.042-5.963a25.876,25.876,0,0,0-.273-4.7,1.391,1.391,0,0,0-.525-.672,4.422,4.422,0,0,0-2.089-.714A13.954,13.954,0,0,1-105.358-25.678ZM-71.87-.672A3.22,3.22,0,0,1-70.925-.9q3.212-.21,3.674-.767t.462-5.39l-.021-2.206v-2.312l-.084-2.542.042-1.492-.021-1.639v-1.933l-.042-.861.042-1.093q.021-.378.021-.882,0-1.324-.126-2.795a2.842,2.842,0,0,0-.231-.568,7.06,7.06,0,0,0-2.509-.536,6.553,6.553,0,0,1-1.963-.3q-.168-.126-.189-.651H-70.1l5.573.126q2.145,0,5.72-.126a4.46,4.46,0,0,1-.042.63,13.74,13.74,0,0,1-1.407.231,10.858,10.858,0,0,0-2.436.441.718.718,0,0,0-.4.357,3.524,3.524,0,0,0-.252,1.408l-.1,2.711.084,9.351v3.7q-.042,1.744-.042,2.375a23.05,23.05,0,0,0,.115,3,1.738,1.738,0,0,0,.4.935,2.035,2.035,0,0,0,.934.452,8.328,8.328,0,0,0,1.512.252,2.569,2.569,0,0,1,1.491.336,2.114,2.114,0,0,1,.063.462v.168Q-60.808,0-61.712,0q-.526,0-1.872-.063l-2.9.042-4.942-.021h-.4ZM-32.67-25.7a21.515,21.515,0,0,1,.252,3.317q0,.336-.021.9a2.32,2.32,0,0,1-.441.063,2.147,2.147,0,0,1-.357-.042,7.367,7.367,0,0,0-2.876-3.779,8.736,8.736,0,0,0-4.934-1.323,8.374,8.374,0,0,0-2.625.357,10.957,10.957,0,0,0-3.317,1.8A10.746,10.746,0,0,0-49.4-21.678a13.64,13.64,0,0,0-1.564,3.842,18.522,18.522,0,0,0-.577,4.609,17.6,17.6,0,0,0,1.365,7.422,8.611,8.611,0,0,0,3.737,4.178A10.182,10.182,0,0,0-41.656-.378l.987-.021a15.7,15.7,0,0,0,2.289-.4,10.691,10.691,0,0,0,2.53-1.039A8.35,8.35,0,0,0-33.9-3.527a10.6,10.6,0,0,0,1.627-2.541l.252-.084a.715.715,0,0,1,.315.126q-.021.5-.042.651-.882,3.548-1.281,4.85-.336.084-.84.252a20.886,20.886,0,0,1-6.572.84A20.226,20.226,0,0,1-45.4.115a20.514,20.514,0,0,1-3.59-1.407,11.679,11.679,0,0,1-3.412-2.53A11.86,11.86,0,0,1-54.779-7.8a14.785,14.785,0,0,1-.9-5.239,13.988,13.988,0,0,1,.714-4.693,16.291,16.291,0,0,1,2.2-4.063,13.948,13.948,0,0,1,3.517-3.422,13.29,13.29,0,0,1,4.5-1.932,24.667,24.667,0,0,1,4.934-.378,15.149,15.149,0,0,1,4.388.619A8.369,8.369,0,0,1-32.67-25.7ZM-29.416.336l.021-.462a4.35,4.35,0,0,1,1.659-.5,7.494,7.494,0,0,0,1.89-.389,1.184,1.184,0,0,0,.567-.557,3.578,3.578,0,0,0,.294-1.408l-.042-1.6.021-1.471-.042-1.723q0-1.072.063-2.679t.063-1.712V-17.9q0-1.366.063-2.952t.063-2.2a13.374,13.374,0,0,0-.084-2.1.657.657,0,0,0-.315-.42,5.807,5.807,0,0,0-1.512-.231q-.987-.084-1.365-.147a.969.969,0,0,1-.1-.378q0-.168.021-.4.5-.042.777-.042l1.974.021q2.1,0,4.451-.168,1.155-.084,3.485-.147a1.648,1.648,0,0,1,.042.357.5.5,0,0,1-.094.325.528.528,0,0,1-.325.157q-2.75.231-3.244.682t-.493,2.3q0,3.4.1,7.013l.084,1.974a19.559,19.559,0,0,0,2.729.21q.714.042.84.042l3.086-.042,2.037.063,5.333-.167a6.753,6.753,0,0,0,1.2-.084q.126-3.641.126-7.051a26.5,26.5,0,0,0-.147-3.871.719.719,0,0,0-.294-.481q-.126-.063-2.184-.335-.357-.042-.672-.1a2.365,2.365,0,0,1-.1-.732,8.451,8.451,0,0,1,.9-.108l1.386.075q1.911.093,3.842.093,1.239,0,4.115-.21a3.938,3.938,0,0,1-.1.756,6.566,6.566,0,0,1-1.911.4,3.947,3.947,0,0,0-1.2.231,1.425,1.425,0,0,0-.4,1.2q0,.21.021.462.021.756.021.987v2.415L-2.75-19l-.042,1.953.021,3.653-.042,3.443q0,1.029.063,3.212l-.021,2.834A5.835,5.835,0,0,0-2.52-1.869a.772.772,0,0,0,.42.42l1.7.378a5.168,5.168,0,0,1,1.5.514.6.6,0,0,1,.241.472L1.281.168l-.1.021A1.18,1.18,0,0,1,.9.147a26.61,26.61,0,0,0-4.808-.42q-1.974,0-2.8.063t-3.454.462a2.946,2.946,0,0,1-.042-.4,2.57,2.57,0,0,1,.042-.4A5.406,5.406,0,0,1-8.1-1.071a2.761,2.761,0,0,0,1.659-.672,1.461,1.461,0,0,0,.4-1.113l-.021-3.023Q-6-7.244-6-7.37q0-1.785-.063-5.207-.063-.294-.231-.357a33.278,33.278,0,0,0-5.585.084q-1.008.063-1.512.063t-2.11-.052q-1.606-.052-2.971-.052-.735,0-1.239.021-.966.021-1.071.021a.9.9,0,0,0-.661.189,1.018,1.018,0,0,0-.178.693l.021,1.47q0,.357-.1,3.968-.021.735-.021,1.218a21.791,21.791,0,0,0,.21,3.821.923.923,0,0,0,.378.609,8.56,8.56,0,0,0,1.638.441,11.272,11.272,0,0,1,1.47.4l.126.21a.2.2,0,0,1-.084.168.543.543,0,0,1-.357.1q-.168,0-.4-.01t-.9-.031Q-20.723.378-22.319.252-23.348.168-24.146.168q-1.344,0-4.3.144Q-29.017.336-29.416.336ZM3.359-.672A3.22,3.22,0,0,1,4.3-.9q3.212-.21,3.674-.767T8.44-7.06L8.419-9.266v-2.312L8.335-14.12l.042-1.492-.021-1.639v-1.933l-.042-.861.042-1.093q.021-.378.021-.882,0-1.324-.126-2.795a2.842,2.842,0,0,0-.231-.568,7.06,7.06,0,0,0-2.509-.536,6.553,6.553,0,0,1-1.963-.3q-.168-.126-.189-.651H5.126l5.573.126q2.145,0,5.72-.126a4.46,4.46,0,0,1-.042.63,13.74,13.74,0,0,1-1.407.231,10.858,10.858,0,0,0-2.436.441.718.718,0,0,0-.4.357,3.524,3.524,0,0,0-.252,1.408l-.1,2.711.084,9.351v3.7q-.042,1.744-.042,2.375a23.05,23.05,0,0,0,.115,3,1.738,1.738,0,0,0,.4.935,2.035,2.035,0,0,0,.934.452,8.328,8.328,0,0,0,1.512.252,2.569,2.569,0,0,1,1.491.336,2.114,2.114,0,0,1,.063.462v.168Q14.421,0,13.517,0q-.526,0-1.872-.063l-2.9.042L3.8-.042H3.4Zm15.515.021a29.491,29.491,0,0,0,3.448-.5,1.1,1.1,0,0,0,.5-.629v-.231q0-.524.167-3.8.042-.923.042-1.8l-.063-2.5.042-2.832-.021-5.266.021-3.776a6.216,6.216,0,0,0-.367-2.916,3.117,3.117,0,0,0-2.005-.745,9.5,9.5,0,0,1-1.785-.325.366.366,0,0,1-.168-.336,1.5,1.5,0,0,1,.063-.378,1.673,1.673,0,0,1,.966-.21q.1,0,.577-.052A8.1,8.1,0,0,1,21.185-27h1.722l5.522-.063a21.33,21.33,0,0,1,6.561.693,6.046,6.046,0,0,1,2.992,2.341,6.438,6.438,0,0,1,1.113,3.685q0,3.863-4.047,5.9a10.581,10.581,0,0,0-1.09.63q.713,1.51,1.991,3.628L38.61-5.615a25.894,25.894,0,0,0,2.205,3.165A5.035,5.035,0,0,0,42.3-1.387a12.654,12.654,0,0,0,2.93.8q.021.21.021.336a2.944,2.944,0,0,1-.021.315Q42.349.1,38.486.1q-.273,0-.756-.042Q36.239-2.8,34.224-6.225L31.116-11.9a3.783,3.783,0,0,0-1.039-1.1A2.28,2.28,0,0,0,29-13.227l-1.785.02-.588-.02q-.063.672-.063,2.75V-3.3a3.873,3.873,0,0,0,.168,1.113,1.34,1.34,0,0,0,.577.64,12.457,12.457,0,0,0,2.362.724l.861.21a.882.882,0,0,1,.168.567,5.121,5.121,0,0,1-.8.1q-1.886,0-2.662-.042Q26.84,0,26.588,0L23.737.042,20.95.021q-.189,0-1.907.063L18.624,0l-.042-.21Q18.582-.4,18.874-.651Zm7.791-13.731q.567.021.84.021a19.9,19.9,0,0,0,3.485-.356,5.7,5.7,0,0,0,2.247-.891,4.648,4.648,0,0,0,1.438-1.834,5.8,5.8,0,0,0,.577-2.515,6.149,6.149,0,0,0-.9-3.018,5.274,5.274,0,0,0-2.341-2.033,8.827,8.827,0,0,0-3.958-.817q-.567,0-1.47.063-.084,1.09-.084,1.676l.1,3.919-.021,1.614Q26.581-16.918,26.665-14.382ZM45.6-.321a1,1,0,0,1,.357-.225,6.554,6.554,0,0,1,1.218-.168,8.359,8.359,0,0,0,2.52-.379,2.034,2.034,0,0,0,.294-1.178l-.021-1.472.021-5.342-.042-2.524.021-5.279-.1-5.994a5.859,5.859,0,0,0-.273-2.419,3.883,3.883,0,0,0-2.247-.463,9.9,9.9,0,0,1-1.407-.126.432.432,0,0,1-.273-.378,1,1,0,0,1,.1-.4.71.71,0,0,1,.336-.1q.294,0,.714.021a25.317,25.317,0,0,0,2.562.126l1.554-.042,3.7.084q2.771,0,4.325-.063t2.1-.063q.483,0,2.394.084l2.981-.021.357.063,1.743-.063.21.1a1.133,1.133,0,0,1,.147.357,6.528,6.528,0,0,1-.094.9,7.205,7.205,0,0,0-.094.756q0,2.184.147,3.7a.2.2,0,0,1-.124.168,1.274,1.274,0,0,1-.412-.063,11.228,11.228,0,0,1-.62-1.407,16.329,16.329,0,0,0-1.166-2.331,3.245,3.245,0,0,0-.819-1.05,2.853,2.853,0,0,0-1.219-.168q-.189,0-1.912-.042-.462-.021-.9-.021l-5.988.126h-.525q-1.156,0-1.387.294a6.88,6.88,0,0,0-.357,2.96q0,.252.1,5.039V-14.4a1.911,1.911,0,0,0,.5.063h.357q.357,0,1.05.021,1.092.042,1.47.042a4.048,4.048,0,0,0,.441-.021q2.268-.084,5.837-.084a2.45,2.45,0,0,0,1.3-.441,4.4,4.4,0,0,0,.472-1.974q.157-1.6.7-1.806a1.2,1.2,0,0,1,.5.1,1.3,1.3,0,0,1,.042.315,4.437,4.437,0,0,1-.042.483q-.1.777-.1,4.871,0,1.092.115,2.436t.115,1.449a2.71,2.71,0,0,1-.063.5.654.654,0,0,1-.273.084H65.8a7.73,7.73,0,0,1-.651-1.827,5.906,5.906,0,0,0-1.144-2.656,2.876,2.876,0,0,0-1.942-.535q-.294,0-1.071.031t-2.31.031H57.319a35.314,35.314,0,0,0-3.821.126l-.021.694.021,3.87-.021,2.44L53.5-3.805a6.441,6.441,0,0,0,.273,2.481,1.933,1.933,0,0,0,1.554.463l1.281-.021q.168,0,1.312.031t2.824.031a26.41,26.41,0,0,0,5.4-.348A4.679,4.679,0,0,0,68.353-2.4a14.7,14.7,0,0,0,2.194-3.813q.4-.864.8-.864a.737.737,0,0,1,.42.168,23.385,23.385,0,0,0-.693,2.729,23.462,23.462,0,0,0-.273,3,1.912,1.912,0,0,1-.336,1.155H70L64.1.042,61.456.021,55.157.1H52.6q-.483,0-.9.021-3.779.168-5.564.168a.666.666,0,0,1-.43-.1.389.389,0,0,1-.115-.307ZM73.339-25.678l-.021-1.008q3.254,0,4.766-.168.588-.063.819-.063.189,0,.567.021a11.649,11.649,0,0,1,1.638,1.68q.168.189.378.42l4.43,4.892.63.756q1.344,1.575,2.446,2.688t4.294,4.64L98.3-6.257q.735.819,1.89,2.037l.021-.336q-.126-2.918-.126-3.086l.084-1.26-.042-1.974v-.9q0-.861-.147-5.312-.021-.609-.168-2.3t-.147-2.971a6.931,6.931,0,0,0-.273-2.687,3.826,3.826,0,0,0-1.785-.567q-.378-.021-1.176-.126a5.877,5.877,0,0,1-1.113-.1.758.758,0,0,1-.336-.357,1.934,1.934,0,0,1,.189-.63A3.905,3.905,0,0,1,96.288-27a9.049,9.049,0,0,1,1.459.147,9.5,9.5,0,0,0,1.564.147q.966,0,3-.126,1.155-.084,1.6-.084h.357l-.042.651a2.728,2.728,0,0,1-.924.178,4.811,4.811,0,0,0-1.092.178,2.388,2.388,0,0,0-.9.4,1.645,1.645,0,0,0-.5,1.113l.231,6.635.168,3.044-.021.882.126,4.22q.126,4.325.126,7.517,0,.693-.084,3l-.979.084Q99.634.147,95.307-4.3,94.3-5.333,93.942-5.753L92.136-7.832q-1.05-1.155-1.365-1.47l-.462-.462q-2.29-2.6-5.944-6.509-.987-1.05-2.9-3.275-1.2-1.407-1.512-1.722a7.472,7.472,0,0,0-.861-.714l-.063.714q0,4.094.21,11.3l.147,6.95q.021.882.1,1.7l.735.168q1.995.189,3.926.567A1.947,1.947,0,0,0,84.4-.4l-.021.8a1.926,1.926,0,0,1-.546.1,4.7,4.7,0,0,1-.567-.042Q81.192.294,78.21.294q-2.1,0-3.7.1L74.221.42a5.049,5.049,0,0,1-.546-.042l-.021-.63L74.2-.5l.987-.147a9.858,9.858,0,0,0,1.932-.42,1.539,1.539,0,0,0,.651-.441A29.017,29.017,0,0,0,78-5.753q0-1.3-.063-4.766v-2.855L77.9-19.337a25.876,25.876,0,0,0-.273-4.7,1.391,1.391,0,0,0-.525-.672,4.422,4.422,0,0,0-2.089-.714A13.954,13.954,0,0,1,73.339-25.678ZM-93.973,34.694a4.681,4.681,0,0,1,1.386-.338,3.547,3.547,0,0,0,1.708-.548,13.591,13.591,0,0,0,.435-4.515V26.744l.032-1.532-.032-1.129.032-2.08-.048-5.241a1.8,1.8,0,0,0-.258-1.161,4.233,4.233,0,0,0-1.966-.742,2.394,2.394,0,0,1-.806-.266.666.666,0,0,1-.177-.459,2.893,2.893,0,0,1,.516-.081h1.144l.6-.016a7.6,7.6,0,0,1,1.321.129q1.482.1,3.045.1.451,0,1.289-.048,2.224-.129,3.19-.129a16.866,16.866,0,0,1,3.682.387,12.935,12.935,0,0,1,3.569,1.434,9.216,9.216,0,0,1,2.344,2.087,10.371,10.371,0,0,1,1.821,3.11,10.919,10.919,0,0,1,.62,3.795,10.713,10.713,0,0,1-.685,3.738,9.861,9.861,0,0,1-1.909,3.215A9.563,9.563,0,0,1-75.6,33.9a13.96,13.96,0,0,1-3.835,1.184,25.006,25.006,0,0,1-3.819.193q-1.821,0-2.965-.113a6.845,6.845,0,0,0-.967-.064,1.085,1.085,0,0,0-.177.016l-6.574.129-.032-.129A.473.473,0,0,1-94,34.936Zm8.2-.645a7.619,7.619,0,0,0,2.481.419,10.268,10.268,0,0,0,3.19-.508,9.058,9.058,0,0,0,2.763-1.434,8.748,8.748,0,0,0,1.974-2.095,9.586,9.586,0,0,0,1.1-2.1,11.634,11.634,0,0,0,.451-3.561,11.147,11.147,0,0,0-.886-4.254,7.923,7.923,0,0,0-2.151-2.868,9.572,9.572,0,0,0-3.634-2.006A15.505,15.505,0,0,0-85.014,15a6.259,6.259,0,0,0-2.481.371,2.1,2.1,0,0,0-.193.226,3.194,3.194,0,0,0-.1.741q0,.209.016.5.048,1.869.048,3l-.016,3.658q0,8.057.3,8.967A2.984,2.984,0,0,0-85.771,34.049Zm16.677.435a.833.833,0,0,1,.4-.129h.371q.113,0,.386-.016a6.335,6.335,0,0,0,1.466-.226A2.481,2.481,0,0,0-65.5,33.05a38.78,38.78,0,0,0,1.886-4.657q.5-1.434.629-1.74.4-.967.774-2.03l1.515-4.238q.355-1,1.709-4.576.338-.9.822-2.417l.474-.032.563.016a22.261,22.261,0,0,1,1.223,2.949q.29.838.95,2.5l2.446,6.623,1.3,3.593q1.031,3.062,1.354,3.762a2.727,2.727,0,0,0,.6.927,2.413,2.413,0,0,0,.6.193q.524.129.733.193a6.656,6.656,0,0,1,1.031.354.875.875,0,0,1,.064.274.935.935,0,0,1-.048.242Q-47.389,35-47.6,35q-.822,0-2.9-.048l-1.611-.036-1.95.024q-.193,0-.395-.018T-54.8,34.9h-.354a.806.806,0,0,1-.322-.1,1.2,1.2,0,0,1,.081-.435,1.035,1.035,0,0,1,.354-.113l1.691-.113a3.025,3.025,0,0,0,1-.177,1.539,1.539,0,0,0,.1-.436,7,7,0,0,0-.419-1.5q-.29-.807-.507-1.534T-54.9,25.719a6.986,6.986,0,0,0-1.16-.113l-3.448.032-1.015-.016a10.049,10.049,0,0,0-1.208.081q-.21.483-.274.693l-1.42,4.431a22.375,22.375,0,0,0-.9,2.788,1.462,1.462,0,0,0,.145.483,7.038,7.038,0,0,0,.9.177l2.191.193q.177.145.177.258a.935.935,0,0,1-.048.242q-.725.016-1.112.016-1.289,0-3-.081-.79-.032-1.128-.032t-1.176.032q-.548.032-.79.032-.387,0-1-.048v-.1A1.036,1.036,0,0,1-69.094,34.484Zm7.689-9.668q1.724.1,3.932.1,1.257,0,2.208-.081a10.845,10.845,0,0,0-.37-1.176q-1.046-2.8-1.158-3.092l-1.465-3.721-.161-.29q-.1.193-.71,1.659-1.033,2.513-1.484,3.914-.21.628-.436,1.248a8.48,8.48,0,0,0-.282.87,2.8,2.8,0,0,1-.169.507Zm15.53,9.668a2.471,2.471,0,0,1,.725-.177q2.465-.161,2.82-.589t.354-4.137l-.016-1.693V26.115l-.064-1.951.032-1.145-.016-1.258V20.277l-.032-.661.032-.839q.016-.29.016-.677,0-1.016-.1-2.145a2.181,2.181,0,0,0-.177-.436,5.419,5.419,0,0,0-1.926-.411,5.029,5.029,0,0,1-1.507-.234q-.129-.1-.145-.5h1.356l4.277.1q1.646,0,4.39-.1a3.423,3.423,0,0,1-.032.483,10.544,10.544,0,0,1-1.08.177,8.333,8.333,0,0,0-1.869.339.551.551,0,0,0-.306.274,2.7,2.7,0,0,0-.193,1.081l-.081,2.08.064,7.176v2.838q-.032,1.339-.032,1.822a17.689,17.689,0,0,0,.089,2.306,1.334,1.334,0,0,0,.306.718,1.562,1.562,0,0,0,.717.347,6.391,6.391,0,0,0,1.16.194,1.971,1.971,0,0,1,1.144.258,1.622,1.622,0,0,1,.048.354v.129Q-37.385,35-38.079,35q-.4,0-1.436-.048l-2.227.032-3.793-.016h-.307Zm23.8-19.368q.129,1.063.129,1.225l-.064,1.434a10.478,10.478,0,0,1-.081,1.176.624.624,0,0,1-.242.064l-.145-.032A5.834,5.834,0,0,0-24.226,15.7a4.527,4.527,0,0,0-3.005-1.031A4.4,4.4,0,0,0-30.245,15.7a3.112,3.112,0,0,0-1.176,2.4,2.737,2.737,0,0,0,.822,1.917,18.588,18.588,0,0,0,4.206,2.6A27.206,27.206,0,0,1-22.7,24.8a5.71,5.71,0,0,1,1.676,1.96,5.416,5.416,0,0,1,.564,2.484,6.276,6.276,0,0,1-.894,3.242,5.79,5.79,0,0,1-2.409,2.282,8.934,8.934,0,0,1-4.012.766,12.647,12.647,0,0,1-4.173-.693,4.731,4.731,0,0,1-1.434-.677.77.77,0,0,1-.258-.548,4.005,4.005,0,0,1,.032-.451,31.01,31.01,0,0,0,.242-3.126,2.781,2.781,0,0,1,.113-.886.254.254,0,0,1,.242-.113.291.291,0,0,1,.234.1.773.773,0,0,1,.121.395,5.463,5.463,0,0,0,1.837,3.545A5.261,5.261,0,0,0-27.1,34.646a5.2,5.2,0,0,0,2.344-.532,3.968,3.968,0,0,0,1.676-1.539,3.8,3.8,0,0,0,.6-1.958,3.6,3.6,0,0,0-.918-2.385,12.981,12.981,0,0,0-3.69-2.522,27.523,27.523,0,0,1-3.609-2.1,7.954,7.954,0,0,1-2.03-2.288,4.547,4.547,0,0,1-.5-2.175,4.862,4.862,0,0,1,1.772-3.795A6.951,6.951,0,0,1-26.7,13.795a9.609,9.609,0,0,1,2.836.371A6.755,6.755,0,0,1-22.075,15.116Zm3.625,20.142.016-.354a3.338,3.338,0,0,1,1.273-.387,5.751,5.751,0,0,0,1.45-.3.909.909,0,0,0,.435-.427,2.746,2.746,0,0,0,.226-1.081l-.032-1.226.016-1.129-.032-1.322q0-.823.048-2.056T-15,25.663v-4.4q0-1.048.048-2.266t.048-1.685a10.263,10.263,0,0,0-.064-1.613.5.5,0,0,0-.242-.323,4.457,4.457,0,0,0-1.16-.177q-.757-.064-1.047-.113a.744.744,0,0,1-.081-.29q0-.129.016-.306.387-.032.6-.032l1.515.016q1.611,0,3.416-.129.886-.064,2.675-.113a1.265,1.265,0,0,1,.032.274.384.384,0,0,1-.073.25.405.405,0,0,1-.25.121,5.618,5.618,0,0,0-2.49.524q-.379.346-.379,1.764,0,2.61.081,5.382l.064,1.515a15.01,15.01,0,0,0,2.095.161q.548.032.645.032l2.369-.032,1.563.048,4.093-.128a5.183,5.183,0,0,0,.918-.064q.1-2.794.1-5.412a20.341,20.341,0,0,0-.113-2.971.552.552,0,0,0-.226-.369q-.1-.048-1.676-.257-.274-.032-.516-.08a1.815,1.815,0,0,1-.081-.562,6.486,6.486,0,0,1,.693-.083l1.063.057q1.466.072,2.949.072.951,0,3.158-.161a3.022,3.022,0,0,1-.081.58A5.039,5.039,0,0,1,3.19,15.2a3.029,3.029,0,0,0-.918.177,1.093,1.093,0,0,0-.306.918q0,.161.016.354Q2,17.227,2,17.4v1.853l.016,1.16-.032,1.5L2,24.72l-.032,2.643q0,.79.048,2.465L2,32a4.478,4.478,0,0,0,.193,1.563.592.592,0,0,0,.322.322l1.305.29a3.966,3.966,0,0,1,1.152.395.458.458,0,0,1,.185.363l-.048.193-.081.016a.906.906,0,0,1-.209-.032,20.422,20.422,0,0,0-3.69-.322q-1.515,0-2.151.048t-2.651.354a2.261,2.261,0,0,1-.032-.306,1.972,1.972,0,0,1,.032-.306,4.149,4.149,0,0,1,1.579-.4,2.119,2.119,0,0,0,1.273-.516,1.122,1.122,0,0,0,.306-.854l-.016-2.32q.048-1.047.048-1.144,0-1.37-.048-4-.048-.226-.177-.274A25.539,25.539,0,0,0-5,25.139q-.773.048-1.16.048t-1.619-.04q-1.233-.04-2.28-.04-.564,0-.951.016-.741.016-.822.016a.69.69,0,0,0-.508.145.781.781,0,0,0-.137.532l.016,1.128q0,.274-.081,3.045-.016.564-.016.935a16.724,16.724,0,0,0,.161,2.933.709.709,0,0,0,.29.467,6.569,6.569,0,0,0,1.257.338,8.651,8.651,0,0,1,1.128.306l.1.161a.153.153,0,0,1-.064.129.417.417,0,0,1-.274.081q-.129,0-.306-.008t-.693-.024q-.822-.016-2.046-.113-.79-.064-1.4-.064-1.031,0-3.3.111Q-18.144,35.258-18.45,35.258ZM7.525,24.7a9.931,9.931,0,0,1,.395-2.925A12.065,12.065,0,0,1,9.249,19,9.3,9.3,0,0,1,11.5,16.494a12.6,12.6,0,0,1,3.658-1.781,13.727,13.727,0,0,1,4.157-.532,12.281,12.281,0,0,1,3.311.451,11.59,11.59,0,0,1,2.941,1.257,10.369,10.369,0,0,1,2.643,2.481,8.548,8.548,0,0,1,1.386,2.5,10.936,10.936,0,0,1,.612,3.625,12.774,12.774,0,0,1-.411,3.529,9.4,9.4,0,0,1-1.378,2.771,12.374,12.374,0,0,1-2.594,2.449,9.839,9.839,0,0,1-3.045,1.507,13.052,13.052,0,0,1-3.932.572,13.376,13.376,0,0,1-3.819-.5,11.033,11.033,0,0,1-2.8-1.217,10.628,10.628,0,0,1-2.3-2.119,10.074,10.074,0,0,1-1.8-3.094A10.768,10.768,0,0,1,7.525,24.7ZM18.708,34.726a11.177,11.177,0,0,0,2.812-.379,7.037,7.037,0,0,0,2.586-1.257,6.785,6.785,0,0,0,1.764-2,10.369,10.369,0,0,0,1.023-2.876A16.292,16.292,0,0,0,27.28,24.7a14.975,14.975,0,0,0-.645-4.334,7.83,7.83,0,0,0-1.627-2.908,7.716,7.716,0,0,0-2.723-1.982,8.358,8.358,0,0,0-3.4-.7,8.74,8.74,0,0,0-2.868.483,7.3,7.3,0,0,0-2.3,1.233,7.5,7.5,0,0,0-1.676,2.127,11.907,11.907,0,0,0-1.176,3.037,12.62,12.62,0,0,0-.4,2.933,13.23,13.23,0,0,0,.4,3.029,11.237,11.237,0,0,0,1.1,2.933,9.186,9.186,0,0,0,1.724,2.2,7.2,7.2,0,0,0,5.019,1.974ZM32.227,15.293l-.016-.773q2.5,0,3.658-.129.451-.048.628-.048.145,0,.435.016a8.94,8.94,0,0,1,1.257,1.289q.129.145.29.322l3.4,3.754.483.58q1.031,1.208,1.877,2.063t3.3,3.561l3.851,4.27q.564.628,1.45,1.563l.016-.258q-.1-2.24-.1-2.369l.064-.967-.032-1.515V25.96q0-.661-.113-4.077-.016-.467-.129-1.764t-.113-2.28a5.319,5.319,0,0,0-.209-2.062,2.937,2.937,0,0,0-1.37-.435q-.29-.016-.9-.1a4.51,4.51,0,0,1-.854-.081.581.581,0,0,1-.258-.274,1.484,1.484,0,0,1,.145-.483,3,3,0,0,1,.854-.129,6.945,6.945,0,0,1,1.12.113,7.292,7.292,0,0,0,1.2.113q.741,0,2.3-.1.886-.064,1.225-.064h.274l-.032.5a2.093,2.093,0,0,1-.709.137,3.692,3.692,0,0,0-.838.137,1.832,1.832,0,0,0-.693.306,1.262,1.262,0,0,0-.387.854l.177,5.092.129,2.336-.016.677.1,3.239q.1,3.319.1,5.769,0,.532-.064,2.3l-.751.064q-.564-.645-3.885-4.061-.774-.79-1.048-1.112l-1.386-1.6q-.806-.886-1.048-1.128l-.355-.354q-1.757-2-4.562-5Q39.93,21.707,38.463,20q-.919-1.08-1.161-1.321a5.734,5.734,0,0,0-.661-.548l-.048.548q0,3.142.161,8.669l.113,5.333q.016.677.081,1.305l.564.129q1.531.145,3.013.435a1.494,1.494,0,0,0,.193.145l-.016.612a1.478,1.478,0,0,1-.419.081,3.6,3.6,0,0,1-.435-.032q-1.6-.129-3.883-.129-1.611,0-2.836.081l-.226.016a3.875,3.875,0,0,1-.419-.032l-.016-.483.419-.193.757-.113a7.565,7.565,0,0,0,1.482-.322,1.181,1.181,0,0,0,.5-.338,22.269,22.269,0,0,0,.177-3.255q0-1-.048-3.658V24.736l-.032-4.576a19.859,19.859,0,0,0-.209-3.609,1.068,1.068,0,0,0-.4-.516,3.393,3.393,0,0,0-1.6-.548A10.709,10.709,0,0,1,32.227,15.293Zm25.7,19.191a2.471,2.471,0,0,1,.725-.177q2.465-.161,2.82-.589t.354-4.137l-.016-1.693V26.115l-.064-1.951.032-1.145-.016-1.258V20.277l-.032-.661.032-.839q.016-.29.016-.677,0-1.016-.1-2.145a2.181,2.181,0,0,0-.177-.436,5.419,5.419,0,0,0-1.926-.411,5.029,5.029,0,0,1-1.507-.234q-.129-.1-.145-.5h1.356l4.277.1q1.646,0,4.39-.1a3.423,3.423,0,0,1-.032.483,10.544,10.544,0,0,1-1.08.177,8.333,8.333,0,0,0-1.869.339.551.551,0,0,0-.306.274,2.7,2.7,0,0,0-.193,1.081l-.081,2.08.064,7.176v2.838q-.032,1.339-.032,1.822a17.689,17.689,0,0,0,.089,2.306,1.334,1.334,0,0,0,.306.718,1.562,1.562,0,0,0,.717.347,6.391,6.391,0,0,0,1.16.194,1.971,1.971,0,0,1,1.144.258,1.622,1.622,0,0,1,.048.354v.129Q66.417,35,65.723,35q-.4,0-1.436-.048l-2.227.032-3.793-.016h-.307ZM69.352,15.293l-.016-.773q2.5,0,3.658-.129.451-.048.628-.048.145,0,.435.016a8.94,8.94,0,0,1,1.257,1.289q.129.145.29.322L79,19.725l.483.58q1.031,1.208,1.877,2.063t3.3,3.561L88.51,30.2q.564.628,1.45,1.563l.016-.258q-.1-2.24-.1-2.369l.064-.967-.032-1.515V25.96q0-.661-.113-4.077-.016-.467-.129-1.764t-.113-2.28a5.319,5.319,0,0,0-.209-2.062,2.937,2.937,0,0,0-1.37-.435q-.29-.016-.9-.1a4.51,4.51,0,0,1-.854-.081.581.581,0,0,1-.258-.274,1.484,1.484,0,0,1,.145-.483,3,3,0,0,1,.854-.129,6.945,6.945,0,0,1,1.12.113,7.292,7.292,0,0,0,1.2.113q.741,0,2.3-.1.886-.064,1.225-.064h.274l-.032.5a2.093,2.093,0,0,1-.709.137,3.692,3.692,0,0,0-.838.137,1.832,1.832,0,0,0-.693.306,1.262,1.262,0,0,0-.387.854l.177,5.092.129,2.336-.016.677.1,3.239q.1,3.319.1,5.769,0,.532-.064,2.3l-.751.064q-.564-.645-3.885-4.061-.774-.79-1.048-1.112l-1.386-1.6q-.806-.886-1.048-1.128l-.355-.354q-1.757-2-4.562-5-.758-.806-2.224-2.514-.919-1.08-1.161-1.321a5.734,5.734,0,0,0-.661-.548l-.048.548q0,3.142.161,8.669l.113,5.333q.016.677.081,1.305l.564.129q1.531.145,3.013.435a1.494,1.494,0,0,0,.193.145l-.016.612a1.478,1.478,0,0,1-.419.081,3.6,3.6,0,0,1-.435-.032q-1.6-.129-3.883-.129-1.611,0-2.836.081l-.226.016a3.875,3.875,0,0,1-.419-.032l-.016-.483.419-.193.757-.113a7.565,7.565,0,0,0,1.482-.322,1.181,1.181,0,0,0,.5-.338,22.269,22.269,0,0,0,.177-3.255q0-1-.048-3.658V24.736l-.032-4.576a19.859,19.859,0,0,0-.209-3.609,1.068,1.068,0,0,0-.4-.516,3.393,3.393,0,0,0-1.6-.548A10.709,10.709,0,0,1,69.352,15.293Z" transform="translate(-20439 -6998.179)" fill="#e0dbc5"/>
    <path id="Tracciato_745" data-name="Tracciato 745" d="M-28.623-6.811l.038-.091q.435,0,.87.011h.177q.081,0,.177-.005.349-.016,1.262-.016l.354,0,.333.008a.105.105,0,0,1,.048.048l-.011.086q-.032.054-.161.054h-.043a4.63,4.63,0,0,0-.494.024.98.98,0,0,0-.451.11.194.194,0,0,0-.07.156,1.821,1.821,0,0,0,.177.628l.817,1.9.285.628q.414,1,.817,2.041.043.113.081.2l.359-.881q.279-.666.563-1.418l.37-1.01q.011-.032.059-.215a7.638,7.638,0,0,0,.52-1.8.252.252,0,0,0-.073-.164.524.524,0,0,0-.234-.137,3.473,3.473,0,0,0-.419-.064l-.4-.048a.152.152,0,0,1-.048-.091L-23.7-6.9l1.74-.016h.575a1.394,1.394,0,0,1,.4.038l.005.043a.288.288,0,0,1-.032.113,1.1,1.1,0,0,1-.236.054,1.612,1.612,0,0,0-.559.126.816.816,0,0,0-.226.309l-1.409,3.491Q-24.1-1.166-24.38-.3l-.155.467a.238.238,0,0,1-.118.043.625.625,0,0,1-.134-.016q-.639-1.653-1.042-2.554l-1.644-3.724a1.459,1.459,0,0,0-.266-.4,2.455,2.455,0,0,0-.62-.191,1.954,1.954,0,0,1-.209-.054A.147.147,0,0,1-28.623-6.811Zm8.046,3.378a3.31,3.31,0,0,1,.132-.975A4.022,4.022,0,0,1-20-5.333a3.1,3.1,0,0,1,.752-.835,4.2,4.2,0,0,1,1.219-.594,4.576,4.576,0,0,1,1.386-.177,4.094,4.094,0,0,1,1.1.15,3.863,3.863,0,0,1,.98.419,3.456,3.456,0,0,1,.881.827,2.849,2.849,0,0,1,.462.833,3.645,3.645,0,0,1,.2,1.208,4.258,4.258,0,0,1-.137,1.176,3.135,3.135,0,0,1-.459.924,4.125,4.125,0,0,1-.865.816,3.28,3.28,0,0,1-1.015.5A4.351,4.351,0,0,1-16.8.107a4.459,4.459,0,0,1-1.273-.167,3.678,3.678,0,0,1-.932-.406,3.543,3.543,0,0,1-.768-.706,3.358,3.358,0,0,1-.6-1.031A3.589,3.589,0,0,1-20.577-3.432Zm3.728,3.341a3.726,3.726,0,0,0,.937-.126,2.346,2.346,0,0,0,.862-.419,2.262,2.262,0,0,0,.588-.666,3.456,3.456,0,0,0,.341-.959,5.431,5.431,0,0,0,.129-1.171,4.992,4.992,0,0,0-.215-1.445,2.61,2.61,0,0,0-.542-.969,2.572,2.572,0,0,0-.908-.661,2.786,2.786,0,0,0-1.133-.234,2.913,2.913,0,0,0-.956.161,2.432,2.432,0,0,0-.768.411,2.5,2.5,0,0,0-.559.709,3.969,3.969,0,0,0-.392,1.012,4.207,4.207,0,0,0-.134.978,4.41,4.41,0,0,0,.134,1.01,3.746,3.746,0,0,0,.368.978,3.062,3.062,0,0,0,.575.733,2.425,2.425,0,0,0,.765.489A2.428,2.428,0,0,0-16.849-.091Zm4.42.124a.327.327,0,0,1,.043-.145,4.92,4.92,0,0,1,.816-.15.479.479,0,0,0,.338-.118A1.339,1.339,0,0,0-11.167-.9l.038-1.419-.005-.962.005-1.258V-4.87Q-11.124-6-11.14-6.284a.621.621,0,0,0-.043-.151,1.26,1.26,0,0,0-.235-.086q-.094-.022-.845-.156-.005-.059-.005-.086t.005-.086q.1,0,.334.012l.818.031.473.011.14-.005q.027,0,.156.011.317,0,.366-.005l.43-.032q.436,0,.613.016A.961.961,0,0,1-8.97-6.6q-.059.011-.559.03a2.1,2.1,0,0,0-.575.062q-.124.07-.124.43,0,.086-.011.349v.322l.005.994v.338l.011,1.778-.016,1.515.005.333q0,.161.054.2.134.005.79.011h.365l.929-.032a1.69,1.69,0,0,0,.521-.073,2.487,2.487,0,0,0,.521-.363,1.728,1.728,0,0,0,.344-.4q.027-.043.091-.129a3.055,3.055,0,0,0,.274-.559h.177q-.032.193-.07.365-.156.757-.215,1.262-.011.107-.021.2L-8.481-.027q-2.589,0-3.072.048-.15.011-.317.011ZM-3.051-6.9a.541.541,0,0,1,.027.14.441.441,0,0,1-.016.1.914.914,0,0,1-.226.038q-.038,0-.126-.008t-.142-.008a.7.7,0,0,0-.392.1.241.241,0,0,0-.118.156l-.054.613.016,2.661a10.472,10.472,0,0,0,.1,1.82A1.33,1.33,0,0,0-3.679-.7a1.577,1.577,0,0,0,.647.382,2.55,2.55,0,0,0,.841.151,2.993,2.993,0,0,0,1.4-.263,1.551,1.551,0,0,0,.7-.728A3.568,3.568,0,0,0,.118-2.575Q.118-2.6.1-3v-.156q0-.086.011-.336T.124-3.79L.043-5.332a5.041,5.041,0,0,0-.089-.919.432.432,0,0,0-.148-.21A2.253,2.253,0,0,0-.988-6.73a.574.574,0,0,1-.032-.156,4.052,4.052,0,0,1,.414-.021q.215,0,.451.016.354.027.387.027l.849-.027.167.005-.005.193a1.9,1.9,0,0,0-.79.2.561.561,0,0,0-.129.427q0,.167.021.726L.381-4.225l-.005.441.016.559A11.271,11.271,0,0,1,.333-1.79a2.929,2.929,0,0,1-.244.844,1.78,1.78,0,0,1-.459.562,2.391,2.391,0,0,1-.8.411,3.229,3.229,0,0,1-.991.161A4.033,4.033,0,0,1-3.271.08a2.832,2.832,0,0,1-.983-.489,1.792,1.792,0,0,1-.5-.6,2.811,2.811,0,0,1-.188-1.161v-.371l-.016-1.505.016-1.215V-6.08a.8.8,0,0,0-.086-.435A.2.2,0,0,0-5.2-6.6l-.317.005a.851.851,0,0,1-.451-.075.276.276,0,0,1-.016-.086.092.092,0,0,1,.032-.075.24.24,0,0,1,.145-.043h.14l.36-.005h.849ZM1.681-.129a1.433,1.433,0,0,1,.6-.161,1.129,1.129,0,0,0,.4-.059.2.2,0,0,0,.064-.08A4.538,4.538,0,0,0,2.868-1.5q.049-1.144.159-3.045.088-1.45.088-1.81V-6.5q-.388-.081-1.229-.172a.258.258,0,0,1-.054-.124.261.261,0,0,1,.038-.1.46.46,0,0,1,.139-.032A1.693,1.693,0,0,1,2.2-6.9a5.391,5.391,0,0,0,.724.038q.15,0,.515-.025.257-.018.289-.018a.732.732,0,0,1,.2.032.483.483,0,0,1,.083.1l.225.5L5.75-2.9l.634,1.411A23.868,23.868,0,0,0,7.539-4.12.884.884,0,0,1,7.6-4.275a1.843,1.843,0,0,0,.091-.2q.043-.113.348-.859.123-.3.2-.516.3-.859.359-.983a.472.472,0,0,1,.178-.043A1.93,1.93,0,0,1,9-6.864q.3.016.98.016.42,0,.689-.011a.543.543,0,0,1,.011.086.448.448,0,0,1-.016.1.964.964,0,0,1-.414.1,2.69,2.69,0,0,0-.607.075.274.274,0,0,0-.164.124,2.171,2.171,0,0,0-.062.494l.005.247-.005.258q0,.806.043,2.707L9.453-1.611l.005.677a1.56,1.56,0,0,0,.038.47.388.388,0,0,0,.215.137,6.456,6.456,0,0,0,.945.2.082.082,0,0,1,.038.07q0,.048-.005.107h-.247q-.317,0-.689-.019l-.4-.019q-1.1,0-1.463.025-.221.018-.28.018A.182.182,0,0,1,7.53.032v-.07a.355.355,0,0,1,.016-.1,1.636,1.636,0,0,1,.483-.1,1.8,1.8,0,0,0,.494-.194,4.489,4.489,0,0,0,.048-.833L8.556-2.355q0-.177.019-.661t.019-1.575q0-.866-.043-1.312-.091.188-.358.816l-.08.2L8.1-4.85,7.31-2.97l-.283.725-.369.881Q6.417-.757,6.245-.29q-.075.215-.123.338L6,.043Q5.39-1.729,4.548-3.593t-1.18-2.46q-.044.231-.1,1.343Q3.2-3.357,3.2-1.729A9.866,9.866,0,0,0,3.271-.584a.354.354,0,0,0,.156.27,1.657,1.657,0,0,0,.693.1,2.488,2.488,0,0,1,.408.032.34.34,0,0,1,.038.121.3.3,0,0,1-.027.094L2.872-.027Q2.689-.027,2.3,0q-.214.014-.617.019Zm9.362.047a.257.257,0,0,1,.091-.058,1.677,1.677,0,0,1,.312-.043,2.138,2.138,0,0,0,.645-.1.52.52,0,0,0,.075-.3L12.16-.957l.005-1.367-.011-.646.005-1.35-.027-1.533a1.5,1.5,0,0,0-.07-.619.993.993,0,0,0-.575-.118,2.531,2.531,0,0,1-.36-.032.111.111,0,0,1-.07-.1.255.255,0,0,1,.027-.1.182.182,0,0,1,.086-.027q.075,0,.183.005a6.477,6.477,0,0,0,.655.032l.4-.011.945.021q.709,0,1.106-.016T15-6.832q.124,0,.612.021l.763-.005.091.016.446-.016.054.027A.29.29,0,0,1,17-6.7a1.67,1.67,0,0,1-.024.231,1.843,1.843,0,0,0-.024.193q0,.559.038.945a.052.052,0,0,1-.032.043.326.326,0,0,1-.105-.016,2.872,2.872,0,0,1-.159-.36,4.177,4.177,0,0,0-.3-.6.83.83,0,0,0-.21-.269.73.73,0,0,0-.312-.043l-.489-.011q-.118-.005-.231-.005l-1.532.032h-.134q-.3,0-.355.075a1.76,1.76,0,0,0-.091.757q0,.064.027,1.289v.747a.489.489,0,0,0,.129.016h.091q.091,0,.269.005.279.011.376.011a1.035,1.035,0,0,0,.113-.005q.58-.021,1.493-.021a.627.627,0,0,0,.333-.113,1.126,1.126,0,0,0,.121-.5q.04-.408.18-.462a.308.308,0,0,1,.129.027.333.333,0,0,1,.011.081,1.135,1.135,0,0,1-.011.124q-.027.2-.027,1.246,0,.279.03.623t.03.371a.693.693,0,0,1-.016.129.167.167,0,0,1-.07.021H16.21a1.978,1.978,0,0,1-.167-.467,1.511,1.511,0,0,0-.293-.679.736.736,0,0,0-.5-.137q-.075,0-.274.008t-.591.008H14.04a9.034,9.034,0,0,0-.978.032l-.005.177.005.99-.005.624.005.608a1.648,1.648,0,0,0,.07.635.494.494,0,0,0,.4.118l.328-.005.336.008q.293.008.722.008A6.756,6.756,0,0,0,16.3-.3a1.2,1.2,0,0,0,.567-.315,3.762,3.762,0,0,0,.561-.975q.1-.221.2-.221a.189.189,0,0,1,.107.043,5.982,5.982,0,0,0-.177.7,6,6,0,0,0-.07.768.489.489,0,0,1-.086.3h-.118L15.775.011,15.1.005,13.487.027h-.655q-.124,0-.231.005-.967.043-1.423.043a.17.17,0,0,1-.11-.026.1.1,0,0,1-.03-.079Zm9.931-.09a.824.824,0,0,1,.242-.059q.822-.054.94-.2a3.881,3.881,0,0,0,.118-1.379l-.005-.564v-.591l-.021-.65.011-.382-.005-.419v-.495l-.011-.22.011-.28q.005-.1.005-.226,0-.339-.032-.715a.727.727,0,0,0-.059-.145,1.806,1.806,0,0,0-.642-.137,1.676,1.676,0,0,1-.5-.078q-.043-.032-.048-.167h.452l1.426.032q.549,0,1.463-.032a1.141,1.141,0,0,1-.011.161,3.515,3.515,0,0,1-.36.059,2.778,2.778,0,0,0-.623.113.184.184,0,0,0-.1.091.9.9,0,0,0-.064.36l-.027.693L23.149-3v.946q-.011.446-.011.607a5.9,5.9,0,0,0,.03.769.445.445,0,0,0,.1.239.521.521,0,0,0,.239.116,2.13,2.13,0,0,0,.387.065.657.657,0,0,1,.381.086.541.541,0,0,1,.016.118v.043Q23.8,0,23.573,0q-.134,0-.479-.016l-.742.011L21.087-.011h-.1Zm3.894,0a.824.824,0,0,1,.242-.059q.822-.054.94-.2a3.881,3.881,0,0,0,.118-1.379l-.005-.564v-.591l-.021-.65.011-.382-.005-.419v-.495l-.011-.22.011-.28q.005-.1.005-.226,0-.339-.032-.715a.727.727,0,0,0-.059-.145,1.806,1.806,0,0,0-.642-.137,1.676,1.676,0,0,1-.5-.078q-.043-.032-.048-.167h.452l1.426.032q.549,0,1.463-.032a1.141,1.141,0,0,1-.011.161,3.515,3.515,0,0,1-.36.059,2.778,2.778,0,0,0-.623.113.184.184,0,0,0-.1.091.9.9,0,0,0-.064.36l-.027.693L27.043-3v.946q-.011.446-.011.607a5.9,5.9,0,0,0,.03.769.445.445,0,0,0,.1.239.521.521,0,0,0,.239.116,2.13,2.13,0,0,0,.387.065.657.657,0,0,1,.381.086.541.541,0,0,1,.016.118v.043Q27.7,0,27.467,0q-.134,0-.479-.016l-.742.011L24.981-.011h-.1Z" transform="translate(-20439 -6921.179)" fill="#e0dbc5"/>
    <path id="Tracciato_131" data-name="Tracciato 131" d="M6.139,15.482a2.761,2.761,0,0,1-3.87-3.861A2.692,2.692,0,0,1-.107,8.587,2.584,2.584,0,0,1,2.214,6.216a2.8,2.8,0,0,1,.442-3.7A2.576,2.576,0,0,1,4.37,1.858a2.657,2.657,0,0,1,1.769.607A2.62,2.62,0,0,1,8.682.093,2.583,2.583,0,0,1,10.562.7a2.45,2.45,0,0,1,.94,1.765,2.751,2.751,0,0,1,3.759.386,1.935,1.935,0,0,1,.719,1.655,2.414,2.414,0,0,1-.608,1.71,2.687,2.687,0,0,1,2.377,2.7,2.6,2.6,0,0,1-.663,1.765,2.723,2.723,0,0,1-1.714.883,2.655,2.655,0,0,1,.5,2.372,2.5,2.5,0,0,1-.885,1.379,2.663,2.663,0,0,1-3.427.055,2.674,2.674,0,0,1-2.985,2.372A2.453,2.453,0,0,1,6.139,15.482ZM13.6,8.918c-.055-.11-.166-.165-.221-.276A6.411,6.411,0,0,0,12.22,7.76C12,7.595,12,7.595,12.055,7.319a4.908,4.908,0,0,0,.166-1.544c0-.221,0-.221-.276-.276a7.385,7.385,0,0,0-1.548.165c-.276.055-.276.055-.442-.165a4.8,4.8,0,0,0-.94-1.158c-.055-.055-.166-.11-.221-.165a.431.431,0,0,0-.221.221c-.276.386-.608.717-.885,1.1-.221.276-.166.276-.553.221-.442-.055-.885-.11-1.271-.165-.387,0-.387,0-.387.441.055.5.111.938.166,1.434a.231.231,0,0,1-.166.331,1.157,1.157,0,0,0-.332.221,4.49,4.49,0,0,0-1.05.993c.055.055.111.165.166.221a5.1,5.1,0,0,0,1.216.938c.221.11.221.165.166.386a5.081,5.081,0,0,0-.166,1.6c0,.221,0,.221.221.221a7.008,7.008,0,0,0,1.548-.165c.276-.055.276-.055.442.165a6.022,6.022,0,0,0,.719.938,1.492,1.492,0,0,0,.442.386,4.551,4.551,0,0,0,1.161-1.379c.111-.221.166-.221.387-.165a4.771,4.771,0,0,0,1.548.165c.276,0,.276,0,.276-.276a7.335,7.335,0,0,0-.166-1.544c-.055-.276-.055-.276.166-.386s.387-.276.608-.386A2.58,2.58,0,0,0,13.6,8.918Zm-11,2.868h0c-.055.055-.055.055-.055.11A5.859,5.859,0,0,0,2.6,14.985c.055.165.166.221.332.276a5.868,5.868,0,0,0,2.764.11,1.409,1.409,0,0,0,.387-.11,2.506,2.506,0,0,1-1-1.158,2.539,2.539,0,0,1,.166-1.544A1.978,1.978,0,0,1,2.6,11.786Zm9.066,3.42c.111.055.111.055.166.055a5.848,5.848,0,0,0,2.93-.055.469.469,0,0,0,.387-.386,7.2,7.2,0,0,0,.166-2.427,4.345,4.345,0,0,0-.166-.717,2.01,2.01,0,0,1-2.764.772A1.878,1.878,0,0,1,11.668,15.206ZM6.029,2.686a.172.172,0,0,0-.111-.055,5.857,5.857,0,0,0-2.93,0,.526.526,0,0,0-.442.441,6.05,6.05,0,0,0-.055,2.813c0,.055.055.11.111.221a.761.761,0,0,1,.166-.221,1.892,1.892,0,0,1,2.156-.662,3.529,3.529,0,0,0,.387.11,1.9,1.9,0,0,1,.719-2.647Zm9.122,3.42a8.544,8.544,0,0,0,.221-1.158,5.055,5.055,0,0,0-.221-2.041c-.055-.11-.111-.221-.221-.221A5.216,5.216,0,0,0,12.5,2.52q-.332.083-.829.165a2.039,2.039,0,0,1,1,1.158A2.539,2.539,0,0,1,12.5,5.388a1.913,1.913,0,0,1,2.654.717ZM3.762,8.973A2.009,2.009,0,0,1,2.435,6.491,6.2,6.2,0,0,0,.169,8.7a.413.413,0,0,0,0,.5,5.458,5.458,0,0,0,1.382,1.6c.276.221.553.386.829.607a2.459,2.459,0,0,1,.166-1.544,2.407,2.407,0,0,1,1.216-.882Zm10.227,0A1.974,1.974,0,0,1,15.316,11.4h.055a6.053,6.053,0,0,0,2.211-2.206.466.466,0,0,0,0-.386A5.908,5.908,0,0,0,15.427,6.6h-.111A1.981,1.981,0,0,1,13.989,8.973ZM11.281,2.465a.192.192,0,0,0-.055-.11A5.616,5.616,0,0,0,9.069.259a.415.415,0,0,0-.5,0,4.756,4.756,0,0,0-1.6,1.379c-.221.276-.387.552-.663.882.276,0,.5-.055.719-.055A1.848,1.848,0,0,1,8.738,3.678c0,.055.055.11.111.165A2.168,2.168,0,0,1,11.281,2.465ZM6.416,15.372a5.587,5.587,0,0,0,2.267,2.261.337.337,0,0,0,.442,0,5.909,5.909,0,0,0,2.211-2.151v-.11A2,2,0,0,1,8.9,14.048,2.113,2.113,0,0,1,6.416,15.372ZM12.5,12.283h.166a5.64,5.64,0,0,0,2.322-.662c.111-.055.111-.165.055-.276a5.855,5.855,0,0,0-1-1.82c-.111-.11-.166-.221-.276-.331a2.139,2.139,0,0,1-.332.607,1.906,1.906,0,0,1-.5.441c-.166.11-.442.11-.663.221a1.307,1.307,0,0,1,.221,1.82ZM3.983,9.139c-.055.055-.055.055-.111.055a6.137,6.137,0,0,0-1.216,2.1c-.055.165,0,.221.111.331a8.174,8.174,0,0,0,1.493.552,3.068,3.068,0,0,0,1,.11,1.432,1.432,0,0,1,.166-1.875A1.532,1.532,0,0,1,3.983,9.139ZM12.5,5.664a1.432,1.432,0,0,1-.166,1.875,1.479,1.479,0,0,1,1.437,1.269c.166-.165.221-.276.332-.386a4.436,4.436,0,0,0,.885-1.765c.055-.221.055-.276-.166-.386a6.079,6.079,0,0,0-1.935-.607C12.829,5.609,12.663,5.664,12.5,5.664ZM5.531,5.333a1.508,1.508,0,0,1,1.88.165A1.435,1.435,0,0,1,8.572,4.065v-.11A.055.055,0,0,0,8.517,3.9,6.09,6.09,0,0,0,6.582,2.8c-.276-.11-.276-.055-.387.165a5.942,5.942,0,0,0-.608,1.986A.816.816,0,0,0,5.531,5.333Zm4.754.221a1.509,1.509,0,0,1,1.935-.165,2.908,2.908,0,0,1-.055-.662,6.558,6.558,0,0,0-.553-1.765c-.111-.221-.166-.221-.332-.165a5.73,5.73,0,0,0-1.824.938c-.111.11-.221.165-.332.276A1.512,1.512,0,0,1,10.286,5.554Zm-5.031.11H5.034a5.158,5.158,0,0,0-2.211.662c-.166.055-.166.165-.111.331a5.855,5.855,0,0,0,1,1.82c.055.11.166.165.276.331A1.492,1.492,0,0,1,5.476,7.539a1.381,1.381,0,0,1-.221-1.875Zm3.87,8.163c0,.055,0,.055.055.055l.055.055A5.785,5.785,0,0,0,11.281,15.1c.166.055.221,0,.332-.165a6.315,6.315,0,0,0,.608-1.71,2.908,2.908,0,0,0,.055-.717,1.708,1.708,0,0,1-1,.276,1.917,1.917,0,0,1-.885-.441A1.6,1.6,0,0,1,9.125,13.827ZM7.466,12.393a1.44,1.44,0,0,1-1.88.165v.165a5.365,5.365,0,0,0,.663,2.261c.055.165.166.11.332.055A5.73,5.73,0,0,0,8.406,14.1a1.874,1.874,0,0,0,.332-.331A1.343,1.343,0,0,1,7.466,12.393Z" transform="translate(-20447.883 -6706.932)" fill="#e0dbc5" stroke="#e0dbc5" stroke-width="1"/>
    <path id="Tracciato_746" data-name="Tracciato 746" d="M-71.309-.2a2.62,2.62,0,0,0-.56-.168V-4.536a2.583,2.583,0,0,0,.56-.168v-.2h-1.75v.2a2.839,2.839,0,0,0,.56.168V-.364a1.987,1.987,0,0,0-.56.168V0h1.75ZM-70.2-1.5h-.168a10.046,10.046,0,0,0-.168,1.26,2.269,2.269,0,0,0,1.267.329C-68.229.084-67.6-.462-67.6-1.3c0-1.547-2.317-1.393-2.317-2.555a.733.733,0,0,1,.8-.777,1.994,1.994,0,0,1,.742.112l.28.959h.168a9.008,9.008,0,0,0,.168-1.19,3.286,3.286,0,0,0-1.33-.231,1.267,1.267,0,0,0-1.435,1.246c0,1.631,2.317,1.421,2.317,2.562,0,.574-.476.91-1.085.91a.757.757,0,0,1-.623-.21ZM-64.113-.2a2.888,2.888,0,0,0-.644-.168V-4.55h1.1l.357.98h.168c.049-.378.063-.966.07-1.33h-4.018c.007.364.021.952.07,1.33h.168l.357-.98h1.1V-.364a3.463,3.463,0,0,0-.644.168V0h1.918Zm3.29,0a2.62,2.62,0,0,0-.56-.168V-4.536a2.583,2.583,0,0,0,.56-.168v-.2h-1.75v.2a2.839,2.839,0,0,0,.56.168V-.364a1.987,1.987,0,0,0-.56.168V0h1.75Zm3.458,0a2.888,2.888,0,0,0-.644-.168V-4.55h1.1l.357.98h.168c.049-.378.063-.966.07-1.33h-4.018c.007.364.021.952.07,1.33h.168l.357-.98h1.1V-.364a3.463,3.463,0,0,0-.644.168V0h1.918Zm1.26-4.508a2.228,2.228,0,0,0,.574.168v3.01c0,1.064.63,1.589,1.785,1.589a1.489,1.489,0,0,0,1.624-1.7V-4.466a2.088,2.088,0,0,0,.546-.238v-.2h-1.47v.2a3.354,3.354,0,0,0,.546.238v2.814c0,.931-.427,1.316-1.176,1.316-.777,0-1.225-.329-1.225-1.316V-4.536a3.114,3.114,0,0,0,.532-.168v-.2h-1.736ZM-48.4-.2a2.888,2.888,0,0,0-.644-.168V-4.55h1.1l.357.98h.168c.049-.378.063-.966.07-1.33h-4.018c.007.364.021.952.07,1.33h.168l.357-.98h1.1V-.364a3.463,3.463,0,0,0-.644.168V0H-48.4ZM-47-2.45A2.245,2.245,0,0,0-44.793.084a2.245,2.245,0,0,0,2.2-2.534,2.245,2.245,0,0,0-2.2-2.534A2.245,2.245,0,0,0-47-2.45Zm.7,0c0-1.2.413-2.184,1.449-2.184,1.071,0,1.561.987,1.561,2.184S-43.757-.266-44.73-.266C-45.78-.266-46.3-1.253-46.3-2.45ZM-39.662,0c.385,0,.812.042,1.127.042.924,0,1.9-.42,1.9-1.435a1.217,1.217,0,0,0-1.141-1.2v-.028a1.176,1.176,0,0,0,.924-1.155c0-.98-.882-1.162-1.61-1.162-.539,0-.812.042-1.162.042h-.7v.2a2.965,2.965,0,0,0,.574.168V-.364A1.786,1.786,0,0,0-40.32-.2V0Zm1.183-.308a2.368,2.368,0,0,1-.679-.063V-2.317h.546c.707,0,1.351.21,1.351.959A1.112,1.112,0,0,1-38.479-.308Zm-.679-2.359v-1.89a4.442,4.442,0,0,1,.644-.035.908.908,0,0,1,1.036.938,1.026,1.026,0,0,1-.749.952,4.932,4.932,0,0,1-.567.035ZM-36.183-4.7a2.228,2.228,0,0,0,.574.168v3.01c0,1.064.63,1.589,1.785,1.589a1.489,1.489,0,0,0,1.624-1.7V-4.466a2.088,2.088,0,0,0,.546-.238v-.2h-1.47v.2a3.354,3.354,0,0,0,.546.238v2.814c0,.931-.427,1.316-1.176,1.316-.777,0-1.225-.329-1.225-1.316V-4.536a3.114,3.114,0,0,0,.532-.168v-.2h-1.736ZM-30.716,0c.35,0,.812.063,1.085.063a2.373,2.373,0,0,0,2.6-2.576,2.227,2.227,0,0,0-2.457-2.443c-.28,0-.875.056-1.19.056h-.7v.2a4.078,4.078,0,0,0,.574.168V-.364a2.3,2.3,0,0,0-.574.168V0Zm1.134-4.606a1.9,1.9,0,0,1,1.855,2.093c0,1.169-.5,2.226-1.806,2.226-.1,0-.588-.014-.679-.028V-4.571A3.722,3.722,0,0,1-29.582-4.606ZM-25.781,0c.35,0,.812.063,1.085.063a2.373,2.373,0,0,0,2.6-2.576,2.227,2.227,0,0,0-2.457-2.443c-.28,0-.875.056-1.19.056h-.7v.2a4.078,4.078,0,0,0,.574.168V-.364a2.3,2.3,0,0,0-.574.168V0Zm1.134-4.606a1.9,1.9,0,0,1,1.855,2.093c0,1.169-.5,2.226-1.806,2.226-.1,0-.588-.014-.679-.028V-4.571A3.722,3.722,0,0,1-24.647-4.606ZM-19.614-.2a2.62,2.62,0,0,0-.56-.168V-4.536a2.583,2.583,0,0,0,.56-.168v-.2h-1.75v.2a2.839,2.839,0,0,0,.56.168V-.364a1.987,1.987,0,0,0-.56.168V0h1.75ZM-18.508-1.5h-.168a10.046,10.046,0,0,0-.168,1.26,2.269,2.269,0,0,0,1.267.329C-16.534.084-15.9-.462-15.9-1.3c0-1.547-2.317-1.393-2.317-2.555a.733.733,0,0,1,.8-.777,1.994,1.994,0,0,1,.742.112l.28.959h.168a9.008,9.008,0,0,0,.168-1.19,3.286,3.286,0,0,0-1.33-.231A1.267,1.267,0,0,0-18.83-3.738c0,1.631,2.317,1.421,2.317,2.562,0,.574-.476.91-1.085.91a.757.757,0,0,1-.623-.21ZM-12.418-.2a2.888,2.888,0,0,0-.644-.168V-4.55h1.1l.357.98h.168c.049-.378.063-.966.07-1.33h-4.018c.007.364.021.952.07,1.33h.168l.357-.98h1.1V-.364a3.463,3.463,0,0,0-.644.168V0h1.918Zm2.163,0a2.423,2.423,0,0,0-.6-.168l.469-1.3H-8.7l.483,1.3A3.555,3.555,0,0,0-8.792-.2V0h1.75V-.2a1.748,1.748,0,0,0-.532-.168l-1.771-4.62h-.168l-1.771,4.62a2.368,2.368,0,0,0-.5.168V0h1.533ZM-9.7-3.5l.175-.616h.014l.133.6.56,1.505h-1.428ZM-3.4-.2a2.62,2.62,0,0,0-.56-.168V-4.536A2.583,2.583,0,0,0-3.4-4.7v-.2h-1.75v.2a2.839,2.839,0,0,0,.56.168V-.364a1.987,1.987,0,0,0-.56.168V0H-3.4ZM.056-.2A2.888,2.888,0,0,0-.588-.364V-4.55h1.1l.357.98h.168c.049-.378.063-.966.07-1.33H-2.912c.007.364.021.952.07,1.33h.168l.357-.98h1.1V-.364A3.463,3.463,0,0,0-1.862-.2V0H.056Zm2.163,0a2.423,2.423,0,0,0-.6-.168l.469-1.3H3.773l.483,1.3A3.555,3.555,0,0,0,3.682-.2V0h1.75V-.2A1.748,1.748,0,0,0,4.9-.364L3.129-4.984H2.961L1.19-.364a2.368,2.368,0,0,0-.5.168V0H2.219Zm.553-3.3.175-.616h.014l.133.6.56,1.505H2.226Zm2.87-1.2a2.132,2.132,0,0,0,.574.168V-.364A2.043,2.043,0,0,0,5.642-.2V0H9.128a9.32,9.32,0,0,0-.07-1.47H8.89L8.484-.35H6.846V-4.536A2.953,2.953,0,0,0,7.518-4.7v-.2H5.642ZM11.347-.2a2.62,2.62,0,0,0-.56-.168V-4.536a2.583,2.583,0,0,0,.56-.168v-.2H9.6v.2a2.839,2.839,0,0,0,.56.168V-.364A1.987,1.987,0,0,0,9.6-.2V0h1.75Zm1.883,0a2.423,2.423,0,0,0-.6-.168l.469-1.3h1.687l.483,1.3a3.555,3.555,0,0,0-.574.168V0h1.75V-.2a1.748,1.748,0,0,0-.532-.168L14.14-4.984h-.168L12.2-.364a2.368,2.368,0,0,0-.5.168V0H13.23Zm.553-3.3.175-.616h.014l.133.6.56,1.505H13.237Zm6.069-1.2a4.193,4.193,0,0,0,.532.273v2.905l.035.6h-.028l-.322-.6L17.843-4.9H16.7v.189a4.182,4.182,0,0,0,.532.238V-.441a2.364,2.364,0,0,0-.574.245V0h1.484V-.2a2.026,2.026,0,0,0-.532-.245V-3.808l-.063-.546h.021l.273.546L20.391.084h.371V-4.431a2.14,2.14,0,0,0,.574-.273v-.2H19.852ZM21.924-2.45a2.245,2.245,0,0,0,2.2,2.534,2.245,2.245,0,0,0,2.2-2.534,2.245,2.245,0,0,0-2.2-2.534A2.245,2.245,0,0,0,21.924-2.45Zm.7,0c0-1.2.413-2.184,1.449-2.184,1.071,0,1.561.987,1.561,2.184S25.165-.266,24.192-.266C23.142-.266,22.624-1.253,22.624-2.45Zm6.524.945H28.98a10.046,10.046,0,0,0-.168,1.26,2.269,2.269,0,0,0,1.267.329c1.043,0,1.673-.546,1.673-1.386,0-1.547-2.317-1.393-2.317-2.555a.733.733,0,0,1,.8-.777,1.994,1.994,0,0,1,.742.112l.28.959h.168a9.008,9.008,0,0,0,.168-1.19,3.286,3.286,0,0,0-1.33-.231,1.267,1.267,0,0,0-1.435,1.246c0,1.631,2.317,1.421,2.317,2.562,0,.574-.476.91-1.085.91a.757.757,0,0,1-.623-.21Zm3.36-.945A2.245,2.245,0,0,0,34.713.084,2.245,2.245,0,0,0,36.918-2.45a2.245,2.245,0,0,0-2.205-2.534A2.245,2.245,0,0,0,32.508-2.45Zm.7,0c0-1.2.413-2.184,1.449-2.184,1.071,0,1.561.987,1.561,2.184S35.749-.266,34.776-.266C33.726-.266,33.208-1.253,33.208-2.45ZM39.956-4.7a2.131,2.131,0,0,0,.5.168L39.13-2.674l-.42.1v-1.96a3.986,3.986,0,0,0,.532-.168v-.2H37.506v.2a1.725,1.725,0,0,0,.574.168V-.364a2.965,2.965,0,0,0-.574.168V0h1.736V-.2a1.828,1.828,0,0,0-.532-.168V-2.352h.35A22.761,22.761,0,0,0,40.7-.168L40.929,0h.84V-.168l-.336-.168c-.686-.742-1.428-1.7-1.911-2.317l1.414-1.883a2.115,2.115,0,0,0,.532-.168v-.2H39.956ZM43.134-.2a2.423,2.423,0,0,0-.6-.168L43-1.659h1.687l.483,1.3A3.555,3.555,0,0,0,44.6-.2V0h1.75V-.2a1.748,1.748,0,0,0-.532-.168l-1.771-4.62h-.168L42.1-.364a2.368,2.368,0,0,0-.5.168V0h1.533Zm.553-3.3.175-.616h.014l.133.6.56,1.505H43.141Zm8.442,1.554a1.044,1.044,0,0,0,.434-.168v-.2H50.869v.2a2.7,2.7,0,0,0,.672.168V-.518a1.481,1.481,0,0,1-.812.252,1.942,1.942,0,0,1-1.82-2.184c0-1.484.812-2.184,1.757-2.184a1.83,1.83,0,0,1,.623.07l.364,1.008h.168a7.233,7.233,0,0,0,.1-1.19A2.881,2.881,0,0,0,50.6-4.984,2.258,2.258,0,0,0,48.265-2.45,2.22,2.22,0,0,0,50.687.084a3.37,3.37,0,0,0,1.442-.427ZM54.222-.2a2.423,2.423,0,0,0-.6-.168l.469-1.3h1.687l.483,1.3a3.555,3.555,0,0,0-.574.168V0h1.75V-.2A1.748,1.748,0,0,0,56.9-.364l-1.771-4.62h-.168L53.193-.364a2.368,2.368,0,0,0-.5.168V0h1.533Zm.553-3.3.175-.616h.014l.133.6.56,1.505H54.229ZM60.1-4.7a2.131,2.131,0,0,0,.5.168l-1.33,1.862-.42.1v-1.96a3.986,3.986,0,0,0,.532-.168v-.2H57.645v.2a1.725,1.725,0,0,0,.574.168V-.364a2.965,2.965,0,0,0-.574.168V0h1.736V-.2a1.828,1.828,0,0,0-.532-.168V-2.352h.35A22.761,22.761,0,0,0,60.837-.168L61.068,0h.84V-.168l-.336-.168c-.686-.742-1.428-1.7-1.911-2.317l1.414-1.883a2.115,2.115,0,0,0,.532-.168v-.2H60.1Zm4.473,0a2.131,2.131,0,0,0,.5.168l-1.33,1.862-.42.1v-1.96a3.986,3.986,0,0,0,.532-.168v-.2H62.118v.2a1.725,1.725,0,0,0,.574.168V-.364a2.965,2.965,0,0,0-.574.168V0h1.736V-.2a1.828,1.828,0,0,0-.532-.168V-2.352h.35A22.761,22.761,0,0,0,65.31-.168L65.541,0h.84V-.168l-.336-.168c-.686-.742-1.428-1.7-1.911-2.317l1.414-1.883A2.115,2.115,0,0,0,66.08-4.7v-.2H64.568ZM67.746-.2a2.423,2.423,0,0,0-.6-.168l.469-1.3H69.3l.483,1.3a3.555,3.555,0,0,0-.574.168V0h1.75V-.2a1.748,1.748,0,0,0-.532-.168l-1.771-4.62h-.168L66.717-.364a2.368,2.368,0,0,0-.5.168V0h1.533ZM68.3-3.5l.175-.616h.014l.133.6.56,1.505H67.753Zm4.76,3.3a2.62,2.62,0,0,0-.56-.168V-4.536a2.583,2.583,0,0,0,.56-.168v-.2h-1.75v.2a2.839,2.839,0,0,0,.56.168V-.364a1.987,1.987,0,0,0-.56.168V0h1.75Z" transform="translate(-20439 -6675.179)" fill="#e0dbc5"/>
  </g>
</svg>
