<svg xmlns="http://www.w3.org/2000/svg" xmlns:xlink="http://www.w3.org/1999/xlink" width="192.359" height="54.785" viewBox="0 0 192.359 54.785">
  <defs>
    <clipPath id="clip-path">
      <rect id="Rettangolo_748" data-name="Rettangolo 748" width="192.36" height="54.785" fill="#a1a1a1"/>
    </clipPath>
  </defs>
  <g id="Raggruppa_1132" data-name="Raggruppa 1132" transform="translate(0 0)">
    <g id="Raggruppa_1115" data-name="Raggruppa 1115" transform="translate(0 0)" clip-path="url(#clip-path)">
      <path id="Tracciato_1823" data-name="Tracciato 1823" d="M438.7,176.87l-.384,1.6a4.906,4.906,0,0,0-.544-.168,5.419,5.419,0,0,0-.584-.112q-.3-.04-.591-.064t-.568-.024a2.118,2.118,0,0,0-1.239.312,1.055,1.055,0,0,0-.44.92,1.356,1.356,0,0,0,.144.631,1.814,1.814,0,0,0,.424.527,4.212,4.212,0,0,0,.7.488q.416.239.96.5a8.192,8.192,0,0,1,1.055.607,3.819,3.819,0,0,1,.791.72,2.814,2.814,0,0,1,.5.9,3.662,3.662,0,0,1,.168,1.159,2.964,2.964,0,0,1-.432,1.623,2.77,2.77,0,0,1-1.279,1.047,5.174,5.174,0,0,1-2.063.368q-.384,0-.791-.04t-.823-.112a7.656,7.656,0,0,1-.808-.184,7.088,7.088,0,0,1-.744-.256l.4-1.6a7.058,7.058,0,0,0,.7.224q.36.1.72.16t.712.1q.351.033.671.032a3,3,0,0,0,.959-.136,1.266,1.266,0,0,0,.616-.416,1.1,1.1,0,0,0,.216-.7,1.164,1.164,0,0,0-.176-.632,2.093,2.093,0,0,0-.5-.528,6.729,6.729,0,0,0-.783-.512q-.464-.264-1.055-.551a6.3,6.3,0,0,1-.943-.624,3.686,3.686,0,0,1-.7-.744,3.307,3.307,0,0,1-.447-.9,3.567,3.567,0,0,1-.16-1.1,3.172,3.172,0,0,1,.208-1.159,2.633,2.633,0,0,1,.639-.951,2.958,2.958,0,0,1,1.1-.648,4.976,4.976,0,0,1,1.615-.232,8.658,8.658,0,0,1,1.039.063,8.435,8.435,0,0,1,.983.176,4.557,4.557,0,0,1,.743.24" transform="translate(-326.586 -133.304)" fill="#a1a1a1"/>
      <path id="Tracciato_1824" data-name="Tracciato 1824" d="M469.847,191.274a10.977,10.977,0,0,1,.152-1.943,3.73,3.73,0,0,1,.52-1.4,2.314,2.314,0,0,1,1-.848,3.8,3.8,0,0,1,1.575-.288,3.746,3.746,0,0,1,1.567.288,2.328,2.328,0,0,1,.992.848,3.838,3.838,0,0,1,.527,1.4,10.486,10.486,0,0,1,.16,1.943,10.118,10.118,0,0,1-.168,1.951,3.937,3.937,0,0,1-.536,1.407,2.315,2.315,0,0,1-1,.848,4.3,4.3,0,0,1-3.094,0,2.374,2.374,0,0,1-1-.848,3.74,3.74,0,0,1-.536-1.407,10.611,10.611,0,0,1-.16-1.951m1.967,0a9.393,9.393,0,0,0,.128,1.775,1.521,1.521,0,0,0,.408.863,1.1,1.1,0,0,0,.744.24,1.078,1.078,0,0,0,.727-.24,1.522,1.522,0,0,0,.408-.863,9.386,9.386,0,0,0,.128-1.775,9.83,9.83,0,0,0-.12-1.767,1.475,1.475,0,0,0-.4-.855,1.1,1.1,0,0,0-.743-.24,1.129,1.129,0,0,0-.76.24,1.477,1.477,0,0,0-.4.855,9.861,9.861,0,0,0-.12,1.767" transform="translate(-355.078 -141.168)" fill="#a1a1a1"/>
      <path id="Tracciato_1825" data-name="Tracciato 1825" d="M513.361,184.323a.857.857,0,0,0-.1.008.667.667,0,0,1-.1.009.958.958,0,0,1-.448-.128,2.609,2.609,0,0,1-.6-.512q-.36-.384-.967-1.151l-.345-.443c.163-.205.326-.416.489-.637q.431-.584.823-1.215a9.727,9.727,0,0,0,.68-1.3,7.283,7.283,0,0,0,.432-1.343l-1.9-.144a6.179,6.179,0,0,1-.823,2.23,9.276,9.276,0,0,1-.664.951c-.029.036-.059.072-.088.108l-.695-.891v-5.436h-1.823v11.832h1.823v-3.534l1.615,2.031q.416.528.72.856a3.521,3.521,0,0,0,.544.5,1.559,1.559,0,0,0,.463.232,1.7,1.7,0,0,0,.464.064,2.374,2.374,0,0,0,.288-.016,1.632,1.632,0,0,0,.24-.048Z" transform="translate(-383.323 -131.819)" fill="#a1a1a1"/>
      <path id="Tracciato_1826" data-name="Tracciato 1826" d="M540.734,193.368a2.7,2.7,0,0,1,.256-1.247,1.971,1.971,0,0,1,.767-.8,4.64,4.64,0,0,1,1.263-.488,13.99,13.99,0,0,1,1.743-.3v-.911a.928.928,0,0,0-.352-.792,1.566,1.566,0,0,0-.959-.264q-.24,0-.544.024a5.35,5.35,0,0,0-.656.1,7.215,7.215,0,0,0-.751.2l-.368-1.647a8.12,8.12,0,0,1,1.263-.328,6.978,6.978,0,0,1,1.215-.12,4.117,4.117,0,0,1,1.759.32,2.042,2.042,0,0,1,.983.943,3.407,3.407,0,0,1,.312,1.535v3.758a.843.843,0,0,0,.1.487.3.3,0,0,0,.24.12,1.1,1.1,0,0,0,.176-.016,1.235,1.235,0,0,0,.192-.048l.16,1.551a3.238,3.238,0,0,1-.535.224,2.193,2.193,0,0,1-.68.1,1.592,1.592,0,0,1-.9-.224,1.3,1.3,0,0,1-.5-.656,5.5,5.5,0,0,1-.624.456,2.835,2.835,0,0,1-.7.312,3.012,3.012,0,0,1-.856.112,2,2,0,0,1-.855-.176,1.785,1.785,0,0,1-.632-.488,2.18,2.18,0,0,1-.392-.751,3.323,3.323,0,0,1-.136-.983m1.919-.159a1.356,1.356,0,0,0,.216.847.7.7,0,0,0,.584.272,1.515,1.515,0,0,0,.479-.079,2.1,2.1,0,0,0,.456-.216,1.8,1.8,0,0,0,.376-.312v-1.982q-.48.064-.863.144a2.365,2.365,0,0,0-.672.24,1.069,1.069,0,0,0-.432.424,1.374,1.374,0,0,0-.144.664" transform="translate(-408.65 -141.168)" fill="#a1a1a1"/>
      <path id="Tracciato_1827" data-name="Tracciato 1827" d="M597.155,182.275a10.361,10.361,0,0,1,.448-3.326,3.751,3.751,0,0,1,1.351-1.927,3.885,3.885,0,0,1,2.278-.631q.352,0,.7.024a6.751,6.751,0,0,1,.68.08q.328.056.64.128a5.381,5.381,0,0,1,.583.168l-.352,1.679a7.741,7.741,0,0,0-1.039-.224,7.064,7.064,0,0,0-1.023-.08,1.963,1.963,0,0,0-1.311.432,2.6,2.6,0,0,0-.76,1.351,9.519,9.519,0,0,0-.248,2.406,9.384,9.384,0,0,0,.216,2.238,2.414,2.414,0,0,0,.656,1.239,1.608,1.608,0,0,0,1.111.392,4.927,4.927,0,0,0,.711-.048,3.365,3.365,0,0,0,.567-.128V183.33h-1.5v-1.663h3.278v5.564a5.524,5.524,0,0,1-1.447.5,8.7,8.7,0,0,1-1.766.168,3.487,3.487,0,0,1-2.111-.607,3.633,3.633,0,0,1-1.247-1.855,10.171,10.171,0,0,1-.416-3.166" transform="translate(-451.289 -133.304)" fill="#a1a1a1"/>
      <path id="Tracciato_1828" data-name="Tracciato 1828" d="M635.772,193.368a2.7,2.7,0,0,1,.256-1.247,1.973,1.973,0,0,1,.767-.8,4.637,4.637,0,0,1,1.263-.488,13.992,13.992,0,0,1,1.743-.3v-.911a.928.928,0,0,0-.351-.792,1.568,1.568,0,0,0-.96-.264c-.159,0-.341.008-.543.024a5.352,5.352,0,0,0-.655.1,7.221,7.221,0,0,0-.752.2l-.367-1.647a8.1,8.1,0,0,1,1.263-.328,6.98,6.98,0,0,1,1.215-.12,4.118,4.118,0,0,1,1.759.32,2.04,2.04,0,0,1,.983.943,3.409,3.409,0,0,1,.312,1.535v3.758a.842.842,0,0,0,.1.487.294.294,0,0,0,.24.12,1.094,1.094,0,0,0,.176-.016,1.24,1.24,0,0,0,.192-.048l.16,1.551a3.24,3.24,0,0,1-.536.224,2.194,2.194,0,0,1-.679.1,1.593,1.593,0,0,1-.9-.224,1.3,1.3,0,0,1-.5-.656,5.44,5.44,0,0,1-.623.456,2.838,2.838,0,0,1-.7.312,3.011,3.011,0,0,1-.856.112,2,2,0,0,1-.855-.176,1.787,1.787,0,0,1-.632-.488,2.18,2.18,0,0,1-.391-.751,3.319,3.319,0,0,1-.136-.983m1.919-.159a1.356,1.356,0,0,0,.216.847.7.7,0,0,0,.583.272,1.513,1.513,0,0,0,.479-.079,2.091,2.091,0,0,0,.456-.216,1.806,1.806,0,0,0,.376-.312v-1.982q-.48.064-.863.144a2.366,2.366,0,0,0-.672.24,1.066,1.066,0,0,0-.432.424,1.372,1.372,0,0,0-.144.664" transform="translate(-480.473 -141.168)" fill="#a1a1a1"/>
      <path id="Tracciato_1829" data-name="Tracciato 1829" d="M679.091,184.323a.843.843,0,0,0-.1.008.672.672,0,0,1-.1.009.959.959,0,0,1-.447-.128,2.606,2.606,0,0,1-.6-.512q-.36-.384-.967-1.151l-.345-.443c.163-.2.326-.416.489-.636q.432-.584.823-1.215a9.769,9.769,0,0,0,.679-1.3,7.269,7.269,0,0,0,.432-1.343l-1.9-.144a6.191,6.191,0,0,1-.823,2.23,9.229,9.229,0,0,1-.664.951c-.029.036-.059.072-.088.108l-.7-.891v-5.436h-1.823v11.832h1.823v-3.534l1.615,2.031q.416.528.719.856a3.555,3.555,0,0,0,.544.5,1.564,1.564,0,0,0,.464.232,1.7,1.7,0,0,0,.464.064,2.378,2.378,0,0,0,.288-.016,1.6,1.6,0,0,0,.24-.048Z" transform="translate(-508.57 -131.819)" fill="#a1a1a1"/>
      <path id="Tracciato_1830" data-name="Tracciato 1830" d="M713.912,184.323a.832.832,0,0,0-.1.008.682.682,0,0,1-.1.009.959.959,0,0,1-.447-.128,2.594,2.594,0,0,1-.6-.512q-.359-.384-.967-1.151l-.345-.443c.163-.2.326-.416.489-.636q.432-.584.823-1.215a9.762,9.762,0,0,0,.679-1.3,7.26,7.26,0,0,0,.432-1.343l-1.9-.144a6.188,6.188,0,0,1-.823,2.23,9.267,9.267,0,0,1-.664.951c-.029.036-.059.072-.089.108l-.7-.891v-5.436h-1.823v11.832h1.823v-3.534l1.615,2.031q.415.528.719.856a3.564,3.564,0,0,0,.544.5,1.567,1.567,0,0,0,.464.232,1.7,1.7,0,0,0,.463.064,2.379,2.379,0,0,0,.288-.016,1.6,1.6,0,0,0,.24-.048Z" transform="translate(-534.885 -131.819)" fill="#a1a1a1"/>
      <path id="Tracciato_1831" data-name="Tracciato 1831" d="M741.286,193.368a2.7,2.7,0,0,1,.255-1.247,1.972,1.972,0,0,1,.767-.8,4.639,4.639,0,0,1,1.263-.488,13.985,13.985,0,0,1,1.743-.3v-.911a.928.928,0,0,0-.352-.792,1.568,1.568,0,0,0-.96-.264c-.159,0-.341.008-.544.024a5.352,5.352,0,0,0-.655.1,7.205,7.205,0,0,0-.752.2l-.367-1.647a8.121,8.121,0,0,1,1.263-.328,6.978,6.978,0,0,1,1.215-.12,4.118,4.118,0,0,1,1.759.32,2.041,2.041,0,0,1,.983.943,3.41,3.41,0,0,1,.312,1.535v3.758a.84.84,0,0,0,.1.487.294.294,0,0,0,.24.12,1.1,1.1,0,0,0,.176-.016,1.24,1.24,0,0,0,.191-.048l.16,1.551a3.244,3.244,0,0,1-.536.224,2.192,2.192,0,0,1-.679.1,1.594,1.594,0,0,1-.9-.224,1.3,1.3,0,0,1-.5-.656,5.443,5.443,0,0,1-.624.456,2.833,2.833,0,0,1-.7.312,3.011,3.011,0,0,1-.856.112,2,2,0,0,1-.855-.176,1.778,1.778,0,0,1-.631-.488,2.168,2.168,0,0,1-.392-.751,3.315,3.315,0,0,1-.136-.983m1.918-.159a1.357,1.357,0,0,0,.216.847.7.7,0,0,0,.583.272,1.513,1.513,0,0,0,.479-.079,2.089,2.089,0,0,0,.456-.216,1.808,1.808,0,0,0,.376-.312v-1.982q-.48.064-.863.144a2.368,2.368,0,0,0-.672.24,1.068,1.068,0,0,0-.432.424,1.376,1.376,0,0,0-.144.664" transform="translate(-560.213 -141.168)" fill="#a1a1a1"/>
      <path id="Tracciato_1832" data-name="Tracciato 1832" d="M778.926,175.684a1.2,1.2,0,0,1-.847-.256,1.407,1.407,0,0,1,0-1.663,1.544,1.544,0,0,1,1.7,0,1.443,1.443,0,0,1,0,1.663,1.2,1.2,0,0,1-.856.256m-.959,1.231h1.9v8.65h-1.9Z" transform="translate(-587.813 -131.126)" fill="#a1a1a1"/>
      <path id="Tracciato_1833" data-name="Tracciato 1833" d="M374.711,172.477a1.761,1.761,0,0,0-1.87,1.811,1.356,1.356,0,0,0-.612,2.033.972.972,0,0,0,.2,1.552,4.588,4.588,0,0,1-.193-1.269,4.692,4.692,0,0,1,2.478-4.127" transform="translate(-281.079 -130.346)" fill="#a1a1a1"/>
      <path id="Tracciato_1834" data-name="Tracciato 1834" d="M383.316,172.477a1.761,1.761,0,0,1,1.87,1.811,1.356,1.356,0,0,1,.612,2.033.972.972,0,0,1-.2,1.552,4.589,4.589,0,0,0,.192-1.269,4.692,4.692,0,0,0-2.477-4.127" transform="translate(-289.684 -130.346)" fill="#a1a1a1"/>
      <path id="Tracciato_1835" data-name="Tracciato 1835" d="M363.155,180.064a1.762,1.762,0,0,0-.042,2.6,1.356,1.356,0,0,0,1.005,1.871.972.972,0,0,0,1.237.957,4.583,4.583,0,0,1-1.034-.761,4.693,4.693,0,0,1-1.166-4.67" transform="translate(-273.997 -136.08)" fill="#a1a1a1"/>
      <path id="Tracciato_1836" data-name="Tracciato 1836" d="M365,178.219a1.761,1.761,0,0,1,2.6-.042,1.357,1.357,0,0,1,1.871,1,.972.972,0,0,1,.957,1.237,4.584,4.584,0,0,0-.761-1.034,4.693,4.693,0,0,0-4.67-1.166" transform="translate(-275.842 -134.235)" fill="#a1a1a1"/>
      <path id="Tracciato_1837" data-name="Tracciato 1837" d="M357.414,198.379a1.762,1.762,0,0,0,1.811,1.871,1.356,1.356,0,0,0,2.033.612.972.972,0,0,0,1.552-.2,4.585,4.585,0,0,1-1.269.193,4.693,4.693,0,0,1-4.127-2.478" transform="translate(-270.109 -149.921)" fill="#a1a1a1"/>
      <path id="Tracciato_1838" data-name="Tracciato 1838" d="M357.414,189.774a1.762,1.762,0,0,1,1.811-1.87,1.356,1.356,0,0,1,2.033-.612.972.972,0,0,1,1.552.2,4.586,4.586,0,0,0-1.269-.193,4.692,4.692,0,0,0-4.127,2.477" transform="translate(-270.109 -141.316)" fill="#a1a1a1"/>
      <path id="Tracciato_1839" data-name="Tracciato 1839" d="M365,209.887a1.761,1.761,0,0,0,2.6.042,1.356,1.356,0,0,0,1.871-1,.972.972,0,0,0,.957-1.237,4.585,4.585,0,0,1-.761,1.034,4.693,4.693,0,0,1-4.67,1.166" transform="translate(-275.842 -156.956)" fill="#a1a1a1"/>
      <path id="Tracciato_1840" data-name="Tracciato 1840" d="M363.155,199.76a1.761,1.761,0,0,1-.042-2.6,1.356,1.356,0,0,1,1.005-1.871.972.972,0,0,1,1.237-.957,4.582,4.582,0,0,0-1.034.761,4.693,4.693,0,0,0-1.166,4.67" transform="translate(-273.997 -146.828)" fill="#a1a1a1"/>
      <path id="Tracciato_1841" data-name="Tracciato 1841" d="M383.316,207.586a1.761,1.761,0,0,0,1.87-1.811,1.356,1.356,0,0,0,.612-2.033.972.972,0,0,0-.2-1.552,4.589,4.589,0,0,1,.192,1.269,4.692,4.692,0,0,1-2.477,4.127" transform="translate(-289.684 -152.801)" fill="#a1a1a1"/>
      <path id="Tracciato_1842" data-name="Tracciato 1842" d="M374.711,207.586a1.761,1.761,0,0,1-1.87-1.811,1.356,1.356,0,0,1-.612-2.033.972.972,0,0,1,.2-1.552,4.588,4.588,0,0,0-.193,1.269,4.692,4.692,0,0,0,2.478,4.127" transform="translate(-281.079 -152.801)" fill="#a1a1a1"/>
      <path id="Tracciato_1843" data-name="Tracciato 1843" d="M394.824,199.76a1.761,1.761,0,0,0,.042-2.6,1.356,1.356,0,0,0-1.005-1.871.972.972,0,0,0-1.237-.957,4.584,4.584,0,0,1,1.034.761,4.693,4.693,0,0,1,1.166,4.67" transform="translate(-296.718 -146.828)" fill="#a1a1a1"/>
      <path id="Tracciato_1844" data-name="Tracciato 1844" d="M384.7,209.887a1.762,1.762,0,0,1-2.6.042,1.356,1.356,0,0,1-1.871-1,.972.972,0,0,1-.957-1.237,4.584,4.584,0,0,0,.761,1.034,4.693,4.693,0,0,0,4.67,1.166" transform="translate(-286.591 -156.956)" fill="#a1a1a1"/>
      <path id="Tracciato_1845" data-name="Tracciato 1845" d="M392.523,189.774a1.761,1.761,0,0,0-1.811-1.87,1.356,1.356,0,0,0-2.033-.612.972.972,0,0,0-1.552.2,4.586,4.586,0,0,1,1.269-.193,4.692,4.692,0,0,1,4.127,2.477" transform="translate(-292.564 -141.316)" fill="#a1a1a1"/>
      <path id="Tracciato_1846" data-name="Tracciato 1846" d="M392.523,198.379a1.762,1.762,0,0,1-1.811,1.871,1.356,1.356,0,0,1-2.033.612.972.972,0,0,1-1.552-.2,4.585,4.585,0,0,0,1.269.193,4.692,4.692,0,0,0,4.127-2.478" transform="translate(-292.564 -149.921)" fill="#a1a1a1"/>
      <path id="Tracciato_1847" data-name="Tracciato 1847" d="M384.7,178.219a1.762,1.762,0,0,0-2.6-.042,1.356,1.356,0,0,0-1.871,1,.972.972,0,0,0-.957,1.237,4.583,4.583,0,0,1,.761-1.034,4.693,4.693,0,0,1,4.67-1.166" transform="translate(-286.591 -134.235)" fill="#a1a1a1"/>
      <path id="Tracciato_1848" data-name="Tracciato 1848" d="M394.824,180.064a1.762,1.762,0,0,1,.042,2.6,1.356,1.356,0,0,1-1.005,1.871.972.972,0,0,1-1.237.957,4.585,4.585,0,0,0,1.034-.761,4.693,4.693,0,0,0,1.166-4.67" transform="translate(-296.718 -136.08)" fill="#a1a1a1"/>
      <rect id="Rettangolo_743" data-name="Rettangolo 743" width="3.783" height="21.889" transform="translate(103.501 17.388)" fill="#fff"/>
      <path id="Tracciato_1849" data-name="Tracciato 1849" d="M448.551,81.441a20.756,20.756,0,0,1,.891-6.723,6.872,6.872,0,0,1,2.673-3.675,8.143,8.143,0,0,1,4.472-1.141q.719,0,1.36.047t1.22.141q.578.093,1.126.234t1.079.328l-.75,3.252q-.657-.187-1.251-.3a11.744,11.744,0,0,0-1.173-.156q-.579-.047-1.172-.047a5.2,5.2,0,0,0-2.064.375,3.12,3.12,0,0,0-1.438,1.3,7.274,7.274,0,0,0-.844,2.486,22.633,22.633,0,0,0-.281,3.909,19.192,19.192,0,0,0,.281,3.6,6.3,6.3,0,0,0,.844,2.282,3.282,3.282,0,0,0,1.407,1.219,4.888,4.888,0,0,0,2,.376,14.357,14.357,0,0,0,2.033-.157,11.084,11.084,0,0,0,1.939-.438l.657,3.252q-.532.188-1.126.344c-.4.1-.813.192-1.251.266a13.968,13.968,0,0,1-1.392.156q-.735.047-1.516.047a9.05,9.05,0,0,1-3.361-.578,5.617,5.617,0,0,1-2.423-1.845,8.713,8.713,0,0,1-1.454-3.377,23.511,23.511,0,0,1-.485-5.175" transform="translate(-338.984 -52.827)" fill="#fff"/>
      <rect id="Rettangolo_744" data-name="Rettangolo 744" width="3.783" height="21.889" transform="translate(141.368 17.388)" fill="#fff"/>
      <path id="Tracciato_1850" data-name="Tracciato 1850" d="M619.547,92.417a4.638,4.638,0,0,1-1.376-.2,4.26,4.26,0,0,1-1.313-.7,6.965,6.965,0,0,1-1.329-1.407,19.921,19.921,0,0,1-1.439-2.314q-.766-1.407-1.642-3.44A3.371,3.371,0,0,1,612,84.4q-.3.016-.454.015h-.813q-.439,0-.782-.031V92.1h-3.815V70.184q1.22-.093,2.267-.156t2.017-.094q.968-.031,1.907-.031a12.606,12.606,0,0,1,3.283.375,5.39,5.39,0,0,1,2.252,1.173,4.9,4.9,0,0,1,1.313,2.064,9.378,9.378,0,0,1,.438,3.048,10.294,10.294,0,0,1-.422,3.111,5.991,5.991,0,0,1-1.22,2.22,5.2,5.2,0,0,1-1.954,1.36,23.2,23.2,0,0,0,1.3,2.533,13.206,13.206,0,0,0,1.095,1.579,3.313,3.313,0,0,0,.922.813,1.789,1.789,0,0,0,.844.234,1.929,1.929,0,0,0,.2-.016c.094-.01.161-.016.2-.016l.062,3.909c-.125.02-.276.047-.453.078a3.759,3.759,0,0,1-.641.047m-7.411-11.226a4.808,4.808,0,0,0,1.579-.235,2.757,2.757,0,0,0,1.126-.719,2.879,2.879,0,0,0,.657-1.267,7.405,7.405,0,0,0,.2-1.845,7.117,7.117,0,0,0-.3-2.267,2.214,2.214,0,0,0-1.032-1.267,4.275,4.275,0,0,0-2.048-.406h-.578q-.267,0-.532.016t-.579.047c-.209.021-.438.042-.688.063v7.817c.208,0,.4.005.578.016l.532.031c.177.011.354.016.531.016Z" transform="translate(-458.074 -52.828)" fill="#fff"/>
      <path id="Tracciato_1851" data-name="Tracciato 1851" d="M366.615,71.183V87.115a15.415,15.415,0,0,1-5.641-8.012,21.716,21.716,0,0,1-.835-3.575V71.183h-3.784V93.072h3.784v-7.8a17.8,17.8,0,0,0,6.476,5.892v1.905H370.4V71.183Z" transform="translate(-269.309 -53.795)" fill="#fff"/>
      <path id="Tracciato_1852" data-name="Tracciato 1852" d="M520.417,71.183v3.748c-.324,2.723-1.559,6.156-6.272,8.986V71.183h-3.784V93.072h3.784V87.853a19.727,19.727,0,0,0,6.272-4.659v9.878H524.2V71.183Z" transform="translate(-385.696 -53.795)" fill="#fff"/>
      <path id="Tracciato_1853" data-name="Tracciato 1853" d="M740.261,71.183V86.862c-4.436-3.754-5.973-9.855-6.476-12.837V71.183H730V93.072h3.784V84.406a18.542,18.542,0,0,0,6.476,6.7v1.968h3.783V71.183Z" transform="translate(-551.685 -53.795)" fill="#fff"/>
      <path id="Tracciato_1854" data-name="Tracciato 1854" d="M676.77,89.538v-5.4c2.09-1.785,3.442-2.171,5.073-2.2l-.071-3.459a9.818,9.818,0,0,0-5,1.4v-5.1h7.661v-3.6H672.955V93.072h11.914V89.538Z" transform="translate(-508.573 -53.795)" fill="#fff"/>
      <path id="Tracciato_1855" data-name="Tracciato 1855" d="M356.071,14.45V2.531h2.078v9.995h3.933V14.45Z" transform="translate(-269.094 -1.913)" fill="#fff"/>
      <path id="Tracciato_1856" data-name="Tracciato 1856" d="M382.63,14.187l2.792-12h2.639l2.844,12h-2.2l-.562-2.554H385.3l-.562,2.554Zm2.98-4.478h2.231l-1.107-5.772Z" transform="translate(-289.165 -1.649)" fill="#fff"/>
      <path id="Tracciato_1857" data-name="Tracciato 1857" d="M434.355,13.906V2.038q.715-.068,1.311-.111t1.1-.068q.5-.025.945-.025a5.691,5.691,0,0,1,2.044.307,2.174,2.174,0,0,1,1.149.953,3.405,3.405,0,0,1,.366,1.686A3.509,3.509,0,0,1,440.9,6.43a2.326,2.326,0,0,1-1.064,1.039V7.5a2.692,2.692,0,0,1,1.4,1.115,3.5,3.5,0,0,1,.5,1.916,4.991,4.991,0,0,1-.23,1.609,2.58,2.58,0,0,1-.7,1.1,3,3,0,0,1-1.235.639,6.945,6.945,0,0,1-1.839.213q-.375,0-.673-.009l-.553-.017q-.256-.009-.554-.034l-.681-.06q-.383-.034-.928-.068m2.078-6.811h1.635a1.145,1.145,0,0,0,.7-.213,1.326,1.326,0,0,0,.443-.6,2.459,2.459,0,0,0,.153-.9,2.425,2.425,0,0,0-.17-.979,1.144,1.144,0,0,0-.536-.571,2.167,2.167,0,0,0-.979-.187h-.247q-.111,0-.221.009l-.222.017c-.074.006-.153.015-.238.026s-.19.023-.315.034Zm0,5.108c.159.011.3.023.417.034s.227.02.323.026l.273.017c.085.006.167.008.247.008a2.987,2.987,0,0,0,1.167-.187,1.124,1.124,0,0,0,.613-.6,2.656,2.656,0,0,0,.179-1.056,1.872,1.872,0,0,0-.392-1.278,1.51,1.51,0,0,0-1.192-.443h-1.635Z" transform="translate(-328.256 -1.385)" fill="#fff"/>
      <rect id="Rettangolo_745" data-name="Rettangolo 745" width="2.06" height="11.919" transform="translate(114.63 0.618)" fill="#fff"/>
      <path id="Tracciato_1858" data-name="Tracciato 1858" d="M484.2,13.906V2.038q.715-.068,1.311-.111t1.1-.068q.5-.025.945-.025a5.691,5.691,0,0,1,2.044.307,2.174,2.174,0,0,1,1.149.953,3.4,3.4,0,0,1,.366,1.686,3.509,3.509,0,0,1-.366,1.651,2.325,2.325,0,0,1-1.064,1.039V7.5a2.691,2.691,0,0,1,1.4,1.115,3.5,3.5,0,0,1,.5,1.916,4.992,4.992,0,0,1-.23,1.609,2.58,2.58,0,0,1-.7,1.1,3,3,0,0,1-1.235.639,6.945,6.945,0,0,1-1.839.213q-.375,0-.673-.009l-.553-.017q-.256-.009-.553-.034l-.681-.06q-.383-.034-.928-.068m2.078-6.811h1.635a1.145,1.145,0,0,0,.7-.213,1.326,1.326,0,0,0,.443-.6,2.459,2.459,0,0,0,.153-.9,2.427,2.427,0,0,0-.17-.979,1.146,1.146,0,0,0-.536-.571,2.167,2.167,0,0,0-.979-.187h-.247q-.111,0-.221.009l-.222.017c-.074.006-.153.015-.238.026s-.19.023-.315.034Zm0,5.108c.159.011.3.023.417.034s.227.02.323.026l.273.017c.085.006.167.008.247.008A2.987,2.987,0,0,0,488.7,12.1a1.125,1.125,0,0,0,.613-.6,2.657,2.657,0,0,0,.179-1.056,1.872,1.872,0,0,0-.392-1.278,1.51,1.51,0,0,0-1.192-.443h-1.635Z" transform="translate(-365.921 -1.385)" fill="#fff"/>
      <path id="Tracciato_1859" data-name="Tracciato 1859" d="M519.119,14.45V2.531H521.2v9.995h3.933V14.45Z" transform="translate(-392.315 -1.913)" fill="#fff"/>
      <rect id="Rettangolo_746" data-name="Rettangolo 746" width="2.06" height="11.919" transform="translate(133.803 0.618)" fill="#fff"/>
      <path id="Tracciato_1860" data-name="Tracciato 1860" d="M565.432,14.093a4.966,4.966,0,0,1-1.414-.187,3.1,3.1,0,0,1-1.132-.613,3.39,3.39,0,0,1-.843-1.133,6.441,6.441,0,0,1-.51-1.745,15.266,15.266,0,0,1-.17-2.435,15.354,15.354,0,0,1,.17-2.46,6.64,6.64,0,0,1,.5-1.737,3.438,3.438,0,0,1,.826-1.141,2.95,2.95,0,0,1,1.132-.621,5.618,5.618,0,0,1,2.878,0A3.011,3.011,0,0,1,568,2.633a3.353,3.353,0,0,1,.826,1.124,6.735,6.735,0,0,1,.511,1.737,14.484,14.484,0,0,1,.179,2.435,15.509,15.509,0,0,1-.17,2.469,6.575,6.575,0,0,1-.511,1.754A3.42,3.42,0,0,1,568,13.293a3.008,3.008,0,0,1-1.132.613,5.121,5.121,0,0,1-1.438.187m0-1.805a1.885,1.885,0,0,0,.673-.119,1.316,1.316,0,0,0,.553-.409,2.538,2.538,0,0,0,.408-.775,5.791,5.791,0,0,0,.255-1.234,16.015,16.015,0,0,0,.086-1.788,16.2,16.2,0,0,0-.086-1.8,5.976,5.976,0,0,0-.255-1.243,2.415,2.415,0,0,0-.408-.775,1.349,1.349,0,0,0-.553-.4,1.885,1.885,0,0,0-.673-.119,1.793,1.793,0,0,0-.673.119,1.4,1.4,0,0,0-.537.392,2.281,2.281,0,0,0-.408.783,6.273,6.273,0,0,0-.255,1.26,16.256,16.256,0,0,0-.086,1.8,15.827,15.827,0,0,0,.086,1.779,5.9,5.9,0,0,0,.255,1.235,2.3,2.3,0,0,0,.417.775,1.438,1.438,0,0,0,.545.4,1.748,1.748,0,0,0,.656.119" transform="translate(-424.239 -1.385)" fill="#fff"/>
      <path id="Tracciato_1861" data-name="Tracciato 1861" d="M603.487,4.489h-2.639V14.45h-2.06V4.489h-2.639V2.531h7.339Z" transform="translate(-450.528 -1.912)" fill="#fff"/>
      <path id="Tracciato_1862" data-name="Tracciato 1862" d="M659.374,8.116a11.3,11.3,0,0,1,.485-3.661,3.744,3.744,0,0,1,1.456-2,4.431,4.431,0,0,1,2.435-.622q.391,0,.74.026c.233.017.454.043.664.076s.414.077.613.128.395.11.588.179l-.409,1.771q-.358-.1-.681-.162t-.638-.085c-.211-.017-.423-.025-.639-.025a2.835,2.835,0,0,0-1.124.2,1.7,1.7,0,0,0-.783.706A3.96,3.96,0,0,0,661.622,6a12.325,12.325,0,0,0-.153,2.129,10.448,10.448,0,0,0,.153,1.958,3.425,3.425,0,0,0,.46,1.243,1.784,1.784,0,0,0,.766.664,2.671,2.671,0,0,0,1.09.2,7.874,7.874,0,0,0,1.107-.085,6.07,6.07,0,0,0,1.056-.238l.357,1.771q-.289.1-.613.187c-.216.057-.443.1-.681.145s-.492.068-.758.085-.542.026-.826.026a4.92,4.92,0,0,1-1.83-.315,3.058,3.058,0,0,1-1.32-1,4.75,4.75,0,0,1-.792-1.839,12.828,12.828,0,0,1-.264-2.818" transform="translate(-498.31 -1.385)" fill="#fff"/>
      <path id="Tracciato_1863" data-name="Tracciato 1863" d="M690.327,14.187l2.793-12h2.639l2.844,12h-2.2l-.562-2.554H693l-.562,2.554Zm2.98-4.478h2.231l-1.107-5.772Z" transform="translate(-521.702 -1.649)" fill="#fff"/>
      <path id="Tracciato_1864" data-name="Tracciato 1864" d="M745.3,14.093q-.6,0-1.158-.017t-1.081-.051l-1.013-.068V2q.561-.068,1.081-.1t1.047-.051q.527-.017,1.072-.017a4.822,4.822,0,0,1,2.622.63,3.557,3.557,0,0,1,1.43,1.975,11.487,11.487,0,0,1,.442,3.508,10.788,10.788,0,0,1-.477,3.516,3.79,3.79,0,0,1-1.447,1.993,4.511,4.511,0,0,1-2.52.639m.136-1.788a1.817,1.817,0,0,0,1.226-.409,2.527,2.527,0,0,0,.707-1.353,11.31,11.31,0,0,0,.23-2.563,12.015,12.015,0,0,0-.221-2.622,2.378,2.378,0,0,0-.7-1.328,1.924,1.924,0,0,0-1.26-.392q-.2,0-.435.009t-.442.026l-.417.034v8.531l.315.034a3.154,3.154,0,0,0,.341.017c.119,0,.232,0,.341.009s.213.009.315.009" transform="translate(-560.791 -1.385)" fill="#fff"/>
      <rect id="Rettangolo_747" data-name="Rettangolo 747" width="2.06" height="11.919" transform="translate(190.182 0.618)" fill="#fff"/>
      <path id="Tracciato_1865" data-name="Tracciato 1865" d="M632.243,12.525V10.646c1.466-1.361,1.782-1.551,2.819-1.572l-.048-2.31a4.6,4.6,0,0,0-2.771.859V4.488h4.172V2.53h-6.249V14.45h6.487V12.525Z" transform="translate(-476.235 -1.912)" fill="#fff"/>
      <path id="Tracciato_1866" data-name="Tracciato 1866" d="M78.393,1.624s-1.713.684-2.491.911V.919s-2.242.692-2.962.94V.325L71.272.9C67.6,2.08,60.1,4.32,55.442,2.188,46.91-1.717,41.223.57,39.2,1.713c-2.024-1.143-7.711-3.43-16.243.474C18.057,4.429,10.02,1.838,6.588.731V.736C5.95.516,5.457.325,5.457.325V1.936C4.7,1.706,2.5.919,2.5.919v1.66C2.241,2.5,0,1.624,0,1.624L0,53.147s1.89.009,1.936.014v1.426L35.48,51.4c.3.772,1.925,1.362,3.888,1.362,1.937,0,3.545-.574,3.877-1.331l33.216,3.157V53.3c.09-.008,1.937-.191,1.937-.191ZM77.151,51.969c-.287.033-.712.072-1.248.109V3.833c.482-.137.906-.263,1.248-.372ZM5.52,46.719l-.008,0v1.942l.768.026h0c.139.012,1.352.113,3.16.113,3.523,0,9.309-.382,13.823-2.547A13.521,13.521,0,0,1,38.4,48.476l-.005.549c-1.907-1.131-8.228-3.99-17.6.7-4.736,2.367-12.4,2.553-16.739,2.351V2.8c.366.128.843.276,1.466.454Zm66.692,1.953,0-.011.675-.113V46.717l-.008,0V3.205c.591-.214,1.083-.375,1.466-.494V52.16c-4.293.165-11.9-.018-16.739-2.439-9.373-4.685-15.694-1.826-17.6-.7l0-.492c1.573-1.175,8.321-5.608,15.99-1.681a23.861,23.861,0,0,0,10.737,2.3,29.6,29.6,0,0,0,5.487-.483M2.5,51.973c-.529-.044-.953-.091-1.248-.135V3.5c.324.112.735.239,1.248.388Zm52.3-48.367a13.065,13.065,0,0,0,5.421,1.019,38.652,38.652,0,0,0,11-2.066V47.151c-2.127.318-8.958,1.036-14.463-1.782a15.837,15.837,0,0,0-12.784-.8,19.347,19.347,0,0,0-3.985,1.954v-.1l.406-43.566c2.053-1.011,7.071-2.609,14.409.748m-31.189,0C31,.222,35.971,1.821,38.013,2.845l.405,43.508a17,17,0,0,0-3.464-1.978,14.716,14.716,0,0,0-12.411.374C17.181,47.32,9.59,47.19,7.187,47.072V2.559a38.638,38.638,0,0,0,11,2.066A13.066,13.066,0,0,0,23.6,3.605" transform="translate(0 -0.001)" fill="#fff"/>
      <path id="Tracciato_1867" data-name="Tracciato 1867" d="M176.715,45.026s.059-.014.3-.06h0a17.884,17.884,0,0,1,10.923,2.083,15.123,15.123,0,0,0,6.913,1.406,34.284,34.284,0,0,0,7.047-.818h0l.019-1.913s-.339.066-.46.094c-3.15.679-8.938,1.513-12.652-.427a19.551,19.551,0,0,0-12.09-2.272h-.008l.008.047Z" transform="translate(-133.543 -32.441)" fill="#fff"/>
      <path id="Tracciato_1868" data-name="Tracciato 1868" d="M176.715,26.118v1.856s.059-.014.3-.06h0A17.886,17.886,0,0,1,187.939,30a14.867,14.867,0,0,0,6.89,1.412q1.1,0,2.288-.1v-.02l0,.014.019-1.874s-.268.019-.413.032c-3.348.248-6.013-.129-7.92-1.125a19.547,19.547,0,0,0-12.09-2.272h-.008Z" transform="translate(-133.543 -19.554)" fill="#fff"/>
      <path id="Tracciato_1869" data-name="Tracciato 1869" d="M176.715,62.077s.059-.014.3-.06h0A17.888,17.888,0,0,1,187.939,64.1a15.123,15.123,0,0,0,6.913,1.406,34.286,34.286,0,0,0,7.047-.818h0l.019-1.913s-.349.068-.466.1c-3.152.679-8.934,1.511-12.646-.428a19.546,19.546,0,0,0-12.09-2.271h-.008l.008.047Z" transform="translate(-133.543 -45.327)" fill="#fff"/>
      <path id="Tracciato_1870" data-name="Tracciato 1870" d="M176.715,79.129s.059-.014.3-.06h0a17.888,17.888,0,0,1,10.923,2.083,15.123,15.123,0,0,0,6.913,1.406,34.285,34.285,0,0,0,7.047-.818h0l.019-1.913s-.343.067-.463.094c-3.151.679-8.936,1.512-12.649-.427a19.549,19.549,0,0,0-12.09-2.272h-.008l.008.047Z" transform="translate(-133.543 -58.213)" fill="#fff"/>
      <path id="Tracciato_1871" data-name="Tracciato 1871" d="M176.715,96.18s.059-.014.3-.06h0a17.884,17.884,0,0,1,10.923,2.083,15.123,15.123,0,0,0,6.913,1.406,34.286,34.286,0,0,0,7.047-.818h0l.019-1.913s-.338.066-.46.094c-3.15.679-8.938,1.513-12.652-.427a19.549,19.549,0,0,0-12.09-2.272h-.008l.008.047Z" transform="translate(-133.543 -71.099)" fill="#fff"/>
      <path id="Tracciato_1872" data-name="Tracciato 1872" d="M209.419,116.586a20.653,20.653,0,0,1,3.236,1.357,15.124,15.124,0,0,0,6.913,1.406,34.3,34.3,0,0,0,7.046-.818h0l.019-1.913s-.348.068-.466.1c-3.152.679-8.934,1.511-12.647-.428a22.58,22.58,0,0,0-3.538-1.483l0,.008a.123.123,0,0,0-.047-.023c-.432-.078-.518-.1-.518-.1v1.886l0,.011h0v.008l0-.006" transform="translate(-158.259 -86.673)" fill="#fff"/>
      <path id="Tracciato_1873" data-name="Tracciato 1873" d="M176.715,130.283s.059-.014.3-.06h0a17.873,17.873,0,0,1,10.923,2.083,15.124,15.124,0,0,0,6.913,1.406,34.3,34.3,0,0,0,7.046-.818h0l.019-1.913s-.342.067-.462.094c-3.151.679-8.937,1.513-12.65-.427a19.551,19.551,0,0,0-12.09-2.272h-.008l.008.047Z" transform="translate(-133.543 -96.872)" fill="#fff"/>
      <path id="Tracciato_1874" data-name="Tracciato 1874" d="M188.805,145.931a19.556,19.556,0,0,0-12.09-2.272h-.008l.008.047v1.856s.058-.014.3-.06v0a17.876,17.876,0,0,1,10.922,2.083A15.123,15.123,0,0,0,194.852,149a34.3,34.3,0,0,0,7.047-.818h0l.019-1.913s-.333.065-.457.093c-3.15.679-8.939,1.515-12.655-.426" transform="translate(-133.543 -108.421)" fill="#fff"/>
      <path id="Tracciato_1875" data-name="Tracciato 1875" d="M41.614,48.3a34.284,34.284,0,0,0,7.047.818,15.128,15.128,0,0,0,6.913-1.406A17.883,17.883,0,0,1,66.5,45.625h0c.243.045.3.06.3.06V43.827l.008-.047H66.8a19.552,19.552,0,0,0-12.09,2.272c-3.712,1.939-9.5,1.107-12.648.428-.119-.027-.464-.095-.464-.095l.019,1.913Z" transform="translate(-31.435 -32.938)" fill="#fff"/>
      <path id="Tracciato_1876" data-name="Tracciato 1876" d="M81.583,144.743h0a19.556,19.556,0,0,0-12.09,2.272c-1.907,1-4.573,1.373-7.92,1.125-.146-.013-.413-.032-.413-.032l.018,1.874,0-.013v.018q1.193.1,2.29.1a14.865,14.865,0,0,0,6.889-1.412,17.884,17.884,0,0,1,10.922-2.083h0c.243.045.3.06.3.06v-1.856l.008-.047h-.008" transform="translate(-46.22 -109.24)" fill="#fff"/>
      <path id="Tracciato_1877" data-name="Tracciato 1877" d="M41.614,65.348a34.28,34.28,0,0,0,7.047.818,15.126,15.126,0,0,0,6.913-1.406A17.889,17.889,0,0,1,66.5,62.677h0c.243.045.3.059.3.059V60.879l.008-.047H66.8A19.553,19.553,0,0,0,54.707,63.1c-3.714,1.94-9.5,1.106-12.652.427-.122-.028-.46-.094-.46-.094l.019,1.913h0" transform="translate(-31.435 -45.825)" fill="#fff"/>
      <path id="Tracciato_1878" data-name="Tracciato 1878" d="M41.614,116.361a34.3,34.3,0,0,0,7.046.818,15.13,15.13,0,0,0,6.913-1.406A17.883,17.883,0,0,1,66.5,113.69h0c.243.045.3.06.3.06v-1.856l.008-.047H66.8a19.551,19.551,0,0,0-12.09,2.271c-3.711,1.939-9.493,1.108-12.645.428-.116-.027-.467-.1-.467-.1l.019,1.913Z" transform="translate(-31.435 -84.376)" fill="#fff"/>
      <path id="Tracciato_1879" data-name="Tracciato 1879" d="M41.614,99.451a34.283,34.283,0,0,0,7.047.818,15.128,15.128,0,0,0,6.913-1.406A17.883,17.883,0,0,1,66.5,96.779h0c.243.045.3.06.3.06V94.981l.008-.047H66.8A19.553,19.553,0,0,0,54.707,97.2c-3.713,1.939-9.5,1.107-12.649.428-.12-.028-.463-.094-.463-.094l.019,1.913Z" transform="translate(-31.435 -71.597)" fill="#fff"/>
      <path id="Tracciato_1880" data-name="Tracciato 1880" d="M41.614,84.661a34.283,34.283,0,0,0,7.047.818,15.126,15.126,0,0,0,6.913-1.406,20.618,20.618,0,0,1,3.236-1.358l0,.006v-.008h0l0-.011V80.817s-.086.021-.519.1a.123.123,0,0,0-.047.023l0-.008a22.512,22.512,0,0,0-3.538,1.483c-3.714,1.94-9.5,1.106-12.651.427-.122-.028-.461-.094-.461-.094l.019,1.913Z" transform="translate(-31.435 -61.076)" fill="#fff"/>
      <path id="Tracciato_1881" data-name="Tracciato 1881" d="M41.614,133.554a34.265,34.265,0,0,0,7.047.819,15.129,15.129,0,0,0,6.913-1.406A17.887,17.887,0,0,1,66.5,130.883h0c.243.045.3.06.3.06v-1.857l.008-.047H66.8a19.552,19.552,0,0,0-12.09,2.272c-3.719,1.943-9.517,1.1-12.664.424-.131-.029-.448-.091-.448-.091l.019,1.913Z" transform="translate(-31.435 -97.369)" fill="#fff"/>
      <path id="Tracciato_1882" data-name="Tracciato 1882" d="M41.614,32.092h0a34.286,34.286,0,0,0,7.047.818A15.124,15.124,0,0,0,55.573,31.5,17.883,17.883,0,0,1,66.5,29.42h0c.243.045.3.06.3.06V27.622l.008-.047H66.8a19.55,19.55,0,0,0-12.09,2.272c-3.714,1.94-9.5,1.106-12.651.427-.121-.028-.461-.094-.461-.094Z" transform="translate(-31.435 -20.691)" fill="#fff"/>
    </g>
  </g>
</svg>
