<svg id="Raggruppa_1134" data-name="Raggruppa 1134" xmlns="http://www.w3.org/2000/svg" width="191.634" height="29.269" viewBox="0 0 191.634 29.269">
  <g id="Raggruppa_40" data-name="Raggruppa 40" transform="translate(45.802 9.104)">
    <path id="Tracciato_214" data-name="Tracciato 214" d="M724.5,355.363h4.019a3.463,3.463,0,0,1,2.467.835,2.1,2.1,0,0,1,.608,1.51v.027a2.279,2.279,0,0,1-1.5,2.184c1.119.336,2.023.984,2.023,2.278v.027c0,1.618-1.362,2.575-3.424,2.575H724.5Zm6.013,2.493c0-.93-.742-1.536-2.09-1.536h-2.871v3.248h2.793c1.281,0,2.171-.578,2.171-1.685Zm-1.983,2.657h-2.979v3.33h3.167c1.431,0,2.316-.634,2.316-1.686v-.027c0-1.024-.863-1.617-2.505-1.617Z" transform="translate(-724.501 -352.653)" fill="#a1a1a1"/>
    <path id="Tracciato_215" data-name="Tracciato 215" d="M741.914,360.854v-5.486h1.065v5.419c0,2.036,1.09,3.181,2.884,3.181,1.739,0,2.844-1.051,2.844-3.114v-5.486h1.065v5.405c0,2.749-1.577,4.179-3.936,4.179C743.5,364.952,741.914,363.523,741.914,360.854Z" transform="translate(-732.762 -352.659)" fill="#a1a1a1"/>
    <path id="Tracciato_216" data-name="Tracciato 216" d="M760.841,355.368h3.278a4.7,4.7,0,0,1,5.015,4.691v.027a4.724,4.724,0,0,1-5.015,4.718h-3.275Zm1.065.984v7.471h2.213a3.652,3.652,0,0,0,3.909-3.707v-.027a3.673,3.673,0,0,0-3.909-3.734Z" transform="translate(-741.741 -352.659)" fill="#a1a1a1"/>
    <path id="Tracciato_217" data-name="Tracciato 217" d="M780.076,355.368h3.275a4.7,4.7,0,0,1,5.014,4.691v.027a4.723,4.723,0,0,1-5.014,4.718h-3.275Zm1.065.984v7.471h2.207a3.652,3.652,0,0,0,3.909-3.706v-.027a3.673,3.673,0,0,0-3.909-3.734Z" transform="translate(-750.866 -352.659)" fill="#a1a1a1"/>
    <path id="Tracciato_218" data-name="Tracciato 218" d="M799.488,355.368h1.065V364.8h-1.065Z" transform="translate(-760.075 -352.659)" fill="#a1a1a1"/>
    <path id="Tracciato_219" data-name="Tracciato 219" d="M804.768,363.3l.661-.782a4.5,4.5,0,0,0,3.233,1.332c1.267,0,2.1-.674,2.1-1.6v-.028c0-.876-.473-1.375-2.453-1.792-2.171-.473-3.169-1.173-3.169-2.725v-.027c0-1.483,1.307-2.575,3.1-2.575a4.926,4.926,0,0,1,3.317,1.156l-.621.823a4.147,4.147,0,0,0-2.725-1.022c-1.226,0-2.009.674-2.009,1.524v.027c0,.89.485,1.389,2.561,1.833,2.1.458,3.074,1.226,3.074,2.668v.027c0,1.618-1.348,2.67-3.222,2.67a5.521,5.521,0,0,1-3.854-1.511Z" transform="translate(-762.578 -352.529)" fill="#a1a1a1"/>
    <path id="Tracciato_220" data-name="Tracciato 220" d="M821.543,355.368h1.079l3.437,5.151,3.437-5.151h1.078V364.8h-1.065V357.16l-3.437,5.056h-.053l-3.437-5.042v7.63h-1.038Z" transform="translate(-770.538 -352.659)" fill="#a1a1a1"/>
    <path id="Tracciato_221" data-name="Tracciato 221" d="M842.186,359.965v-.027a4.781,4.781,0,0,1,4.825-4.88,4.735,4.735,0,0,1,4.8,4.853v.027a4.813,4.813,0,1,1-9.624.026Zm8.52,0v-.027a3.751,3.751,0,0,0-3.72-3.894,3.708,3.708,0,0,0-3.694,3.869v.027a3.751,3.751,0,0,0,3.72,3.894,3.708,3.708,0,0,0,3.694-3.87Z" transform="translate(-780.331 -352.512)" fill="#a1a1a1"/>
    <path id="Tracciato_222" data-name="Tracciato 222" d="M870.833,355.368h6.82v.971H871.9v3.222h5.151v.971H871.9v3.3h5.823v.971h-6.885Z" transform="translate(-793.922 -352.659)" fill="#a1a1a1"/>
    <path id="Tracciato_223" data-name="Tracciato 223" d="M892.889,363.3l.66-.782a4.5,4.5,0,0,0,3.236,1.335c1.267,0,2.1-.674,2.1-1.6v-.028c0-.876-.473-1.375-2.452-1.792-2.171-.473-3.169-1.173-3.169-2.725v-.027c0-1.483,1.308-2.575,3.1-2.575a4.927,4.927,0,0,1,3.317,1.156l-.62.823a4.148,4.148,0,0,0-2.725-1.022c-1.226,0-2.009.674-2.009,1.524v.027c0,.89.485,1.389,2.561,1.833,2.1.458,3.074,1.226,3.074,2.668v.027c0,1.618-1.348,2.67-3.222,2.67a5.519,5.519,0,0,1-3.853-1.511Z" transform="translate(-804.385 -352.531)" fill="#a1a1a1"/>
    <path id="Tracciato_224" data-name="Tracciato 224" d="M908.864,359.965v-.027a4.813,4.813,0,1,1,9.624-.026v.027a4.813,4.813,0,1,1-9.624.025Zm8.519,0v-.027a3.751,3.751,0,0,0-3.72-3.894,3.708,3.708,0,0,0-3.694,3.87v.027a3.751,3.751,0,0,0,3.72,3.894,3.708,3.708,0,0,0,3.694-3.869Z" transform="translate(-811.963 -352.512)" fill="#a1a1a1"/>
    <path id="Tracciato_225" data-name="Tracciato 225" d="M929.842,359.964v-.027a4.754,4.754,0,0,1,4.769-4.88,4.913,4.913,0,0,1,3.679,1.5l-.727.782a4.1,4.1,0,0,0-2.966-1.294,3.7,3.7,0,0,0-3.653,3.87v.027a3.724,3.724,0,0,0,3.653,3.9,4.1,4.1,0,0,0,3.048-1.362l.7.688a4.917,4.917,0,0,1-3.775,1.658,4.71,4.71,0,0,1-4.729-4.856Z" transform="translate(-821.915 -352.51)" fill="#a1a1a1"/>
    <path id="Tracciato_226" data-name="Tracciato 226" d="M948.924,355.368h1.067V364.8h-1.065Z" transform="translate(-830.968 -352.659)" fill="#a1a1a1"/>
    <path id="Tracciato_227" data-name="Tracciato 227" d="M955.385,355.368h6.822v.971H956.45v3.222H961.6v.971H956.45v3.3h5.823v.971h-6.885Z" transform="translate(-834.034 -352.659)" fill="#a1a1a1"/>
    <path id="Tracciato_228" data-name="Tracciato 228" d="M973.635,356.352h-3.169v-.984h7.414v.984h-3.169V364.8h-1.076Z" transform="translate(-841.188 -352.659)" fill="#a1a1a1"/>
    <path id="Tracciato_229" data-name="Tracciato 229" d="M988,352.854h1l4.3,9.5h-1.146l-1.1-2.493h-5.136l-1.119,2.493h-1.09Zm2.628,6.04-2.143-4.8-2.155,4.8Zm-2.561-6.942-1.55-1.254,1.051-.485,1.362,1.739Z" transform="translate(-847.469 -350.213)" fill="#a1a1a1"/>
  </g>
  <path id="Tracciato_230" data-name="Tracciato 230" d="M655.971,353.952a5.063,5.063,0,0,1-4.7,3.1,4.984,4.984,0,0,1-1.966-.4,5.293,5.293,0,0,1-1.635-1.087,4.941,4.941,0,0,1-1.1-1.62,5.237,5.237,0,0,1,0-3.995,4.942,4.942,0,0,1,1.1-1.62,5.316,5.316,0,0,1,1.635-1.086,4.984,4.984,0,0,1,1.966-.4,5.122,5.122,0,0,1,4.7,7.1m4.723-5.965a10.642,10.642,0,0,0-2.19-3.259,9.993,9.993,0,0,0-3.259-2.19,10.145,10.145,0,0,0-3.982-.793,10.3,10.3,0,0,0-2.689.345,8.685,8.685,0,0,0-2.256.841V332.891h-5.26v22.891a1.209,1.209,0,0,1-.379.913,1.253,1.253,0,0,1-.658.341h-.428a2.19,2.19,0,0,0-2.236,2.236v.647a2.19,2.19,0,0,0,2.236,2.236h.189v.005a6.285,6.285,0,0,0,2.793-.621,6.349,6.349,0,0,0,2.172-1.723,10.1,10.1,0,0,0,6.516,2.344,10.126,10.126,0,0,0,3.982-.793,9.967,9.967,0,0,0,3.259-2.188,10.7,10.7,0,0,0,2.19-3.241,10.144,10.144,0,0,0,0-7.948" transform="translate(-637.357 -332.891)" fill="#a1a1a1"/>
  <path id="Tracciato_231" data-name="Tracciato 231" d="M699.544,349.732h-8.6a6.257,6.257,0,0,0-2.482.5,6.3,6.3,0,0,0-3.4,3.4,6.417,6.417,0,0,0,0,4.964,6.3,6.3,0,0,0,3.4,3.4,6.263,6.263,0,0,0,2.482.5H693.5a1.21,1.21,0,0,1,.913.379,1.254,1.254,0,0,1,.363.9,1.239,1.239,0,0,1-1.275,1.276h-3.828a1.258,1.258,0,0,1-.9-.363,1.209,1.209,0,0,1-.379-.913v-1.241h-5.1v1.241a6.256,6.256,0,0,0,.5,2.482,6.3,6.3,0,0,0,3.4,3.4,6.253,6.253,0,0,0,2.482.5H693.5a6.227,6.227,0,0,0,2.5-.5,6.468,6.468,0,0,0,2.017-1.362,6.38,6.38,0,0,0,1.362-2.035,6.421,6.421,0,0,0,0-4.965,6.4,6.4,0,0,0-1.362-2.034A6.483,6.483,0,0,0,696,357.888a6.235,6.235,0,0,0-2.5-.5h-2.553a1.3,1.3,0,0,1-1.273-1.276,1.209,1.209,0,0,1,.379-.914,1.252,1.252,0,0,1,.894-.364h10.576l.009-5.109" transform="translate(-659.149 -340.877)" fill="#a1a1a1"/>
  <path id="Linea_3" data-name="Linea 3" d="M.093,20.2H-.1V0H.093Z" transform="translate(42.385 0)" fill="#a1a1a1"/>
  <ellipse id="Ellisse_7" data-name="Ellisse 7" cx="0.707" cy="0.707" rx="0.707" ry="0.707" transform="translate(41.675 20.068)" fill="#a1a1a1"/>
</svg>
