<svg id="Raggruppa_513" data-name="Raggruppa 513" xmlns="http://www.w3.org/2000/svg" width="274.266" height="41.89" viewBox="0 0 274.266 41.89">
  <g id="Raggruppa_40" data-name="Raggruppa 40" transform="translate(65.552 13.03)">
    <path id="Tracciato_214" data-name="Tracciato 214" d="M724.5,355.365h5.752a4.957,4.957,0,0,1,3.53,1.2,3.009,3.009,0,0,1,.87,2.162v.038a3.262,3.262,0,0,1-2.145,3.126c1.6.481,2.9,1.408,2.9,3.261v.038c0,2.315-1.95,3.686-4.9,3.686h-6Zm8.606,3.569c0-1.331-1.062-2.2-2.992-2.2h-4.109v4.649h4c1.834,0,3.107-.827,3.107-2.412Zm-2.837,3.8h-4.263V367.5h4.532c2.048,0,3.315-.908,3.315-2.413v-.038c0-1.465-1.235-2.315-3.585-2.315Z" transform="translate(-724.501 -351.487)" fill="#f8f8f8"/>
    <path id="Tracciato_215" data-name="Tracciato 215" d="M741.914,363.22v-7.852h1.524v7.755c0,2.913,1.56,4.553,4.128,4.553,2.489,0,4.07-1.5,4.07-4.457v-7.852h1.524V363.1c0,3.935-2.257,5.981-5.633,5.981C744.19,369.085,741.914,367.04,741.914,363.22Z" transform="translate(-728.815 -351.49)" fill="#f8f8f8"/>
    <path id="Tracciato_216" data-name="Tracciato 216" d="M760.841,355.368h4.691c4.246,0,7.178,2.913,7.178,6.714v.038c0,3.8-2.934,6.752-7.178,6.752h-4.687Zm1.524,1.408v10.692h3.167a5.226,5.226,0,0,0,5.594-5.305v-.038a5.257,5.257,0,0,0-5.6-5.344Z" transform="translate(-733.505 -351.49)" fill="#f8f8f8"/>
    <path id="Tracciato_217" data-name="Tracciato 217" d="M780.076,355.368h4.687c4.244,0,7.176,2.913,7.176,6.714v.038c0,3.8-2.934,6.752-7.176,6.752h-4.687Zm1.524,1.408v10.692h3.159a5.226,5.226,0,0,0,5.594-5.3v-.038a5.257,5.257,0,0,0-5.594-5.345Z" transform="translate(-738.271 -351.49)" fill="#f8f8f8"/>
    <path id="Tracciato_218" data-name="Tracciato 218" d="M799.488,355.368h1.524v13.5h-1.524Z" transform="translate(-743.081 -351.49)" fill="#f8f8f8"/>
    <path id="Tracciato_219" data-name="Tracciato 219" d="M804.769,366.836l.945-1.119a6.437,6.437,0,0,0,4.627,1.907c1.814,0,3.009-.965,3.009-2.3v-.04c0-1.254-.677-1.968-3.51-2.565-3.107-.677-4.535-1.678-4.535-3.9v-.038c0-2.122,1.871-3.686,4.438-3.686a7.05,7.05,0,0,1,4.747,1.655l-.888,1.178a5.935,5.935,0,0,0-3.9-1.462c-1.755,0-2.875.965-2.875,2.181v.038c0,1.274.694,1.987,3.665,2.624,3.009.656,4.4,1.755,4.4,3.819v.038c0,2.315-1.93,3.821-4.611,3.821a7.9,7.9,0,0,1-5.516-2.162Z" transform="translate(-744.388 -351.423)" fill="#f8f8f8"/>
    <path id="Tracciato_220" data-name="Tracciato 220" d="M821.543,355.368h1.544l4.919,7.372,4.919-7.372h1.544v13.5h-1.524V357.933l-4.919,7.236h-.076l-4.919-7.215v10.92h-1.486Z" transform="translate(-748.545 -351.49)" fill="#f8f8f8"/>
    <path id="Tracciato_221" data-name="Tracciato 221" d="M842.187,362.081v-.038a6.842,6.842,0,0,1,6.906-6.984A6.777,6.777,0,0,1,855.961,362v.038a6.889,6.889,0,1,1-13.774.038Zm12.193,0v-.038a5.369,5.369,0,0,0-5.324-5.573,5.306,5.306,0,0,0-5.287,5.538v.038a5.368,5.368,0,0,0,5.324,5.573,5.306,5.306,0,0,0,5.287-5.538Z" transform="translate(-753.659 -351.413)" fill="#f8f8f8"/>
    <path id="Tracciato_222" data-name="Tracciato 222" d="M870.833,355.368h9.761v1.389h-8.233v4.611h7.372v1.389h-7.372v4.726h8.333v1.389H870.84Z" transform="translate(-760.758 -351.49)" fill="#f8f8f8"/>
    <path id="Tracciato_223" data-name="Tracciato 223" d="M892.889,366.837l.944-1.119a6.435,6.435,0,0,0,4.631,1.91c1.814,0,3.009-.965,3.009-2.3v-.04c0-1.254-.677-1.968-3.51-2.565-3.107-.677-4.535-1.678-4.535-3.9v-.038c0-2.122,1.872-3.686,4.438-3.686a7.051,7.051,0,0,1,4.747,1.655l-.887,1.178a5.936,5.936,0,0,0-3.9-1.462c-1.755,0-2.875.965-2.875,2.181v.038c0,1.274.694,1.987,3.665,2.624,3.009.656,4.4,1.755,4.4,3.819v.038c0,2.315-1.929,3.821-4.611,3.821a7.9,7.9,0,0,1-5.515-2.162Z" transform="translate(-766.222 -351.424)" fill="#f8f8f8"/>
    <path id="Tracciato_224" data-name="Tracciato 224" d="M908.865,362.081v-.038a6.888,6.888,0,1,1,13.773-.037v.038a6.889,6.889,0,1,1-13.774.036Zm12.193,0v-.038a5.369,5.369,0,0,0-5.324-5.573,5.306,5.306,0,0,0-5.287,5.538v.038a5.368,5.368,0,0,0,5.324,5.572,5.306,5.306,0,0,0,5.287-5.538Z" transform="translate(-770.18 -351.413)" fill="#f8f8f8"/>
    <path id="Tracciato_225" data-name="Tracciato 225" d="M929.843,362.081v-.038a6.8,6.8,0,0,1,6.825-6.984,7.031,7.031,0,0,1,5.266,2.145l-1.041,1.119a5.872,5.872,0,0,0-4.246-1.853,5.3,5.3,0,0,0-5.228,5.539v.038a5.33,5.33,0,0,0,5.228,5.576,5.861,5.861,0,0,0,4.363-1.95l1,.984a7.037,7.037,0,0,1-5.4,2.373,6.741,6.741,0,0,1-6.769-6.95Z" transform="translate(-775.378 -351.413)" fill="#f8f8f8"/>
    <path id="Tracciato_226" data-name="Tracciato 226" d="M948.924,355.368h1.526v13.5h-1.524Z" transform="translate(-780.106 -351.49)" fill="#f8f8f8"/>
    <path id="Tracciato_227" data-name="Tracciato 227" d="M955.385,355.368h9.763v1.389H956.91v4.611h7.372v1.389H956.91v4.726h8.333v1.389h-9.854Z" transform="translate(-781.707 -351.49)" fill="#f8f8f8"/>
    <path id="Tracciato_228" data-name="Tracciato 228" d="M975,356.776h-4.535v-1.408h10.611v1.408h-4.536v12.1H975Z" transform="translate(-785.444 -351.49)" fill="#f8f8f8"/>
    <path id="Tracciato_229" data-name="Tracciato 229" d="M989.854,353.993h1.429l6.154,13.6H995.8l-1.58-3.569h-7.35l-1.6,3.569h-1.56Zm3.761,8.644-3.068-6.868-3.084,6.868ZM989.95,352.7l-2.219-1.794,1.5-.694,1.95,2.489Z" transform="translate(-788.724 -350.213)" fill="#f8f8f8"/>
  </g>
  <path id="Tracciato_230" data-name="Tracciato 230" d="M664,363.034a7.246,7.246,0,0,1-6.732,4.443,7.133,7.133,0,0,1-2.814-.566,7.575,7.575,0,0,1-2.34-1.556,7.071,7.071,0,0,1-1.58-2.318,7.495,7.495,0,0,1,0-5.717,7.071,7.071,0,0,1,1.58-2.318,7.607,7.607,0,0,1,2.34-1.555,7.133,7.133,0,0,1,2.814-.566A7.331,7.331,0,0,1,664,363.036m6.76-8.537a15.228,15.228,0,0,0-3.134-4.664,14.3,14.3,0,0,0-4.664-3.134,14.52,14.52,0,0,0-5.7-1.135,14.741,14.741,0,0,0-3.849.493,12.426,12.426,0,0,0-3.229,1.2V332.891h-7.528v32.761a1.731,1.731,0,0,1-.542,1.307,1.793,1.793,0,0,1-.941.487h-.612a3.134,3.134,0,0,0-3.2,3.2v.926a3.134,3.134,0,0,0,3.2,3.2h.27v.008a8.993,8.993,0,0,0,7.106-3.355,14.449,14.449,0,0,0,9.326,3.355,14.491,14.491,0,0,0,5.7-1.135,14.265,14.265,0,0,0,4.664-3.132,15.312,15.312,0,0,0,3.134-4.639,14.518,14.518,0,0,0,0-11.375" transform="translate(-637.357 -332.891)" fill="#f8f8f8"/>
  <path id="Tracciato_231" data-name="Tracciato 231" d="M706.552,349.736h-12.3a8.953,8.953,0,0,0-3.552.717,9.022,9.022,0,0,0-4.862,4.862,9.184,9.184,0,0,0,0,7.1,9.022,9.022,0,0,0,4.862,4.862,8.963,8.963,0,0,0,3.552.715H697.9a1.731,1.731,0,0,1,1.307.543,1.8,1.8,0,0,1,.519,1.283,1.774,1.774,0,0,1-1.825,1.826h-5.479a1.8,1.8,0,0,1-1.283-.519,1.73,1.73,0,0,1-.542-1.307v-1.777h-7.3v1.777a8.953,8.953,0,0,0,.717,3.552,9.022,9.022,0,0,0,4.862,4.862,8.949,8.949,0,0,0,3.552.715H697.9a8.911,8.911,0,0,0,3.578-.715,9.256,9.256,0,0,0,2.887-1.95,9.131,9.131,0,0,0,1.95-2.913,9.19,9.19,0,0,0,0-7.106,9.154,9.154,0,0,0-1.95-2.91,9.279,9.279,0,0,0-2.887-1.95,8.924,8.924,0,0,0-3.578-.715h-3.654a1.854,1.854,0,0,1-1.822-1.826,1.73,1.73,0,0,1,.543-1.309,1.792,1.792,0,0,1,1.279-.521h15.137l.014-7.312" transform="translate(-648.738 -337.062)" fill="#f8f8f8"/>
  <path id="Linea_3" data-name="Linea 3" d="M.176,28.914H-.1V0H.176Z" transform="translate(60.619 0)" fill="#f8f8f8"/>
  <ellipse id="Ellisse_7" data-name="Ellisse 7" cx="1.012" cy="1.012" rx="1.012" ry="1.012" transform="translate(59.645 28.721)" fill="#f8f8f8"/>
</svg>
