<svg id="Raggruppa_1114" data-name="Raggruppa 1114" xmlns="http://www.w3.org/2000/svg" xmlns:xlink="http://www.w3.org/1999/xlink" width="142.879" height="53.563" viewBox="0 0 142.879 53.563">
  <defs>
    <clipPath id="clip-path">
      <rect id="Rettangolo_742" data-name="Rettangolo 742" width="142.879" height="53.564" fill="#f8f8f8"/>
    </clipPath>
  </defs>
  <g id="Raggruppa_1113" data-name="Raggruppa 1113" transform="translate(0 0)" clip-path="url(#clip-path)">
    <path id="Tracciato_1775" data-name="Tracciato 1775" d="M1.91,1.568H8.936a1.91,1.91,0,0,1,1.909,1.909v25.81a1.91,1.91,0,0,0,1.91,1.91H27.887a1.909,1.909,0,0,1,1.91,1.91v5.684a1.91,1.91,0,0,1-1.91,1.91H1.91A1.91,1.91,0,0,1,0,38.791V3.477A1.91,1.91,0,0,1,1.91,1.568" transform="translate(0 -0.615)" fill="#f8f8f8"/>
    <path id="Tracciato_1776" data-name="Tracciato 1776" d="M30.029,17.389a5.5,5.5,0,0,0,3.017-1.882A1.909,1.909,0,0,0,31.5,12.469a1.909,1.909,0,0,1-1.909-1.91V3.478A1.909,1.909,0,0,1,31.5,1.568h7.193a1.91,1.91,0,0,1,1.911,1.91v6.979c0,7.571-3.745,10.6-9.736,11.233a1.907,1.907,0,0,1-2.061-1.517l-.11-.536a1.924,1.924,0,0,1,1.33-2.247" transform="translate(-11.243 -0.615)" fill="#f8f8f8"/>
    <path id="Tracciato_1777" data-name="Tracciato 1777" d="M79.643,13.05a2.423,2.423,0,1,1,2.423,2.423,2.423,2.423,0,0,1-2.423-2.423M52.505,20.441v.144c0,12.063,8.667,20.3,20.947,20.3A20.53,20.53,0,0,0,88.24,35.271a2.8,2.8,0,0,0-.126-4.191L84.6,28.171a2.8,2.8,0,0,0-3.513-.04A10.713,10.713,0,0,1,74.1,30.626a8.173,8.173,0,0,1-7.125-3.4c-.877-1.283-1.164-3.747,1.378-3.3,0,0,2.363.3,4.3.347S89.079,24.2,89.079,24.2a2.792,2.792,0,0,0,2.792-2.791V21.38C91.871,9.9,85.658,0,72.223,0,60.667,0,52.505,9.028,52.505,20.441" transform="translate(-20.598 0)" fill="#f8f8f8"/>
    <path id="Tracciato_1778" data-name="Tracciato 1778" d="M.076,78v5.927H4.335V82.745H1.38V78Z" transform="translate(-0.03 -30.602)" fill="#f8f8f8"/>
    <path id="Tracciato_1779" data-name="Tracciato 1779" d="M7.282,80.2c.584-.059.872-.355.83-.838H7.587V78H8.959v1.143A1.388,1.388,0,0,1,7.392,80.73Z" transform="translate(-2.857 -30.602)" fill="#f8f8f8"/>
    <path id="Tracciato_1780" data-name="Tracciato 1780" d="M10.808,82.529v-.017a2.259,2.259,0,0,1,2.244-2.362,2.209,2.209,0,0,1,2.21,2.463c0,.1-.008.221-.016.34H12.087a1.053,1.053,0,0,0,1.109.889,1.489,1.489,0,0,0,1.1-.465l.737.652a2.271,2.271,0,0,1-1.854.847,2.27,2.27,0,0,1-2.371-2.346m3.2-.381a.974.974,0,0,0-.957-.966,1.012,1.012,0,0,0-.983.966Z" transform="translate(-4.24 -31.444)" fill="#f8f8f8"/>
    <path id="Tracciato_1781" data-name="Tracciato 1781" d="M19.589,80.233h1.287v.915a1.4,1.4,0,0,1,1.448-1v1.347h-.068c-.855,0-1.38.517-1.38,1.6v1.677H19.589Z" transform="translate(-7.685 -31.442)" fill="#f8f8f8"/>
    <path id="Tracciato_1782" data-name="Tracciato 1782" d="M24.7,82.529v-.017a2.259,2.259,0,0,1,2.244-2.362,2.209,2.209,0,0,1,2.21,2.463c0,.1-.008.221-.016.34H25.983a1.052,1.052,0,0,0,1.109.889,1.489,1.489,0,0,0,1.1-.465l.737.652a2.4,2.4,0,0,1-4.225-1.5m3.2-.381a.974.974,0,0,0-.957-.966,1.012,1.012,0,0,0-.983.966Z" transform="translate(-9.692 -31.444)" fill="#f8f8f8"/>
    <path id="Tracciato_1783" data-name="Tracciato 1783" d="M33.15,81.506v-.017a2.127,2.127,0,0,1,2.066-2.346,1.743,1.743,0,0,1,1.414.678V77.586h1.287v6.181H36.63v-.652a1.667,1.667,0,0,1-1.414.737,2.136,2.136,0,0,1-2.066-2.346m3.5,0v-.017a1.114,1.114,0,1,0-2.21,0v.017a1.114,1.114,0,1,0,2.21,0" transform="translate(-13.005 -30.438)" fill="#f8f8f8"/>
    <path id="Tracciato_1784" data-name="Tracciato 1784" d="M42.809,77.585h1.355v1.143H42.809Zm.033,1.643H44.13v4.539H42.842Z" transform="translate(-16.794 -30.437)" fill="#f8f8f8"/>
    <path id="Tracciato_1785" data-name="Tracciato 1785" d="M46.849,82.791V80.64h-.542v-1.1h.542V78.38h1.287v1.159H49.2v1.1H48.136v1.939c0,.3.127.441.415.441a1.318,1.318,0,0,0,.635-.16v1.032a1.9,1.9,0,0,1-1.016.263c-.788,0-1.321-.314-1.321-1.364" transform="translate(-18.167 -30.749)" fill="#f8f8f8"/>
    <path id="Tracciato_1786" data-name="Tracciato 1786" d="M52.049,82.233v-.017c0-.991.754-1.448,1.829-1.448a3.232,3.232,0,0,1,1.11.186v-.076c0-.534-.33-.83-.974-.83a3.326,3.326,0,0,0-1.254.246l-.321-.982a4,4,0,0,1,1.761-.365,2.1,2.1,0,0,1,1.533.507,1.983,1.983,0,0,1,.491,1.449v2.633H54.979v-.49a1.745,1.745,0,0,1-1.372.575,1.4,1.4,0,0,1-1.559-1.389m.678-4.75L53.836,77l.941,1.5h-.949ZM55,81.937v-.228a2,2,0,0,0-.822-.17c-.551,0-.889.219-.889.627v.016c0,.347.288.551.7.551.6,0,1.008-.331,1.008-.8" transform="translate(-20.419 -30.208)" fill="#f8f8f8"/>
    <path id="Tracciato_1787" data-name="Tracciato 1787" d="M60.357,81.59v-.016A2.148,2.148,0,0,1,62.449,79.3a1.975,1.975,0,0,1,1.677.932V77.586h.652v6.18h-.652v-.88a1.969,1.969,0,0,1-1.677.974,2.135,2.135,0,0,1-2.092-2.27m3.793-.008v-.017a1.627,1.627,0,0,0-1.584-1.685,1.544,1.544,0,0,0-1.541,1.685v.017a1.582,1.582,0,0,0,1.541,1.694,1.635,1.635,0,0,0,1.584-1.694" transform="translate(-23.679 -30.438)" fill="#f8f8f8"/>
    <path id="Tracciato_1788" data-name="Tracciato 1788" d="M69.457,82.694v-.017a2.16,2.16,0,0,1,2.1-2.278A2.085,2.085,0,0,1,73.6,82.711a1.679,1.679,0,0,1-.009.211H70.118A1.529,1.529,0,0,0,71.659,84.4a1.812,1.812,0,0,0,1.381-.617l.406.364a2.259,2.259,0,0,1-1.8.821,2.175,2.175,0,0,1-2.185-2.278m3.48-.254a1.442,1.442,0,0,0-1.4-1.49,1.509,1.509,0,0,0-1.423,1.49Z" transform="translate(-27.249 -31.541)" fill="#f8f8f8"/>
    <rect id="Rettangolo_734" data-name="Rettangolo 734" width="0.652" height="6.181" transform="translate(47.468 47.148)" fill="#f8f8f8"/>
    <rect id="Rettangolo_735" data-name="Rettangolo 735" width="0.652" height="6.181" transform="translate(49.619 47.148)" fill="#f8f8f8"/>
    <path id="Tracciato_1789" data-name="Tracciato 1789" d="M84.551,83.623v-.017c0-.924.762-1.415,1.872-1.415a4.637,4.637,0,0,1,1.347.187v-.153c0-.788-.483-1.194-1.3-1.194a3.035,3.035,0,0,0-1.329.321l-.2-.534a3.618,3.618,0,0,1,1.592-.364,1.92,1.92,0,0,1,1.414.483,1.731,1.731,0,0,1,.448,1.279v2.675h-.626v-.66a1.92,1.92,0,0,1-1.584.753,1.474,1.474,0,0,1-1.635-1.362m3.226-.339v-.423a4.57,4.57,0,0,0-1.287-.187c-.821,0-1.279.356-1.279.906V83.6c0,.551.508.873,1.1.873a1.324,1.324,0,0,0,1.465-1.186" transform="translate(-33.17 -31.563)" fill="#f8f8f8"/>
    <path id="Tracciato_1790" data-name="Tracciato 1790" d="M92.065,80.289h1.364l1.016,3.04,1.025-3.04h1.338L95.02,84.862H93.851Z" transform="translate(-36.118 -31.498)" fill="#f8f8f8"/>
    <path id="Tracciato_1791" data-name="Tracciato 1791" d="M101.012,77.585h1.355v1.143h-1.355Zm.034,1.643h1.287v4.539h-1.287Z" transform="translate(-39.628 -30.437)" fill="#f8f8f8"/>
    <path id="Tracciato_1792" data-name="Tracciato 1792" d="M105.053,82.791V80.64h-.542v-1.1h.542V78.38h1.287v1.159h1.067v1.1H106.34v1.939c0,.3.127.441.414.441a1.318,1.318,0,0,0,.636-.16v1.032a1.9,1.9,0,0,1-1.016.263c-.788,0-1.321-.314-1.321-1.364" transform="translate(-41.001 -30.749)" fill="#f8f8f8"/>
    <path id="Tracciato_1793" data-name="Tracciato 1793" d="M110.268,83.49v-.017c0-.991.754-1.448,1.829-1.448a3.23,3.23,0,0,1,1.11.186v-.076c0-.534-.33-.83-.974-.83a3.328,3.328,0,0,0-1.254.246l-.321-.982a4,4,0,0,1,1.761-.365,2.1,2.1,0,0,1,1.533.507,1.983,1.983,0,0,1,.492,1.449v2.633H113.2V84.3a1.745,1.745,0,0,1-1.372.575,1.4,1.4,0,0,1-1.558-1.389m2.955-.3v-.228a2,2,0,0,0-.822-.17c-.55,0-.889.219-.889.627v.016c0,.347.288.551.7.551.6,0,1.008-.331,1.008-.8" transform="translate(-43.259 -31.465)" fill="#f8f8f8"/>
    <line id="Linea_212" data-name="Linea 212" y2="52.545" transform="translate(79.913 0.782)" fill="#ec6625"/>
    <line id="Linea_213" data-name="Linea 213" y2="52.545" transform="translate(79.913 0.782)" fill="none" stroke="#fff" stroke-linecap="round" stroke-width="0.779"/>
    <rect id="Rettangolo_736" data-name="Rettangolo 736" width="0.741" height="6.565" transform="translate(86.96 7.685)" fill="#f8f8f8"/>
    <rect id="Rettangolo_737" data-name="Rettangolo 737" width="0.722" height="6.846" transform="translate(89.567 7.405)" fill="#f8f8f8"/>
    <path id="Tracciato_1794" data-name="Tracciato 1794" d="M155.475,17.853v-.019a2.526,2.526,0,0,1,4.427-1.669l-.478.507a1.958,1.958,0,0,0-1.473-.732,1.789,1.789,0,0,0-1.735,1.875v.019A1.812,1.812,0,0,0,158,19.719,2,2,0,0,0,159.48,19l.459.431a2.508,2.508,0,0,1-4.464-1.576" transform="translate(-60.994 -6.003)" fill="#f8f8f8"/>
    <rect id="Rettangolo_738" data-name="Rettangolo 738" width="0.722" height="6.846" transform="translate(100.201 7.405)" fill="#f8f8f8"/>
    <path id="Tracciato_1795" data-name="Tracciato 1795" d="M168.87,12.416h.825v.8h-.825Zm.047,1.857h.722v4.849h-.722Z" transform="translate(-66.249 -4.871)" fill="#f8f8f8"/>
    <path id="Tracciato_1796" data-name="Tracciato 1796" d="M172.9,15.405h.722v.816a1.773,1.773,0,0,1,1.567-.919,1.648,1.648,0,0,1,1.557.966,1.932,1.932,0,0,1,1.707-.966,1.743,1.743,0,0,1,1.8,1.951v3h-.723V17.422c0-.938-.469-1.463-1.257-1.463a1.351,1.351,0,0,0-1.331,1.5v2.795h-.723V17.4c0-.91-.478-1.444-1.247-1.444a1.406,1.406,0,0,0-1.351,1.529v2.767H172.9Z" transform="translate(-67.83 -6.003)" fill="#f8f8f8"/>
    <path id="Tracciato_1797" data-name="Tracciato 1797" d="M186.971,18.872v-.019c0-1.022.844-1.566,2.072-1.566a5.14,5.14,0,0,1,1.491.207v-.169c0-.873-.534-1.322-1.444-1.322a3.38,3.38,0,0,0-1.472.356l-.216-.591a4,4,0,0,1,1.763-.4,2.127,2.127,0,0,1,1.567.535,1.914,1.914,0,0,1,.5,1.416v2.964h-.695v-.732a2.123,2.123,0,0,1-1.754.835,1.633,1.633,0,0,1-1.81-1.51m3.573-.375v-.469a5.057,5.057,0,0,0-1.426-.206c-.91,0-1.417.394-1.417,1v.019c0,.61.563.966,1.22.966a1.466,1.466,0,0,0,1.623-1.313" transform="translate(-73.351 -6.027)" fill="#f8f8f8"/>
    <path id="Tracciato_1798" data-name="Tracciato 1798" d="M142.3,35.078v-.019a2.392,2.392,0,0,1,2.326-2.523,2.308,2.308,0,0,1,2.26,2.56,1.824,1.824,0,0,1-.01.235h-3.845a1.694,1.694,0,0,0,1.708,1.641,2.007,2.007,0,0,0,1.528-.685l.45.4a2.5,2.5,0,0,1-2,.91,2.41,2.41,0,0,1-2.42-2.523m3.855-.281a1.6,1.6,0,0,0-1.547-1.65,1.672,1.672,0,0,0-1.576,1.65Zm-2.879-3.9.751-.347.881,1.36h-.563Z" transform="translate(-55.825 -11.984)" fill="#f8f8f8"/>
    <path id="Tracciato_1799" data-name="Tracciato 1799" d="M156.432,37V33.99h.722v2.832a1.293,1.293,0,0,0,1.341,1.463,1.431,1.431,0,0,0,1.454-1.519V33.99h.713v4.849h-.713v-.844a1.846,1.846,0,0,1-1.66.947A1.771,1.771,0,0,1,156.432,37" transform="translate(-61.37 -13.335)" fill="#f8f8f8"/>
    <path id="Tracciato_1800" data-name="Tracciato 1800" d="M166.062,33.923h.722v.844a1.837,1.837,0,0,1,1.66-.947,1.771,1.771,0,0,1,1.857,1.942v3.01h-.723V35.94a1.292,1.292,0,0,0-1.341-1.463A1.427,1.427,0,0,0,166.784,36v2.776h-.722Z" transform="translate(-65.148 -13.268)" fill="#f8f8f8"/>
    <path id="Tracciato_1801" data-name="Tracciato 1801" d="M174.966,37.39v-.019c0-1.022.844-1.566,2.072-1.566a5.147,5.147,0,0,1,1.492.207v-.169c0-.873-.535-1.322-1.444-1.322a3.38,3.38,0,0,0-1.472.356l-.216-.591a4,4,0,0,1,1.763-.4,2.127,2.127,0,0,1,1.567.535,1.914,1.914,0,0,1,.5,1.416V38.8h-.694v-.732a2.125,2.125,0,0,1-1.754.835,1.633,1.633,0,0,1-1.81-1.51m3.573-.375v-.469a5.058,5.058,0,0,0-1.426-.206c-.91,0-1.417.394-1.417,1v.019c0,.61.563.966,1.22.966a1.466,1.466,0,0,0,1.623-1.313" transform="translate(-68.641 -13.292)" fill="#f8f8f8"/>
    <path id="Tracciato_1802" data-name="Tracciato 1802" d="M188.469,38.165l.366-.516a2.835,2.835,0,0,0,1.678.619c.582,0,1-.3,1-.769v-.018c0-.488-.572-.676-1.21-.854-.76-.216-1.6-.478-1.6-1.369v-.019a1.467,1.467,0,0,1,1.65-1.388,3.317,3.317,0,0,1,1.745.534l-.329.544a2.736,2.736,0,0,0-1.435-.469c-.572,0-.938.3-.938.7v.019c0,.459.6.638,1.247.835.751.225,1.557.516,1.557,1.388v.019a1.526,1.526,0,0,1-1.725,1.454,3.333,3.333,0,0,1-2.007-.713" transform="translate(-73.938 -13.28)" fill="#f8f8f8"/>
    <path id="Tracciato_1803" data-name="Tracciato 1803" d="M196.323,36.371v-.019a2.526,2.526,0,0,1,4.427-1.669l-.478.507a1.958,1.958,0,0,0-1.473-.732,1.789,1.789,0,0,0-1.735,1.875v.019a1.812,1.812,0,0,0,1.782,1.885,2,2,0,0,0,1.482-.722l.459.431a2.508,2.508,0,0,1-4.464-1.576" transform="translate(-77.02 -13.268)" fill="#f8f8f8"/>
    <path id="Tracciato_1804" data-name="Tracciato 1804" d="M204.9,36.361v-.019a2.391,2.391,0,0,1,2.326-2.523,2.308,2.308,0,0,1,2.261,2.56,1.821,1.821,0,0,1-.01.235h-3.845a1.694,1.694,0,0,0,1.707,1.641,2.007,2.007,0,0,0,1.529-.685l.45.4a2.5,2.5,0,0,1-2,.91,2.41,2.41,0,0,1-2.419-2.523m3.855-.281a1.6,1.6,0,0,0-1.548-1.65,1.672,1.672,0,0,0-1.576,1.65Z" transform="translate(-80.386 -13.268)" fill="#f8f8f8"/>
    <rect id="Rettangolo_739" data-name="Rettangolo 739" width="0.722" height="6.846" transform="translate(130.435 18.658)" fill="#f8f8f8"/>
    <path id="Tracciato_1805" data-name="Tracciato 1805" d="M218.572,36.609V33.683H217.9v-.637h.675V31.582h.722v1.463h1.538v.637h-1.538v2.832a.717.717,0,0,0,.816.806,1.514,1.514,0,0,0,.7-.169v.619a1.814,1.814,0,0,1-.871.207,1.235,1.235,0,0,1-1.37-1.37" transform="translate(-85.483 -12.39)" fill="#f8f8f8"/>
    <path id="Tracciato_1806" data-name="Tracciato 1806" d="M224.224,37.39v-.019c0-1.022.844-1.566,2.072-1.566a5.147,5.147,0,0,1,1.492.207v-.169c0-.873-.535-1.322-1.444-1.322a3.38,3.38,0,0,0-1.472.356l-.216-.591a4,4,0,0,1,1.763-.4,2.127,2.127,0,0,1,1.567.535,1.914,1.914,0,0,1,.5,1.416V38.8h-.694v-.732a2.125,2.125,0,0,1-1.754.835,1.633,1.633,0,0,1-1.81-1.51m3.573-.375v-.469a5.058,5.058,0,0,0-1.426-.206c-.91,0-1.417.394-1.417,1v.019c0,.61.563.966,1.22.966a1.466,1.466,0,0,0,1.623-1.313" transform="translate(-87.965 -13.292)" fill="#f8f8f8"/>
    <path id="Tracciato_1807" data-name="Tracciato 1807" d="M233.7,33.99h.863v.984H233.7Zm0,3.864h.863v.984H233.7Z" transform="translate(-91.683 -13.335)" fill="#f8f8f8"/>
    <path id="Tracciato_1808" data-name="Tracciato 1808" d="M142.127,56.683l.366-.516a2.835,2.835,0,0,0,1.678.619c.582,0,1-.3,1-.769V56c0-.488-.572-.676-1.21-.854-.76-.216-1.6-.478-1.6-1.369v-.019a1.467,1.467,0,0,1,1.65-1.388,3.317,3.317,0,0,1,1.745.534l-.329.544a2.736,2.736,0,0,0-1.435-.469c-.572,0-.938.3-.938.7V53.7c0,.459.6.638,1.247.835.75.225,1.557.516,1.557,1.388v.019a1.527,1.527,0,0,1-1.725,1.454,3.333,3.333,0,0,1-2.007-.713" transform="translate(-55.758 -20.545)" fill="#f8f8f8"/>
    <path id="Tracciato_1809" data-name="Tracciato 1809" d="M149.874,55.908v-.019c0-1.022.844-1.566,2.072-1.566a5.14,5.14,0,0,1,1.491.207V54.36c0-.873-.534-1.322-1.444-1.322a3.38,3.38,0,0,0-1.472.356l-.216-.591a4,4,0,0,1,1.763-.4,2.127,2.127,0,0,1,1.567.535,1.914,1.914,0,0,1,.5,1.416v2.964h-.695v-.732a2.123,2.123,0,0,1-1.754.835,1.633,1.633,0,0,1-1.81-1.51m3.573-.375v-.469a5.058,5.058,0,0,0-1.426-.206c-.91,0-1.417.394-1.417,1v.019c0,.61.563.966,1.22.966a1.466,1.466,0,0,0,1.623-1.313" transform="translate(-58.797 -20.557)" fill="#f8f8f8"/>
    <rect id="Rettangolo_740" data-name="Rettangolo 740" width="0.722" height="6.846" transform="translate(96.938 29.911)" fill="#f8f8f8"/>
    <path id="Tracciato_1810" data-name="Tracciato 1810" d="M162.682,52.508h.8l1.632,4.024,1.641-4.024h.778l-2.11,4.886h-.638Z" transform="translate(-63.822 -20.599)" fill="#f8f8f8"/>
    <path id="Tracciato_1811" data-name="Tracciato 1811" d="M172.559,49.452h.825v.8h-.825Zm.047,1.857h.722v4.849h-.722Z" transform="translate(-67.697 -19.4)" fill="#f8f8f8"/>
    <path id="Tracciato_1812" data-name="Tracciato 1812" d="M175.984,55.908v-.019c0-1.022.844-1.566,2.072-1.566a5.139,5.139,0,0,1,1.491.207V54.36c0-.873-.534-1.322-1.444-1.322a3.38,3.38,0,0,0-1.472.356l-.216-.591a4,4,0,0,1,1.763-.4,2.127,2.127,0,0,1,1.567.535,1.914,1.914,0,0,1,.5,1.416v2.964h-.695v-.732a2.123,2.123,0,0,1-1.754.835,1.633,1.633,0,0,1-1.81-1.51m3.573-.375v-.469a5.058,5.058,0,0,0-1.426-.206c-.91,0-1.417.394-1.417,1v.019c0,.61.563.966,1.22.966a1.466,1.466,0,0,0,1.623-1.313" transform="translate(-69.04 -20.557)" fill="#f8f8f8"/>
    <path id="Tracciato_1813" data-name="Tracciato 1813" d="M185.521,52.441h.722v.816a1.773,1.773,0,0,1,1.567-.919,1.648,1.648,0,0,1,1.557.966,1.932,1.932,0,0,1,1.707-.966,1.743,1.743,0,0,1,1.8,1.951v3h-.723V54.458c0-.938-.469-1.463-1.257-1.463a1.351,1.351,0,0,0-1.331,1.5V57.29h-.723V54.439c0-.91-.478-1.444-1.247-1.444a1.406,1.406,0,0,0-1.351,1.529V57.29h-.722Z" transform="translate(-72.782 -20.533)" fill="#f8f8f8"/>
    <path id="Tracciato_1814" data-name="Tracciato 1814" d="M199.7,54.889V54.87a2.528,2.528,0,0,1,5.055-.019v.019a2.517,2.517,0,0,1-2.541,2.532,2.485,2.485,0,0,1-2.514-2.513m4.315,0V54.87a1.835,1.835,0,0,0-1.8-1.894,1.789,1.789,0,0,0-1.773,1.875v.019a1.819,1.819,0,0,0,1.791,1.885,1.789,1.789,0,0,0,1.782-1.866" transform="translate(-78.345 -20.533)" fill="#f8f8f8"/>
    <path id="Tracciato_1815" data-name="Tracciato 1815" d="M142.822,67.971h.825v.8h-.825Zm.047,1.856h.722v4.849h-.722Z" transform="translate(-56.031 -26.666)" fill="#f8f8f8"/>
    <rect id="Rettangolo_741" data-name="Rettangolo 741" width="0.722" height="6.846" transform="translate(89.305 41.164)" fill="#f8f8f8"/>
    <path id="Tracciato_1816" data-name="Tracciato 1816" d="M155.555,70.35h-.666v-.628h.666V69.3a1.711,1.711,0,0,1,.422-1.248,1.425,1.425,0,0,1,1.041-.376,2.19,2.19,0,0,1,.8.122v.628a2.42,2.42,0,0,0-.7-.122c-.563,0-.844.337-.844,1.031v.394h1.538v.619h-1.529v4.211h-.722Z" transform="translate(-60.765 -26.55)" fill="#f8f8f8"/>
    <path id="Tracciato_1817" data-name="Tracciato 1817" d="M161.077,74.036v-3.01h.722v2.832a1.293,1.293,0,0,0,1.341,1.463,1.431,1.431,0,0,0,1.454-1.519V71.026h.713v4.849h-.713v-.844a1.846,1.846,0,0,1-1.66.947,1.771,1.771,0,0,1-1.857-1.941" transform="translate(-63.192 -27.864)" fill="#f8f8f8"/>
    <path id="Tracciato_1818" data-name="Tracciato 1818" d="M170.687,73.646V70.72h-.675v-.637h.675V68.619h.722v1.463h1.538v.637h-1.538v2.832a.717.717,0,0,0,.816.806,1.514,1.514,0,0,0,.7-.169v.619a1.814,1.814,0,0,1-.871.207,1.235,1.235,0,0,1-1.37-1.37" transform="translate(-66.697 -26.92)" fill="#f8f8f8"/>
    <path id="Tracciato_1819" data-name="Tracciato 1819" d="M176.817,74.036v-3.01h.722v2.832a1.293,1.293,0,0,0,1.341,1.463,1.431,1.431,0,0,0,1.454-1.519V71.026h.713v4.849h-.713v-.844a1.846,1.846,0,0,1-1.66.947,1.771,1.771,0,0,1-1.857-1.941" transform="translate(-69.367 -27.864)" fill="#f8f8f8"/>
    <path id="Tracciato_1820" data-name="Tracciato 1820" d="M186.447,70.97h.722v1.266a2.076,2.076,0,0,1,1.979-1.351v.778h-.057a1.955,1.955,0,0,0-1.923,2.223v1.932h-.722Z" transform="translate(-73.145 -27.809)" fill="#f8f8f8"/>
    <path id="Tracciato_1821" data-name="Tracciato 1821" d="M191.863,73.407v-.019a2.528,2.528,0,0,1,5.055-.019v.019a2.517,2.517,0,0,1-2.541,2.532,2.485,2.485,0,0,1-2.514-2.513m4.315,0v-.019a1.835,1.835,0,0,0-1.8-1.894,1.789,1.789,0,0,0-1.773,1.875v.019a1.819,1.819,0,0,0,1.791,1.885,1.789,1.789,0,0,0,1.782-1.866" transform="translate(-75.27 -27.797)" fill="#f8f8f8"/>
    <path id="Tracciato_1822" data-name="Tracciato 1822" d="M204.722,66.689h1.21l-4.155,8.684h-1.21Z" transform="translate(-78.685 -26.163)" fill="#f8f8f8"/>
  </g>
</svg>
