<svg id="Raggruppa_1138" data-name="Raggruppa 1138" xmlns="http://www.w3.org/2000/svg" xmlns:xlink="http://www.w3.org/1999/xlink" width="124.464" height="46.66" viewBox="0 0 124.464 46.66">
  <defs>
    <clipPath id="clip-path">
      <rect id="Rettangolo_742" data-name="Rettangolo 742" width="124.465" height="46.66" fill="#a1a1a1"/>
    </clipPath>
  </defs>
  <g id="Raggruppa_1113" data-name="Raggruppa 1113" transform="translate(0 0)" clip-path="url(#clip-path)">
    <path id="Tracciato_1775" data-name="Tracciato 1775" d="M1.664,1.568H7.784A1.663,1.663,0,0,1,9.448,3.231V25.715a1.664,1.664,0,0,0,1.664,1.664H24.293a1.663,1.663,0,0,1,1.664,1.664v4.951a1.664,1.664,0,0,1-1.664,1.664H1.664A1.664,1.664,0,0,1,0,33.993V3.231A1.664,1.664,0,0,1,1.664,1.568" transform="translate(0 -0.738)" fill="#a1a1a1"/>
    <path id="Tracciato_1776" data-name="Tracciato 1776" d="M29.852,15.35a4.794,4.794,0,0,0,2.628-1.639,1.663,1.663,0,0,0-1.345-2.646A1.663,1.663,0,0,1,29.472,9.4V3.232a1.663,1.663,0,0,1,1.663-1.664H37.4a1.664,1.664,0,0,1,1.664,1.664V9.311c0,6.595-3.263,9.235-8.481,9.785a1.661,1.661,0,0,1-1.8-1.322l-.1-.467a1.676,1.676,0,0,1,1.158-1.957" transform="translate(-13.488 -0.738)" fill="#a1a1a1"/>
    <path id="Tracciato_1777" data-name="Tracciato 1777" d="M76.145,11.368a2.11,2.11,0,1,1,2.111,2.111,2.11,2.11,0,0,1-2.111-2.111m-23.64,6.439v.125c0,10.508,7.55,17.681,18.247,17.681a17.884,17.884,0,0,0,12.882-4.888,2.443,2.443,0,0,0-.11-3.651L80.465,24.54a2.44,2.44,0,0,0-3.06-.034,9.332,9.332,0,0,1-6.086,2.173,7.12,7.12,0,0,1-6.207-2.964c-.764-1.117-1.014-3.264,1.2-2.874,0,0,2.059.258,3.742.3s14.311-.064,14.311-.064A2.432,2.432,0,0,0,86.8,18.647v-.023C86.8,8.62,81.385,0,69.682,0,59.615,0,52.505,7.865,52.505,17.806" transform="translate(-24.711 0)" fill="#a1a1a1"/>
    <path id="Tracciato_1778" data-name="Tracciato 1778" d="M.076,78v5.163h3.71V82.134H1.212V78Z" transform="translate(-0.036 -36.711)" fill="#a1a1a1"/>
    <path id="Tracciato_1779" data-name="Tracciato 1779" d="M7.282,79.914c.509-.051.76-.309.723-.73H7.548V78H8.743v1a1.21,1.21,0,0,1-1.365,1.379Z" transform="translate(-3.427 -36.711)" fill="#a1a1a1"/>
    <path id="Tracciato_1780" data-name="Tracciato 1780" d="M10.808,82.222v-.015a1.968,1.968,0,0,1,1.955-2.058A1.924,1.924,0,0,1,14.688,82.3c0,.089-.007.192-.014.3H11.922a.917.917,0,0,0,.966.774,1.3,1.3,0,0,0,.959-.406l.642.568a1.979,1.979,0,0,1-1.615.737,1.977,1.977,0,0,1-2.066-2.043m2.788-.332a.848.848,0,0,0-.833-.841.882.882,0,0,0-.856.841Z" transform="translate(-5.087 -37.721)" fill="#a1a1a1"/>
    <path id="Tracciato_1781" data-name="Tracciato 1781" d="M19.589,80.222H20.71v.8a1.222,1.222,0,0,1,1.261-.871v1.173h-.059c-.745,0-1.2.45-1.2,1.394v1.461H19.589Z" transform="translate(-9.219 -37.719)" fill="#a1a1a1"/>
    <path id="Tracciato_1782" data-name="Tracciato 1782" d="M24.7,82.222v-.015a1.968,1.968,0,0,1,1.955-2.058A1.924,1.924,0,0,1,28.584,82.3c0,.089-.007.192-.014.3H25.818a.917.917,0,0,0,.966.774,1.3,1.3,0,0,0,.959-.406l.642.568A2.088,2.088,0,0,1,24.7,82.222m2.788-.332a.848.848,0,0,0-.833-.841.882.882,0,0,0-.856.841Z" transform="translate(-11.626 -37.721)" fill="#a1a1a1"/>
    <path id="Tracciato_1783" data-name="Tracciato 1783" d="M33.15,81v-.015a1.853,1.853,0,0,1,1.8-2.043,1.519,1.519,0,0,1,1.232.59V77.586H37.3V82.97H36.182V82.4a1.452,1.452,0,0,1-1.232.642A1.861,1.861,0,0,1,33.15,81M36.2,81v-.015a.97.97,0,1,0-1.925,0V81A.97.97,0,1,0,36.2,81" transform="translate(-15.601 -36.514)" fill="#a1a1a1"/>
    <path id="Tracciato_1784" data-name="Tracciato 1784" d="M42.809,77.585h1.18v1h-1.18Zm.029,1.431H43.96V82.97H42.838Z" transform="translate(-20.147 -36.514)" fill="#a1a1a1"/>
    <path id="Tracciato_1785" data-name="Tracciato 1785" d="M46.779,82.223V80.349h-.472V79.39h.472V78.38H47.9v1.01h.93v.959H47.9v1.689c0,.259.111.384.362.384a1.148,1.148,0,0,0,.553-.14v.9a1.653,1.653,0,0,1-.885.229c-.686,0-1.151-.274-1.151-1.188" transform="translate(-21.794 -36.888)" fill="#a1a1a1"/>
    <path id="Tracciato_1786" data-name="Tracciato 1786" d="M52.049,81.558v-.015c0-.863.657-1.261,1.593-1.261a2.816,2.816,0,0,1,.967.162v-.066c0-.465-.287-.723-.848-.723a2.9,2.9,0,0,0-1.092.214l-.28-.855a3.482,3.482,0,0,1,1.534-.318,1.829,1.829,0,0,1,1.335.442,1.727,1.727,0,0,1,.428,1.262v2.293H54.6v-.427a1.52,1.52,0,0,1-1.195.5,1.223,1.223,0,0,1-1.358-1.21m.591-4.138L53.605,77l.819,1.305H53.6Zm1.984,3.88v-.2a1.742,1.742,0,0,0-.716-.148c-.48,0-.774.191-.774.546v.014c0,.3.251.48.612.48.524,0,.878-.289.878-.693" transform="translate(-24.496 -36.239)" fill="#a1a1a1"/>
    <path id="Tracciato_1787" data-name="Tracciato 1787" d="M60.357,81.074V81.06a1.871,1.871,0,0,1,1.822-1.984,1.721,1.721,0,0,1,1.461.812v-2.3h.568V82.97H63.64V82.2a1.715,1.715,0,0,1-1.461.848,1.86,1.86,0,0,1-1.822-1.977m3.3-.007v-.015a1.417,1.417,0,0,0-1.38-1.467,1.345,1.345,0,0,0-1.342,1.467v.015a1.378,1.378,0,0,0,1.342,1.475,1.424,1.424,0,0,0,1.38-1.475" transform="translate(-28.406 -36.514)" fill="#a1a1a1"/>
    <path id="Tracciato_1788" data-name="Tracciato 1788" d="M69.457,82.4v-.015A1.881,1.881,0,0,1,71.287,80.4a1.816,1.816,0,0,1,1.778,2.014,1.463,1.463,0,0,1-.007.184H70.032a1.332,1.332,0,0,0,1.342,1.291,1.579,1.579,0,0,0,1.2-.538l.354.317a1.968,1.968,0,0,1-1.571.715,1.9,1.9,0,0,1-1.9-1.984m3.032-.221a1.256,1.256,0,0,0-1.217-1.3,1.315,1.315,0,0,0-1.239,1.3Z" transform="translate(-32.689 -37.838)" fill="#a1a1a1"/>
    <rect id="Rettangolo_734" data-name="Rettangolo 734" width="0.568" height="5.385" transform="translate(41.351 41.071)" fill="#a1a1a1"/>
    <rect id="Rettangolo_735" data-name="Rettangolo 735" width="0.568" height="5.385" transform="translate(43.224 41.071)" fill="#a1a1a1"/>
    <path id="Tracciato_1789" data-name="Tracciato 1789" d="M84.551,83.215V83.2c0-.8.664-1.232,1.63-1.232a4.039,4.039,0,0,1,1.173.163V82c0-.686-.421-1.04-1.137-1.04a2.644,2.644,0,0,0-1.158.28l-.17-.465a3.152,3.152,0,0,1,1.387-.317,1.672,1.672,0,0,1,1.232.421A1.508,1.508,0,0,1,87.9,81.99v2.33h-.545v-.575a1.672,1.672,0,0,1-1.38.656,1.284,1.284,0,0,1-1.424-1.187m2.81-.3v-.368a3.981,3.981,0,0,0-1.121-.163c-.715,0-1.114.31-1.114.789v.015c0,.48.443.76.959.76a1.153,1.153,0,0,0,1.276-1.033" transform="translate(-39.792 -37.865)" fill="#a1a1a1"/>
    <path id="Tracciato_1790" data-name="Tracciato 1790" d="M92.065,80.289h1.188l.885,2.648.893-2.648H96.2l-1.556,3.984H93.621Z" transform="translate(-43.329 -37.786)" fill="#a1a1a1"/>
    <path id="Tracciato_1791" data-name="Tracciato 1791" d="M101.012,77.585h1.18v1h-1.18Zm.03,1.431h1.121V82.97h-1.121Z" transform="translate(-47.539 -36.514)" fill="#a1a1a1"/>
    <path id="Tracciato_1792" data-name="Tracciato 1792" d="M104.983,82.223V80.349h-.472V79.39h.472V78.38H106.1v1.01h.93v.959h-.93v1.689c0,.259.111.384.361.384a1.148,1.148,0,0,0,.554-.14v.9a1.653,1.653,0,0,1-.885.229c-.686,0-1.151-.274-1.151-1.188" transform="translate(-49.186 -36.888)" fill="#a1a1a1"/>
    <path id="Tracciato_1793" data-name="Tracciato 1793" d="M110.268,83.067v-.015c0-.863.656-1.261,1.593-1.261a2.814,2.814,0,0,1,.967.162v-.066c0-.465-.287-.723-.848-.723a2.9,2.9,0,0,0-1.092.214l-.28-.855a3.482,3.482,0,0,1,1.534-.318,1.829,1.829,0,0,1,1.335.442,1.727,1.727,0,0,1,.428,1.262V84.2H112.82v-.427a1.52,1.52,0,0,1-1.195.5,1.223,1.223,0,0,1-1.357-1.21m2.574-.258v-.2a1.74,1.74,0,0,0-.716-.148c-.479,0-.774.191-.774.546v.014c0,.3.251.48.612.48.524,0,.878-.289.878-.693" transform="translate(-51.896 -37.747)" fill="#a1a1a1"/>
    <line id="Linea_212" data-name="Linea 212" y2="45.773" transform="translate(69.613 0.681)" fill="#ec6625"/>
    <path id="Tracciato_1900" data-name="Tracciato 1900" d="M0,0V45.773" transform="translate(69.613 0.681)" fill="none" stroke="#a1a1a1" stroke-linecap="round" stroke-width="0.779"/>
    <rect id="Rettangolo_736" data-name="Rettangolo 736" width="0.645" height="5.719" transform="translate(75.753 6.695)" fill="#a1a1a1"/>
    <rect id="Rettangolo_737" data-name="Rettangolo 737" width="0.629" height="5.964" transform="translate(78.024 6.45)" fill="#a1a1a1"/>
    <path id="Tracciato_1794" data-name="Tracciato 1794" d="M155.475,17.524v-.016a2.2,2.2,0,0,1,3.856-1.454l-.417.441a1.706,1.706,0,0,0-1.283-.637,1.559,1.559,0,0,0-1.511,1.634v.016a1.578,1.578,0,0,0,1.553,1.642,1.743,1.743,0,0,0,1.291-.629l.4.376a2.185,2.185,0,0,1-3.889-1.373" transform="translate(-73.172 -7.202)" fill="#a1a1a1"/>
    <rect id="Rettangolo_738" data-name="Rettangolo 738" width="0.629" height="5.964" transform="translate(87.287 6.45)" fill="#a1a1a1"/>
    <path id="Tracciato_1795" data-name="Tracciato 1795" d="M168.87,12.416h.719v.695h-.719Zm.041,1.618h.629v4.224h-.629Z" transform="translate(-79.476 -5.843)" fill="#a1a1a1"/>
    <path id="Tracciato_1796" data-name="Tracciato 1796" d="M172.9,15.392h.629v.71a1.545,1.545,0,0,1,1.365-.8,1.436,1.436,0,0,1,1.356.842,1.683,1.683,0,0,1,1.487-.842A1.518,1.518,0,0,1,179.3,17v2.615h-.629V17.148c0-.817-.408-1.275-1.095-1.275a1.177,1.177,0,0,0-1.16,1.308v2.435h-.629V17.132c0-.792-.417-1.258-1.086-1.258a1.224,1.224,0,0,0-1.177,1.332v2.41H172.9Z" transform="translate(-81.371 -7.202)" fill="#a1a1a1"/>
    <path id="Tracciato_1797" data-name="Tracciato 1797" d="M186.971,18.42V18.4c0-.89.735-1.364,1.805-1.364a4.477,4.477,0,0,1,1.3.18v-.147c0-.76-.465-1.152-1.258-1.152a2.945,2.945,0,0,0-1.283.31l-.188-.515a3.481,3.481,0,0,1,1.536-.351,1.853,1.853,0,0,1,1.365.466,1.667,1.667,0,0,1,.433,1.233v2.582h-.605v-.637a1.849,1.849,0,0,1-1.528.727,1.423,1.423,0,0,1-1.576-1.315m3.113-.327v-.409a4.406,4.406,0,0,0-1.242-.179c-.792,0-1.234.343-1.234.874V18.4c0,.531.491.842,1.062.842a1.277,1.277,0,0,0,1.413-1.144" transform="translate(-87.994 -7.231)" fill="#a1a1a1"/>
    <path id="Tracciato_1798" data-name="Tracciato 1798" d="M142.3,34.494v-.016a2.084,2.084,0,0,1,2.026-2.2,2.011,2.011,0,0,1,1.969,2.23,1.589,1.589,0,0,1-.008.2h-3.35a1.476,1.476,0,0,0,1.488,1.43,1.748,1.748,0,0,0,1.331-.6l.392.352a2.181,2.181,0,0,1-1.74.792,2.1,2.1,0,0,1-2.108-2.2m3.358-.245a1.391,1.391,0,0,0-1.348-1.438,1.457,1.457,0,0,0-1.373,1.438Zm-2.508-3.4.654-.3.768,1.185h-.49Z" transform="translate(-66.969 -14.377)" fill="#a1a1a1"/>
    <path id="Tracciato_1799" data-name="Tracciato 1799" d="M156.432,36.612V33.99h.629v2.467a1.126,1.126,0,0,0,1.168,1.275,1.247,1.247,0,0,0,1.266-1.323V33.99h.622v4.224H159.5v-.735a1.608,1.608,0,0,1-1.446.825,1.543,1.543,0,0,1-1.618-1.691" transform="translate(-73.622 -15.997)" fill="#a1a1a1"/>
    <path id="Tracciato_1800" data-name="Tracciato 1800" d="M166.062,33.91h.629v.735a1.6,1.6,0,0,1,1.446-.825,1.543,1.543,0,0,1,1.618,1.691v2.622h-.629V35.666a1.126,1.126,0,0,0-1.168-1.275,1.243,1.243,0,0,0-1.266,1.324v2.418h-.629Z" transform="translate(-78.154 -15.917)" fill="#a1a1a1"/>
    <path id="Tracciato_1801" data-name="Tracciato 1801" d="M174.966,36.938v-.016c0-.89.735-1.364,1.805-1.364a4.484,4.484,0,0,1,1.3.18V35.59c0-.76-.466-1.152-1.258-1.152a2.944,2.944,0,0,0-1.283.31l-.188-.515a3.481,3.481,0,0,1,1.536-.352,1.853,1.853,0,0,1,1.365.466,1.667,1.667,0,0,1,.433,1.233v2.582h-.6v-.637a1.851,1.851,0,0,1-1.528.727,1.422,1.422,0,0,1-1.576-1.315m3.113-.327V36.2a4.406,4.406,0,0,0-1.242-.179c-.792,0-1.234.343-1.234.874v.016c0,.531.491.842,1.062.842a1.277,1.277,0,0,0,1.413-1.144" transform="translate(-82.345 -15.946)" fill="#a1a1a1"/>
    <path id="Tracciato_1802" data-name="Tracciato 1802" d="M188.469,37.609l.319-.449a2.47,2.47,0,0,0,1.462.539c.507,0,.875-.262.875-.67v-.016c0-.425-.5-.589-1.054-.744-.662-.188-1.4-.417-1.4-1.193V35.06a1.278,1.278,0,0,1,1.438-1.209,2.889,2.889,0,0,1,1.52.465l-.286.474a2.384,2.384,0,0,0-1.25-.409c-.5,0-.817.262-.817.612v.016c0,.4.523.556,1.086.727.654.2,1.356.449,1.356,1.209v.016a1.33,1.33,0,0,1-1.5,1.266,2.9,2.9,0,0,1-1.749-.621" transform="translate(-88.7 -15.931)" fill="#a1a1a1"/>
    <path id="Tracciato_1803" data-name="Tracciato 1803" d="M196.323,36.042v-.016a2.2,2.2,0,0,1,3.856-1.454l-.417.441a1.705,1.705,0,0,0-1.283-.637,1.559,1.559,0,0,0-1.511,1.634v.016a1.578,1.578,0,0,0,1.553,1.642,1.743,1.743,0,0,0,1.291-.629l.4.376a2.185,2.185,0,0,1-3.889-1.373" transform="translate(-92.396 -15.917)" fill="#a1a1a1"/>
    <path id="Tracciato_1804" data-name="Tracciato 1804" d="M204.9,36.034v-.016a2.083,2.083,0,0,1,2.026-2.2,2.011,2.011,0,0,1,1.969,2.23,1.586,1.586,0,0,1-.008.2h-3.35a1.475,1.475,0,0,0,1.487,1.43,1.748,1.748,0,0,0,1.332-.6l.392.352a2.181,2.181,0,0,1-1.741.792,2.1,2.1,0,0,1-2.107-2.2m3.358-.245a1.391,1.391,0,0,0-1.348-1.438,1.457,1.457,0,0,0-1.373,1.438Z" transform="translate(-96.434 -15.917)" fill="#a1a1a1"/>
    <rect id="Rettangolo_739" data-name="Rettangolo 739" width="0.629" height="5.964" transform="translate(113.624 16.253)" fill="#a1a1a1"/>
    <path id="Tracciato_1805" data-name="Tracciato 1805" d="M218.485,35.961V33.412H217.9v-.555h.588V31.582h.629v1.275h1.34v.555h-1.34v2.467a.625.625,0,0,0,.711.7,1.319,1.319,0,0,0,.612-.147v.539a1.58,1.58,0,0,1-.759.18,1.075,1.075,0,0,1-1.193-1.193" transform="translate(-102.549 -14.863)" fill="#a1a1a1"/>
    <path id="Tracciato_1806" data-name="Tracciato 1806" d="M224.224,36.938v-.016c0-.89.735-1.364,1.805-1.364a4.484,4.484,0,0,1,1.3.18V35.59c0-.76-.466-1.152-1.258-1.152a2.944,2.944,0,0,0-1.283.31l-.188-.515a3.481,3.481,0,0,1,1.536-.352,1.853,1.853,0,0,1,1.365.466,1.667,1.667,0,0,1,.433,1.233v2.582h-.6v-.637a1.851,1.851,0,0,1-1.528.727,1.422,1.422,0,0,1-1.576-1.315m3.113-.327V36.2a4.406,4.406,0,0,0-1.242-.179c-.792,0-1.234.343-1.234.874v.016c0,.531.491.842,1.062.842a1.277,1.277,0,0,0,1.413-1.144" transform="translate(-105.527 -15.946)" fill="#a1a1a1"/>
    <path id="Tracciato_1807" data-name="Tracciato 1807" d="M233.7,33.99h.752v.858H233.7Zm0,3.366h.752v.858H233.7Z" transform="translate(-109.986 -15.997)" fill="#a1a1a1"/>
    <path id="Tracciato_1808" data-name="Tracciato 1808" d="M142.127,56.127l.319-.449a2.47,2.47,0,0,0,1.462.539c.507,0,.875-.262.875-.67v-.016c0-.425-.5-.589-1.054-.744-.662-.188-1.4-.417-1.4-1.193v-.016a1.278,1.278,0,0,1,1.438-1.209,2.889,2.889,0,0,1,1.52.465l-.286.474a2.384,2.384,0,0,0-1.25-.409c-.5,0-.817.262-.817.612v.016c0,.4.523.556,1.086.727.654.2,1.356.449,1.356,1.209v.016a1.33,1.33,0,0,1-1.5,1.266,2.9,2.9,0,0,1-1.749-.621" transform="translate(-66.889 -24.646)" fill="#a1a1a1"/>
    <path id="Tracciato_1809" data-name="Tracciato 1809" d="M149.874,55.456v-.016c0-.89.735-1.364,1.805-1.364a4.477,4.477,0,0,1,1.3.18v-.147c0-.76-.465-1.152-1.258-1.152a2.945,2.945,0,0,0-1.283.31l-.188-.515a3.481,3.481,0,0,1,1.536-.351,1.853,1.853,0,0,1,1.365.466,1.667,1.667,0,0,1,.433,1.233v2.582h-.605v-.637a1.849,1.849,0,0,1-1.528.727,1.423,1.423,0,0,1-1.576-1.315m3.113-.327V54.72a4.406,4.406,0,0,0-1.242-.179c-.792,0-1.234.343-1.234.874v.016c0,.531.491.842,1.062.842a1.277,1.277,0,0,0,1.413-1.144" transform="translate(-70.535 -24.661)" fill="#a1a1a1"/>
    <rect id="Rettangolo_740" data-name="Rettangolo 740" width="0.629" height="5.964" transform="translate(84.444 26.056)" fill="#a1a1a1"/>
    <path id="Tracciato_1810" data-name="Tracciato 1810" d="M162.682,52.508h.695l1.421,3.5,1.43-3.5h.678l-1.838,4.256h-.556Z" transform="translate(-76.563 -24.712)" fill="#a1a1a1"/>
    <path id="Tracciato_1811" data-name="Tracciato 1811" d="M172.559,49.452h.719v.695h-.719Zm.041,1.618h.629v4.224H172.6Z" transform="translate(-81.212 -23.274)" fill="#a1a1a1"/>
    <path id="Tracciato_1812" data-name="Tracciato 1812" d="M175.984,55.456v-.016c0-.89.735-1.364,1.805-1.364a4.477,4.477,0,0,1,1.3.18v-.147c0-.76-.465-1.152-1.258-1.152a2.945,2.945,0,0,0-1.283.31l-.188-.515A3.481,3.481,0,0,1,177.9,52.4a1.853,1.853,0,0,1,1.365.466,1.667,1.667,0,0,1,.433,1.233v2.582h-.605v-.637a1.849,1.849,0,0,1-1.528.727,1.422,1.422,0,0,1-1.576-1.315m3.113-.327V54.72a4.406,4.406,0,0,0-1.242-.179c-.792,0-1.234.343-1.234.874v.016c0,.531.491.842,1.062.842a1.277,1.277,0,0,0,1.413-1.144" transform="translate(-82.824 -24.661)" fill="#a1a1a1"/>
    <path id="Tracciato_1813" data-name="Tracciato 1813" d="M185.521,52.428h.629v.71a1.545,1.545,0,0,1,1.365-.8,1.436,1.436,0,0,1,1.356.842,1.683,1.683,0,0,1,1.487-.842,1.518,1.518,0,0,1,1.568,1.7v2.615H191.3V54.184c0-.817-.408-1.275-1.095-1.275a1.177,1.177,0,0,0-1.16,1.308v2.435h-.629V54.168c0-.792-.417-1.258-1.086-1.258a1.224,1.224,0,0,0-1.177,1.332v2.41h-.629Z" transform="translate(-87.312 -24.632)" fill="#a1a1a1"/>
    <path id="Tracciato_1814" data-name="Tracciato 1814" d="M199.7,54.56v-.016a2.2,2.2,0,0,1,4.4-.016v.016a2.193,2.193,0,0,1-2.214,2.206,2.164,2.164,0,0,1-2.19-2.189m3.759,0v-.016a1.6,1.6,0,0,0-1.568-1.65,1.559,1.559,0,0,0-1.544,1.634v.016a1.584,1.584,0,0,0,1.56,1.642,1.559,1.559,0,0,0,1.553-1.626" transform="translate(-93.986 -24.632)" fill="#a1a1a1"/>
    <path id="Tracciato_1815" data-name="Tracciato 1815" d="M142.822,67.971h.719v.695h-.719Zm.041,1.617h.629v4.224h-.629Z" transform="translate(-67.217 -31.989)" fill="#a1a1a1"/>
    <rect id="Rettangolo_741" data-name="Rettangolo 741" width="0.629" height="5.964" transform="translate(77.795 35.859)" fill="#a1a1a1"/>
    <path id="Tracciato_1816" data-name="Tracciato 1816" d="M155.469,70.006h-.58v-.547h.58v-.367A1.49,1.49,0,0,1,155.837,68a1.241,1.241,0,0,1,.907-.327,1.908,1.908,0,0,1,.694.106v.547a2.108,2.108,0,0,0-.612-.106c-.49,0-.735.294-.735.9v.343h1.34v.539H156.1v3.669h-.629Z" transform="translate(-72.896 -31.851)" fill="#a1a1a1"/>
    <path id="Tracciato_1817" data-name="Tracciato 1817" d="M161.077,73.648V71.026h.629v2.467a1.126,1.126,0,0,0,1.168,1.275,1.247,1.247,0,0,0,1.266-1.323V71.026h.621V75.25h-.621v-.735a1.608,1.608,0,0,1-1.446.825,1.543,1.543,0,0,1-1.618-1.691" transform="translate(-75.808 -33.427)" fill="#a1a1a1"/>
    <path id="Tracciato_1818" data-name="Tracciato 1818" d="M170.6,73V70.449h-.588v-.555h.588V68.619h.629v1.275h1.34v.555h-1.34v2.467a.625.625,0,0,0,.711.7,1.319,1.319,0,0,0,.612-.147v.539a1.58,1.58,0,0,1-.759.18A1.075,1.075,0,0,1,170.6,73" transform="translate(-80.013 -32.294)" fill="#a1a1a1"/>
    <path id="Tracciato_1819" data-name="Tracciato 1819" d="M176.817,73.648V71.026h.629v2.467a1.126,1.126,0,0,0,1.168,1.275,1.247,1.247,0,0,0,1.266-1.323V71.026h.621V75.25h-.621v-.735a1.608,1.608,0,0,1-1.446.825,1.543,1.543,0,0,1-1.618-1.691" transform="translate(-83.216 -33.427)" fill="#a1a1a1"/>
    <path id="Tracciato_1820" data-name="Tracciato 1820" d="M186.447,70.959h.629v1.1a1.809,1.809,0,0,1,1.724-1.177v.678h-.049a1.7,1.7,0,0,0-1.675,1.936v1.683h-.629Z" transform="translate(-87.748 -33.36)" fill="#a1a1a1"/>
    <path id="Tracciato_1821" data-name="Tracciato 1821" d="M191.863,73.078v-.016a2.2,2.2,0,0,1,4.4-.016v.016a2.193,2.193,0,0,1-2.214,2.206,2.164,2.164,0,0,1-2.19-2.189m3.759,0v-.016a1.6,1.6,0,0,0-1.569-1.65,1.559,1.559,0,0,0-1.544,1.634v.016a1.584,1.584,0,0,0,1.56,1.642,1.559,1.559,0,0,0,1.553-1.626" transform="translate(-90.297 -33.347)" fill="#a1a1a1"/>
    <path id="Tracciato_1822" data-name="Tracciato 1822" d="M204.187,66.689h1.054l-3.619,7.565h-1.054Z" transform="translate(-94.393 -31.386)" fill="#a1a1a1"/>
  </g>
</svg>
