<svg id="Raggruppa_1141" data-name="Raggruppa 1141" xmlns="http://www.w3.org/2000/svg" xmlns:xlink="http://www.w3.org/1999/xlink" width="84.36" height="27.684" viewBox="0 0 84.36 27.684">
  <defs>
    <clipPath id="clip-path">
      <rect id="Rettangolo_757" data-name="Rettangolo 757" width="84.36" height="27.684" fill="#a1a1a1"/>
    </clipPath>
  </defs>
  <g id="Raggruppa_1140" data-name="Raggruppa 1140" clip-path="url(#clip-path)">
    <path id="Tracciato_1901" data-name="Tracciato 1901" d="M11.272,43.359l-7.384.151c0,2.727.643,5.919,4.008,5.919a5.779,5.779,0,0,0,3.253-.892v.62C10.824,50.18,9,51.8,6.3,51.8,2.072,51.8-.043,47.768,0,43.76c0-5.388,3.222-7.134,5.9-7.351,3.981-.149,6.008,1.813,5.37,6.95m-5.183-5.94c-1.714,0-2.085,2.745-2.2,4.885l4.069-.151c0-3.207-.181-4.735-1.867-4.735" transform="translate(0 -30.141)" fill="#a1a1a1" fill-rule="evenodd"/>
    <path id="Tracciato_1902" data-name="Tracciato 1902" d="M84.957,36.79l-.452,4.069h-.435c0-1.044-.408-2.946-1.525-3.316a2.255,2.255,0,0,0-2.863,2.863c.719,2.527,5.458,2.389,5.727,6.179.326,4.594-4.731,5.751-9.343,4.671l.754-4.521h.522c-.007,1.232.657,3.66,2.632,3.66,1.089,0,1.887-.37,2.121-1.4.822-3.623-5.234-4.044-5.726-7.384-.6-4.073,3.768-6.4,8.589-4.822" transform="translate(-62.986 -30.053)" fill="#a1a1a1" fill-rule="evenodd"/>
    <path id="Tracciato_1903" data-name="Tracciato 1903" d="M142.348,50.512v5.727l1.959.916.133.44h-7.8l.133-.44,1.959-.916V38.156l-1.975-.651.016-.4,5.274-.6s.1,1.1.151,1.658a5.349,5.349,0,0,1,4.973-1.96c5.5.939,5.232,15.7-2.562,15.07a5.721,5.721,0,0,1-2.26-.754m2.038-.66c1.837-.023,2.754-3.062,2.765-6.057.011-2.923-.841-5.8-2.543-5.792-1.812.013-2.26,1.884-2.26,4.254v6.6a3.11,3.11,0,0,0,2.038,1" transform="translate(-113.143 -29.911)" fill="#a1a1a1" fill-rule="evenodd"/>
    <path id="Tracciato_1904" data-name="Tracciato 1904" d="M238.4,36.408c-2.679.218-5.9,1.963-5.9,7.351-.044,4.008,2.071,8.038,6.3,8.038,2.7,0,4.525-1.617,4.85-2.64v-.62a5.779,5.779,0,0,1-3.253.892c-3.364,0-4.008-3.192-4.008-5.919l7.384-.151c.637-5.138-1.389-7.1-5.37-6.95m-2.04,5.9c.116-2.14.487-4.885,2.2-4.885,1.687,0,1.867,1.528,1.867,4.735Z" transform="translate(-192.516 -30.141)" fill="#a1a1a1" fill-rule="evenodd"/>
    <path id="Tracciato_1905" data-name="Tracciato 1905" d="M428.548,42.142c0,2.609,0,7.873,0,7.873s1.318.6,1.847.893l.172.442h-5.124V49.089c-1.79,4.125-8.249,2.906-7.233-2.713.494-2.733,3.986-3.951,7.3-3.767,0-2.882-.863-4.008-3-3.975a7.75,7.75,0,0,0-3.422.922.831.831,0,0,1-.272-.5,8.289,8.289,0,0,1,5.819-2.466c4.352,0,3.878,3.417,3.914,5.555m-7.1,4.915c0,1.486.656,2.4,1.587,2.484,2.232.2,2.635-3.255,2.5-5.877-2.7,0-4.083,1.184-4.083,3.393" transform="translate(-346.205 -30.296)" fill="#a1a1a1" fill-rule="evenodd"/>
    <path id="Tracciato_1906" data-name="Tracciato 1906" d="M310.49,40.441c.816-1.664,1.665-4.355,4.521-3.617v3.617h-.355a1.717,1.717,0,0,0-1.3-.6c-1.9-.075-2.58,1.556-2.707,3.578v6.691l1.959.916.133.441h-7.8l.133-.441,1.959-.916c0-6.028-.006-11.474-.006-11.474h-.011l-1.975-.651.016-.4,5.274-.6s.114,2.912.162,3.466" transform="translate(-252.502 -30.388)" fill="#a1a1a1" fill-rule="evenodd"/>
    <path id="Tracciato_1907" data-name="Tracciato 1907" d="M373.392,51.438l1.959.916.133.441h-7.8l.133-.441,1.959-.916c0-6.028-.006-11.474-.006-11.474h-.011l-1.975-.651.016-.538,5.593-.47Z" transform="translate(-304.458 -31.719)" fill="#a1a1a1" fill-rule="evenodd"/>
    <path id="Tracciato_1908" data-name="Tracciato 1908" d="M382.6,2.353a2.106,2.106,0,1,1-4.182,0,2.106,2.106,0,1,1,4.182,0" transform="translate(-313.342)" fill="#a1a1a1" fill-rule="evenodd"/>
  </g>
</svg>
