<svg xmlns="http://www.w3.org/2000/svg" xmlns:xlink="http://www.w3.org/1999/xlink" width="188.338" height="49.655" viewBox="0 0 188.338 49.655">
  <defs>
    <clipPath id="clip-path">
      <rect id="Rettangolo_733" data-name="Rettangolo 733" width="41.665" height="41.665" fill="#a1a1a1"/>
    </clipPath>
  </defs>
  <g id="Raggruppa_1137" data-name="Raggruppa 1137" transform="translate(19516 2889)">
    <path id="Tracciato_627" data-name="Tracciato 627" d="M821.952,655.306v-.3c-1.168,0-1.336-.239-1.336-1.645v-4.572c0-1.407.169-1.632,1.336-1.632v-.3h-3.8v.3c1.168,0,1.337.225,1.337,1.632v4.572c0,1.406-.169,1.645-1.337,1.645v.3Zm-7.511-3.447H811.5l1.463-3.39Zm-3.165.52h3.4l.675,1.561c.338.774.07,1.069-1.1,1.069v.3h3.9v-.3c-1.168,0-1.238-.239-1.674-1.224l-3.108-7.159h-.183l-3.095,7.159c-.436.984-.506,1.224-1.688,1.224v.3H811.7v-.3c-1.167,0-1.434-.31-1.1-1.069Zm-8.439-1.969,2.461-2.11a3.392,3.392,0,0,1,2.574-1.139v-.3H804.61v.3c.886,0,.83.38-.057,1.139l-2.883,2.462v-1.969c0-1.407.169-1.632,1.336-1.632v-.3h-3.8v.3c1.168,0,1.336.225,1.336,1.632v4.572c0,1.406-.168,1.645-1.336,1.645v.3h3.8v-.3c-1.167,0-1.336-.239-1.336-1.645V651.41l.366-.3,3.559,3.08c.563.478.394.815-.534.815v.3h3.953v-.3a3.756,3.756,0,0,1-1.815-.815Zm-10.268,0,2.461-2.11a3.394,3.394,0,0,1,2.574-1.139v-.3h-3.264v.3c.887,0,.83.38-.056,1.139l-2.884,2.462v-1.969c0-1.407.169-1.632,1.336-1.632v-.3h-3.8v.3c1.168,0,1.337.225,1.337,1.632v4.572c0,1.406-.169,1.645-1.337,1.645v.3h3.8v-.3c-1.168,0-1.336-.239-1.336-1.645V651.41l.366-.3,3.558,3.08c.563.478.394.815-.534.815v.3h3.953v-.3a3.755,3.755,0,0,1-1.814-.815Zm-7.342,1.449h-2.94l1.463-3.39Zm-3.165.52h3.4l.675,1.561c.338.774.07,1.069-1.1,1.069v.3h3.9v-.3c-1.167,0-1.238-.239-1.674-1.224l-3.108-7.159h-.183l-3.095,7.159c-.436.984-.506,1.224-1.688,1.224v.3h3.291v-.3c-1.168,0-1.435-.31-1.1-1.069Zm-4.586.633c0,1.266-1.1,1.927-2.321,1.927-2.6,0-3.333-2.11-3.333-3.854s.815-3.91,3.066-3.91c1.576,0,2.672,1.112,3.052,2.94h.282v-3.095h-.282a1.449,1.449,0,0,1-.478.8,3.588,3.588,0,0,0-2.617-1.2,4.461,4.461,0,0,0,0,8.918c1.464,0,2.1-.731,3.657-.731v-1.069c0-1.407.169-1.646,1.337-1.646v-.281h-3.685v.281c.97,0,1.322.31,1.322.914m-15.808-1.154h-2.94l1.463-3.39Zm-3.165.52h3.4l.675,1.561c.338.774.071,1.069-1.1,1.069v.3h3.9v-.3c-1.167,0-1.238-.239-1.674-1.224l-3.109-7.159h-.183l-3.094,7.159c-.437.984-.507,1.224-1.688,1.224v.3h3.291v-.3c-1.167,0-1.435-.31-1.1-1.069Zm-8.439-1.969,2.461-2.11a3.394,3.394,0,0,1,2.574-1.139v-.3h-3.264v.3c.887,0,.83.38-.056,1.139l-2.884,2.462v-1.969c0-1.407.169-1.632,1.336-1.632v-.3h-3.8v.3c1.168,0,1.337.225,1.337,1.632v4.572c0,1.406-.169,1.645-1.337,1.645v.3h3.8v-.3c-1.168,0-1.336-.239-1.336-1.645V651.41l.366-.3,3.559,3.08c.563.478.394.815-.535.815v.3h3.953v-.3a3.754,3.754,0,0,1-1.814-.815Zm-9.846-3.235c2.433,0,3.361,2.166,3.361,3.91s-.928,3.9-3.361,3.9-3.348-2.152-3.348-3.9.928-3.91,3.348-3.91m4.7,3.91a4.7,4.7,0,1,0-4.7,4.459,4.6,4.6,0,0,0,4.7-4.459m-15.88,3.8a6.247,6.247,0,0,0,2.194.661,2.537,2.537,0,0,0,2.672-2.532,2.355,2.355,0,0,0-1.463-2.138l-1.351-.689c-1.21-.633-1.7-1.013-1.7-1.744a1.284,1.284,0,0,1,1.365-1.252c1.632,0,2.053,1.336,2.152,2.461h.3v-3.095h-.281a1.2,1.2,0,0,1-.408.647,2.627,2.627,0,0,0-1.716-.577,2.173,2.173,0,0,0-2.335,2.1,2.707,2.707,0,0,0,1.561,2.321l1.351.689c.97.506,1.617,1.055,1.617,1.7a1.617,1.617,0,0,1-1.758,1.547,2.526,2.526,0,0,1-2.6-2.532h-.281v3.094h.281a1.189,1.189,0,0,1,.408-.661" transform="translate(-20190.549 -3506.703)" fill="#a1a1a1"/>
    <path id="Tracciato_628" data-name="Tracciato 628" d="M858.033,627.046c2.434,0,3.362,2.166,3.362,3.91s-.928,3.9-3.362,3.9-3.347-2.152-3.347-3.9.928-3.91,3.347-3.91m4.7,3.91a4.7,4.7,0,1,0-4.7,4.459,4.6,4.6,0,0,0,4.7-4.459M850.4,633.432l-5.4-6.7h-1.983v.3c1.168,0,1.336.225,1.336,1.632v4.571c0,1.407-.169,1.646-1.336,1.646v.3h3.207v-.3c-1.167,0-1.35-.239-1.35-1.646V628.34l5.725,7.075h.323v-6.752c0-1.407.183-1.632,1.351-1.632v-.3h-3.207v.3c1.168,0,1.336.225,1.336,1.632Zm-11.1-1.7h-2.939l1.463-3.39Zm-3.165.52h3.4l.676,1.562c.337.774.07,1.069-1.1,1.069v.3h3.9v-.3c-1.168,0-1.238-.239-1.674-1.224l-3.109-7.16h-.183l-3.094,7.16c-.436.984-.507,1.224-1.688,1.224v.3h3.291v-.3c-1.168,0-1.434-.31-1.1-1.069Zm-2.869,2.926v-.3c-1.168,0-1.336-.239-1.336-1.646v-4.571c0-1.407.169-1.632,1.336-1.632v-.3h-3.8v.3c1.168,0,1.337.225,1.337,1.632v4.571c0,1.407-.169,1.646-1.337,1.646v.3Zm-11.886,0h7.357l.112-1.87h-.3l-.07.281c-.183.745-.338,1.069-1.618,1.069h-1.688c-1.167,0-1.336-.225-1.336-1.632v-4.36c0-1.407.169-1.632,1.336-1.632v-.3h-3.8v.3c1.168,0,1.337.225,1.337,1.632v4.571c0,1.407-.169,1.646-1.337,1.646Zm-3.713-3.446h-2.94l1.463-3.39Zm-3.165.52h3.4l.675,1.562c.337.774.07,1.069-1.1,1.069v.3h3.9v-.3c-1.168,0-1.238-.239-1.674-1.224L816.6,626.5h-.183l-3.095,7.16c-.436.984-.506,1.224-1.688,1.224v.3h3.291v-.3c-1.168,0-1.435-.31-1.1-1.069Zm-1.753-5.514h-8.539l-.126,1.9h.3l.07-.281c.2-.746.338-1.069,1.632-1.069h1.843v5.949c0,1.407-.183,1.646-1.35,1.646v.3h3.812v-.3c-1.168,0-1.35-.239-1.35-1.646v-5.949h1.843c1.294,0,1.434.323,1.632,1.069l.07.281h.3Zm-9.312,8.439v-.3c-1.167,0-1.336-.239-1.336-1.646v-4.571c0-1.407.169-1.632,1.336-1.632v-.3h-3.8v.3c1.168,0,1.336.225,1.336,1.632v4.571c0,1.407-.169,1.646-1.336,1.646v.3Zm-12.193-3.446h-2.94l1.463-3.39Zm-3.165.52h3.4l.675,1.562c.337.774.07,1.069-1.1,1.069v.3h3.9v-.3c-1.167,0-1.238-.239-1.674-1.224l-3.108-7.16H790l-3.095,7.16c-.436.984-.506,1.224-1.688,1.224v.3h3.291v-.3c-1.168,0-1.434-.31-1.1-1.069Zm-1.753-5.514h-8.539l-.126,1.9h.3l.07-.281c.2-.746.338-1.069,1.632-1.069h1.843v5.949c0,1.407-.183,1.646-1.35,1.646v.3h3.811v-.3c-1.168,0-1.35-.239-1.35-1.646v-5.949h1.843c1.294,0,1.434.323,1.632,1.069l.07.281h.3Zm-14.044,8.018a6.266,6.266,0,0,0,2.195.661,2.537,2.537,0,0,0,2.672-2.532,2.354,2.354,0,0,0-1.463-2.138l-1.35-.689c-1.21-.633-1.7-1.013-1.7-1.745A1.283,1.283,0,0,1,774,627.059c1.632,0,2.053,1.336,2.152,2.462h.3v-3.095h-.281a1.2,1.2,0,0,1-.408.647,2.625,2.625,0,0,0-1.716-.576,2.173,2.173,0,0,0-2.335,2.1,2.706,2.706,0,0,0,1.561,2.321l1.351.689c.97.506,1.617,1.055,1.617,1.7a1.617,1.617,0,0,1-1.758,1.547,2.526,2.526,0,0,1-2.6-2.532H771.6v3.095h.281a1.19,1.19,0,0,1,.408-.661m-2.039.422v-.3c-1.168,0-1.337-.239-1.337-1.646v-4.571c0-1.407.169-1.632,1.337-1.632v-.3h-3.8v.3c1.168,0,1.337.225,1.337,1.632v4.571c0,1.407-.169,1.646-1.337,1.646v.3Zm-11.365-7.919h1.364c2.743,0,3.334,2.054,3.334,3.7s-.591,3.7-3.334,3.7h-.056c-1.153,0-1.308-.225-1.308-1.632Zm-2.462,7.919h3.812c3.278,0,4.7-1.9,4.7-4.22s-1.42-4.22-4.7-4.22h-3.812v.3c1.167,0,1.336.225,1.336,1.632v4.571c0,1.407-.169,1.646-1.336,1.646Zm-7.568-7.919h1.364c2.743,0,3.334,2.054,3.334,3.7s-.59,3.7-3.334,3.7h-.056c-1.153,0-1.308-.225-1.308-1.632Zm-2.461,7.919H750.2c3.277,0,4.7-1.9,4.7-4.22s-1.421-4.22-4.7-4.22h-3.812v.3c1.168,0,1.336.225,1.336,1.632v4.571c0,1.407-.169,1.646-1.336,1.646Zm-2.771-6.512v3.446a2.41,2.41,0,0,1-2.588,2.672,2.353,2.353,0,0,1-2.461-2.672v-3.446c0-1.407.168-1.632,1.336-1.632v-.3h-3.8v.3c1.167,0,1.336.225,1.336,1.632v3.376a3.383,3.383,0,0,0,6.766,0v-3.376c0-1.407.182-1.632,1.35-1.632v-.3h-3.291v.3c1.168,0,1.35.225,1.35,1.632m-10.31,1.927a2.063,2.063,0,0,0,1.1-1.745c0-1.167-.928-2.109-2.715-2.109H727.91v.3c1.167,0,1.336.225,1.336,1.632v4.571c0,1.407-.169,1.646-1.336,1.646v.3h4.178c1.955,0,3.024-1.055,3.024-2.363a2.387,2.387,0,0,0-1.8-2.222m-2.94-3.334h1.252a1.583,1.583,0,0,1,0,3.165h-1.252Zm1.7,7.4h-.366c-1.168,0-1.336-.225-1.336-1.632v-2.082h1.7a1.858,1.858,0,0,1,0,3.714" transform="translate(-20190.393 -3499.551)" fill="#a1a1a1"/>
    <path id="Tracciato_629" data-name="Tracciato 629" d="M786.377,606.916c2.433,0,3.362,2.166,3.362,3.911s-.928,3.9-3.362,3.9-3.348-2.152-3.348-3.9.928-3.911,3.348-3.911m4.7,3.911a4.7,4.7,0,1,0-4.7,4.459,4.6,4.6,0,0,0,4.7-4.459m-10.314-4.22h-8.539l-.126,1.9h.3l.07-.282c.2-.745.338-1.069,1.632-1.069h1.842v5.95c0,1.407-.182,1.646-1.35,1.646v.3H778.4v-.3c-1.168,0-1.35-.239-1.35-1.646v-5.95h1.843c1.294,0,1.435.324,1.632,1.069l.07.282h.3Zm-11.014,1.927v3.447a2.411,2.411,0,0,1-2.589,2.672,2.354,2.354,0,0,1-2.462-2.672v-3.447c0-1.406.169-1.631,1.337-1.631v-.3h-3.8v.3c1.167,0,1.336.225,1.336,1.631v3.376a3.383,3.383,0,0,0,6.766,0v-3.376c0-1.406.183-1.631,1.351-1.631v-.3H768.4v.3c1.167,0,1.351.225,1.351,1.631m-8.074-1.927h-8.538l-.127,1.9h.3l.07-.282c.2-.745.338-1.069,1.632-1.069h1.843v5.95c0,1.407-.183,1.646-1.35,1.646v.3h3.812v-.3c-1.167,0-1.35-.239-1.35-1.646v-5.95H759.8c1.294,0,1.435.324,1.632,1.069l.07.282h.3Zm-9.312,8.44v-.3c-1.167,0-1.336-.239-1.336-1.646v-4.572c0-1.406.169-1.631,1.336-1.631v-.3h-3.8v.3c1.168,0,1.336.225,1.336,1.631v4.572c0,1.407-.169,1.646-1.336,1.646v.3Zm-4.571-8.44h-8.538l-.126,1.9h.3l.07-.282c.2-.745.338-1.069,1.632-1.069h1.843v5.95c0,1.407-.183,1.646-1.35,1.646v.3h3.811v-.3c-1.167,0-1.35-.239-1.35-1.646v-5.95h1.843c1.294,0,1.435.324,1.632,1.069l.07.282h.3Zm-14.044,8.018a6.248,6.248,0,0,0,2.195.661,2.537,2.537,0,0,0,2.672-2.532,2.355,2.355,0,0,0-1.463-2.138l-1.35-.689c-1.21-.632-1.7-1.013-1.7-1.744a1.283,1.283,0,0,1,1.364-1.252c1.632,0,2.053,1.336,2.152,2.461h.3V606.3h-.281a1.2,1.2,0,0,1-.408.647,2.624,2.624,0,0,0-1.716-.577,2.173,2.173,0,0,0-2.334,2.1,2.706,2.706,0,0,0,1.561,2.321l1.351.689c.97.507,1.618,1.055,1.618,1.7a1.617,1.617,0,0,1-1.758,1.547,2.526,2.526,0,0,1-2.6-2.532h-.281v3.095h.281a1.2,1.2,0,0,1,.408-.661m-2.039.422v-.3c-1.168,0-1.336-.239-1.336-1.646v-4.572c0-1.406.169-1.631,1.336-1.631v-.3h-3.8v.3c1.167,0,1.336.225,1.336,1.631v4.572c0,1.407-.169,1.646-1.336,1.646v.3Z" transform="translate(-20190.393 -3492.399)" fill="#a1a1a1"/>
    <line id="Linea_21" data-name="Linea 21" y2="34.634" transform="translate(-19468.877 -2885.753)" fill="#fff" stroke="#a1a1a1" stroke-linecap="round" stroke-width="0.575"/>
    <g id="Raggruppa_510" data-name="Raggruppa 510" transform="translate(-19462.066 -2846.3)">
      <path id="Tracciato_630" data-name="Tracciato 630" d="M859.083,671.5a1.393,1.393,0,0,1,1.313-1.376,1.331,1.331,0,0,1,1.289,1.376Zm1.407,2.335a2.084,2.084,0,0,0,1.664-.757l-.374-.337a1.672,1.672,0,0,1-1.275.571,1.412,1.412,0,0,1-1.422-1.369h3.2a1.559,1.559,0,0,0,.008-.195,1.922,1.922,0,0,0-1.883-2.133,1.991,1.991,0,0,0-1.937,2.1v.016a2.006,2.006,0,0,0,2.015,2.1m-6.477-.093h.6v-2.313a1.188,1.188,0,0,1,1.211-1.266,1.077,1.077,0,0,1,1.118,1.219v2.36h.6V671.23A1.474,1.474,0,0,0,856,669.614a1.53,1.53,0,0,0-1.383.788v-.7h-.6Zm-3.087-.445a1.516,1.516,0,0,1-1.493-1.571v-.016a1.492,1.492,0,0,1,1.477-1.564,1.529,1.529,0,0,1,1.5,1.579v.016a1.491,1.491,0,0,1-1.485,1.555m-.016.538a2.1,2.1,0,0,0,2.117-2.109v-.016a2.105,2.105,0,0,0-4.211.016v.016a2.068,2.068,0,0,0,2.093,2.093m-3.742-.093h.6V669.7h-.6Zm-.039-4.923h.687v-.663h-.687Zm-4.493,4.923h3.5v-.508h-2.687l2.687-3.149V669.7h-3.406v.507h2.586l-2.68,3.15Zm-2.868-.39c-.547,0-1.017-.3-1.017-.805v-.016c0-.509.422-.837,1.18-.837a4.223,4.223,0,0,1,1.188.172v.391a1.221,1.221,0,0,1-1.352,1.095m-.117.476a1.772,1.772,0,0,0,1.462-.694v.609h.578V671.27a1.6,1.6,0,0,0-.414-1.18,1.774,1.774,0,0,0-1.305-.445,3.346,3.346,0,0,0-1.469.335l.18.492a2.809,2.809,0,0,1,1.227-.3c.758,0,1.2.375,1.2,1.1v.141a4.3,4.3,0,0,0-1.243-.172c-1.024,0-1.726.452-1.726,1.3v.016a1.359,1.359,0,0,0,1.507,1.258m-3.743.008a2.083,2.083,0,0,0,1.649-.78l-.383-.36a1.667,1.667,0,0,1-1.235.6,1.51,1.51,0,0,1-1.485-1.571v-.016a1.491,1.491,0,0,1,1.445-1.564,1.631,1.631,0,0,1,1.227.61l.4-.422a2.1,2.1,0,0,0-3.688,1.391v.016a2.073,2.073,0,0,0,2.07,2.093m-5.048-.008a1.541,1.541,0,0,0,1.384-.788v.7h.592V669.7h-.592v2.313a1.194,1.194,0,0,1-1.212,1.266,1.077,1.077,0,0,1-1.118-1.219V669.7h-.6v2.509a1.475,1.475,0,0,0,1.547,1.616m-4.766-.538a1.46,1.46,0,0,1-1.423-1.563v-.016a1.427,1.427,0,0,1,1.423-1.556,1.5,1.5,0,0,1,1.461,1.556v.016a1.509,1.509,0,0,1-1.461,1.563m-.11.538a1.816,1.816,0,0,0,1.548-.9v.812h.6v-5.7h-.6v2.437a1.824,1.824,0,0,0-1.548-.858,1.981,1.981,0,0,0-1.93,2.1v.016a1.969,1.969,0,0,0,1.93,2.094m-5.861-2.327a1.394,1.394,0,0,1,1.313-1.376,1.331,1.331,0,0,1,1.29,1.376Zm1.407,2.335a2.084,2.084,0,0,0,1.664-.757l-.374-.337a1.671,1.671,0,0,1-1.274.571,1.413,1.413,0,0,1-1.423-1.369h3.2a1.571,1.571,0,0,0,.008-.195,1.922,1.922,0,0,0-1.882-2.133,1.992,1.992,0,0,0-1.938,2.1v.016a2.007,2.007,0,0,0,2.016,2.1m-3.43-3.79a.96.96,0,0,0,.866-1.071v-.7h-.717v.82h.281c.031.336-.133.539-.524.679Zm-1.719,3.7h.6v-5.7h-.6Zm-6.463-2.242a1.394,1.394,0,0,1,1.313-1.376,1.331,1.331,0,0,1,1.29,1.376Zm1.407,2.335a2.084,2.084,0,0,0,1.664-.757l-.375-.337a1.67,1.67,0,0,1-1.274.571,1.412,1.412,0,0,1-1.423-1.369h3.2a1.571,1.571,0,0,0,.008-.195,1.922,1.922,0,0,0-1.882-2.133,1.992,1.992,0,0,0-1.938,2.1v.016a2.007,2.007,0,0,0,2.016,2.1m-7.111-.483c-.547,0-1.016-.3-1.016-.805v-.016c0-.509.422-.837,1.18-.837a4.227,4.227,0,0,1,1.188.172v.391a1.222,1.222,0,0,1-1.353,1.095m-.117.476a1.772,1.772,0,0,0,1.462-.694v.609h.577V671.27a1.6,1.6,0,0,0-.413-1.18,1.773,1.773,0,0,0-1.305-.445,3.342,3.342,0,0,0-1.469.335l.179.492a2.813,2.813,0,0,1,1.227-.3c.759,0,1.2.375,1.2,1.1v.141a4.3,4.3,0,0,0-1.243-.172c-1.024,0-1.726.452-1.726,1.3v.016a1.359,1.359,0,0,0,1.507,1.258m-4.071-.086h.6v-1.61a1.629,1.629,0,0,1,1.6-1.852h.047v-.647a1.73,1.73,0,0,0-1.649,1.124V669.7h-.6Zm-3.227.086a1.539,1.539,0,0,0,1.384-.788v.7h.593V669.7h-.593v2.313a1.193,1.193,0,0,1-1.212,1.266,1.077,1.077,0,0,1-1.117-1.219V669.7h-.6v2.509a1.474,1.474,0,0,0,1.547,1.616m-3.189-.015a1.515,1.515,0,0,0,.726-.172v-.515a1.268,1.268,0,0,1-.586.141.6.6,0,0,1-.679-.672v-2.36h1.281V669.7h-1.281V668.48h-.6V669.7h-.563v.531h.563v2.438a1.027,1.027,0,0,0,1.14,1.141m-3.249-.07h.6v-5.7h-.6Zm-3.283.086a1.538,1.538,0,0,0,1.383-.788v.7h.593V669.7h-.593v2.313a1.193,1.193,0,0,1-1.211,1.266,1.077,1.077,0,0,1-1.118-1.219V669.7h-.6v2.509a1.475,1.475,0,0,0,1.547,1.616m-4.025.008a2.083,2.083,0,0,0,1.649-.78l-.383-.36a1.667,1.667,0,0,1-1.235.6,1.51,1.51,0,0,1-1.485-1.571v-.016a1.491,1.491,0,0,1,1.445-1.564,1.632,1.632,0,0,1,1.227.61l.4-.422a2.1,2.1,0,0,0-3.687,1.391v.016a2.072,2.072,0,0,0,2.069,2.093m-7.165-.483c-.547,0-1.017-.3-1.017-.805v-.016c0-.509.422-.837,1.181-.837a4.222,4.222,0,0,1,1.188.172v.391a1.221,1.221,0,0,1-1.352,1.095m-.117.476a1.771,1.771,0,0,0,1.462-.694v.609h.578V671.27a1.6,1.6,0,0,0-.414-1.18,1.773,1.773,0,0,0-1.3-.445,3.347,3.347,0,0,0-1.47.335l.18.492a2.809,2.809,0,0,1,1.227-.3c.758,0,1.2.375,1.2,1.1v.141a4.3,4.3,0,0,0-1.243-.172c-1.024,0-1.726.452-1.726,1.3v.016a1.359,1.359,0,0,0,1.507,1.258m-3.1-.086h.6v-5.7h-.6ZM766.2,671.5a1.393,1.393,0,0,1,1.313-1.376,1.331,1.331,0,0,1,1.29,1.376Zm1.407,2.335a2.084,2.084,0,0,0,1.664-.757l-.375-.337a1.67,1.67,0,0,1-1.274.571,1.412,1.412,0,0,1-1.423-1.369h3.2a1.609,1.609,0,0,0,.008-.195,1.922,1.922,0,0,0-1.883-2.133,1.991,1.991,0,0,0-1.937,2.1v.016a2.007,2.007,0,0,0,2.016,2.1m-4.189,0a2.084,2.084,0,0,0,1.649-.78l-.383-.36a1.667,1.667,0,0,1-1.235.6,1.51,1.51,0,0,1-1.485-1.571v-.016a1.491,1.491,0,0,1,1.446-1.564,1.631,1.631,0,0,1,1.227.61l.4-.422a2.1,2.1,0,0,0-3.687,1.391v.016a2.072,2.072,0,0,0,2.07,2.093m-4.922-.483c-.547,0-1.016-.3-1.016-.805v-.016c0-.509.422-.837,1.181-.837a4.228,4.228,0,0,1,1.188.172v.391a1.222,1.222,0,0,1-1.353,1.095m-.117.476a1.773,1.773,0,0,0,1.462-.694v.609h.577V671.27a1.6,1.6,0,0,0-.413-1.18,1.775,1.775,0,0,0-1.305-.445,3.347,3.347,0,0,0-1.469.335l.18.492a2.813,2.813,0,0,1,1.227-.3c.758,0,1.2.375,1.2,1.1v.141a4.306,4.306,0,0,0-1.243-.172c-1.025,0-1.727.452-1.727,1.3v.016a1.359,1.359,0,0,0,1.507,1.258m-4.251-.538a1.5,1.5,0,0,1-1.462-1.563v-.016a1.507,1.507,0,0,1,1.462-1.556,1.456,1.456,0,0,1,1.423,1.563v.016a1.426,1.426,0,0,1-1.423,1.555m-2.039,1.7h.6v-2.023a1.823,1.823,0,0,0,1.548.859,1.977,1.977,0,0,0,1.93-2.1v-.016a1.969,1.969,0,0,0-1.93-2.093,1.817,1.817,0,0,0-1.548.9V669.7h-.6Zm-5.345-1.64c-.547,0-1.016-.3-1.016-.805v-.016c0-.509.422-.837,1.18-.837a4.226,4.226,0,0,1,1.188.172v.391a1.222,1.222,0,0,1-1.353,1.095m-.117.476a1.772,1.772,0,0,0,1.462-.694v.609h.577V671.27a1.6,1.6,0,0,0-.413-1.18,1.774,1.774,0,0,0-1.306-.445,3.341,3.341,0,0,0-1.469.335l.179.492a2.814,2.814,0,0,1,1.227-.3c.759,0,1.2.375,1.2,1.1v.141a4.3,4.3,0,0,0-1.243-.172c-1.024,0-1.727.452-1.727,1.3v.016a1.359,1.359,0,0,0,1.508,1.258m-3.1-.086h.6v-5.7h-.6Zm-5.361,0h.6v-1.61a1.629,1.629,0,0,1,1.6-1.852h.047v-.647a1.728,1.728,0,0,0-1.648,1.124V669.7h-.6ZM734,671.5a1.394,1.394,0,0,1,1.313-1.376,1.331,1.331,0,0,1,1.29,1.376Zm1.408,2.335a2.084,2.084,0,0,0,1.664-.757l-.375-.337a1.67,1.67,0,0,1-1.274.571A1.413,1.413,0,0,1,734,671.941h3.2a1.559,1.559,0,0,0,.008-.195,1.922,1.922,0,0,0-1.883-2.133,1.992,1.992,0,0,0-1.938,2.1v.016a2.007,2.007,0,0,0,2.016,2.1m-4.813-.546a1.5,1.5,0,0,1-1.462-1.563v-.016a1.507,1.507,0,0,1,1.462-1.556,1.455,1.455,0,0,1,1.422,1.563v.016a1.426,1.426,0,0,1-1.422,1.555m-2.039,1.7h.6v-2.023a1.822,1.822,0,0,0,1.547.859,1.977,1.977,0,0,0,1.93-2.1v-.016a1.969,1.969,0,0,0-1.93-2.093,1.817,1.817,0,0,0-1.547.9V669.7h-.6Z" transform="translate(-728.557 -668.034)" fill="#a1a1a1"/>
    </g>
    <g id="Raggruppa_1112" data-name="Raggruppa 1112" transform="translate(-19516 -2889)">
      <g id="Raggruppa_1111" data-name="Raggruppa 1111" clip-path="url(#clip-path)">
        <path id="Tracciato_1759" data-name="Tracciato 1759" d="M30.866,24.633a3.171,3.171,0,0,0,2.885-.855,3.22,3.22,0,0,0,.941-2.381,4.4,4.4,0,0,0,2.272-1.214,4.97,4.97,0,0,0,1.082-5.008,6,6,0,0,0,.325-8.064,5.583,5.583,0,0,0-.518-.529l-.075.1a15.259,15.259,0,0,1-1.727,12.8,16.166,16.166,0,0,1-5.321,4.975Z" transform="translate(-2.278 -0.488)" fill="#a1a1a1"/>
        <path id="Tracciato_1760" data-name="Tracciato 1760" d="M18.974,13.442A3.186,3.186,0,0,1,22.2,9.607,4.419,4.419,0,0,1,23.408,7.33a4.939,4.939,0,0,1,5-1.083,5.947,5.947,0,0,1,8.572.192l-.1.078A15.209,15.209,0,0,0,24.112,8.243a16.041,16.041,0,0,0-4.965,5.335Z" transform="translate(-1.401 -0.335)" fill="#a1a1a1"/>
        <path id="Tracciato_1761" data-name="Tracciato 1761" d="M25.913,30.305a3.165,3.165,0,0,0,2.646,1.439,3.212,3.212,0,0,0,2.34-1.01,4.379,4.379,0,0,0,2.464.75,4.949,4.949,0,0,0,4.3-2.773,5.95,5.95,0,0,0,5.924-6c0-.073,0-.145,0-.219l-.131.017a15.059,15.059,0,0,1-10.246,7.828,16.08,16.08,0,0,1-7.274-.252Z" transform="translate(-1.92 -1.667)" fill="#a1a1a1"/>
        <path id="Tracciato_1762" data-name="Tracciato 1762" d="M25.913,13.951a3.175,3.175,0,0,1,2.646-1.439,3.218,3.218,0,0,1,2.34,1.012,4.412,4.412,0,0,1,2.464-.749,4.949,4.949,0,0,1,4.3,2.774,5.947,5.947,0,0,1,5.924,5.992c0,.074,0,.147,0,.221l-.131-.016a15.053,15.053,0,0,0-10.246-7.829,16.015,16.015,0,0,0-7.274.251Z" transform="translate(-1.92 -0.927)" fill="#a1a1a1"/>
        <path id="Tracciato_1763" data-name="Tracciato 1763" d="M18.974,30.832A3.185,3.185,0,0,0,22.2,34.667a4.39,4.39,0,0,0,1.214,2.276A4.933,4.933,0,0,0,28.4,38.029a5.949,5.949,0,0,0,8.572-.192l-.1-.078a15.219,15.219,0,0,1-12.768-1.73A16.02,16.02,0,0,1,19.143,30.7Z" transform="translate(-1.401 -2.275)" fill="#a1a1a1"/>
        <path id="Tracciato_1764" data-name="Tracciato 1764" d="M30.866,18.912a3.171,3.171,0,0,1,2.885.855,3.217,3.217,0,0,1,.941,2.373,4.417,4.417,0,0,1,2.272,1.217,4.973,4.973,0,0,1,1.082,5.009,6,6,0,0,1,.325,8.064,5.584,5.584,0,0,1-.518.529l-.075-.1a15.259,15.259,0,0,0-1.727-12.8,16.179,16.179,0,0,0-5.321-4.976Z" transform="translate(-2.278 -1.397)" fill="#a1a1a1"/>
        <path id="Tracciato_1765" data-name="Tracciato 1765" d="M13.957,25.867A3.189,3.189,0,0,0,12.9,30.054a3.049,3.049,0,0,0,.628.807,4.453,4.453,0,0,0-.746,2.47A4.957,4.957,0,0,0,15.55,37.64a5.968,5.968,0,0,0,6.2,5.942l-.016-.129A15.407,15.407,0,0,1,13.92,33.182a16.187,16.187,0,0,1,.252-7.29Z" transform="translate(-0.928 -1.917)" fill="#a1a1a1"/>
        <path id="Tracciato_1766" data-name="Tracciato 1766" d="M30.305,25.867a3.186,3.186,0,0,1,1.059,4.182,3.014,3.014,0,0,1-.631.812,4.439,4.439,0,0,1,.746,2.47,4.967,4.967,0,0,1-2.766,4.308,5.97,5.97,0,0,1-6.2,5.942l.019-.129a15.4,15.4,0,0,0,7.809-10.272,16.213,16.213,0,0,0-.249-7.29Z" transform="translate(-1.668 -1.917)" fill="#a1a1a1"/>
        <path id="Tracciato_1767" data-name="Tracciato 1767" d="M13.41,18.912a3.166,3.166,0,0,0-2.882.855,3.23,3.23,0,0,0-.943,2.373,4.419,4.419,0,0,0-2.268,1.217,4.967,4.967,0,0,0-1.084,5.009A6,6,0,0,0,5.9,36.434a5.386,5.386,0,0,0,.513.525l.081-.1a15.245,15.245,0,0,1,1.723-12.8,16.188,16.188,0,0,1,5.321-4.976Z" transform="translate(-0.334 -1.397)" fill="#a1a1a1"/>
        <path id="Tracciato_1768" data-name="Tracciato 1768" d="M24.579,30.832a3.184,3.184,0,0,1-3.221,3.835,4.434,4.434,0,0,1-1.214,2.276,4.935,4.935,0,0,1-4.993,1.086,5.955,5.955,0,0,1-8.577-.192l.1-.078a15.224,15.224,0,0,0,12.772-1.73A16.028,16.028,0,0,0,24.409,30.7Z" transform="translate(-0.487 -2.275)" fill="#a1a1a1"/>
        <path id="Tracciato_1769" data-name="Tracciato 1769" d="M17.674,13.951a3.177,3.177,0,0,0-2.643-1.439,3.22,3.22,0,0,0-2.342,1.012,4.412,4.412,0,0,0-2.462-.748,4.952,4.952,0,0,0-4.3,2.773A5.948,5.948,0,0,0,0,21.541c0,.074,0,.147,0,.221l.128-.016a15.055,15.055,0,0,1,10.249-7.829,16.055,16.055,0,0,1,7.271.251Z" transform="translate(0 -0.927)" fill="#a1a1a1"/>
        <path id="Tracciato_1770" data-name="Tracciato 1770" d="M17.674,30.305a3.169,3.169,0,0,1-2.643,1.439,3.22,3.22,0,0,1-2.342-1.01,4.392,4.392,0,0,1-2.462.75,4.956,4.956,0,0,1-4.3-2.773A5.949,5.949,0,0,1,0,22.717c0-.073,0-.146,0-.22l.128.017a15.059,15.059,0,0,0,10.249,7.828,16.068,16.068,0,0,0,7.271-.252Z" transform="translate(0 -1.667)" fill="#a1a1a1"/>
        <path id="Tracciato_1771" data-name="Tracciato 1771" d="M24.579,13.442a3.186,3.186,0,0,0-3.221-3.836A4.44,4.44,0,0,0,20.144,7.33a4.938,4.938,0,0,0-5-1.083,5.951,5.951,0,0,0-8.576.192l.1.078A15.217,15.217,0,0,1,19.448,8.243a16.049,16.049,0,0,1,4.961,5.335Z" transform="translate(-0.487 -0.335)" fill="#a1a1a1"/>
        <path id="Tracciato_1772" data-name="Tracciato 1772" d="M13.41,24.633a3.166,3.166,0,0,1-2.882-.855A3.238,3.238,0,0,1,9.584,21.4a4.388,4.388,0,0,1-2.268-1.214,4.965,4.965,0,0,1-1.084-5.008A6,6,0,0,1,5.9,7.11a5.427,5.427,0,0,1,.515-.527l.081.1a15.255,15.255,0,0,0,1.723,12.8,16.175,16.175,0,0,0,5.321,4.975Z" transform="translate(-0.334 -0.488)" fill="#a1a1a1"/>
        <path id="Tracciato_1773" data-name="Tracciato 1773" d="M30.305,17.714a3.189,3.189,0,0,0,1.057-4.187,3,3,0,0,0-.629-.81,4.427,4.427,0,0,0,.746-2.467,4.959,4.959,0,0,0-2.766-4.308A5.968,5.968,0,0,0,22.51,0l.019.128A15.4,15.4,0,0,1,30.337,10.4a16.218,16.218,0,0,1-.249,7.291Z" transform="translate(-1.668)" fill="#a1a1a1"/>
        <path id="Tracciato_1774" data-name="Tracciato 1774" d="M13.957,17.714a3.191,3.191,0,0,1-1.054-4.19,3.034,3.034,0,0,1,.628-.807,4.433,4.433,0,0,1-.748-2.467,4.966,4.966,0,0,1,2.767-4.308A5.967,5.967,0,0,1,21.748,0l-.016.128A15.394,15.394,0,0,0,13.921,10.4a16.191,16.191,0,0,0,.252,7.291Z" transform="translate(-0.928)" fill="#a1a1a1"/>
      </g>
    </g>
  </g>
</svg>
