<svg xmlns="http://www.w3.org/2000/svg" xmlns:xlink="http://www.w3.org/1999/xlink" width="235.399" height="62.063" viewBox="0 0 235.399 62.063">
  <defs>
    <clipPath id="clip-path">
      <rect id="Rettangolo_733" data-name="Rettangolo 733" width="52.076" height="52.076" fill="none"/>
    </clipPath>
  </defs>
  <g id="Raggruppa_1110" data-name="Raggruppa 1110" transform="translate(19516 2889)">
    <path id="Tracciato_627" data-name="Tracciato 627" d="M845.343,657.493v-.37c-1.459,0-1.67-.3-1.67-2.056v-5.714c0-1.758.211-2.039,1.67-2.039v-.369H840.6v.369c1.459,0,1.67.281,1.67,2.039v5.714c0,1.758-.211,2.056-1.67,2.056v.37Zm-9.388-4.308h-3.674l1.828-4.237Zm-3.956.65h4.255l.844,1.952c.422.967.088,1.336-1.371,1.336v.37h4.87v-.37c-1.459,0-1.547-.3-2.093-1.529l-3.885-8.948h-.229l-3.868,8.948c-.545,1.231-.633,1.529-2.109,1.529v.37h4.113v-.37c-1.458,0-1.793-.387-1.371-1.336Zm-10.548-2.461,3.076-2.637a4.24,4.24,0,0,1,3.217-1.424v-.369h-4.078v.369c1.107,0,1.037.475-.071,1.424l-3.6,3.077v-2.461c0-1.758.211-2.039,1.67-2.039v-.369h-4.746v.369c1.459,0,1.67.281,1.67,2.039v5.714c0,1.758-.21,2.056-1.67,2.056v.37h4.746v-.37c-1.458,0-1.67-.3-1.67-2.056v-2.444l.457-.369,4.448,3.85c.7.6.492,1.019-.668,1.019v.37h4.94v-.37A4.7,4.7,0,0,1,826.9,656.1Zm-12.834,0,3.076-2.637a4.242,4.242,0,0,1,3.218-1.424v-.369h-4.079v.369c1.108,0,1.037.475-.07,1.424l-3.6,3.077v-2.461c0-1.758.211-2.039,1.67-2.039v-.369h-4.747v.369c1.459,0,1.671.281,1.671,2.039v5.714c0,1.758-.211,2.056-1.671,2.056v.37h4.747v-.37c-1.459,0-1.67-.3-1.67-2.056v-2.444l.458-.369,4.447,3.85c.7.6.492,1.019-.668,1.019v.37h4.94v-.37a4.693,4.693,0,0,1-2.268-1.019Zm-9.177,1.811h-3.674l1.828-4.237Zm-3.956.65h4.255l.844,1.952c.422.967.088,1.336-1.372,1.336v.37h4.87v-.37c-1.459,0-1.547-.3-2.093-1.529l-3.885-8.948h-.229l-3.868,8.948c-.545,1.231-.632,1.529-2.11,1.529v.37h4.114v-.37c-1.459,0-1.793-.387-1.37-1.336Zm-5.732.791c0,1.582-1.371,2.409-2.9,2.409-3.252,0-4.166-2.637-4.166-4.817s1.019-4.887,3.832-4.887c1.969,0,3.34,1.389,3.815,3.675h.352v-3.868h-.352a1.812,1.812,0,0,1-.6,1,4.484,4.484,0,0,0-3.271-1.495,5.576,5.576,0,0,0,0,11.146c1.829,0,2.62-.914,4.571-.914v-1.336c0-1.758.211-2.057,1.67-2.057v-.351H788.1v.351c1.213,0,1.652.387,1.652,1.143M770,653.185h-3.674l1.828-4.237Zm-3.956.65h4.255l.844,1.952c.422.967.089,1.336-1.371,1.336v.37h4.869v-.37c-1.459,0-1.547-.3-2.092-1.529l-3.886-8.948h-.229l-3.867,8.948c-.546,1.231-.633,1.529-2.11,1.529v.37h4.114v-.37c-1.459,0-1.794-.387-1.371-1.336Zm-10.548-2.461,3.077-2.637a4.241,4.241,0,0,1,3.218-1.424v-.369h-4.079v.369c1.108,0,1.037.475-.07,1.424l-3.6,3.077v-2.461c0-1.758.211-2.039,1.67-2.039v-.369h-4.747v.369c1.459,0,1.671.281,1.671,2.039v5.714c0,1.758-.211,2.056-1.671,2.056v.37H755.7v-.37c-1.459,0-1.67-.3-1.67-2.056v-2.444l.457-.369,4.448,3.85c.7.6.493,1.019-.668,1.019v.37h4.94v-.37a4.693,4.693,0,0,1-2.268-1.019Zm-12.306-4.044c3.041,0,4.2,2.708,4.2,4.887s-1.16,4.87-4.2,4.87c-3.024,0-4.185-2.69-4.185-4.87s1.16-4.887,4.185-4.887m5.872,4.887a5.871,5.871,0,1,0-5.872,5.573,5.746,5.746,0,0,0,5.872-5.573m-19.849,4.747a7.81,7.81,0,0,0,2.743.826,3.171,3.171,0,0,0,3.34-3.164,2.943,2.943,0,0,0-1.828-2.672l-1.688-.861c-1.512-.791-2.128-1.266-2.128-2.18a1.6,1.6,0,0,1,1.706-1.565c2.039,0,2.566,1.67,2.69,3.076h.369v-3.868h-.351a1.5,1.5,0,0,1-.51.809,3.284,3.284,0,0,0-2.145-.721,2.716,2.716,0,0,0-2.919,2.62,3.384,3.384,0,0,0,1.952,2.9l1.688.861c1.213.632,2.022,1.318,2.022,2.127a2.021,2.021,0,0,1-2.2,1.934,3.157,3.157,0,0,1-3.253-3.164h-.351v3.867h.351a1.485,1.485,0,0,1,.51-.826" transform="translate(-20177.105 -3499.493)" fill="#f8f8f8"/>
    <path id="Tracciato_628" data-name="Tracciato 628" d="M890.549,627.2c3.042,0,4.2,2.707,4.2,4.887s-1.16,4.87-4.2,4.87c-3.023,0-4.184-2.69-4.184-4.87s1.16-4.887,4.184-4.887m5.872,4.887a5.871,5.871,0,1,0-5.872,5.573,5.746,5.746,0,0,0,5.872-5.573m-15.41,3.094-6.751-8.368h-2.479v.369c1.459,0,1.67.281,1.67,2.039v5.713c0,1.758-.211,2.057-1.67,2.057v.369h4.008v-.369c-1.459,0-1.687-.3-1.687-2.057v-6.118l7.156,8.843h.4v-8.439c0-1.758.229-2.039,1.688-2.039v-.369H879.34v.369c1.459,0,1.67.281,1.67,2.039Zm-13.871-2.127h-3.674l1.828-4.237Zm-3.956.65h4.255l.844,1.952c.422.967.088,1.336-1.371,1.336v.369h4.87v-.369c-1.459,0-1.547-.3-2.092-1.53l-3.886-8.949h-.228l-3.868,8.949c-.546,1.23-.633,1.53-2.11,1.53v.369h4.114v-.369c-1.459,0-1.793-.387-1.371-1.336Zm-3.586,3.657v-.369c-1.459,0-1.671-.3-1.671-2.057v-5.713c0-1.758.211-2.039,1.671-2.039v-.369h-4.747v.369c1.459,0,1.671.281,1.671,2.039v5.713c0,1.758-.211,2.057-1.671,2.057v.369Zm-14.856,0h9.2l.14-2.338h-.369l-.088.351c-.229.932-.422,1.336-2.022,1.336h-2.11c-1.459,0-1.67-.281-1.67-2.04v-5.45c0-1.758.211-2.039,1.67-2.039v-.369h-4.747v.369c1.459,0,1.671.281,1.671,2.039v5.713c0,1.758-.211,2.057-1.671,2.057Zm-4.641-4.307h-3.674l1.828-4.237Zm-3.956.65H840.4l.844,1.952c.422.967.088,1.336-1.371,1.336v.369h4.87v-.369c-1.459,0-1.547-.3-2.093-1.53l-3.885-8.949h-.229l-3.868,8.949c-.545,1.23-.633,1.53-2.11,1.53v.369h4.114v-.369c-1.459,0-1.793-.387-1.372-1.336Zm-2.191-6.891H823.282l-.158,2.373h.369l.088-.352c.246-.932.422-1.336,2.04-1.336h2.3v7.436c0,1.758-.229,2.057-1.687,2.057v.369H831v-.369c-1.459,0-1.687-.3-1.687-2.057V627.5h2.3c1.617,0,1.793.4,2.039,1.336l.088.352h.369Zm-11.638,10.548v-.369c-1.459,0-1.67-.3-1.67-2.057v-5.713c0-1.758.211-2.039,1.67-2.039v-.369h-4.747v.369c1.46,0,1.67.281,1.67,2.039v5.713c0,1.758-.211,2.057-1.67,2.057v.369Zm-15.24-4.307H803.4l1.828-4.237Zm-3.956.65h4.255l.844,1.952c.422.967.088,1.336-1.371,1.336v.369h4.87v-.369c-1.459,0-1.547-.3-2.093-1.53l-3.885-8.949h-.229l-3.868,8.949c-.545,1.23-.632,1.53-2.109,1.53v.369h4.114v-.369c-1.459,0-1.793-.387-1.371-1.336Zm-2.191-6.891H790.257l-.158,2.373h.369l.088-.352c.247-.932.422-1.336,2.04-1.336h2.3v7.436c0,1.758-.229,2.057-1.687,2.057v.369h4.764v-.369c-1.459,0-1.687-.3-1.687-2.057V627.5h2.3c1.617,0,1.793.4,2.039,1.336l.088.352h.369Zm-17.553,10.021a7.831,7.831,0,0,0,2.743.826,3.171,3.171,0,0,0,3.34-3.164,2.943,2.943,0,0,0-1.828-2.672l-1.687-.861c-1.513-.792-2.127-1.266-2.127-2.181a1.6,1.6,0,0,1,1.705-1.565c2.039,0,2.566,1.67,2.69,3.077h.369v-3.868h-.351a1.5,1.5,0,0,1-.51.808,3.281,3.281,0,0,0-2.145-.72,2.716,2.716,0,0,0-2.918,2.62,3.383,3.383,0,0,0,1.951,2.9l1.688.862c1.213.633,2.022,1.318,2.022,2.127a2.021,2.021,0,0,1-2.2,1.933,3.157,3.157,0,0,1-3.253-3.165h-.351v3.868h.351a1.489,1.489,0,0,1,.51-.826m-2.549.527v-.369c-1.459,0-1.671-.3-1.671-2.057v-5.713c0-1.758.211-2.039,1.671-2.039v-.369h-4.747v.369c1.459,0,1.671.281,1.671,2.039v5.713c0,1.758-.211,2.057-1.671,2.057v.369Zm-14.2-9.9h1.705c3.428,0,4.167,2.567,4.167,4.624s-.739,4.624-4.167,4.624h-.07c-1.442,0-1.635-.281-1.635-2.04Zm-3.077,9.9h4.764c4.1,0,5.872-2.373,5.872-5.274s-1.775-5.274-5.872-5.274h-4.764v.369c1.458,0,1.67.281,1.67,2.039v5.713c0,1.758-.211,2.057-1.67,2.057Zm-9.459-9.9h1.705c3.429,0,4.167,2.567,4.167,4.624s-.738,4.624-4.167,4.624h-.07c-1.442,0-1.635-.281-1.635-2.04Zm-3.077,9.9h4.765c4.1,0,5.872-2.373,5.872-5.274s-1.776-5.274-5.872-5.274h-4.765v.369c1.459,0,1.67.281,1.67,2.039v5.713c0,1.758-.211,2.057-1.67,2.057Zm-3.463-8.14v4.307a3.013,3.013,0,0,1-3.235,3.34c-1.758,0-3.077-1.055-3.077-3.34v-4.307c0-1.758.21-2.039,1.67-2.039v-.369H738.16v.369c1.459,0,1.67.281,1.67,2.039v4.219a4.229,4.229,0,0,0,8.457,0v-4.219c0-1.758.228-2.039,1.687-2.039v-.369H745.86v.369c1.459,0,1.688.281,1.688,2.039m-12.886,2.409a2.579,2.579,0,0,0,1.371-2.181c0-1.459-1.16-2.637-3.393-2.637H727.91v.369c1.459,0,1.67.281,1.67,2.039v5.713c0,1.758-.211,2.057-1.67,2.057v.369h5.222c2.443,0,3.78-1.318,3.78-2.953a2.984,2.984,0,0,0-2.25-2.778m-3.675-4.167h1.565a1.978,1.978,0,0,1,0,3.956h-1.565Zm2.127,9.248h-.457c-1.459,0-1.67-.281-1.67-2.04v-2.6h2.127a2.322,2.322,0,0,1,0,4.641" transform="translate(-20177.021 -3495.584)" fill="#f8f8f8"/>
    <path id="Tracciato_629" data-name="Tracciato 629" d="M800.987,607.071c3.041,0,4.2,2.708,4.2,4.888s-1.16,4.87-4.2,4.87c-3.024,0-4.184-2.69-4.184-4.87s1.16-4.888,4.184-4.888m5.872,4.888a5.871,5.871,0,1,0-5.872,5.573,5.746,5.746,0,0,0,5.872-5.573m-12.891-5.275H783.3l-.158,2.374h.369l.088-.352c.246-.932.422-1.336,2.04-1.336h2.3v7.437c0,1.758-.228,2.057-1.687,2.057v.369h4.764v-.369c-1.459,0-1.687-.3-1.687-2.057V607.37h2.3c1.617,0,1.793.4,2.04,1.336l.088.352h.369ZM780.2,609.092V613.4a3.013,3.013,0,0,1-3.235,3.34c-1.757,0-3.077-1.055-3.077-3.34v-4.308c0-1.757.211-2.039,1.671-2.039v-.37h-4.747v.37c1.459,0,1.67.281,1.67,2.039v4.22a4.228,4.228,0,0,0,8.456,0v-4.22c0-1.757.229-2.039,1.688-2.039v-.37h-4.114v.37c1.459,0,1.688.281,1.688,2.039m-10.091-2.409H759.439l-.159,2.374h.369l.088-.352c.247-.932.422-1.336,2.04-1.336h2.3v7.437c0,1.758-.228,2.057-1.687,2.057v.369h4.764v-.369c-1.459,0-1.687-.3-1.687-2.057V607.37h2.3c1.617,0,1.793.4,2.039,1.336l.088.352h.369Zm-11.639,10.549v-.369c-1.459,0-1.67-.3-1.67-2.057v-5.714c0-1.757.211-2.039,1.67-2.039v-.37h-4.747v.37c1.459,0,1.67.281,1.67,2.039v5.714c0,1.758-.211,2.057-1.67,2.057v.369Zm-5.713-10.549H742.087l-.158,2.374h.369l.088-.352c.246-.932.422-1.336,2.039-1.336h2.3v7.437c0,1.758-.229,2.057-1.687,2.057v.369H749.8v-.369c-1.459,0-1.687-.3-1.687-2.057V607.37h2.3c1.617,0,1.793.4,2.04,1.336l.088.352h.369ZM735.206,616.7a7.81,7.81,0,0,0,2.743.827,3.171,3.171,0,0,0,3.34-3.164,2.944,2.944,0,0,0-1.828-2.673l-1.687-.861c-1.512-.791-2.127-1.266-2.127-2.18a1.6,1.6,0,0,1,1.705-1.565c2.039,0,2.567,1.67,2.69,3.077h.369V606.3h-.351a1.5,1.5,0,0,1-.51.809,3.28,3.28,0,0,0-2.145-.721,2.716,2.716,0,0,0-2.918,2.62,3.382,3.382,0,0,0,1.951,2.9l1.688.861c1.213.633,2.022,1.319,2.022,2.127a2.021,2.021,0,0,1-2.2,1.934,3.157,3.157,0,0,1-3.253-3.165h-.352v3.868h.352a1.494,1.494,0,0,1,.51-.827m-2.549.528v-.369c-1.459,0-1.67-.3-1.67-2.057v-5.714c0-1.757.211-2.039,1.67-2.039v-.37H727.91v.37c1.459,0,1.67.281,1.67,2.039v5.714c0,1.758-.211,2.057-1.67,2.057v.369Z" transform="translate(-20177.021 -3491.675)" fill="#f8f8f8"/>
    <line id="Linea_21" data-name="Linea 21" y2="43.288" transform="translate(-19457.102 -2884.942)" fill="#fff" stroke="#f8f8f8" stroke-linecap="round" stroke-width="0.575"/>
    <g id="Raggruppa_510" data-name="Raggruppa 510" transform="translate(-19448.588 -2835.63)">
      <path id="Tracciato_630" data-name="Tracciato 630" d="M891.7,672.362a1.741,1.741,0,0,1,1.642-1.72,1.663,1.663,0,0,1,1.612,1.72Zm1.758,2.919a2.605,2.605,0,0,0,2.08-.946l-.467-.421a2.09,2.09,0,0,1-1.593.714,1.764,1.764,0,0,1-1.778-1.711h4a1.948,1.948,0,0,0,.01-.243,2.4,2.4,0,0,0-2.353-2.666,2.489,2.489,0,0,0-2.421,2.626v.02a2.508,2.508,0,0,0,2.519,2.627m-8.1-.117h.751v-2.891a1.485,1.485,0,0,1,1.514-1.582,1.346,1.346,0,0,1,1.4,1.523v2.95h.751v-3.135a1.842,1.842,0,0,0-1.933-2.02,1.912,1.912,0,0,0-1.729.985v-.878h-.751Zm-3.858-.556a1.9,1.9,0,0,1-1.866-1.964v-.019a1.865,1.865,0,0,1,1.846-1.954,1.911,1.911,0,0,1,1.876,1.974v.02a1.863,1.863,0,0,1-1.856,1.944m-.02.673a2.62,2.62,0,0,0,2.646-2.636v-.019a2.631,2.631,0,0,0-5.263.019v.02a2.585,2.585,0,0,0,2.617,2.617m-4.677-.117h.751v-5.048h-.751Zm-.049-6.153h.858v-.829h-.858Zm-5.616,6.153h4.374v-.634h-3.358l3.358-3.936v-.478h-4.257v.633h3.232l-3.349,3.937Zm-3.585-.487c-.684,0-1.271-.371-1.271-1.006v-.019c0-.636.528-1.046,1.475-1.046a5.275,5.275,0,0,1,1.485.215v.488a1.526,1.526,0,0,1-1.69,1.368m-.147.595a2.215,2.215,0,0,0,1.827-.868v.761h.722v-3.085a2,2,0,0,0-.517-1.476,2.217,2.217,0,0,0-1.631-.556,4.183,4.183,0,0,0-1.836.419l.225.616a3.51,3.51,0,0,1,1.533-.371c.948,0,1.5.469,1.5,1.378v.176a5.379,5.379,0,0,0-1.554-.214c-1.28,0-2.157.565-2.157,1.629v.02a1.7,1.7,0,0,0,1.884,1.572m-4.679.01a2.6,2.6,0,0,0,2.061-.975l-.479-.45a2.084,2.084,0,0,1-1.543.752,1.887,1.887,0,0,1-1.856-1.964v-.019a1.864,1.864,0,0,1,1.807-1.954,2.039,2.039,0,0,1,1.534.762l.5-.528a2.631,2.631,0,0,0-4.609,1.739v.02a2.59,2.59,0,0,0,2.588,2.617m-6.309-.01a1.925,1.925,0,0,0,1.73-.985v.878h.741v-5.048h-.741v2.89a1.492,1.492,0,0,1-1.515,1.583,1.346,1.346,0,0,1-1.4-1.524v-2.949h-.751v3.135a1.843,1.843,0,0,0,1.933,2.02m-5.957-.673a1.825,1.825,0,0,1-1.779-1.954v-.019a1.784,1.784,0,0,1,1.779-1.945,1.877,1.877,0,0,1,1.827,1.945v.019a1.886,1.886,0,0,1-1.827,1.954m-.137.673a2.27,2.27,0,0,0,1.935-1.122v1.015h.751v-7.129h-.751v3.046a2.28,2.28,0,0,0-1.935-1.072,2.476,2.476,0,0,0-2.412,2.625v.02a2.461,2.461,0,0,0,2.412,2.617M843,672.362a1.742,1.742,0,0,1,1.641-1.72,1.664,1.664,0,0,1,1.612,1.72Zm1.759,2.919a2.6,2.6,0,0,0,2.08-.946l-.468-.421a2.089,2.089,0,0,1-1.592.714A1.766,1.766,0,0,1,843,672.917h4a1.96,1.96,0,0,0,.01-.243,2.4,2.4,0,0,0-2.353-2.666,2.489,2.489,0,0,0-2.422,2.626v.02a2.508,2.508,0,0,0,2.52,2.627m-4.287-4.737a1.2,1.2,0,0,0,1.082-1.338v-.878h-.9v1.024h.351c.039.42-.166.674-.654.849Zm-2.149,4.62h.751v-7.13h-.751Zm-8.078-2.8a1.742,1.742,0,0,1,1.641-1.72,1.664,1.664,0,0,1,1.612,1.72Zm1.759,2.919a2.6,2.6,0,0,0,2.08-.946l-.468-.421a2.088,2.088,0,0,1-1.592.714,1.765,1.765,0,0,1-1.778-1.711h4a1.948,1.948,0,0,0,.01-.243,2.4,2.4,0,0,0-2.353-2.666,2.489,2.489,0,0,0-2.422,2.626v.02a2.509,2.509,0,0,0,2.52,2.627m-8.888-.6c-.684,0-1.27-.371-1.27-1.006v-.019c0-.636.528-1.046,1.475-1.046a5.281,5.281,0,0,1,1.485.215v.488a1.527,1.527,0,0,1-1.691,1.368m-.147.595a2.215,2.215,0,0,0,1.827-.868v.761h.721v-3.085A2,2,0,0,0,825,670.6a2.217,2.217,0,0,0-1.632-.556,4.177,4.177,0,0,0-1.836.419l.224.616a3.516,3.516,0,0,1,1.534-.371c.948,0,1.505.469,1.505,1.378v.176a5.384,5.384,0,0,0-1.554-.214c-1.28,0-2.158.565-2.158,1.629v.02a1.7,1.7,0,0,0,1.884,1.572m-5.088-.107h.751v-2.012a2.036,2.036,0,0,1,2-2.315h.059v-.809a2.162,2.162,0,0,0-2.061,1.405v-1.318h-.751Zm-4.034.107a1.923,1.923,0,0,0,1.729-.985v.878h.741v-5.048h-.741v2.89a1.491,1.491,0,0,1-1.515,1.583,1.346,1.346,0,0,1-1.4-1.524v-2.949h-.751v3.135a1.843,1.843,0,0,0,1.933,2.02m-3.986-.019a1.894,1.894,0,0,0,.908-.214v-.644a1.586,1.586,0,0,1-.733.176.747.747,0,0,1-.849-.84v-2.95h1.6v-.663h-1.6v-1.524h-.751v1.524h-.7v.663h.7v3.048a1.284,1.284,0,0,0,1.425,1.426m-4.061-.088h.751v-7.13H805.8Zm-4.1.107a1.923,1.923,0,0,0,1.729-.985v.878h.742v-5.048h-.742v2.89a1.491,1.491,0,0,1-1.514,1.583,1.346,1.346,0,0,1-1.4-1.524v-2.949h-.751v3.135a1.843,1.843,0,0,0,1.933,2.02m-5.031.01a2.6,2.6,0,0,0,2.062-.975l-.479-.45a2.084,2.084,0,0,1-1.543.752,1.887,1.887,0,0,1-1.856-1.964v-.019a1.864,1.864,0,0,1,1.807-1.954,2.039,2.039,0,0,1,1.534.762l.5-.528a2.63,2.63,0,0,0-4.609,1.739v.02a2.59,2.59,0,0,0,2.586,2.617m-8.955-.6c-.684,0-1.271-.371-1.271-1.006v-.019c0-.636.528-1.046,1.476-1.046a5.274,5.274,0,0,1,1.485.215v.488a1.526,1.526,0,0,1-1.69,1.368m-.147.595a2.214,2.214,0,0,0,1.827-.868v.761h.722v-3.085a1.994,1.994,0,0,0-.517-1.476,2.216,2.216,0,0,0-1.631-.556,4.183,4.183,0,0,0-1.837.419l.225.616a3.511,3.511,0,0,1,1.533-.371c.948,0,1.5.469,1.5,1.378v.176a5.375,5.375,0,0,0-1.554-.214c-1.28,0-2.157.565-2.157,1.629v.02a1.7,1.7,0,0,0,1.884,1.572m-3.877-.107h.751v-7.13h-.751Zm-8.078-2.8a1.742,1.742,0,0,1,1.641-1.72,1.664,1.664,0,0,1,1.613,1.72Zm1.759,2.919a2.605,2.605,0,0,0,2.08-.946l-.468-.421a2.088,2.088,0,0,1-1.592.714,1.765,1.765,0,0,1-1.778-1.711h4a2.01,2.01,0,0,0,.009-.243,2.4,2.4,0,0,0-2.354-2.666,2.489,2.489,0,0,0-2.422,2.626v.02a2.509,2.509,0,0,0,2.52,2.627m-5.236,0a2.6,2.6,0,0,0,2.061-.975l-.479-.45a2.084,2.084,0,0,1-1.543.752,1.887,1.887,0,0,1-1.856-1.964v-.019a1.863,1.863,0,0,1,1.807-1.954,2.039,2.039,0,0,1,1.533.762l.5-.528a2.63,2.63,0,0,0-4.609,1.739v.02a2.59,2.59,0,0,0,2.587,2.617m-6.152-.6c-.684,0-1.27-.371-1.27-1.006v-.019c0-.636.527-1.046,1.476-1.046a5.281,5.281,0,0,1,1.485.215v.488a1.527,1.527,0,0,1-1.691,1.368m-.147.595a2.216,2.216,0,0,0,1.828-.868v.761h.721v-3.085a2,2,0,0,0-.517-1.476,2.218,2.218,0,0,0-1.632-.556,4.183,4.183,0,0,0-1.836.419l.225.616a3.516,3.516,0,0,1,1.533-.371c.948,0,1.505.469,1.505,1.378v.176a5.386,5.386,0,0,0-1.554-.214c-1.281,0-2.158.565-2.158,1.629v.02a1.7,1.7,0,0,0,1.884,1.572m-5.313-.673a1.879,1.879,0,0,1-1.827-1.953v-.019a1.884,1.884,0,0,1,1.827-1.945,1.819,1.819,0,0,1,1.778,1.954v.02a1.783,1.783,0,0,1-1.778,1.944m-2.549,2.128h.751V674.2a2.279,2.279,0,0,0,1.935,1.073,2.471,2.471,0,0,0,2.412-2.627v-.019a2.461,2.461,0,0,0-2.412-2.616,2.271,2.271,0,0,0-1.935,1.122v-1.014h-.751Zm-6.681-2.05c-.684,0-1.27-.371-1.27-1.006v-.019c0-.636.528-1.046,1.476-1.046a5.279,5.279,0,0,1,1.485.215v.488a1.527,1.527,0,0,1-1.691,1.368m-.146.595a2.215,2.215,0,0,0,1.827-.868v.761h.721v-3.085a2,2,0,0,0-.517-1.476,2.217,2.217,0,0,0-1.632-.556,4.175,4.175,0,0,0-1.836.419l.224.616a3.518,3.518,0,0,1,1.534-.371c.948,0,1.505.469,1.505,1.378v.176a5.383,5.383,0,0,0-1.554-.214c-1.28,0-2.158.565-2.158,1.629v.02a1.7,1.7,0,0,0,1.884,1.572m-3.876-.107h.751v-7.13h-.751Zm-6.7,0h.751v-2.012a2.036,2.036,0,0,1,2-2.315h.059v-.809a2.16,2.16,0,0,0-2.06,1.405v-1.318h-.751Zm-5.207-2.8a1.742,1.742,0,0,1,1.641-1.72,1.664,1.664,0,0,1,1.612,1.72Zm1.759,2.919a2.6,2.6,0,0,0,2.08-.946l-.468-.421a2.088,2.088,0,0,1-1.592.714,1.766,1.766,0,0,1-1.778-1.711h4a1.936,1.936,0,0,0,.01-.243,2.4,2.4,0,0,0-2.353-2.666,2.489,2.489,0,0,0-2.422,2.626v.02a2.509,2.509,0,0,0,2.52,2.627m-6.016-.682a1.88,1.88,0,0,1-1.828-1.953v-.019a1.884,1.884,0,0,1,1.828-1.945,1.819,1.819,0,0,1,1.778,1.954v.02a1.782,1.782,0,0,1-1.778,1.944m-2.549,2.128h.751V674.2a2.277,2.277,0,0,0,1.934,1.073,2.47,2.47,0,0,0,2.412-2.627v-.019a2.461,2.461,0,0,0-2.412-2.616,2.271,2.271,0,0,0-1.934,1.122v-1.014h-.751Z" transform="translate(-728.557 -668.034)" fill="#f8f8f8"/>
    </g>
    <g id="Raggruppa_1112" data-name="Raggruppa 1112" transform="translate(-19516 -2889)">
      <g id="Raggruppa_1111" data-name="Raggruppa 1111" clip-path="url(#clip-path)">
        <path id="Tracciato_1759" data-name="Tracciato 1759" d="M30.9,29.144a3.964,3.964,0,0,0,3.606-1.068A4.025,4.025,0,0,0,35.682,25.1a5.493,5.493,0,0,0,2.84-1.517,6.212,6.212,0,0,0,1.353-6.26,7.5,7.5,0,0,0,.406-10.079,6.978,6.978,0,0,0-.647-.661l-.094.124a19.072,19.072,0,0,1-2.158,16,20.206,20.206,0,0,1-6.651,6.218Z" transform="translate(4.833 1.035)" fill="#f8f8f8"/>
        <path id="Tracciato_1760" data-name="Tracciato 1760" d="M18.99,15.673a3.982,3.982,0,0,1,4.028-4.794,5.523,5.523,0,0,1,1.514-2.846,6.173,6.173,0,0,1,6.25-1.354,7.433,7.433,0,0,1,10.714.24l-.126.1A19.009,19.009,0,0,0,25.412,9.174a20.05,20.05,0,0,0-6.205,6.668Z" transform="translate(2.973 0.71)" fill="#f8f8f8"/>
        <path id="Tracciato_1761" data-name="Tracciato 1761" d="M25.913,32.256a3.956,3.956,0,0,0,3.307,1.8,4.015,4.015,0,0,0,2.924-1.263,5.474,5.474,0,0,0,3.079.937,6.186,6.186,0,0,0,5.37-3.466A7.437,7.437,0,0,0,48,22.77c0-.091,0-.182,0-.273l-.164.021A18.822,18.822,0,0,1,35.031,32.3a20.1,20.1,0,0,1-9.091-.315Z" transform="translate(4.075 3.538)" fill="#f8f8f8"/>
        <path id="Tracciato_1762" data-name="Tracciato 1762" d="M25.913,14.31a3.969,3.969,0,0,1,3.307-1.8,4.022,4.022,0,0,1,2.924,1.265,5.514,5.514,0,0,1,3.079-.936,6.185,6.185,0,0,1,5.37,3.467A7.434,7.434,0,0,1,48,23.8c0,.093,0,.184,0,.277l-.164-.02a18.815,18.815,0,0,0-12.806-9.786,20.017,20.017,0,0,0-9.091.314Z" transform="translate(4.075 1.968)" fill="#f8f8f8"/>
        <path id="Tracciato_1763" data-name="Tracciato 1763" d="M18.99,30.866a3.98,3.98,0,0,0,4.028,4.793A5.487,5.487,0,0,0,24.536,38.5a6.165,6.165,0,0,0,6.242,1.357,7.435,7.435,0,0,0,10.714-.24l-.126-.1a19.023,19.023,0,0,1-15.959-2.162A20.024,20.024,0,0,1,19.2,30.7Z" transform="translate(2.973 4.828)" fill="#f8f8f8"/>
        <path id="Tracciato_1764" data-name="Tracciato 1764" d="M30.9,18.93A3.964,3.964,0,0,1,34.506,20a4.021,4.021,0,0,1,1.176,2.966,5.52,5.52,0,0,1,2.84,1.521,6.216,6.216,0,0,1,1.353,6.261,7.5,7.5,0,0,1,.406,10.08,6.98,6.98,0,0,1-.647.661l-.094-.124a19.072,19.072,0,0,0-2.158-16,20.221,20.221,0,0,0-6.651-6.219Z" transform="translate(4.833 2.963)" fill="#f8f8f8"/>
        <path id="Tracciato_1765" data-name="Tracciato 1765" d="M14.316,25.867A3.986,3.986,0,0,0,13,31.1a3.811,3.811,0,0,0,.785,1.009,5.566,5.566,0,0,0-.933,3.088,6.2,6.2,0,0,0,3.456,5.385,7.459,7.459,0,0,0,7.747,7.427l-.02-.161a19.257,19.257,0,0,1-9.764-12.839,20.232,20.232,0,0,1,.315-9.112Z" transform="translate(1.969 4.068)" fill="#f8f8f8"/>
        <path id="Tracciato_1766" data-name="Tracciato 1766" d="M32.253,25.867a3.982,3.982,0,0,1,1.324,5.227,3.767,3.767,0,0,1-.788,1.015,5.548,5.548,0,0,1,.933,3.088,6.208,6.208,0,0,1-3.457,5.385,7.461,7.461,0,0,1-7.755,7.427l.023-.161a19.253,19.253,0,0,0,9.76-12.839,20.265,20.265,0,0,0-.311-9.112Z" transform="translate(3.54 4.068)" fill="#f8f8f8"/>
        <path id="Tracciato_1767" data-name="Tracciato 1767" d="M15.636,18.93A3.957,3.957,0,0,0,12.033,20a4.038,4.038,0,0,0-1.179,2.966,5.524,5.524,0,0,0-2.835,1.521,6.209,6.209,0,0,0-1.355,6.261A7.5,7.5,0,0,0,6.255,40.83a6.732,6.732,0,0,0,.641.656l.1-.124a19.054,19.054,0,0,1,2.154-16A20.233,20.233,0,0,1,15.8,19.143Z" transform="translate(0.708 2.963)" fill="#f8f8f8"/>
        <path id="Tracciato_1768" data-name="Tracciato 1768" d="M29.078,30.866a3.98,3.98,0,0,1-4.026,4.793A5.542,5.542,0,0,1,23.535,38.5a6.168,6.168,0,0,1-6.241,1.357,7.443,7.443,0,0,1-10.721-.24l.13-.1a19.029,19.029,0,0,0,15.963-2.162,20.033,20.033,0,0,0,6.2-6.663Z" transform="translate(1.034 4.828)" fill="#f8f8f8"/>
        <path id="Tracciato_1769" data-name="Tracciato 1769" d="M22.091,14.31a3.97,3.97,0,0,0-3.3-1.8,4.025,4.025,0,0,0-2.928,1.265,5.515,5.515,0,0,0-3.077-.935,6.19,6.19,0,0,0-5.374,3.466A7.434,7.434,0,0,0,0,23.8c0,.093,0,.184,0,.277l.16-.02a18.818,18.818,0,0,1,12.81-9.786,20.067,20.067,0,0,1,9.088.314Z" transform="translate(0 1.968)" fill="#f8f8f8"/>
        <path id="Tracciato_1770" data-name="Tracciato 1770" d="M22.091,32.256a3.96,3.96,0,0,1-3.3,1.8,4.024,4.024,0,0,1-2.928-1.263,5.49,5.49,0,0,1-3.077.937,6.194,6.194,0,0,1-5.374-3.466A7.436,7.436,0,0,1,0,22.772c0-.091,0-.183,0-.275l.16.021A18.822,18.822,0,0,0,12.97,32.3a20.083,20.083,0,0,0,9.088-.315Z" transform="translate(0 3.538)" fill="#f8f8f8"/>
        <path id="Tracciato_1771" data-name="Tracciato 1771" d="M29.078,15.673a3.982,3.982,0,0,0-4.026-4.794,5.55,5.55,0,0,0-1.517-2.846,6.172,6.172,0,0,0-6.243-1.354,7.439,7.439,0,0,0-10.718.24l.13.1A19.02,19.02,0,0,1,22.666,9.174a20.06,20.06,0,0,1,6.2,6.668Z" transform="translate(1.034 0.71)" fill="#f8f8f8"/>
        <path id="Tracciato_1772" data-name="Tracciato 1772" d="M15.636,29.144a3.957,3.957,0,0,1-3.6-1.068A4.048,4.048,0,0,1,10.854,25.1a5.484,5.484,0,0,1-2.835-1.517,6.206,6.206,0,0,1-1.355-6.26A7.5,7.5,0,0,1,6.253,7.241,6.783,6.783,0,0,1,6.9,6.583l.1.124a19.068,19.068,0,0,0,2.154,16A20.217,20.217,0,0,0,15.8,28.925Z" transform="translate(0.708 1.035)" fill="#f8f8f8"/>
        <path id="Tracciato_1773" data-name="Tracciato 1773" d="M32.253,22.141a3.986,3.986,0,0,0,1.322-5.233,3.749,3.749,0,0,0-.786-1.013,5.533,5.533,0,0,0,.933-3.083,6.2,6.2,0,0,0-3.457-5.385A7.46,7.46,0,0,0,22.51,0l.023.16A19.242,19.242,0,0,1,32.293,13a20.27,20.27,0,0,1-.311,9.113Z" transform="translate(3.54)" fill="#f8f8f8"/>
        <path id="Tracciato_1774" data-name="Tracciato 1774" d="M14.316,22.141A3.988,3.988,0,0,1,13,16.9a3.793,3.793,0,0,1,.785-1.009,5.541,5.541,0,0,1-.935-3.083,6.207,6.207,0,0,1,3.459-5.385A7.458,7.458,0,0,1,24.054,0l-.02.16A19.241,19.241,0,0,0,14.271,13a20.237,20.237,0,0,0,.315,9.113Z" transform="translate(1.969)" fill="#f8f8f8"/>
      </g>
    </g>
  </g>
</svg>
