<svg id="Raggruppa_1133" data-name="Raggruppa 1133" xmlns="http://www.w3.org/2000/svg" width="150.03" height="26.622" viewBox="0 0 150.03 26.622">
  <path id="Linea_1" data-name="Linea 1" d="M0,0V26.621" transform="translate(54.917 0)" fill="#a1a1a1"/>
  <path id="Linea_1_-_Contorno" data-name="Linea 1 - Contorno" d="M.144,26.621H-.1V0H.144Z" transform="translate(54.895 0)" fill="#a1a1a1"/>
  <g id="Raggruppa_35" data-name="Raggruppa 35" transform="translate(0 0.155)">
    <path id="Tracciato_192" data-name="Tracciato 192" d="M667.217,453.612h-2.733s-.177.265,0,.353,2.733.176,2.733,2.38v9.785l-15.777-12.87c-.44-.353-.531-.176-.531.088v25.475h0v.088H659.9s.176-.265,0-.353-2.645-.441-2.645-1.939v-10.4l15.779,12.959c.44.353.531.265.531-.088V453.612Z" transform="translate(-650.91 -453.062)" fill="#a1a1a1"/>
    <path id="Tracciato_193" data-name="Tracciato 193" d="M711.7,478.793c-.176-.088-1.851,0-2.292-.8L705.619,472a8.692,8.692,0,0,0,4.584-8.11c0-5.554-3.791-9.873-10.578-9.873H687.284s-.176.265,0,.353,2.733.353,2.733,2.38v9.787h0v12.6h6.7v-5.727h2.554l3.526,5.73H711.7s.176-.265,0-.353m-12.431-10.754H696.8v-8.286h2.466c3,0,4.143,1.763,4.143,4.143s-1.058,4.143-4.143,4.143" transform="translate(-663.132 -453.385)" fill="#a1a1a1"/>
  </g>
  <g id="Raggruppa_36" data-name="Raggruppa 36" transform="translate(61.704 2.997)">
    <path id="Tracciato_194" data-name="Tracciato 194" d="M830.237,478.671a1.92,1.92,0,0,1-1.809,2.025c-.043,0-.087,0-.13,0a1.975,1.975,0,0,1-1.94-2.008v-.019h0a1.92,1.92,0,0,1,1.809-2.024c.044,0,.087,0,.13,0a1.876,1.876,0,0,1,1.945,1.8A1.934,1.934,0,0,1,830.237,478.671Zm2.028-.088h0a3.967,3.967,0,0,0-7.933,0h0a3.8,3.8,0,0,0,3.816,3.794c.05,0,.1,0,.15,0a3.753,3.753,0,0,0,3.96-3.534q.008-.128.006-.257m-8.9,3.35v-1.673a1.874,1.874,0,0,1-1.058.265.648.648,0,0,1-.705-.587.707.707,0,0,1,0-.118v-3.176h1.763V474.88H821.6v-1.851h-2.116v1.851H818.6v1.763h.881v3.438c0,1.675.882,2.2,2.116,2.2a2.641,2.641,0,0,0,1.763-.353m-5.9.353v-4.76c0-1.675-.882-2.733-2.468-2.733a2.456,2.456,0,0,0-2.116,1.146V474.88h-2.116V482.2h2.116v-4.055c0-.97.531-1.5,1.322-1.5s1.234.531,1.234,1.5V482.2h2.028Zm-10.313-4.231h-3.179c.176-.97.705-1.587,1.587-1.587s1.41.617,1.587,1.587m2.028.8h0c0-2.116-1.146-3.967-3.614-3.967a3.67,3.67,0,0,0-3.615,3.724c0,.022,0,.044,0,.067h0a3.822,3.822,0,0,0,6.787,2.38l-1.231-1.06a2.491,2.491,0,0,1-1.763.8,1.658,1.658,0,0,1-1.763-1.41h5.113a1.308,1.308,0,0,0,.088-.531m-8.639,3.438v-4.762c0-1.763-.97-2.733-2.468-2.733a3.1,3.1,0,0,0-2.38,1.146,2.23,2.23,0,0,0-2.028-1.146,2.74,2.74,0,0,0-2.2,1.146V474.88h-2.116V482.2h2.116v-4.055c0-.97.441-1.5,1.234-1.5s1.234.531,1.234,1.5V482.2h2.116v-4.055c0-.97.441-1.5,1.234-1.5s1.234.531,1.234,1.5V482.2h2.028ZM787.4,474.97h-2.116v7.315H787.4Zm-3.614,6.082-1.234-1.234a2.5,2.5,0,0,1-1.675.8,1.852,1.852,0,0,1-1.86-1.843c0-.062,0-.123.009-.185h0a1.892,1.892,0,0,1,1.746-2.026h.017a2.335,2.335,0,0,1,1.675.8l1.234-1.41a3.6,3.6,0,0,0-2.909-1.234,3.838,3.838,0,0,0-3.882,3.785h0a3.709,3.709,0,0,0,3.624,3.791c.056,0,.111,0,.167,0a3.2,3.2,0,0,0,3.085-1.234m-7.93-1.057h0c0-1.41-1.234-1.851-2.2-2.2-.8-.265-1.5-.441-1.5-.882h0c0-.265.265-.531.8-.531a4.65,4.65,0,0,1,2.028.705l.8-1.41a5.038,5.038,0,0,0-2.733-.882c-1.5,0-2.645.8-2.645,2.292h0c0,1.41,1.146,1.939,2.2,2.2.8.265,1.5.441,1.5.881h0c0,.353-.265.531-.881.531a3.762,3.762,0,0,1-2.292-.882l-.881,1.41a5.02,5.02,0,0,0,3.173,1.146,2.338,2.338,0,0,0,2.644-2.38m-9.079-.353c0,.8-.617,1.322-1.587,1.322-.705,0-1.146-.353-1.146-.881h0c0-.617.531-.97,1.41-.97a2.954,2.954,0,0,1,1.322.265Zm1.939,2.645v-4.232c0-2.028-.969-3.173-3.261-3.173a6.38,6.38,0,0,0-2.821.617l.531,1.587a5.247,5.247,0,0,1,2.028-.441q1.587,0,1.587,1.323v.088a5.32,5.32,0,0,0-1.763-.265c-1.763,0-3,.705-3,2.38h0a2.281,2.281,0,0,0,2.556,2.2,2.732,2.732,0,0,0,2.2-.97v.8h1.939Zm-8.11,0v-4.76c0-1.675-.881-2.733-2.468-2.733a2.457,2.457,0,0,0-2.116,1.146V474.88H753.9V482.2h2.116v-4.055c0-.97.531-1.5,1.322-1.5s1.234.531,1.234,1.5V482.2H760.6Zm-8.644-7.317h-2.119v7.317h2.116ZM748.435,477v-2.2a2.313,2.313,0,0,0-2.38,1.587v-1.5h-2.116V482.2h2.116v-2.645c0-1.763.881-2.556,2.2-2.556Z" transform="translate(-743.939 -462.627)" fill="#a1a1a1"/>
    <path id="Tracciato_195" data-name="Tracciato 195" d="M810.713,462.283a4.063,4.063,0,0,1-8.11.5,4.186,4.186,0,0,1,0-.5h0a4.063,4.063,0,0,1,8.11-.5A4.124,4.124,0,0,1,810.713,462.283Zm.8,0h0a4.78,4.78,0,0,0-4.62-4.934l-.14,0a4.909,4.909,0,0,0-4.848,4.936h0a4.781,4.781,0,0,0,4.62,4.934l.14,0a4.852,4.852,0,0,0,4.849-4.856c0-.027,0-.053,0-.08m-10.754-4.76h-.8l-3.791,8.815-3.791-8.815h-.8l4.231,9.608h.617Zm-10.843,4.76a4.063,4.063,0,0,1-8.11.5,4.11,4.11,0,0,1,0-.5h0a4.063,4.063,0,0,1,8.11-.5A4.124,4.124,0,0,1,789.912,462.283Zm.8,0h0a4.78,4.78,0,0,0-4.62-4.934l-.14,0A4.849,4.849,0,0,0,781.1,462.2c0,.029,0,.058,0,.088h0a4.781,4.781,0,0,0,4.62,4.934l.14,0a4.852,4.852,0,0,0,4.849-4.856c0-.027,0-.053,0-.08m-11.9.705v-5.465h-.71v5.554c0,2.292-1.234,3.526-3.173,3.526-2.028,0-3.261-1.323-3.261-3.526v-5.553h-.705v5.554c0,2.645,1.587,4.143,3.966,4.143,2.2,0,3.879-1.41,3.879-4.231m-10.578,4.055v-9.52h-.705V465.9l-6.612-8.374H760.2v9.608h.705v-8.55l6.787,8.55h.531Zm-14.194,0v-.617h-5.641v-8.9h-.705v9.608h6.347Zm-9.255-9.52h-.705v9.608h.705Z" transform="translate(-743.984 -457.347)" fill="#a1a1a1"/>
  </g>
</svg>
