<svg id="Raggruppa_655" data-name="Raggruppa 655" xmlns="http://www.w3.org/2000/svg" width="200.117" height="35.509" viewBox="0 0 200.117 35.509">
  <path id="Linea_1" data-name="Linea 1" d="M0,0V35.509" transform="translate(73.251 0)" fill="#f8f8f8"/>
  <path id="Linea_1_-_Contorno" data-name="Linea 1 - Contorno" d="M.225,35.509H-.1V0H.225Z" transform="translate(73.188 0)" fill="#f8f8f8"/>
  <g id="Raggruppa_35" data-name="Raggruppa 35" transform="translate(0 0.207)">
    <path id="Tracciato_192" data-name="Tracciato 192" d="M672.661,453.8h-3.645s-.235.354,0,.471,3.645.235,3.645,3.174v13.051l-21.044-17.166c-.587-.471-.708-.235-.708.118v33.98h0v.118H662.9s.235-.354,0-.471-3.527-.588-3.527-2.587V470.609l21.047,17.285c.588.471.708.354.708-.118V453.8Z" transform="translate(-650.91 -453.062)" fill="#f8f8f8"/>
    <path id="Tracciato_193" data-name="Tracciato 193" d="M719.879,487.063c-.235-.118-2.469,0-3.057-1.062l-5.056-8c4-2.116,6.114-6,6.114-10.817,0-7.408-5.056-13.169-14.109-13.169H687.311s-.235.354,0,.471,3.645.471,3.645,3.174V470.72h0v16.81h8.936v-7.639H703.3l4.7,7.643h11.878s.235-.354,0-.471M703.3,472.718h-3.289V461.667H703.3c4,0,5.526,2.352,5.526,5.526s-1.411,5.526-5.526,5.526" transform="translate(-655.095 -453.173)" fill="#f8f8f8"/>
  </g>
  <g id="Raggruppa_36" data-name="Raggruppa 36" transform="translate(82.304 3.998)">
    <path id="Tracciato_194" data-name="Tracciato 194" d="M859.047,480.554a2.561,2.561,0,0,1-2.413,2.7c-.058,0-.116,0-.173,0a2.634,2.634,0,0,1-2.588-2.679v-.026h0a2.561,2.561,0,0,1,2.414-2.7c.058,0,.116,0,.173,0a2.5,2.5,0,0,1,2.594,2.406A2.544,2.544,0,0,1,859.047,480.554Zm2.7-.118h0a5.291,5.291,0,0,0-10.582,0h0a5.075,5.075,0,0,0,5.091,5.061c.066,0,.134,0,.2,0a5.006,5.006,0,0,0,5.283-4.714q.011-.171.008-.342M849.875,484.9v-2.232a2.5,2.5,0,0,1-1.411.354.865.865,0,0,1-.941-.783.944.944,0,0,1,0-.158V477.85h2.352V475.5h-2.352v-2.469H844.7V475.5h-1.176v2.352H844.7v4.585c0,2.234,1.176,2.94,2.822,2.94a3.523,3.523,0,0,0,2.352-.471m-7.874.471v-6.35c0-2.234-1.176-3.645-3.292-3.645a3.276,3.276,0,0,0-2.822,1.529V475.5h-2.822v9.759h2.822v-5.409c0-1.293.708-2,1.763-2s1.646.708,1.646,2v5.408H842Zm-13.756-5.644h-4.24c.235-1.293.94-2.116,2.116-2.116s1.881.823,2.116,2.116m2.7,1.062h0c0-2.822-1.529-5.292-4.821-5.292a4.9,4.9,0,0,0-4.822,4.967c0,.03,0,.059,0,.089h0a5.1,5.1,0,0,0,9.053,3.174l-1.642-1.414a3.323,3.323,0,0,1-2.352,1.062,2.211,2.211,0,0,1-2.352-1.881h6.819a1.741,1.741,0,0,0,.118-.708m-11.523,4.586v-6.351c0-2.352-1.293-3.645-3.292-3.645a4.134,4.134,0,0,0-3.174,1.529,2.974,2.974,0,0,0-2.7-1.529,3.655,3.655,0,0,0-2.94,1.529V475.5H804.49v9.759h2.822v-5.409c0-1.293.588-2,1.646-2s1.646.708,1.646,2v5.408h2.822v-5.408c0-1.293.588-2,1.646-2s1.646.708,1.646,2v5.408h2.7Zm-17.517-9.759h-2.822v9.758h2.822Zm-4.821,8.113-1.647-1.646a3.337,3.337,0,0,1-2.234,1.062,2.47,2.47,0,0,1-2.481-2.458c0-.082,0-.164.012-.247h0a2.524,2.524,0,0,1,2.329-2.7l.022,0a3.114,3.114,0,0,1,2.234,1.062l1.647-1.881a4.8,4.8,0,0,0-3.88-1.646,5.12,5.12,0,0,0-5.178,5.048h0a4.947,4.947,0,0,0,4.834,5.056c.074,0,.148,0,.222,0a4.268,4.268,0,0,0,4.115-1.647m-10.578-1.41h0c0-1.881-1.646-2.469-2.939-2.94-1.062-.354-2-.588-2-1.176h0c0-.354.354-.708,1.062-.708a6.2,6.2,0,0,1,2.7.94l1.062-1.881a6.721,6.721,0,0,0-3.645-1.176c-2,0-3.527,1.062-3.527,3.057h0c0,1.881,1.529,2.587,2.939,2.94,1.062.354,2,.588,2,1.176h0c0,.471-.354.708-1.176.708a5.018,5.018,0,0,1-3.057-1.176l-1.176,1.881a6.7,6.7,0,0,0,4.233,1.529c1.881,0,3.527-.94,3.527-3.174m-12.111-.471c0,1.062-.823,1.764-2.116,1.764-.94,0-1.529-.471-1.529-1.176h0c0-.823.708-1.293,1.881-1.293a3.94,3.94,0,0,1,1.763.354Zm2.587,3.527v-5.645c0-2.7-1.293-4.232-4.35-4.232a8.511,8.511,0,0,0-3.762.823l.708,2.116a7,7,0,0,1,2.7-.588q2.117,0,2.116,1.764v.118a7.1,7.1,0,0,0-2.352-.354c-2.352,0-4,.94-4,3.174h0c0,1.881,1.529,2.94,3.41,2.94A3.644,3.644,0,0,0,774.4,484.2v1.062h2.587Zm-10.817,0v-6.35c0-2.234-1.176-3.645-3.292-3.645a3.277,3.277,0,0,0-2.822,1.529V475.5h-2.822v9.759h2.822v-5.409c0-1.293.708-2,1.763-2s1.646.708,1.646,2v5.408h2.7Zm-11.53-9.759h-2.826v9.759h2.822Zm-4.7,2.7v-2.94a3.086,3.086,0,0,0-3.174,2.116v-2h-2.822v9.759h2.822V481.73c0-2.352,1.176-3.41,2.939-3.41Z" transform="translate(-743.939 -459.155)" fill="#f8f8f8"/>
    <path id="Tracciato_195" data-name="Tracciato 195" d="M832.961,463.931a5.419,5.419,0,0,1-10.817.664,5.56,5.56,0,0,1,0-.664h0a5.419,5.419,0,0,1,10.817-.664A5.494,5.494,0,0,1,832.961,463.931Zm1.062,0h0a6.376,6.376,0,0,0-6.163-6.581l-.187,0a6.547,6.547,0,0,0-6.466,6.584h0a6.377,6.377,0,0,0,6.163,6.581l.187,0a6.472,6.472,0,0,0,6.467-6.478c0-.036,0-.071,0-.106m-14.345-6.35h-1.062l-5.056,11.758L808.5,457.581h-1.062l5.644,12.816h.823Zm-14.462,6.35a5.419,5.419,0,0,1-10.817.664,5.51,5.51,0,0,1,0-.664h0a5.419,5.419,0,0,1,10.817-.664A5.52,5.52,0,0,1,805.215,463.931Zm1.062,0h0a6.376,6.376,0,0,0-6.163-6.581l-.187,0a6.468,6.468,0,0,0-6.467,6.467c0,.039,0,.078,0,.117h0a6.376,6.376,0,0,0,6.163,6.581l.187,0a6.472,6.472,0,0,0,6.467-6.478c0-.036,0-.071,0-.106m-15.873.94v-7.29h-.947v7.408c0,3.057-1.647,4.7-4.232,4.7-2.7,0-4.35-1.764-4.35-4.7v-7.407h-.941v7.408c0,3.527,2.116,5.526,5.291,5.526,2.939,0,5.174-1.881,5.174-5.644m-14.109,5.408v-12.7h-.941v11.17l-8.82-11.17h-.941V470.4h.941v-11.4l9.053,11.4h.708Zm-18.933,0v-.823h-7.524V457.582h-.94V470.4h8.466Zm-12.344-12.7h-.94V470.4h.94Z" transform="translate(-743.954 -457.347)" fill="#f8f8f8"/>
  </g>
</svg>
