<svg id="Raggruppa_1136" data-name="Raggruppa 1136" xmlns="http://www.w3.org/2000/svg" xmlns:xlink="http://www.w3.org/1999/xlink" width="76.034" height="65.995" viewBox="0 0 76.034 65.995">
  <defs>
    <clipPath id="clip-path">
      <rect id="Rettangolo_342" data-name="Rettangolo 342" width="76.034" height="65.995" fill="#a1a1a1"/>
    </clipPath>
  </defs>
  <g id="Raggruppa_854" data-name="Raggruppa 854" clip-path="url(#clip-path)">
    <path id="Tracciato_1713" data-name="Tracciato 1713" d="M151.882,22.155a4.715,4.715,0,0,0,2.177-.481,5.1,5.1,0,0,0,1.606-1.278,5.4,5.4,0,0,0,1-1.793,6.34,6.34,0,0,0,.346-2.045,3.485,3.485,0,0,0-.87-2.465,3.121,3.121,0,0,0-2.41-.94,4.688,4.688,0,0,0-2.073.464,4.92,4.92,0,0,0-1.606,1.217,6,6,0,0,0-1.4,3.9,3.438,3.438,0,0,0,.9,2.5,3.1,3.1,0,0,0,2.333.927m-1.3-4.83a6.662,6.662,0,0,1,.519-1.677,3.455,3.455,0,0,1,1.1-1.439,2.333,2.333,0,0,1,1.354-.442,1.451,1.451,0,0,1,1.26.615,3.192,3.192,0,0,1,.437,1.846,9.289,9.289,0,0,1-.2,1.928,6.722,6.722,0,0,1-.571,1.668,3.673,3.673,0,0,1-.97,1.23,2.109,2.109,0,0,1-1.368.485,1.454,1.454,0,0,1-1.294-.637,3.373,3.373,0,0,1-.428-1.876,9.753,9.753,0,0,1,.164-1.7" transform="translate(-123.217 -10.902)" fill="#a1a1a1"/>
    <path id="Tracciato_1714" data-name="Tracciato 1714" d="M206.571,9.107q-.043.225-.069.4a2.6,2.6,0,0,0-.026.377,1.2,1.2,0,0,0,.381.956,1.8,1.8,0,0,0,1.2.333,4.226,4.226,0,0,0,1.264-.169q.537-.169,1.143-.4l.147-.632a2.97,2.97,0,0,1-.632.143,4.919,4.919,0,0,1-.632.056,1.278,1.278,0,0,1-.861-.221.908.908,0,0,1-.238-.7,3.223,3.223,0,0,1,.052-.524q.052-.307.13-.636l1.117-4.769h2.39l.181-.788h-2.41L210.3,0h-1.557l-.6,2.536h-1.58l-.182.788h1.548Z" transform="translate(-171.059 -0.001)" fill="#a1a1a1"/>
    <path id="Tracciato_1715" data-name="Tracciato 1715" d="M242.538,9.107q-.044.225-.069.4a2.631,2.631,0,0,0-.026.377,1.2,1.2,0,0,0,.381.956,1.8,1.8,0,0,0,1.2.333,4.228,4.228,0,0,0,1.264-.169q.536-.169,1.143-.4l.147-.632a2.971,2.971,0,0,1-.632.143,4.918,4.918,0,0,1-.632.056,1.278,1.278,0,0,1-.862-.221.908.908,0,0,1-.238-.7,3.2,3.2,0,0,1,.052-.524q.052-.307.13-.636l1.117-4.769h2.39l.181-.788h-2.41L246.262,0h-1.557l-.6,2.536h-1.581l-.182.788h1.548Z" transform="translate(-200.872 -0.001)" fill="#a1a1a1"/>
    <path id="Tracciato_1716" data-name="Tracciato 1716" d="M279.461,22.155a4.715,4.715,0,0,0,2.177-.481,5.1,5.1,0,0,0,1.606-1.278,5.4,5.4,0,0,0,1-1.793,6.348,6.348,0,0,0,.346-2.045,3.485,3.485,0,0,0-.87-2.465,3.122,3.122,0,0,0-2.411-.94,4.688,4.688,0,0,0-2.073.464,4.92,4.92,0,0,0-1.606,1.217,5.994,5.994,0,0,0-1.4,3.9,3.439,3.439,0,0,0,.9,2.5,3.1,3.1,0,0,0,2.333.927m-1.3-4.83a6.666,6.666,0,0,1,.519-1.677,3.457,3.457,0,0,1,1.095-1.439,2.334,2.334,0,0,1,1.355-.442,1.45,1.45,0,0,1,1.259.615,3.191,3.191,0,0,1,.437,1.846,9.282,9.282,0,0,1-.2,1.928,6.711,6.711,0,0,1-.571,1.668,3.676,3.676,0,0,1-.97,1.23,2.109,2.109,0,0,1-1.368.485,1.454,1.454,0,0,1-1.294-.637A3.373,3.373,0,0,1,278,19.027a9.748,9.748,0,0,1,.164-1.7" transform="translate(-228.966 -10.902)" fill="#a1a1a1"/>
    <path id="Tracciato_1717" data-name="Tracciato 1717" d="M266.363,93.025a1.27,1.27,0,0,0,.32-.861,1.1,1.1,0,0,0-.312-.775,1.053,1.053,0,0,0-.805-.333.993.993,0,0,0-.762.355,1.2,1.2,0,0,0-.32.831,1.153,1.153,0,0,0,.32.8,1,1,0,0,0,.762.351,1.013,1.013,0,0,0,.8-.368" transform="translate(-219.229 -75.475)" fill="#a1a1a1"/>
    <path id="Tracciato_1718" data-name="Tracciato 1718" d="M251.16,119.685l-.914,3.683q-.078.33-.113.546a2.645,2.645,0,0,0-.035.416,1.23,1.23,0,0,0,.346.888,1.379,1.379,0,0,0,1.039.36,3.287,3.287,0,0,0,.814-.126,11.481,11.481,0,0,0,1.272-.446l.13-.554a2.374,2.374,0,0,1-.47.1,3.621,3.621,0,0,1-.47.043,1.115,1.115,0,0,1-.712-.182.846.846,0,0,1-.22-.676,2.84,2.84,0,0,1,.065-.533q.065-.325.15-.663l.92-3.683a4.471,4.471,0,0,0,.1-.537,3.613,3.613,0,0,0,.034-.425,1.268,1.268,0,0,0-.32-.91,1.363,1.363,0,0,0-1.03-.338,3.422,3.422,0,0,0-.848.147,8.522,8.522,0,0,0-1.211.45l-.13.554q.164-.043.479-.1a2.836,2.836,0,0,1,.505-.061.95.95,0,0,1,.652.16.938.938,0,0,1,.16.645,3.3,3.3,0,0,1-.065.589q-.065.347-.134.65" transform="translate(-206.859 -96.692)" fill="#a1a1a1"/>
    <path id="Tracciato_1719" data-name="Tracciato 1719" d="M283.526,99.989l2.42-10.422-.087-.13-3.22.19-.121.528q.287.035.565.061a1.55,1.55,0,0,1,.461.1.657.657,0,0,1,.3.255.921.921,0,0,1,.1.481,1.309,1.309,0,0,1-.021.26q-.022.1-.082.373l-2.11,9.121q-.069.329-.108.546a2.345,2.345,0,0,0-.039.416,1.207,1.207,0,0,0,.359.888,1.425,1.425,0,0,0,1.052.36,3.2,3.2,0,0,0,.948-.13q.42-.13,1.2-.441l.13-.554a2.678,2.678,0,0,1-.514.1,4.456,4.456,0,0,1-.514.043,1.118,1.118,0,0,1-.713-.182.842.842,0,0,1-.22-.675,2.723,2.723,0,0,1,.069-.537q.069-.329.148-.658" transform="translate(-233.401 -74.133)" fill="#a1a1a1"/>
    <path id="Tracciato_1720" data-name="Tracciato 1720" d="M312.061,90.155q.287.035.565.061a1.55,1.55,0,0,1,.461.1.657.657,0,0,1,.3.255.92.92,0,0,1,.1.481,1.307,1.307,0,0,1-.022.26q-.022.1-.082.373l-2.11,9.121q-.069.329-.108.546a2.336,2.336,0,0,0-.039.416,1.206,1.206,0,0,0,.359.888,1.425,1.425,0,0,0,1.052.36,3.2,3.2,0,0,0,.948-.13q.42-.13,1.2-.441l.13-.554a2.68,2.68,0,0,1-.514.1,4.454,4.454,0,0,1-.514.043,1.119,1.119,0,0,1-.713-.182.843.843,0,0,1-.22-.675,2.734,2.734,0,0,1,.069-.537q.07-.329.148-.658l2.42-10.422-.087-.13-3.22.19Z" transform="translate(-257.889 -74.133)" fill="#a1a1a1"/>
    <path id="Tracciato_1721" data-name="Tracciato 1721" d="M342.4,125.638a4.093,4.093,0,0,0,2.156-.632,5.427,5.427,0,0,0,1.731-1.688l-.493-.364a5.313,5.313,0,0,1-1.3,1.29,2.729,2.729,0,0,1-1.528.433,1.7,1.7,0,0,1-1.484-.723,3.626,3.626,0,0,1-.507-2.09q1-.121,1.818-.3a12.711,12.711,0,0,0,1.627-.477,3.9,3.9,0,0,0,1.675-1.049,2.319,2.319,0,0,0,.576-1.578,1.621,1.621,0,0,0-.6-1.3,2.824,2.824,0,0,0-1.848-.507,4.316,4.316,0,0,0-2.056.494,4.937,4.937,0,0,0-1.571,1.3,6.038,6.038,0,0,0-1,1.815,6.353,6.353,0,0,0-.342,2.084,3.411,3.411,0,0,0,.809,2.435,3.065,3.065,0,0,0,2.341.858m-.264-7.23a2.455,2.455,0,0,1,1.917-1.14,2.4,2.4,0,0,1,.355.026.8.8,0,0,1,.329.13.7.7,0,0,1,.242.289,1.226,1.226,0,0,1,.1.531,2.642,2.642,0,0,1-.351,1.387,2.594,2.594,0,0,1-1.069.954,5.019,5.019,0,0,1-1.264.419q-.762.16-1.368.246a5.87,5.87,0,0,1,1.112-2.841" transform="translate(-281.201 -96.692)" fill="#a1a1a1"/>
    <path id="Tracciato_1722" data-name="Tracciato 1722" d="M171.78,71.943a3.912,3.912,0,0,0-1.245,1.03,4.788,4.788,0,0,0-.792,1.438,5.029,5.029,0,0,0-.271,1.651,2.7,2.7,0,0,0,.641,1.929,2.429,2.429,0,0,0,1.855.68,3.241,3.241,0,0,0,1.708-.5,4.3,4.3,0,0,0,1.372-1.337l-.391-.288a4.209,4.209,0,0,1-1.032,1.022,2.162,2.162,0,0,1-1.21.343,1.344,1.344,0,0,1-1.176-.573,2.87,2.87,0,0,1-.4-1.656q.788-.1,1.44-.24a10.059,10.059,0,0,0,1.289-.378,3.091,3.091,0,0,0,1.327-.831,1.837,1.837,0,0,0,.456-1.25,1.284,1.284,0,0,0-.477-1.027,2.237,2.237,0,0,0-1.464-.4,3.419,3.419,0,0,0-1.629.391m2.041.219a.555.555,0,0,1,.192.229.974.974,0,0,1,.075.421,2.092,2.092,0,0,1-.278,1.1,2.055,2.055,0,0,1-.847.756,3.975,3.975,0,0,1-1,.332q-.6.127-1.084.2a4.652,4.652,0,0,1,.881-2.252,1.946,1.946,0,0,1,1.519-.9,1.9,1.9,0,0,1,.281.021.637.637,0,0,1,.261.1" transform="translate(-140.474 -59.309)" fill="#a1a1a1"/>
    <path id="Tracciato_1723" data-name="Tracciato 1723" d="M213.525,71.552a1.566,1.566,0,0,0-.881.281,14.117,14.117,0,0,0-1.238.989h-.041a1.442,1.442,0,0,0-.233-.9.933.933,0,0,0-.782-.3,2.652,2.652,0,0,0-.706.117,7.032,7.032,0,0,0-.946.357l-.1.439q.13-.034.363-.086a1.85,1.85,0,0,1,.384-.052.754.754,0,0,1,.521.131.744.744,0,0,1,.13.515,2.8,2.8,0,0,1-.065.488q-.065.329-.1.494l-1,4.449h1.279l1.105-4.916a5.367,5.367,0,0,1,.722-.694,3.661,3.661,0,0,1,.605-.392,2.279,2.279,0,0,1,.455-.175,1.356,1.356,0,0,1,.271-.045q-.11.261-.213.525a1.334,1.334,0,0,0-.1.477.571.571,0,0,0,.185.412.934.934,0,0,0,.977.086,1.015,1.015,0,0,0,.271-.285,1.147,1.147,0,0,0,.158-.381,1.845,1.845,0,0,0,.055-.422,1.6,1.6,0,0,0-.072-.545.9.9,0,0,0-.223-.333.831.831,0,0,0-.35-.185,1.64,1.64,0,0,0-.425-.055" transform="translate(-172.901 -59.309)" fill="#a1a1a1"/>
    <path id="Tracciato_1724" data-name="Tracciato 1724" d="M119.449,95.51c-1.683-3.908-6.787-5.7-10.809-5.875S98.9,90.83,92.749,92.623l-4.432-4.647,1.511-6.385a4.663,4.663,0,0,1,1.252-1.019,2.54,2.54,0,0,1,1.132-.273.92.92,0,0,1,.792.338,1.513,1.513,0,0,1,.25.919,2.8,2.8,0,0,1-.056.485q-.056.3-.152.676l-.855,3.232q-.079.312-.113.542a2.812,2.812,0,0,0-.035.42,1.229,1.229,0,0,0,.347.888,1.387,1.387,0,0,0,1.042.36,3.307,3.307,0,0,0,.817-.126,11.477,11.477,0,0,0,1.277-.446l.13-.554a2.407,2.407,0,0,1-.477.1,3.711,3.711,0,0,1-.477.043A1.086,1.086,0,0,1,94,87a.86.86,0,0,1-.208-.672,3.171,3.171,0,0,1,.069-.559q.069-.36.147-.637l.729-2.782a5.676,5.676,0,0,0,.152-.788,5.544,5.544,0,0,0,.048-.555,1.786,1.786,0,0,0-.444-1.261,1.645,1.645,0,0,0-1.272-.481,3.407,3.407,0,0,0-1.677.4,10.873,10.873,0,0,0-1.642,1.17h-.034a1.685,1.685,0,0,0-.54-1.122,1.762,1.762,0,0,0-1.249-.446,3.312,3.312,0,0,0-1.565.347,11.763,11.763,0,0,0-1.677,1.152h-.052a1.717,1.717,0,0,0-.309-1.027,1.174,1.174,0,0,0-.987-.377,3.369,3.369,0,0,0-.9.148,8.928,8.928,0,0,0-1.2.453l-.131.558q.165-.045.465-.118a2.183,2.183,0,0,1,.492-.073.653.653,0,0,1,.808.823,3.3,3.3,0,0,1-.065.589q-.065.347-.134.65l-1.3,5.615h1.617l1.479-6.36A4.3,4.3,0,0,1,86,80.546a2.847,2.847,0,0,1,1.084-.247,1.031,1.031,0,0,1,.821.321,1.3,1.3,0,0,1,.28.884,1.937,1.937,0,0,1-.039.316q-.039.212-.082.4L86.7,88.012h.017l4.563,4.983c-10.1,2.629-12.841,2.116-12.841,2.116S66.8,95.4,66.633,88.038c-.175-7.537,10.694-5.675,10.694-5.675l.086-1.283s-.274-.038-.71-.072c-.051-.012-.1-.024-.148-.039a.828.828,0,0,1-.305-.158.362.362,0,0,1-.134-.3,1.6,1.6,0,0,1,.024-.24q.024-.151.065-.323l.4-1.8a2.921,2.921,0,0,0,.671.357,2.743,2.743,0,0,0,.966.144,3.357,3.357,0,0,0,1.428-.323,4,4,0,0,0,1.291-.988,4.833,4.833,0,0,0,1.178-3.172,2.935,2.935,0,0,0-.58-1.912,1.976,1.976,0,0,0-1.622-.711,2.248,2.248,0,0,0-1.06.281,4.7,4.7,0,0,0-1,.714h-.055a1.146,1.146,0,0,0-.309-.676.994.994,0,0,0-.727-.244,2.53,2.53,0,0,0-.713.127,8.138,8.138,0,0,0-.94.36l-.1.439.363-.093a1.647,1.647,0,0,1,.383-.058.723.723,0,0,1,.517.13.791.791,0,0,1,.12.515,2.608,2.608,0,0,1-.048.457q-.048.264-.1.525l-1.432,6.315a1.065,1.065,0,0,1-.182.415.635.635,0,0,1-.339.23c-.023.007-.048.011-.072.017q-.148.013-.3.03c-2.182.257-8.627,1.241-8.684,7.686-.031,3.547,2.795,6.217,5.476,7.244,6.443,2.468,15.024.219,19.1-1.138.758-.221,1.6-.466,2.468-.717,2.642,2.686,10.547,10.229,16.886,11.207a10.858,10.858,0,0,0,2.325.287h.161a2.489,2.489,0,0,0,.379-.005c7.791-.205,9.117-6.074,7.388-10.089M77.732,73.22a4.177,4.177,0,0,1,.929-.721,1.564,1.564,0,0,1,.7-.192,1.386,1.386,0,0,1,.686.148,1.07,1.07,0,0,1,.411.415,1.788,1.788,0,0,1,.209.608,4.194,4.194,0,0,1,.065.731,5.968,5.968,0,0,1-.189,1.521A4.648,4.648,0,0,1,80,77.01a2.755,2.755,0,0,1-.809.858,1.794,1.794,0,0,1-1.014.316,1.292,1.292,0,0,1-.9-.34,1.19,1.19,0,0,1-.421-.732Zm40.363,28.992c-4.378,4.392-12.9.314-17.81-2.823q-.165-.105-.328-.214a59.791,59.791,0,0,1-6.172-5.487c2.214-.634,4.342-1.23,5.351-1.474a38.924,38.924,0,0,1,10.617-.753c9.012.913,11.061,8.023,8.342,10.751" transform="translate(-54.096 -59.309)" fill="#a1a1a1"/>
    <path id="Tracciato_1725" data-name="Tracciato 1725" d="M70.542,238.25l-.071.312a4.167,4.167,0,0,0-.734.114.5.5,0,0,0-.284.189.888.888,0,0,0-.123.281l-1.139,4.908a.426.426,0,0,0-.014.075.723.723,0,0,0,0,.076.342.342,0,0,0,.047.185.383.383,0,0,0,.17.132,1.62,1.62,0,0,0,.313.078q.241.045.36.054l-.071.312h-3.03l.071-.312.379-.028a1.467,1.467,0,0,0,.35-.057.621.621,0,0,0,.279-.182.637.637,0,0,0,.128-.282l1.136-4.914a.862.862,0,0,0,.014-.085.8.8,0,0,0,0-.085.33.33,0,0,0-.04-.166.347.347,0,0,0-.168-.128,1.929,1.929,0,0,0-.348-.107,2.829,2.829,0,0,0-.324-.059l.071-.312Z" transform="translate(-54.674 -197.483)" fill="#a1a1a1"/>
    <path id="Tracciato_1726" data-name="Tracciato 1726" d="M91.359,254.488a2.461,2.461,0,0,1-1.167-.248.738.738,0,0,1-.466-.651.546.546,0,0,1,.137-.355.421.421,0,0,1,.336-.166.494.494,0,0,1,.305.088.668.668,0,0,1,.182.206,1.522,1.522,0,0,1,.125.293q.054.17.092.279a.721.721,0,0,0,.2.149.77.77,0,0,0,.362.069,1.066,1.066,0,0,0,.774-.256.924.924,0,0,0,.263-.693.62.62,0,0,0-.246-.515,2.482,2.482,0,0,0-.734-.353,3.211,3.211,0,0,1-.412-.173,1.547,1.547,0,0,1-.379-.249,1.193,1.193,0,0,1-.275-.36,1.093,1.093,0,0,1-.1-.493,1.323,1.323,0,0,1,.542-1.051,2.036,2.036,0,0,1,1.332-.443q.185,0,.4.019a2.083,2.083,0,0,1,.469.1,1.011,1.011,0,0,1,.379.225.509.509,0,0,1,.156.386.542.542,0,0,1-.13.353.422.422,0,0,1-.343.159.511.511,0,0,1-.289-.076.616.616,0,0,1-.189-.2,1.343,1.343,0,0,1-.123-.274q-.048-.147-.1-.289a.873.873,0,0,0-.161-.052,1.024,1.024,0,0,0-.189-.014.929.929,0,0,0-.7.249.824.824,0,0,0-.239.591.6.6,0,0,0,.215.5,2.714,2.714,0,0,0,.712.349,2.482,2.482,0,0,1,.935.531,1.018,1.018,0,0,1,.291.74,1.446,1.446,0,0,1-.554,1.174,2.135,2.135,0,0,1-1.4.453" transform="translate(-74.373 -206.862)" fill="#a1a1a1"/>
    <path id="Tracciato_1727" data-name="Tracciato 1727" d="M117.593,248.483a.984.984,0,0,1-.658-.182.658.658,0,0,1-.208-.523,1.409,1.409,0,0,1,.014-.206q.014-.1.038-.22l.738-3.162h-.847l.1-.431h.864l.33-1.387h.851l-.32,1.387h1.318l-.1.431h-1.307L117.8,246.8q-.043.18-.071.348a1.753,1.753,0,0,0-.028.286.5.5,0,0,0,.13.381.7.7,0,0,0,.471.121,2.7,2.7,0,0,0,.346-.031,1.619,1.619,0,0,0,.346-.078l-.08.346q-.331.128-.625.22a2.308,2.308,0,0,1-.691.092" transform="translate(-96.707 -200.899)" fill="#a1a1a1"/>
    <path id="Tracciato_1728" data-name="Tracciato 1728" d="M137.635,242.227l-.071.3a6.193,6.193,0,0,1-.7.244,1.787,1.787,0,0,1-.445.069.754.754,0,0,1-.568-.2.673.673,0,0,1-.189-.486,1.436,1.436,0,0,1,.019-.227q.019-.119.062-.3l.5-2.014q.038-.165.073-.355a1.8,1.8,0,0,0,.035-.322.513.513,0,0,0-.088-.353.519.519,0,0,0-.357-.088,1.547,1.547,0,0,0-.277.033q-.172.033-.262.057l.071-.3a4.658,4.658,0,0,1,.662-.246,1.866,1.866,0,0,1,.464-.081.746.746,0,0,1,.563.185.694.694,0,0,1,.175.5,1.925,1.925,0,0,1-.019.232,2.415,2.415,0,0,1-.057.294l-.5,2.014q-.047.185-.082.363a1.55,1.55,0,0,0-.035.291.461.461,0,0,0,.12.37.609.609,0,0,0,.389.1,1.977,1.977,0,0,0,.257-.024,1.3,1.3,0,0,0,.257-.057m.336-6.054a.7.7,0,0,1-.175.471.555.555,0,0,1-.436.2.545.545,0,0,1-.416-.192.63.63,0,0,1-.175-.438.656.656,0,0,1,.175-.454.543.543,0,0,1,.416-.194.576.576,0,0,1,.44.182.6.6,0,0,1,.17.424" transform="translate(-112.208 -195.259)" fill="#a1a1a1"/>
    <path id="Tracciato_1729" data-name="Tracciato 1729" d="M154.111,248.483a.984.984,0,0,1-.658-.182.657.657,0,0,1-.208-.523,1.4,1.4,0,0,1,.014-.206q.014-.1.038-.22l.738-3.162h-.847l.1-.431h.864l.33-1.387h.851l-.32,1.387h1.318l-.1.431h-1.307l-.611,2.608q-.043.18-.071.348a1.756,1.756,0,0,0-.028.286.5.5,0,0,0,.13.381.7.7,0,0,0,.471.121,2.7,2.7,0,0,0,.346-.031,1.616,1.616,0,0,0,.346-.078l-.08.346q-.331.128-.625.22a2.307,2.307,0,0,1-.691.092" transform="translate(-126.976 -200.899)" fill="#a1a1a1"/>
    <path id="Tracciato_1730" data-name="Tracciato 1730" d="M174.592,253.959h-.028q-.218.175-.417.322a2.831,2.831,0,0,1-.393.246,2.236,2.236,0,0,1-.412.163,1.913,1.913,0,0,1-.483.05.929.929,0,0,1-.706-.263.955.955,0,0,1-.251-.689,2.286,2.286,0,0,1,.019-.27q.019-.156.089-.464l.368-1.5q.047-.208.078-.369a1.633,1.633,0,0,0,.031-.308.512.512,0,0,0-.087-.352.518.518,0,0,0-.357-.088,1.155,1.155,0,0,0-.265.04l-.25.065.071-.305a5.577,5.577,0,0,1,.651-.253,1.638,1.638,0,0,1,.452-.086.759.759,0,0,1,.556.177.682.682,0,0,1,.178.5,1.951,1.951,0,0,1-.019.232,2.386,2.386,0,0,1-.057.293l-.418,1.752q-.047.2-.078.372a1.613,1.613,0,0,0-.031.263.824.824,0,0,0,.137.5.506.506,0,0,0,.435.185,1.393,1.393,0,0,0,.622-.158,2.484,2.484,0,0,0,.641-.48l.824-3.565.826-.057.057.071-.7,3.049q-.047.194-.085.391a1.713,1.713,0,0,0-.038.277.464.464,0,0,0,.116.367.6.6,0,0,0,.385.1,1.61,1.61,0,0,0,.255-.028,1.5,1.5,0,0,0,.255-.062l-.071.3q-.392.161-.655.241a1.663,1.663,0,0,1-.485.081.7.7,0,0,1-.57-.223.784.784,0,0,1-.187-.521" transform="translate(-142.179 -207.137)" fill="#a1a1a1"/>
    <path id="Tracciato_1731" data-name="Tracciato 1731" d="M206.369,248.483a.985.985,0,0,1-.658-.182.658.658,0,0,1-.208-.523,1.432,1.432,0,0,1,.014-.206q.014-.1.038-.22l.738-3.162h-.847l.1-.431h.864l.33-1.387h.851l-.32,1.387h1.318l-.1.431h-1.307l-.611,2.608q-.043.18-.071.348a1.775,1.775,0,0,0-.028.286.5.5,0,0,0,.13.381.7.7,0,0,0,.471.121,2.7,2.7,0,0,0,.346-.031,1.62,1.62,0,0,0,.346-.078l-.081.346q-.331.128-.625.22a2.309,2.309,0,0,1-.691.092" transform="translate(-170.292 -200.899)" fill="#a1a1a1"/>
    <path id="Tracciato_1732" data-name="Tracciato 1732" d="M228.555,251.427a3.473,3.473,0,0,1-.19,1.118,2.95,2.95,0,0,1-.549.981,2.783,2.783,0,0,1-.878.7,2.576,2.576,0,0,1-1.19.263,1.7,1.7,0,0,1-1.276-.507,1.881,1.881,0,0,1-.49-1.365,3.279,3.279,0,0,1,.767-2.132,2.7,2.7,0,0,1,.878-.666,2.566,2.566,0,0,1,1.134-.253,1.707,1.707,0,0,1,1.318.514,1.906,1.906,0,0,1,.476,1.348m-.966-.18a1.746,1.746,0,0,0-.239-1.009.794.794,0,0,0-.689-.337,1.275,1.275,0,0,0-.741.242,1.89,1.89,0,0,0-.6.787,3.638,3.638,0,0,0-.284.917,5.325,5.325,0,0,0-.09.931,1.843,1.843,0,0,0,.234,1.026.8.8,0,0,0,.708.349,1.153,1.153,0,0,0,.748-.266,2,2,0,0,0,.53-.673,3.668,3.668,0,0,0,.312-.912,5.078,5.078,0,0,0,.109-1.054" transform="translate(-185.656 -206.862)" fill="#a1a1a1"/>
    <path id="Tracciato_1733" data-name="Tracciato 1733" d="M5.733,293.756a1.081,1.081,0,0,1,.407.376,1.009,1.009,0,0,1,.147.547,1.613,1.613,0,0,1-.17.757,1.727,1.727,0,0,1-.445.549,2.6,2.6,0,0,1-.632.376,3.635,3.635,0,0,1-.713.22v.042a2.944,2.944,0,0,1,.569.13,2.12,2.12,0,0,1,.531.258,1.328,1.328,0,0,1,.41.428,1.183,1.183,0,0,1,.159.623,1.786,1.786,0,0,1-.249.945,2.113,2.113,0,0,1-.628.665,2.988,2.988,0,0,1-.874.4,3.556,3.556,0,0,1-.959.13H0l.076-.312q.113-.009.341-.04a1.381,1.381,0,0,0,.327-.074A.573.573,0,0,0,1,299.6a.732.732,0,0,0,.125-.282l1.127-4.876c.006-.032.012-.062.016-.092a.583.583,0,0,0,.007-.092.355.355,0,0,0-.04-.173.323.323,0,0,0-.14-.125,1.125,1.125,0,0,0-.291-.111,1.908,1.908,0,0,0-.286-.045l.076-.312H4.554a3.137,3.137,0,0,1,.627.059,1.878,1.878,0,0,1,.551.206M4.42,299.185a2.1,2.1,0,0,0,.308-.612,2.172,2.172,0,0,0,.1-.654.987.987,0,0,0-.342-.8,1.441,1.441,0,0,0-.959-.289q-.3,0-.512.007l-.323.012-.536,2.317c-.009.045-.017.087-.021.125a.875.875,0,0,0-.007.109.369.369,0,0,0,.252.356,1.619,1.619,0,0,0,.64.109,1.679,1.679,0,0,0,1.395-.683m.308-3.246a1.654,1.654,0,0,0,.32-.552,2.082,2.082,0,0,0,.1-.66.922.922,0,0,0-.09-.426.729.729,0,0,0-.247-.279,1.049,1.049,0,0,0-.347-.14,1.932,1.932,0,0,0-.4-.04q-.157,0-.349.007l-.325.012-.6,2.613h.593a2.016,2.016,0,0,0,.8-.147,1.453,1.453,0,0,0,.543-.388" transform="translate(0 -243.271)" fill="#a1a1a1"/>
    <path id="Tracciato_1734" data-name="Tracciato 1734" d="M42.6,309.2h-.028q-.218.175-.417.322a2.84,2.84,0,0,1-.393.246,2.23,2.23,0,0,1-.412.163,1.911,1.911,0,0,1-.483.05.929.929,0,0,1-.706-.263.956.956,0,0,1-.251-.689,2.319,2.319,0,0,1,.019-.27q.019-.156.09-.464l.368-1.5c.032-.139.057-.262.078-.369a1.647,1.647,0,0,0,.031-.307.512.512,0,0,0-.088-.353.518.518,0,0,0-.356-.088,1.158,1.158,0,0,0-.265.04l-.25.065.071-.305a5.554,5.554,0,0,1,.651-.253,1.633,1.633,0,0,1,.452-.086.76.76,0,0,1,.556.177.683.683,0,0,1,.177.5,1.918,1.918,0,0,1-.019.232,2.362,2.362,0,0,1-.057.293l-.418,1.752q-.047.2-.078.372a1.609,1.609,0,0,0-.031.263.823.823,0,0,0,.137.5.506.506,0,0,0,.435.185,1.392,1.392,0,0,0,.622-.158,2.48,2.48,0,0,0,.641-.48l.824-3.565.826-.057.057.071-.7,3.048q-.047.194-.085.391a1.715,1.715,0,0,0-.038.277.464.464,0,0,0,.116.367.6.6,0,0,0,.385.1,1.62,1.62,0,0,0,.255-.028,1.506,1.506,0,0,0,.255-.062l-.071.3q-.393.161-.655.241a1.663,1.663,0,0,1-.485.081.7.7,0,0,1-.57-.223.784.784,0,0,1-.187-.521" transform="translate(-32.768 -252.926)" fill="#a1a1a1"/>
    <path id="Tracciato_1735" data-name="Tracciato 1735" d="M75.4,296.6h-.033l-.27.234a2.485,2.485,0,0,1-.345.253,2.6,2.6,0,0,1-.418.218,1.438,1.438,0,0,1-1.546-.42,2.121,2.121,0,0,1-.39-1.348,3.211,3.211,0,0,1,.211-1.152,3.363,3.363,0,0,1,.575-.986,2.8,2.8,0,0,1,.855-.675,2.245,2.245,0,0,1,1.044-.258,2.522,2.522,0,0,1,.648.085,2.116,2.116,0,0,1,.531.209l.37-1.61q.028-.128.04-.2a.937.937,0,0,0,.012-.156.423.423,0,0,0-.069-.26.4.4,0,0,0-.192-.133,1.144,1.144,0,0,0-.312-.057q-.2-.014-.36-.033l.066-.289,1.917-.1.047.071-1.313,5.676q-.038.156-.078.357a1.7,1.7,0,0,0-.041.305.471.471,0,0,0,.114.367.594.594,0,0,0,.384.1,1.6,1.6,0,0,0,.256-.028,1.491,1.491,0,0,0,.255-.061l-.071.3a4.649,4.649,0,0,1-.659.251,1.846,1.846,0,0,1-.484.071.791.791,0,0,1-.543-.178.7.7,0,0,1-.2-.552m.674-3.019a.741.741,0,0,0-.071-.268.958.958,0,0,0-.156-.235.856.856,0,0,0-.282-.2.99.99,0,0,0-.41-.078,1.181,1.181,0,0,0-.689.228,2.174,2.174,0,0,0-.571.607,3.148,3.148,0,0,0-.379.879,3.852,3.852,0,0,0-.142,1.031,3.49,3.49,0,0,0,.033.512,1.364,1.364,0,0,0,.128.412.686.686,0,0,0,.255.277.835.835,0,0,0,.44.1,1.25,1.25,0,0,0,.565-.156,2.728,2.728,0,0,0,.679-.545Z" transform="translate(-60.01 -240.313)" fill="#a1a1a1"/>
    <path id="Tracciato_1736" data-name="Tracciato 1736" d="M107.99,296.6h-.033l-.27.234a2.487,2.487,0,0,1-.345.253,2.594,2.594,0,0,1-.418.218,1.438,1.438,0,0,1-1.546-.42,2.121,2.121,0,0,1-.39-1.348,3.215,3.215,0,0,1,.211-1.152,3.366,3.366,0,0,1,.575-.986,2.8,2.8,0,0,1,.855-.675,2.246,2.246,0,0,1,1.044-.258,2.523,2.523,0,0,1,.649.085,2.117,2.117,0,0,1,.531.209l.37-1.61q.028-.128.04-.2a.958.958,0,0,0,.012-.156.424.424,0,0,0-.069-.26.4.4,0,0,0-.192-.133,1.145,1.145,0,0,0-.312-.057q-.2-.014-.36-.033l.066-.289,1.917-.1.047.071-1.313,5.676q-.038.156-.078.357a1.7,1.7,0,0,0-.04.305.47.47,0,0,0,.114.367.593.593,0,0,0,.383.1,1.6,1.6,0,0,0,.256-.028,1.493,1.493,0,0,0,.255-.061l-.071.3a4.64,4.64,0,0,1-.659.251,1.848,1.848,0,0,1-.484.071.791.791,0,0,1-.543-.178.7.7,0,0,1-.2-.552m.674-3.019a.745.745,0,0,0-.071-.268.963.963,0,0,0-.156-.235.859.859,0,0,0-.282-.2.99.99,0,0,0-.41-.078,1.181,1.181,0,0,0-.689.228,2.174,2.174,0,0,0-.571.607,3.145,3.145,0,0,0-.379.879,3.852,3.852,0,0,0-.142,1.031,3.513,3.513,0,0,0,.033.512,1.364,1.364,0,0,0,.128.412.687.687,0,0,0,.255.277.836.836,0,0,0,.44.1,1.25,1.25,0,0,0,.566-.156,2.725,2.725,0,0,0,.679-.545Z" transform="translate(-87.023 -240.313)" fill="#a1a1a1"/>
    <path id="Tracciato_1737" data-name="Tracciato 1737" d="M139.922,297.468l-.071.3a6.2,6.2,0,0,1-.7.244,1.786,1.786,0,0,1-.445.069.754.754,0,0,1-.568-.2.672.672,0,0,1-.19-.486,1.417,1.417,0,0,1,.019-.227q.019-.118.061-.3l.5-2.014q.038-.166.073-.355a1.806,1.806,0,0,0,.036-.322.513.513,0,0,0-.088-.353.519.519,0,0,0-.357-.088,1.539,1.539,0,0,0-.276.033q-.172.033-.262.057l.071-.3a4.626,4.626,0,0,1,.662-.246,1.864,1.864,0,0,1,.464-.081.747.747,0,0,1,.563.185.7.7,0,0,1,.175.5,1.96,1.96,0,0,1-.019.232,2.445,2.445,0,0,1-.057.294l-.5,2.014q-.047.185-.082.363a1.567,1.567,0,0,0-.035.291.461.461,0,0,0,.12.37.609.609,0,0,0,.389.1,1.949,1.949,0,0,0,.257-.024,1.293,1.293,0,0,0,.257-.057m.336-6.055a.7.7,0,0,1-.175.471.555.555,0,0,1-.435.2.546.546,0,0,1-.417-.192.631.631,0,0,1-.175-.438.656.656,0,0,1,.175-.454.543.543,0,0,1,.417-.194.576.576,0,0,1,.44.182.6.6,0,0,1,.17.424" transform="translate(-114.104 -241.048)" fill="#a1a1a1"/>
    <path id="Tracciato_1738" data-name="Tracciato 1738" d="M154.591,309.73a2.461,2.461,0,0,1-1.167-.248.738.738,0,0,1-.466-.651.547.547,0,0,1,.137-.355.421.421,0,0,1,.336-.166.494.494,0,0,1,.305.088.666.666,0,0,1,.182.206,1.494,1.494,0,0,1,.126.293q.054.17.092.279a.72.72,0,0,0,.2.149.769.769,0,0,0,.362.069,1.066,1.066,0,0,0,.774-.256.924.924,0,0,0,.263-.693.62.62,0,0,0-.246-.515,2.483,2.483,0,0,0-.734-.353,3.231,3.231,0,0,1-.412-.173,1.553,1.553,0,0,1-.379-.249,1.189,1.189,0,0,1-.274-.36,1.1,1.1,0,0,1-.1-.493,1.323,1.323,0,0,1,.542-1.051,2.036,2.036,0,0,1,1.332-.443q.185,0,.4.019a2.076,2.076,0,0,1,.468.1,1.014,1.014,0,0,1,.379.225.51.51,0,0,1,.156.386.541.541,0,0,1-.13.353.422.422,0,0,1-.343.159.511.511,0,0,1-.289-.076.62.62,0,0,1-.189-.2,1.348,1.348,0,0,1-.123-.275q-.047-.147-.1-.289a.869.869,0,0,0-.161-.052,1.028,1.028,0,0,0-.189-.014.93.93,0,0,0-.7.249.825.825,0,0,0-.239.591.6.6,0,0,0,.215.5,2.714,2.714,0,0,0,.712.349,2.483,2.483,0,0,1,.935.531,1.018,1.018,0,0,1,.291.74,1.446,1.446,0,0,1-.554,1.174,2.135,2.135,0,0,1-1.4.453" transform="translate(-126.785 -252.651)" fill="#a1a1a1"/>
    <path id="Tracciato_1739" data-name="Tracciato 1739" d="M180.825,303.725a.985.985,0,0,1-.658-.182.658.658,0,0,1-.208-.523,1.429,1.429,0,0,1,.014-.206q.014-.1.038-.22l.738-3.162H179.9L180,299h.864l.33-1.387h.851l-.32,1.387h1.318l-.1.431H181.64l-.611,2.608q-.043.18-.071.348a1.773,1.773,0,0,0-.028.286.5.5,0,0,0,.13.381.7.7,0,0,0,.471.121,2.7,2.7,0,0,0,.346-.031,1.622,1.622,0,0,0,.346-.078l-.081.346q-.331.128-.625.22a2.31,2.31,0,0,1-.691.092" transform="translate(-149.119 -246.689)" fill="#a1a1a1"/>
    <path id="Tracciato_1740" data-name="Tracciato 1740" d="M201.481,308.962h-.033q-.1.085-.248.216a2.271,2.271,0,0,1-.338.249,2.4,2.4,0,0,1-.4.206,1.254,1.254,0,0,1-.473.088,1.3,1.3,0,0,1-1.075-.493,2.113,2.113,0,0,1-.39-1.346,3.1,3.1,0,0,1,.217-1.142,3.4,3.4,0,0,1,.6-1,2.866,2.866,0,0,1,.866-.68,2.226,2.226,0,0,1,1.031-.258,2.258,2.258,0,0,1,.641.09,1.871,1.871,0,0,1,.48.2l.869-.223.057.071L202.563,308q-.038.147-.078.358a1.852,1.852,0,0,0-.04.31.461.461,0,0,0,.114.365.605.605,0,0,0,.384.095,1.631,1.631,0,0,0,.256-.028,1.516,1.516,0,0,0,.256-.061l-.071.3q-.427.17-.636.246a1.5,1.5,0,0,1-.507.076.731.731,0,0,1-.541-.2.756.756,0,0,1-.218-.507m.682-2.995a1.315,1.315,0,0,0-.033-.3.631.631,0,0,0-.137-.266.656.656,0,0,0-.261-.189,1.058,1.058,0,0,0-.417-.071,1.165,1.165,0,0,0-.673.228,2.314,2.314,0,0,0-.587.611,3.187,3.187,0,0,0-.4.872,3.663,3.663,0,0,0-.123,1.55,1.309,1.309,0,0,0,.127.407.657.657,0,0,0,.26.28.841.841,0,0,0,.43.1,1.216,1.216,0,0,0,.555-.149,2.684,2.684,0,0,0,.654-.524Z" transform="translate(-164.553 -252.65)" fill="#a1a1a1"/>
    <path id="Tracciato_1741" data-name="Tracciato 1741" d="M246.067,293.492,246,293.8a3.25,3.25,0,0,0-.383.043,3.215,3.215,0,0,0-.35.071.5.5,0,0,0-.284.189.882.882,0,0,0-.123.281l-1.139,4.908a.428.428,0,0,0-.014.075.67.67,0,0,0,0,.076.34.34,0,0,0,.047.185.381.381,0,0,0,.171.132,1.615,1.615,0,0,0,.312.078q.242.045.36.054l-.071.313h-3.03l.071-.312.379-.028a1.47,1.47,0,0,0,.35-.057.62.62,0,0,0,.279-.182.634.634,0,0,0,.128-.282l1.136-4.914a.813.813,0,0,0,.014-.085.8.8,0,0,0,0-.085.33.33,0,0,0-.04-.166.346.346,0,0,0-.168-.128,1.928,1.928,0,0,0-.348-.107,2.863,2.863,0,0,0-.324-.059l.071-.312Z" transform="translate(-200.165 -243.272)" fill="#a1a1a1"/>
    <path id="Tracciato_1742" data-name="Tracciato 1742" d="M268.689,303.725a.984.984,0,0,1-.658-.182.658.658,0,0,1-.208-.523,1.436,1.436,0,0,1,.014-.206q.014-.1.038-.22l.738-3.162h-.847l.1-.431h.864l.33-1.387h.852L269.591,299h1.318l-.1.431H269.5l-.611,2.608q-.043.18-.071.348a1.772,1.772,0,0,0-.028.286.5.5,0,0,0,.13.381.7.7,0,0,0,.471.121,2.7,2.7,0,0,0,.346-.031,1.622,1.622,0,0,0,.346-.078l-.081.346q-.331.128-.625.22a2.31,2.31,0,0,1-.691.092" transform="translate(-221.948 -246.689)" fill="#a1a1a1"/>
    <path id="Tracciato_1743" data-name="Tracciato 1743" d="M289.345,308.962h-.033q-.1.085-.248.216a2.272,2.272,0,0,1-.338.249,2.4,2.4,0,0,1-.4.206,1.254,1.254,0,0,1-.473.088,1.3,1.3,0,0,1-1.075-.493,2.113,2.113,0,0,1-.39-1.346,3.1,3.1,0,0,1,.217-1.142,3.4,3.4,0,0,1,.6-1,2.865,2.865,0,0,1,.866-.68,2.226,2.226,0,0,1,1.031-.258,2.259,2.259,0,0,1,.641.09,1.872,1.872,0,0,1,.48.2l.869-.223.057.071L290.427,308q-.038.147-.078.358a1.852,1.852,0,0,0-.04.31.461.461,0,0,0,.114.365.605.605,0,0,0,.384.095,1.63,1.63,0,0,0,.256-.028,1.517,1.517,0,0,0,.256-.061l-.071.3q-.427.17-.636.246a1.5,1.5,0,0,1-.508.076.731.731,0,0,1-.541-.2.756.756,0,0,1-.218-.507m.682-2.995a1.308,1.308,0,0,0-.033-.3.63.63,0,0,0-.137-.266.656.656,0,0,0-.261-.189,1.059,1.059,0,0,0-.417-.071,1.165,1.165,0,0,0-.673.228,2.313,2.313,0,0,0-.587.611,3.185,3.185,0,0,0-.4.872,3.665,3.665,0,0,0-.123,1.55,1.309,1.309,0,0,0,.127.407.657.657,0,0,0,.26.28.841.841,0,0,0,.43.1,1.216,1.216,0,0,0,.555-.149,2.685,2.685,0,0,0,.655-.524Z" transform="translate(-237.382 -252.65)" fill="#a1a1a1"/>
    <path id="Tracciato_1744" data-name="Tracciato 1744" d="M321.97,289.993l-1.323,5.7q-.043.18-.081.36a1.5,1.5,0,0,0-.038.293.461.461,0,0,0,.12.369.613.613,0,0,0,.39.1,2.44,2.44,0,0,0,.281-.024,1.457,1.457,0,0,0,.281-.057l-.071.3q-.426.17-.656.241a1.748,1.748,0,0,1-.518.071.779.779,0,0,1-.575-.2.659.659,0,0,1-.2-.485,1.283,1.283,0,0,1,.021-.227q.021-.118.059-.3l1.154-4.988c.022-.1.037-.166.045-.2a.713.713,0,0,0,.012-.142.5.5,0,0,0-.057-.263.36.36,0,0,0-.162-.14.849.849,0,0,0-.252-.057q-.152-.014-.309-.033l.067-.289,1.761-.1Z" transform="translate(-264.9 -240.313)" fill="#a1a1a1"/>
    <path id="Tracciato_1745" data-name="Tracciato 1745" d="M337.339,297.468l-.071.3a6.206,6.206,0,0,1-.7.244,1.787,1.787,0,0,1-.445.069.754.754,0,0,1-.568-.2.672.672,0,0,1-.19-.486,1.417,1.417,0,0,1,.019-.227q.019-.118.061-.3l.5-2.014q.038-.166.073-.355a1.806,1.806,0,0,0,.036-.322.513.513,0,0,0-.088-.353.52.52,0,0,0-.357-.088,1.539,1.539,0,0,0-.276.033q-.172.033-.262.057l.071-.3a4.623,4.623,0,0,1,.662-.246,1.863,1.863,0,0,1,.464-.081.747.747,0,0,1,.563.185.7.7,0,0,1,.175.5,1.956,1.956,0,0,1-.019.232,2.445,2.445,0,0,1-.057.294l-.5,2.014q-.047.185-.082.363a1.567,1.567,0,0,0-.035.291.461.461,0,0,0,.12.37.609.609,0,0,0,.389.1,1.95,1.95,0,0,0,.257-.024,1.294,1.294,0,0,0,.257-.057m.336-6.055a.7.7,0,0,1-.175.471.555.555,0,0,1-.435.2.546.546,0,0,1-.417-.192.63.63,0,0,1-.175-.438.656.656,0,0,1,.175-.454.543.543,0,0,1,.417-.194.576.576,0,0,1,.44.182.6.6,0,0,1,.17.424" transform="translate(-277.741 -241.048)" fill="#a1a1a1"/>
    <path id="Tracciato_1746" data-name="Tracciato 1746" d="M354.8,308.962h-.033q-.1.085-.248.216a2.264,2.264,0,0,1-.338.249,2.4,2.4,0,0,1-.4.206,1.254,1.254,0,0,1-.473.088,1.3,1.3,0,0,1-1.075-.493,2.113,2.113,0,0,1-.39-1.346,3.1,3.1,0,0,1,.217-1.142,3.4,3.4,0,0,1,.6-1,2.865,2.865,0,0,1,.866-.68,2.225,2.225,0,0,1,1.031-.258,2.259,2.259,0,0,1,.641.09,1.871,1.871,0,0,1,.48.2l.869-.223.057.071L355.882,308q-.038.147-.078.358a1.857,1.857,0,0,0-.04.31.461.461,0,0,0,.114.365.605.605,0,0,0,.384.095,1.631,1.631,0,0,0,.256-.028,1.514,1.514,0,0,0,.256-.061l-.071.3q-.427.17-.636.246a1.5,1.5,0,0,1-.507.076.731.731,0,0,1-.541-.2.756.756,0,0,1-.218-.507m.682-2.995a1.311,1.311,0,0,0-.033-.3.63.63,0,0,0-.137-.266.656.656,0,0,0-.261-.189,1.058,1.058,0,0,0-.417-.071,1.165,1.165,0,0,0-.673.228,2.313,2.313,0,0,0-.587.611,3.185,3.185,0,0,0-.4.872,3.665,3.665,0,0,0-.123,1.55,1.312,1.312,0,0,0,.127.407.657.657,0,0,0,.26.28.841.841,0,0,0,.43.1,1.215,1.215,0,0,0,.555-.149,2.685,2.685,0,0,0,.655-.524Z" transform="translate(-291.637 -252.65)" fill="#a1a1a1"/>
    <path id="Tracciato_1747" data-name="Tracciato 1747" d="M389.606,309.039l-.071.3q-.428.17-.665.248a1.531,1.531,0,0,1-.48.078.759.759,0,0,1-.57-.2.673.673,0,0,1-.19-.486,1.52,1.52,0,0,1,.019-.229q.019-.126.062-.3l.467-1.767q.052-.2.083-.37a1.533,1.533,0,0,0,.031-.266.774.774,0,0,0-.15-.5.542.542,0,0,0-.446-.185,1.4,1.4,0,0,0-.643.19,2.382,2.382,0,0,0-.671.55l-.809,3.478h-.884l.71-3.071.069-.329a1.792,1.792,0,0,0,.045-.348.512.512,0,0,0-.09-.355.523.523,0,0,0-.361-.09,1.316,1.316,0,0,0-.267.035q-.162.036-.252.059l.071-.3a4.948,4.948,0,0,1,.657-.246,1.863,1.863,0,0,1,.49-.08.647.647,0,0,1,.537.2.926.926,0,0,1,.171.564h.028a6.076,6.076,0,0,1,.9-.619,1.8,1.8,0,0,1,.859-.2.939.939,0,0,1,.707.263.949.949,0,0,1,.255.689q0,.086-.026.3a3.142,3.142,0,0,1-.083.431l-.4,1.521c-.028.1-.056.217-.083.348a1.638,1.638,0,0,0-.04.306.458.458,0,0,0,.118.367.613.613,0,0,0,.388.1,1.542,1.542,0,0,0,.258-.031,1.642,1.642,0,0,0,.258-.064" transform="translate(-318.742 -252.651)" fill="#a1a1a1"/>
    <path id="Tracciato_1748" data-name="Tracciato 1748" d="M422.2,306.668a3.473,3.473,0,0,1-.189,1.118,2.953,2.953,0,0,1-.549.981,2.783,2.783,0,0,1-.878.7,2.576,2.576,0,0,1-1.19.263,1.7,1.7,0,0,1-1.276-.507,1.881,1.881,0,0,1-.49-1.365,3.279,3.279,0,0,1,.767-2.132,2.7,2.7,0,0,1,.878-.666,2.567,2.567,0,0,1,1.134-.253,1.707,1.707,0,0,1,1.318.514,1.906,1.906,0,0,1,.476,1.348m-.966-.18a1.746,1.746,0,0,0-.239-1.009.794.794,0,0,0-.689-.337,1.275,1.275,0,0,0-.741.242,1.89,1.89,0,0,0-.6.787,3.638,3.638,0,0,0-.284.917,5.325,5.325,0,0,0-.09.931,1.843,1.843,0,0,0,.234,1.026.8.8,0,0,0,.708.349,1.153,1.153,0,0,0,.748-.266,2,2,0,0,0,.53-.673,3.675,3.675,0,0,0,.312-.912,5.079,5.079,0,0,0,.109-1.054" transform="translate(-346.167 -252.65)" fill="#a1a1a1"/>
    <path id="Tracciato_1749" data-name="Tracciato 1749" d="M68.007,351.609a3.264,3.264,0,0,1-1.02-.144,2.715,2.715,0,0,1-.708-.334l-.27.346h-.379l.464-2.3h.383a4.317,4.317,0,0,0,.111.772,1.942,1.942,0,0,0,.286.648,1.353,1.353,0,0,0,.515.461,1.7,1.7,0,0,0,.785.163,1.6,1.6,0,0,0,1.13-.391,1.377,1.377,0,0,0,.426-1.067,1.189,1.189,0,0,0-.18-.649,1.163,1.163,0,0,0-.539-.44q-.34-.147-.674-.263a6.071,6.071,0,0,1-.655-.272,1.7,1.7,0,0,1-.685-.585,1.489,1.489,0,0,1-.26-.859,1.775,1.775,0,0,1,.2-.838,2.187,2.187,0,0,1,.533-.663,2.487,2.487,0,0,1,.779-.431,2.713,2.713,0,0,1,.907-.161,3.107,3.107,0,0,1,.8.1,2.293,2.293,0,0,1,.755.374l.26-.322h.379l-.478,2.23h-.383a6.743,6.743,0,0,0-.073-.753,1.927,1.927,0,0,0-.2-.644,1.128,1.128,0,0,0-.435-.438,1.5,1.5,0,0,0-.742-.159,1.3,1.3,0,0,0-1.314,1.3,1.18,1.18,0,0,0,.139.594,1.018,1.018,0,0,0,.433.4,4.7,4.7,0,0,0,.654.277,5.687,5.687,0,0,1,.612.244,2.466,2.466,0,0,1,.848.615,1.315,1.315,0,0,1,.3.88,2.068,2.068,0,0,1-.218.937,2.167,2.167,0,0,1-.582.729,2.812,2.812,0,0,1-.859.478,3.168,3.168,0,0,1-1.049.166" transform="translate(-54.401 -285.638)" fill="#a1a1a1"/>
    <path id="Tracciato_1750" data-name="Tracciato 1750" d="M104.093,358.665a3.472,3.472,0,0,1-.189,1.118,2.952,2.952,0,0,1-.549.981,2.785,2.785,0,0,1-.878.7,2.577,2.577,0,0,1-1.191.263,1.694,1.694,0,0,1-1.276-.507,1.881,1.881,0,0,1-.49-1.365,3.28,3.28,0,0,1,.767-2.132,2.7,2.7,0,0,1,.878-.666,2.566,2.566,0,0,1,1.134-.253,1.707,1.707,0,0,1,1.318.514,1.905,1.905,0,0,1,.476,1.348m-.966-.18a1.745,1.745,0,0,0-.239-1.009.793.793,0,0,0-.689-.337,1.275,1.275,0,0,0-.741.242,1.89,1.89,0,0,0-.6.787,3.639,3.639,0,0,0-.284.917,5.322,5.322,0,0,0-.09.931,1.843,1.843,0,0,0,.234,1.026.8.8,0,0,0,.708.349,1.153,1.153,0,0,0,.748-.266,2.007,2.007,0,0,0,.53-.673,3.674,3.674,0,0,0,.312-.912,5.079,5.079,0,0,0,.109-1.054" transform="translate(-82.491 -295.75)" fill="#a1a1a1"/>
    <path id="Tracciato_1751" data-name="Tracciato 1751" d="M134.429,345.011a.559.559,0,0,1-.164.386.529.529,0,0,1-.405.177,1.135,1.135,0,0,1-.308-.043,2.14,2.14,0,0,1-.332-.128,4.393,4.393,0,0,0-.537.362q-.277.216-.6.521.27.7.457,1.149t.32.732a1.31,1.31,0,0,0,.376.5.754.754,0,0,0,.452.149,1.965,1.965,0,0,0,.312-.034,2.179,2.179,0,0,0,.307-.07l-.071.31a5.356,5.356,0,0,1-.692.239,2.147,2.147,0,0,1-.507.061.82.82,0,0,1-.519-.168,1.6,1.6,0,0,1-.414-.608q-.194-.421-.345-.831t-.3-.774l-.546.462-.41,1.838h-.884l1.409-6.1c.022-.1.037-.166.045-.2a.717.717,0,0,0,.012-.142.5.5,0,0,0-.057-.263.359.359,0,0,0-.162-.14.844.844,0,0,0-.252-.057q-.152-.014-.309-.033l.067-.289,1.761-.1.047.071-1.158,4.928h.019q.534-.577.972-1t.915-.864a3.516,3.516,0,0,1,.539-.428.832.832,0,0,1,.426-.116.552.552,0,0,1,.388.135.476.476,0,0,1,.147.367" transform="translate(-107.44 -283.414)" fill="#a1a1a1"/>
    <path id="Tracciato_1752" data-name="Tracciato 1752" d="M162.9,360.959h-.033q-.1.085-.248.215a2.256,2.256,0,0,1-.338.249,2.4,2.4,0,0,1-.4.206,1.254,1.254,0,0,1-.473.088,1.3,1.3,0,0,1-1.075-.493,2.113,2.113,0,0,1-.39-1.346,3.1,3.1,0,0,1,.218-1.142,3.4,3.4,0,0,1,.6-1,2.863,2.863,0,0,1,.866-.68,2.225,2.225,0,0,1,1.031-.258,2.254,2.254,0,0,1,.641.09,1.867,1.867,0,0,1,.48.2l.869-.223.057.071L163.982,360q-.038.147-.078.358a1.848,1.848,0,0,0-.04.31.461.461,0,0,0,.114.365.605.605,0,0,0,.384.095,1.623,1.623,0,0,0,.256-.028,1.51,1.51,0,0,0,.256-.061l-.071.3q-.427.171-.636.246a1.5,1.5,0,0,1-.507.076.731.731,0,0,1-.541-.2.757.757,0,0,1-.218-.507m.682-2.995a1.315,1.315,0,0,0-.033-.3.631.631,0,0,0-.137-.266.657.657,0,0,0-.261-.189,1.058,1.058,0,0,0-.417-.071,1.165,1.165,0,0,0-.673.228,2.312,2.312,0,0,0-.587.611,3.186,3.186,0,0,0-.4.872,3.664,3.664,0,0,0-.123,1.55,1.309,1.309,0,0,0,.127.407.657.657,0,0,0,.26.28.84.84,0,0,0,.43.1,1.216,1.216,0,0,0,.555-.149,2.683,2.683,0,0,0,.654-.524Z" transform="translate(-132.573 -295.75)" fill="#a1a1a1"/>
    <path id="Tracciato_1753" data-name="Tracciato 1753" d="M209.571,351.586a3.021,3.021,0,0,1-1.056-.18,2.423,2.423,0,0,1-.852-.531,2.459,2.459,0,0,1-.571-.853,3.018,3.018,0,0,1-.206-1.152,4.462,4.462,0,0,1,.32-1.7,4.4,4.4,0,0,1,.873-1.372,3.968,3.968,0,0,1,1.288-.917,3.78,3.78,0,0,1,1.567-.334,3.665,3.665,0,0,1,1.12.151,2.879,2.879,0,0,1,.731.332l.265-.322h.379l-.5,2.348h-.388a6.209,6.209,0,0,0-.066-.773,1.871,1.871,0,0,0-.236-.683,1.347,1.347,0,0,0-.507-.489,1.857,1.857,0,0,0-.9-.18,2.158,2.158,0,0,0-1.1.3,2.961,2.961,0,0,0-.911.846,4.133,4.133,0,0,0-.6,1.265,5.517,5.517,0,0,0-.22,1.582,2.541,2.541,0,0,0,.5,1.658,1.677,1.677,0,0,0,1.372.606,1.942,1.942,0,0,0,.724-.123,1.786,1.786,0,0,0,.487-.274q.066-.194.126-.409t.13-.528l.09-.407c.006-.035.013-.076.021-.123a.805.805,0,0,0,.012-.132.526.526,0,0,0-.031-.194.264.264,0,0,0-.149-.128,1.269,1.269,0,0,0-.4-.107q-.262-.036-.4-.045l.071-.322H213.5l-.071.322q-.124.014-.32.045a1.388,1.388,0,0,0-.329.088.562.562,0,0,0-.253.2.982.982,0,0,0-.125.3l-.123.545q-.109.45-.152.673t-.076.422q-.312.128-.556.223a5.039,5.039,0,0,1-.608.185q-.331.085-.637.133a4.428,4.428,0,0,1-.675.047" transform="translate(-171.486 -285.591)" fill="#a1a1a1"/>
    <path id="Tracciato_1754" data-name="Tracciato 1754" d="M250.1,360.959h-.033q-.1.085-.248.215a2.258,2.258,0,0,1-.338.249,2.4,2.4,0,0,1-.4.206,1.255,1.255,0,0,1-.473.088,1.3,1.3,0,0,1-1.075-.493,2.113,2.113,0,0,1-.39-1.346,3.1,3.1,0,0,1,.217-1.142,3.4,3.4,0,0,1,.6-1,2.863,2.863,0,0,1,.866-.68,2.225,2.225,0,0,1,1.031-.258,2.254,2.254,0,0,1,.641.09,1.868,1.868,0,0,1,.48.2l.869-.223.057.071L251.181,360q-.038.147-.078.358a1.85,1.85,0,0,0-.04.31.461.461,0,0,0,.114.365.605.605,0,0,0,.384.095,1.624,1.624,0,0,0,.256-.028,1.508,1.508,0,0,0,.256-.061l-.071.3q-.427.171-.636.246a1.5,1.5,0,0,1-.508.076.731.731,0,0,1-.541-.2.756.756,0,0,1-.218-.507m.682-2.995a1.314,1.314,0,0,0-.033-.3.631.631,0,0,0-.137-.266.657.657,0,0,0-.261-.189,1.057,1.057,0,0,0-.417-.071,1.165,1.165,0,0,0-.673.228,2.312,2.312,0,0,0-.587.611,3.184,3.184,0,0,0-.4.872,3.663,3.663,0,0,0-.123,1.55,1.31,1.31,0,0,0,.128.407.657.657,0,0,0,.26.28.84.84,0,0,0,.43.1,1.216,1.216,0,0,0,.555-.149,2.685,2.685,0,0,0,.655-.524Z" transform="translate(-204.852 -295.75)" fill="#a1a1a1"/>
    <path id="Tracciato_1755" data-name="Tracciato 1755" d="M283.985,345.011a.559.559,0,0,1-.164.386.529.529,0,0,1-.405.177,1.135,1.135,0,0,1-.308-.043,2.129,2.129,0,0,1-.332-.128,4.39,4.39,0,0,0-.537.362q-.277.216-.6.521.27.7.457,1.149t.32.732a1.308,1.308,0,0,0,.377.5.753.753,0,0,0,.452.149,1.962,1.962,0,0,0,.312-.034,2.173,2.173,0,0,0,.308-.07l-.071.31a5.352,5.352,0,0,1-.692.239,2.147,2.147,0,0,1-.507.061.82.82,0,0,1-.519-.168,1.6,1.6,0,0,1-.414-.608q-.194-.421-.345-.831t-.3-.774l-.546.462-.41,1.838h-.884l1.409-6.1c.022-.1.037-.166.045-.2a.718.718,0,0,0,.012-.142.5.5,0,0,0-.057-.263.359.359,0,0,0-.161-.14.844.844,0,0,0-.252-.057q-.152-.014-.309-.033l.067-.289,1.761-.1.047.071-1.158,4.928h.019q.535-.577.972-1t.915-.864a3.509,3.509,0,0,1,.539-.428.831.831,0,0,1,.426-.116.551.551,0,0,1,.388.135.475.475,0,0,1,.147.367" transform="translate(-231.406 -283.414)" fill="#a1a1a1"/>
    <path id="Tracciato_1756" data-name="Tracciato 1756" d="M313.891,345.011a.559.559,0,0,1-.164.386.529.529,0,0,1-.4.177,1.133,1.133,0,0,1-.308-.043,2.127,2.127,0,0,1-.332-.128,4.406,4.406,0,0,0-.537.362q-.277.216-.6.521.27.7.457,1.149t.32.732a1.305,1.305,0,0,0,.376.5.753.753,0,0,0,.452.149,1.966,1.966,0,0,0,.313-.034,2.184,2.184,0,0,0,.308-.07l-.071.31a5.352,5.352,0,0,1-.692.239,2.146,2.146,0,0,1-.507.061.82.82,0,0,1-.519-.168,1.6,1.6,0,0,1-.414-.608q-.194-.421-.345-.831t-.3-.774l-.546.462-.41,1.838h-.884l1.409-6.1c.022-.1.037-.166.045-.2a.735.735,0,0,0,.012-.142.5.5,0,0,0-.057-.263.359.359,0,0,0-.162-.14.844.844,0,0,0-.252-.057c-.1-.01-.2-.02-.309-.033l.067-.289,1.761-.1.047.071-1.158,4.928h.019q.535-.577.972-1t.915-.864a3.519,3.519,0,0,1,.539-.428.832.832,0,0,1,.426-.116.551.551,0,0,1,.388.135.475.475,0,0,1,.147.367" transform="translate(-256.194 -283.414)" fill="#a1a1a1"/>
    <path id="Tracciato_1757" data-name="Tracciato 1757" d="M342.361,360.959h-.033q-.1.085-.248.215a2.249,2.249,0,0,1-.338.249,2.406,2.406,0,0,1-.4.206,1.254,1.254,0,0,1-.473.088,1.3,1.3,0,0,1-1.075-.493,2.112,2.112,0,0,1-.39-1.346,3.1,3.1,0,0,1,.217-1.142,3.4,3.4,0,0,1,.6-1,2.863,2.863,0,0,1,.866-.68,2.225,2.225,0,0,1,1.031-.258,2.254,2.254,0,0,1,.641.09,1.866,1.866,0,0,1,.48.2l.869-.223.057.071L343.443,360q-.038.147-.078.358a1.845,1.845,0,0,0-.04.31.461.461,0,0,0,.114.365.605.605,0,0,0,.384.095,1.623,1.623,0,0,0,.256-.028,1.51,1.51,0,0,0,.256-.061l-.071.3q-.427.171-.636.246a1.5,1.5,0,0,1-.508.076.731.731,0,0,1-.541-.2.757.757,0,0,1-.218-.507m.682-2.995a1.317,1.317,0,0,0-.033-.3.631.631,0,0,0-.137-.266.656.656,0,0,0-.261-.189,1.057,1.057,0,0,0-.417-.071,1.165,1.165,0,0,0-.673.228,2.313,2.313,0,0,0-.587.611,3.188,3.188,0,0,0-.4.872,3.663,3.663,0,0,0-.123,1.55,1.307,1.307,0,0,0,.128.407.656.656,0,0,0,.26.28.84.84,0,0,0,.43.1,1.216,1.216,0,0,0,.555-.149,2.683,2.683,0,0,0,.654-.524Z" transform="translate(-281.327 -295.75)" fill="#a1a1a1"/>
    <path id="Tracciato_1758" data-name="Tracciato 1758" d="M374.2,349.465l-.071.3a6.2,6.2,0,0,1-.7.244,1.789,1.789,0,0,1-.445.069.753.753,0,0,1-.568-.2.672.672,0,0,1-.19-.486,1.409,1.409,0,0,1,.019-.227q.019-.119.061-.3l.5-2.014q.038-.166.073-.355a1.8,1.8,0,0,0,.036-.322.513.513,0,0,0-.088-.353.52.52,0,0,0-.357-.088,1.553,1.553,0,0,0-.276.033q-.172.033-.262.057l.071-.3a4.626,4.626,0,0,1,.662-.246,1.864,1.864,0,0,1,.464-.081.747.747,0,0,1,.563.185.7.7,0,0,1,.175.5,1.965,1.965,0,0,1-.019.232,2.443,2.443,0,0,1-.057.294l-.5,2.014q-.047.185-.082.363a1.557,1.557,0,0,0-.035.291.461.461,0,0,0,.12.37.609.609,0,0,0,.389.1,1.962,1.962,0,0,0,.257-.024,1.291,1.291,0,0,0,.257-.057m.336-6.054a.7.7,0,0,1-.175.471.555.555,0,0,1-.435.2.546.546,0,0,1-.417-.192.63.63,0,0,1-.175-.438.656.656,0,0,1,.175-.454.543.543,0,0,1,.417-.194.576.576,0,0,1,.44.182.6.6,0,0,1,.17.424" transform="translate(-308.293 -284.147)" fill="#a1a1a1"/>
  </g>
</svg>
