<svg id="Raggruppa_854" data-name="Raggruppa 854" xmlns="http://www.w3.org/2000/svg" xmlns:xlink="http://www.w3.org/1999/xlink" width="84.36" height="73.222" viewBox="0 0 84.36 73.222">
  <defs>
    <clipPath id="clip-path">
      <rect id="Rettangolo_342" data-name="Rettangolo 342" width="84.36" height="73.222" fill="#f8f8f8"/>
    </clipPath>
  </defs>
  <g id="Raggruppa_854-2" data-name="Raggruppa 854" clip-path="url(#clip-path)">
    <path id="Tracciato_1713" data-name="Tracciato 1713" d="M152.235,23.141a5.232,5.232,0,0,0,2.415-.533,5.655,5.655,0,0,0,1.781-1.418,5.991,5.991,0,0,0,1.114-1.99,7.035,7.035,0,0,0,.384-2.269,3.866,3.866,0,0,0-.965-2.735,3.463,3.463,0,0,0-2.674-1.043,5.2,5.2,0,0,0-2.3.514,5.459,5.459,0,0,0-1.782,1.35,6.652,6.652,0,0,0-1.556,4.326,3.815,3.815,0,0,0,.994,2.769,3.437,3.437,0,0,0,2.588,1.028m-1.441-5.359a7.391,7.391,0,0,1,.576-1.861,3.834,3.834,0,0,1,1.215-1.6,2.588,2.588,0,0,1,1.5-.49,1.61,1.61,0,0,1,1.4.683,3.542,3.542,0,0,1,.485,2.048,10.305,10.305,0,0,1-.221,2.139,7.456,7.456,0,0,1-.634,1.851,4.076,4.076,0,0,1-1.076,1.365,2.34,2.34,0,0,1-1.517.538,1.613,1.613,0,0,1-1.436-.707,3.742,3.742,0,0,1-.475-2.082,10.819,10.819,0,0,1,.182-1.889" transform="translate(-120.431 -10.656)" fill="#f8f8f8"/>
    <path id="Tracciato_1714" data-name="Tracciato 1714" d="M206.593,10.1q-.048.25-.077.447a2.892,2.892,0,0,0-.029.418,1.334,1.334,0,0,0,.423,1.061,2,2,0,0,0,1.335.37,4.689,4.689,0,0,0,1.4-.187q.6-.187,1.268-.447l.163-.7a3.3,3.3,0,0,1-.7.158,5.457,5.457,0,0,1-.7.062,1.418,1.418,0,0,1-.956-.245,1.007,1.007,0,0,1-.264-.773,3.577,3.577,0,0,1,.058-.581q.058-.341.144-.706l1.24-5.292h2.651l.2-.874h-2.674L210.725,0H209l-.67,2.814h-1.753l-.2.874h1.718Z" transform="translate(-167.193 -0.001)" fill="#f8f8f8"/>
    <path id="Tracciato_1715" data-name="Tracciato 1715" d="M242.56,10.1q-.048.25-.077.447a2.917,2.917,0,0,0-.029.418,1.334,1.334,0,0,0,.422,1.061,2,2,0,0,0,1.335.37,4.691,4.691,0,0,0,1.4-.187q.6-.187,1.268-.447l.163-.7a3.3,3.3,0,0,1-.7.158,5.457,5.457,0,0,1-.7.062,1.418,1.418,0,0,1-.956-.245,1.008,1.008,0,0,1-.264-.773,3.556,3.556,0,0,1,.058-.581q.058-.341.144-.706l1.24-5.292h2.651l.2-.874h-2.674L246.692,0h-1.728l-.67,2.814h-1.754l-.2.874h1.718Z" transform="translate(-196.331 -0.001)" fill="#f8f8f8"/>
    <path id="Tracciato_1716" data-name="Tracciato 1716" d="M279.814,23.141a5.231,5.231,0,0,0,2.415-.533,5.654,5.654,0,0,0,1.782-1.418,5.992,5.992,0,0,0,1.114-1.99,7.043,7.043,0,0,0,.384-2.269,3.867,3.867,0,0,0-.965-2.735,3.464,3.464,0,0,0-2.675-1.043,5.2,5.2,0,0,0-2.3.514,5.459,5.459,0,0,0-1.782,1.35,6.651,6.651,0,0,0-1.556,4.326,3.816,3.816,0,0,0,.994,2.769,3.437,3.437,0,0,0,2.588,1.028m-1.441-5.359a7.4,7.4,0,0,1,.576-1.861,3.836,3.836,0,0,1,1.215-1.6,2.59,2.59,0,0,1,1.5-.49,1.609,1.609,0,0,1,1.4.683,3.54,3.54,0,0,1,.485,2.048,10.3,10.3,0,0,1-.221,2.139,7.445,7.445,0,0,1-.634,1.851,4.079,4.079,0,0,1-1.076,1.365,2.34,2.34,0,0,1-1.517.538,1.613,1.613,0,0,1-1.436-.707,3.742,3.742,0,0,1-.475-2.082,10.818,10.818,0,0,1,.182-1.889" transform="translate(-223.79 -10.656)" fill="#f8f8f8"/>
    <path id="Tracciato_1717" data-name="Tracciato 1717" d="M266.569,93.241a1.409,1.409,0,0,0,.356-.956,1.219,1.219,0,0,0-.346-.86,1.168,1.168,0,0,0-.893-.37,1.1,1.1,0,0,0-.845.394,1.332,1.332,0,0,0-.355.922,1.279,1.279,0,0,0,.355.888,1.107,1.107,0,0,0,.845.389,1.124,1.124,0,0,0,.884-.408" transform="translate(-214.273 -73.769)" fill="#f8f8f8"/>
    <path id="Tracciato_1718" data-name="Tracciato 1718" d="M251.335,120.017l-1.015,4.086q-.087.366-.125.606a2.93,2.93,0,0,0-.039.462,1.365,1.365,0,0,0,.384.985,1.531,1.531,0,0,0,1.153.4,3.647,3.647,0,0,0,.9-.139,12.735,12.735,0,0,0,1.412-.495l.144-.615a2.634,2.634,0,0,1-.522.115,4.019,4.019,0,0,1-.522.048,1.237,1.237,0,0,1-.79-.2.938.938,0,0,1-.244-.75,3.151,3.151,0,0,1,.072-.591q.072-.361.167-.735l1.021-4.086a4.964,4.964,0,0,0,.115-.6,4,4,0,0,0,.038-.471,1.407,1.407,0,0,0-.355-1.009,1.513,1.513,0,0,0-1.143-.375,3.8,3.8,0,0,0-.941.163,9.454,9.454,0,0,0-1.344.5l-.144.615q.182-.048.532-.115a3.147,3.147,0,0,1,.561-.067,1.054,1.054,0,0,1,.724.178,1.041,1.041,0,0,1,.177.716,3.658,3.658,0,0,1-.072.654q-.072.385-.149.721" transform="translate(-202.183 -94.507)" fill="#f8f8f8"/>
    <path id="Tracciato_1719" data-name="Tracciato 1719" d="M283.738,101.144l2.685-11.563-.1-.144-3.573.211-.135.586q.318.038.627.067a1.719,1.719,0,0,1,.511.115.729.729,0,0,1,.328.283,1.021,1.021,0,0,1,.116.533,1.451,1.451,0,0,1-.024.288q-.024.115-.091.413l-2.341,10.119q-.077.365-.12.605a2.6,2.6,0,0,0-.043.461,1.339,1.339,0,0,0,.4.985,1.581,1.581,0,0,0,1.167.4,3.555,3.555,0,0,0,1.052-.144q.466-.144,1.33-.49l.144-.615a2.97,2.97,0,0,1-.57.115,4.942,4.942,0,0,1-.57.048,1.241,1.241,0,0,1-.791-.2.935.935,0,0,1-.245-.749,3.019,3.019,0,0,1,.077-.6q.077-.365.164-.73" transform="translate(-228.125 -72.457)" fill="#f8f8f8"/>
    <path id="Tracciato_1720" data-name="Tracciato 1720" d="M312.163,90.234q.318.038.627.067a1.72,1.72,0,0,1,.511.115.728.728,0,0,1,.328.283,1.021,1.021,0,0,1,.116.533,1.452,1.452,0,0,1-.024.288q-.024.115-.091.413l-2.341,10.119q-.077.365-.12.605a2.588,2.588,0,0,0-.043.461,1.338,1.338,0,0,0,.4.985,1.581,1.581,0,0,0,1.167.4,3.553,3.553,0,0,0,1.052-.144q.466-.144,1.33-.49l.144-.615a2.972,2.972,0,0,1-.571.115,4.939,4.939,0,0,1-.57.048,1.241,1.241,0,0,1-.791-.2.935.935,0,0,1-.245-.749,3.032,3.032,0,0,1,.077-.6q.077-.365.164-.73l2.685-11.563-.1-.144-3.572.211Z" transform="translate(-252.059 -72.457)" fill="#f8f8f8"/>
    <path id="Tracciato_1721" data-name="Tracciato 1721" d="M342.747,126.622a4.541,4.541,0,0,0,2.392-.7,6.022,6.022,0,0,0,1.921-1.873l-.548-.4a5.893,5.893,0,0,1-1.445,1.431,3.027,3.027,0,0,1-1.7.48,1.883,1.883,0,0,1-1.647-.8,4.023,4.023,0,0,1-.562-2.319q1.1-.134,2.017-.337a14.105,14.105,0,0,0,1.806-.529,4.328,4.328,0,0,0,1.858-1.164,2.573,2.573,0,0,0,.639-1.751,1.8,1.8,0,0,0-.667-1.438,3.134,3.134,0,0,0-2.051-.563,4.789,4.789,0,0,0-2.281.548,5.478,5.478,0,0,0-1.743,1.442,6.7,6.7,0,0,0-1.109,2.014,7.048,7.048,0,0,0-.379,2.312,3.784,3.784,0,0,0,.9,2.7,3.4,3.4,0,0,0,2.6.952m-.293-8.022a2.723,2.723,0,0,1,2.127-1.265,2.656,2.656,0,0,1,.394.029.89.89,0,0,1,.365.144.778.778,0,0,1,.269.321,1.36,1.36,0,0,1,.106.589,2.931,2.931,0,0,1-.389,1.538,2.878,2.878,0,0,1-1.186,1.059,5.569,5.569,0,0,1-1.4.465q-.845.177-1.517.273a6.512,6.512,0,0,1,1.234-3.153" transform="translate(-274.845 -94.507)" fill="#f8f8f8"/>
    <path id="Tracciato_1722" data-name="Tracciato 1722" d="M172.033,71.986a4.34,4.34,0,0,0-1.381,1.143,5.312,5.312,0,0,0-.879,1.6,5.58,5.58,0,0,0-.3,1.832,3,3,0,0,0,.712,2.14,2.7,2.7,0,0,0,2.058.754,3.6,3.6,0,0,0,1.895-.556,4.767,4.767,0,0,0,1.522-1.484l-.434-.32a4.67,4.67,0,0,1-1.145,1.134,2.4,2.4,0,0,1-1.343.38,1.492,1.492,0,0,1-1.305-.635,3.185,3.185,0,0,1-.445-1.838q.875-.107,1.6-.267a11.164,11.164,0,0,0,1.43-.419,3.43,3.43,0,0,0,1.472-.922,2.038,2.038,0,0,0,.506-1.387,1.425,1.425,0,0,0-.529-1.14,2.482,2.482,0,0,0-1.625-.446,3.793,3.793,0,0,0-1.807.434m2.264.243a.615.615,0,0,1,.213.254,1.08,1.08,0,0,1,.084.467,2.321,2.321,0,0,1-.308,1.219,2.28,2.28,0,0,1-.94.839,4.41,4.41,0,0,1-1.111.368q-.67.141-1.2.216a5.161,5.161,0,0,1,.978-2.5,2.159,2.159,0,0,1,1.685-1,2.107,2.107,0,0,1,.312.023.707.707,0,0,1,.289.114" transform="translate(-137.298 -57.968)" fill="#f8f8f8"/>
    <path id="Tracciato_1723" data-name="Tracciato 1723" d="M214.065,71.552a1.737,1.737,0,0,0-.978.312,15.665,15.665,0,0,0-1.374,1.1h-.046a1.6,1.6,0,0,0-.259-.994,1.035,1.035,0,0,0-.867-.331,2.942,2.942,0,0,0-.784.129,7.8,7.8,0,0,0-1.05.4l-.114.487q.144-.038.4-.1a2.052,2.052,0,0,1,.426-.057.836.836,0,0,1,.578.145.826.826,0,0,1,.144.571,3.107,3.107,0,0,1-.072.541q-.072.365-.11.548l-1.11,4.937h1.419l1.226-5.454a5.955,5.955,0,0,1,.8-.77,4.061,4.061,0,0,1,.672-.435,2.528,2.528,0,0,1,.5-.194,1.5,1.5,0,0,1,.3-.05q-.122.29-.236.582a1.48,1.48,0,0,0-.114.529.633.633,0,0,0,.205.457,1.036,1.036,0,0,0,1.084.1,1.126,1.126,0,0,0,.3-.316,1.273,1.273,0,0,0,.175-.422,2.046,2.046,0,0,0,.061-.468,1.771,1.771,0,0,0-.08-.605.994.994,0,0,0-.247-.369.922.922,0,0,0-.388-.205,1.821,1.821,0,0,0-.472-.061" transform="translate(-168.993 -57.968)" fill="#f8f8f8"/>
    <path id="Tracciato_1724" data-name="Tracciato 1724" d="M125.383,98.133c-1.867-4.336-7.531-6.328-11.992-6.518s-10.807,1.325-17.631,3.315l-4.917-5.156,1.677-7.084a5.173,5.173,0,0,1,1.389-1.13,2.818,2.818,0,0,1,1.256-.3,1.021,1.021,0,0,1,.879.375,1.679,1.679,0,0,1,.277,1.019,3.111,3.111,0,0,1-.062.539q-.063.337-.169.75l-.949,3.586q-.087.346-.125.6a3.12,3.12,0,0,0-.039.466,1.363,1.363,0,0,0,.385.985,1.539,1.539,0,0,0,1.156.4,3.669,3.669,0,0,0,.906-.139,12.736,12.736,0,0,0,1.417-.495l.145-.615a2.669,2.669,0,0,1-.529.115,4.117,4.117,0,0,1-.529.048,1.2,1.2,0,0,1-.779-.2.954.954,0,0,1-.231-.745,3.519,3.519,0,0,1,.077-.62q.077-.4.164-.707l.809-3.086a6.3,6.3,0,0,0,.168-.875,6.154,6.154,0,0,0,.053-.615,1.982,1.982,0,0,0-.493-1.4,1.825,1.825,0,0,0-1.411-.533,3.78,3.78,0,0,0-1.86.442,12.064,12.064,0,0,0-1.822,1.3h-.038a1.869,1.869,0,0,0-.6-1.245,1.955,1.955,0,0,0-1.386-.495,3.674,3.674,0,0,0-1.736.385,13.05,13.05,0,0,0-1.861,1.278h-.058a1.905,1.905,0,0,0-.343-1.139,1.3,1.3,0,0,0-1.1-.418,3.738,3.738,0,0,0-.995.165,9.9,9.9,0,0,0-1.332.5l-.145.619q.183-.05.516-.131a2.422,2.422,0,0,1,.546-.08.725.725,0,0,1,.9.913,3.66,3.66,0,0,1-.072.654q-.072.385-.149.721l-1.44,6.23h1.794l1.641-7.056a4.768,4.768,0,0,1,1.527-1.226,3.159,3.159,0,0,1,1.2-.274,1.144,1.144,0,0,1,.911.356,1.442,1.442,0,0,1,.31.981,2.149,2.149,0,0,1-.043.351q-.043.235-.091.447l-1.514,6.423h.019l5.062,5.529C82.92,98.26,79.882,97.69,79.882,97.69s-12.91.316-13.1-7.847c-.194-8.363,11.866-6.3,11.866-6.3l.095-1.424s-.3-.042-.787-.079c-.057-.013-.112-.027-.164-.043a.919.919,0,0,1-.339-.175A.4.4,0,0,1,77.3,81.5a1.779,1.779,0,0,1,.027-.266q.027-.168.073-.358l.444-1.994a3.241,3.241,0,0,0,.745.4,3.043,3.043,0,0,0,1.072.16,3.725,3.725,0,0,0,1.585-.358,4.44,4.44,0,0,0,1.433-1.1,5.362,5.362,0,0,0,1.307-3.519,3.256,3.256,0,0,0-.643-2.121,2.192,2.192,0,0,0-1.8-.788,2.5,2.5,0,0,0-1.176.312,5.214,5.214,0,0,0-1.107.792H79.2a1.272,1.272,0,0,0-.342-.75,1.1,1.1,0,0,0-.807-.271,2.807,2.807,0,0,0-.791.141,9.03,9.03,0,0,0-1.043.4l-.114.487.4-.1a1.827,1.827,0,0,1,.425-.065.8.8,0,0,1,.574.145.877.877,0,0,1,.133.571,2.894,2.894,0,0,1-.053.507q-.053.293-.114.582l-1.588,7.007a1.182,1.182,0,0,1-.2.461.7.7,0,0,1-.377.255c-.026.007-.054.012-.08.019q-.164.015-.328.034c-2.421.285-9.572,1.376-9.635,8.527-.035,3.936,3.1,6.9,6.075,8.037,7.149,2.738,16.669.243,21.194-1.263.841-.245,1.777-.517,2.738-.8,2.932,2.981,11.7,11.349,18.735,12.434a12.046,12.046,0,0,0,2.58.319h.178a2.762,2.762,0,0,0,.421-.006c8.644-.228,10.115-6.739,8.2-11.194M79.1,73.4a4.634,4.634,0,0,1,1.031-.8,1.735,1.735,0,0,1,.772-.213,1.538,1.538,0,0,1,.761.164,1.188,1.188,0,0,1,.456.461,1.984,1.984,0,0,1,.232.674,4.654,4.654,0,0,1,.072.811,6.621,6.621,0,0,1-.209,1.688,5.157,5.157,0,0,1-.6,1.421,3.057,3.057,0,0,1-.9.952,1.99,1.99,0,0,1-1.125.35,1.433,1.433,0,0,1-1-.377,1.32,1.32,0,0,1-.468-.812Zm44.782,32.167c-4.857,4.873-14.318.348-19.76-3.133q-.183-.117-.364-.238a66.34,66.34,0,0,1-6.848-6.088c2.456-.7,4.818-1.365,5.937-1.636a43.187,43.187,0,0,1,11.78-.835c10,1.013,12.273,8.9,9.255,11.929" transform="translate(-52.873 -57.968)" fill="#f8f8f8"/>
    <path id="Tracciato_1725" data-name="Tracciato 1725" d="M71.043,238.25l-.079.346a3.578,3.578,0,0,0-.425.047,3.542,3.542,0,0,0-.389.079.56.56,0,0,0-.315.21.985.985,0,0,0-.137.312l-1.264,5.446a.473.473,0,0,0-.016.083.8.8,0,0,0-.005.084.379.379,0,0,0,.053.2.425.425,0,0,0,.189.147A1.8,1.8,0,0,0,69,245.3q.268.05.4.06l-.079.347H65.961l.079-.347.42-.032a1.625,1.625,0,0,0,.389-.063.689.689,0,0,0,.31-.2.707.707,0,0,0,.142-.312l1.26-5.452a.955.955,0,0,0,.016-.095.877.877,0,0,0,.005-.095.366.366,0,0,0-.045-.184.385.385,0,0,0-.186-.142,2.138,2.138,0,0,0-.386-.118,3.151,3.151,0,0,0-.36-.066l.079-.346Z" transform="translate(-53.438 -193.019)" fill="#f8f8f8"/>
    <path id="Tracciato_1726" data-name="Tracciato 1726" d="M91.538,255.027a2.731,2.731,0,0,1-1.295-.276.819.819,0,0,1-.517-.722.606.606,0,0,1,.152-.394.467.467,0,0,1,.373-.184.548.548,0,0,1,.339.1.74.74,0,0,1,.2.229,1.688,1.688,0,0,1,.139.326q.06.189.1.31a.8.8,0,0,0,.218.166.853.853,0,0,0,.4.076,1.183,1.183,0,0,0,.859-.284,1.025,1.025,0,0,0,.291-.769.687.687,0,0,0-.273-.571,2.753,2.753,0,0,0-.814-.392,3.57,3.57,0,0,1-.457-.192,1.717,1.717,0,0,1-.42-.276,1.323,1.323,0,0,1-.3-.4,1.213,1.213,0,0,1-.116-.547,1.468,1.468,0,0,1,.6-1.166,2.259,2.259,0,0,1,1.478-.492q.205,0,.441.021a2.311,2.311,0,0,1,.52.116,1.122,1.122,0,0,1,.42.249.565.565,0,0,1,.173.428.6.6,0,0,1-.144.391.469.469,0,0,1-.381.176.567.567,0,0,1-.32-.084.684.684,0,0,1-.21-.226,1.491,1.491,0,0,1-.137-.3q-.053-.163-.116-.32a.971.971,0,0,0-.179-.058,1.137,1.137,0,0,0-.21-.016,1.031,1.031,0,0,0-.78.277.915.915,0,0,0-.265.656.661.661,0,0,0,.239.555,3.013,3.013,0,0,0,.791.387,2.755,2.755,0,0,1,1.037.589,1.13,1.13,0,0,1,.323.821,1.6,1.6,0,0,1-.615,1.3,2.369,2.369,0,0,1-1.549.5" transform="translate(-72.692 -202.185)" fill="#f8f8f8"/>
    <path id="Tracciato_1727" data-name="Tracciato 1727" d="M117.694,249.152a1.092,1.092,0,0,1-.73-.2.729.729,0,0,1-.231-.58,1.562,1.562,0,0,1,.016-.228q.016-.108.042-.244l.819-3.508h-.94l.111-.478h.959l.366-1.539h.945l-.355,1.539h1.462l-.11.478H118.6l-.678,2.894q-.047.2-.079.386a1.945,1.945,0,0,0-.032.318.551.551,0,0,0,.145.423.774.774,0,0,0,.523.134,3,3,0,0,0,.383-.034,1.8,1.8,0,0,0,.384-.087l-.089.384q-.368.142-.693.244a2.562,2.562,0,0,1-.767.1" transform="translate(-94.52 -196.358)" fill="#f8f8f8"/>
    <path id="Tracciato_1728" data-name="Tracciato 1728" d="M137.883,242.957l-.079.336a6.884,6.884,0,0,1-.772.271,1.982,1.982,0,0,1-.494.076.836.836,0,0,1-.63-.218.746.746,0,0,1-.21-.539,1.593,1.593,0,0,1,.021-.252q.021-.132.068-.331l.555-2.235q.042-.184.081-.394a2,2,0,0,0,.039-.357.569.569,0,0,0-.1-.392.576.576,0,0,0-.4-.1,1.715,1.715,0,0,0-.307.037q-.191.037-.291.063l.079-.336a5.16,5.16,0,0,1,.735-.273,2.072,2.072,0,0,1,.514-.089.828.828,0,0,1,.625.205.77.77,0,0,1,.194.552,2.132,2.132,0,0,1-.021.258,2.67,2.67,0,0,1-.063.326l-.558,2.234q-.052.205-.091.4a1.72,1.72,0,0,0-.039.323.512.512,0,0,0,.133.41.676.676,0,0,0,.432.111,2.188,2.188,0,0,0,.285-.026,1.438,1.438,0,0,0,.285-.063m.373-6.717a.772.772,0,0,1-.194.523.616.616,0,0,1-.483.223.605.605,0,0,1-.462-.213.7.7,0,0,1-.194-.486.728.728,0,0,1,.194-.5.6.6,0,0,1,.462-.215.639.639,0,0,1,.488.2.668.668,0,0,1,.189.47" transform="translate(-109.672 -190.845)" fill="#f8f8f8"/>
    <path id="Tracciato_1729" data-name="Tracciato 1729" d="M154.212,249.152a1.091,1.091,0,0,1-.73-.2.729.729,0,0,1-.231-.58,1.559,1.559,0,0,1,.016-.228q.015-.108.042-.244l.819-3.508h-.939l.111-.478h.959l.366-1.539h.945l-.356,1.539h1.462l-.11.478h-1.45l-.678,2.894q-.047.2-.079.386a1.948,1.948,0,0,0-.032.318.55.55,0,0,0,.145.423.774.774,0,0,0,.522.134,3,3,0,0,0,.384-.034,1.8,1.8,0,0,0,.383-.087l-.089.384q-.368.142-.693.244a2.56,2.56,0,0,1-.767.1" transform="translate(-124.105 -196.358)" fill="#f8f8f8"/>
    <path id="Tracciato_1730" data-name="Tracciato 1730" d="M174.928,254.4H174.9q-.242.195-.462.357a3.149,3.149,0,0,1-.436.273,2.48,2.48,0,0,1-.457.181,2.12,2.12,0,0,1-.536.055,1.031,1.031,0,0,1-.783-.291,1.06,1.06,0,0,1-.278-.764,2.532,2.532,0,0,1,.021-.3q.021-.173.1-.515l.408-1.665q.052-.231.086-.41a1.812,1.812,0,0,0,.034-.341.568.568,0,0,0-.1-.391.574.574,0,0,0-.4-.1,1.283,1.283,0,0,0-.293.044q-.178.044-.278.072l.079-.339a6.2,6.2,0,0,1,.722-.28,1.819,1.819,0,0,1,.5-.1.842.842,0,0,1,.617.2.757.757,0,0,1,.2.559,2.163,2.163,0,0,1-.021.257,2.646,2.646,0,0,1-.063.326l-.463,1.943q-.052.221-.086.412a1.788,1.788,0,0,0-.034.291.914.914,0,0,0,.152.557.561.561,0,0,0,.483.2,1.545,1.545,0,0,0,.69-.176,2.757,2.757,0,0,0,.711-.533l.914-3.955.916-.063.063.079-.781,3.382q-.052.216-.094.433a1.9,1.9,0,0,0-.042.307.515.515,0,0,0,.128.407.668.668,0,0,0,.427.108,1.787,1.787,0,0,0,.283-.031,1.664,1.664,0,0,0,.283-.068l-.079.336q-.435.179-.727.268a1.843,1.843,0,0,1-.538.089.78.78,0,0,1-.633-.247.87.87,0,0,1-.207-.578" transform="translate(-138.965 -202.454)" fill="#f8f8f8"/>
    <path id="Tracciato_1731" data-name="Tracciato 1731" d="M206.47,249.152a1.093,1.093,0,0,1-.73-.2.73.73,0,0,1-.231-.58,1.585,1.585,0,0,1,.016-.228q.016-.108.042-.244l.819-3.508h-.94l.111-.478h.959l.366-1.539h.945l-.356,1.539h1.463l-.11.478h-1.45l-.678,2.894q-.047.2-.079.386a1.97,1.97,0,0,0-.032.318.551.551,0,0,0,.145.423.775.775,0,0,0,.523.134,3,3,0,0,0,.383-.034,1.8,1.8,0,0,0,.384-.087l-.089.384q-.368.142-.693.244a2.563,2.563,0,0,1-.767.1" transform="translate(-166.442 -196.358)" fill="#f8f8f8"/>
    <path id="Tracciato_1732" data-name="Tracciato 1732" d="M229.056,251.631a3.853,3.853,0,0,1-.21,1.241,3.273,3.273,0,0,1-.609,1.088,3.089,3.089,0,0,1-.974.776,2.859,2.859,0,0,1-1.321.292,1.88,1.88,0,0,1-1.415-.562,2.087,2.087,0,0,1-.544-1.514,3.638,3.638,0,0,1,.851-2.366,2.993,2.993,0,0,1,.974-.739,2.847,2.847,0,0,1,1.258-.281,1.894,1.894,0,0,1,1.463.571,2.114,2.114,0,0,1,.528,1.5m-1.071-.2a1.937,1.937,0,0,0-.265-1.12.88.88,0,0,0-.764-.373,1.415,1.415,0,0,0-.822.268,2.1,2.1,0,0,0-.664.873,4.038,4.038,0,0,0-.315,1.018,5.908,5.908,0,0,0-.1,1.033,2.045,2.045,0,0,0,.26,1.138.882.882,0,0,0,.785.387,1.279,1.279,0,0,0,.83-.295,2.225,2.225,0,0,0,.588-.747,4.071,4.071,0,0,0,.347-1.012,5.635,5.635,0,0,0,.121-1.17" transform="translate(-181.459 -202.185)" fill="#f8f8f8"/>
    <path id="Tracciato_1733" data-name="Tracciato 1733" d="M6.36,293.785a1.2,1.2,0,0,1,.452.417,1.12,1.12,0,0,1,.163.607,1.79,1.79,0,0,1-.189.84,1.915,1.915,0,0,1-.494.609,2.883,2.883,0,0,1-.7.417,4.029,4.029,0,0,1-.791.244v.046a3.261,3.261,0,0,1,.631.145,2.351,2.351,0,0,1,.589.286,1.474,1.474,0,0,1,.455.475,1.313,1.313,0,0,1,.176.691,1.981,1.981,0,0,1-.276,1.049,2.345,2.345,0,0,1-.7.738,3.315,3.315,0,0,1-.97.449,3.943,3.943,0,0,1-1.064.145H0l.084-.347q.126-.01.378-.044a1.536,1.536,0,0,0,.362-.082.637.637,0,0,0,.281-.2.813.813,0,0,0,.139-.312l1.251-5.41c.007-.035.013-.069.018-.1a.648.648,0,0,0,.008-.1.394.394,0,0,0-.045-.192.359.359,0,0,0-.155-.139A1.25,1.25,0,0,0,2,293.887a2.118,2.118,0,0,0-.318-.05l.084-.346H5.053a3.485,3.485,0,0,1,.7.066,2.085,2.085,0,0,1,.612.228M4.9,299.808a2.327,2.327,0,0,0,.342-.679,2.409,2.409,0,0,0,.116-.726,1.1,1.1,0,0,0-.379-.884A1.6,1.6,0,0,0,3.92,297.2q-.331,0-.569.008l-.358.013L2.4,299.791c-.01.05-.018.1-.024.138a.971.971,0,0,0-.008.121.409.409,0,0,0,.279.395,1.8,1.8,0,0,0,.71.121,1.862,1.862,0,0,0,1.548-.757m.342-3.6a1.836,1.836,0,0,0,.355-.612,2.31,2.31,0,0,0,.108-.733,1.023,1.023,0,0,0-.1-.473.809.809,0,0,0-.274-.31,1.164,1.164,0,0,0-.385-.155,2.143,2.143,0,0,0-.442-.045q-.174,0-.387.008l-.361.013L3.1,296.8h.657a2.235,2.235,0,0,0,.891-.163,1.612,1.612,0,0,0,.6-.431" transform="translate(0 -237.772)" fill="#f8f8f8"/>
    <path id="Tracciato_1734" data-name="Tracciato 1734" d="M42.932,309.644H42.9q-.242.195-.463.357a3.149,3.149,0,0,1-.436.273,2.476,2.476,0,0,1-.457.181,2.122,2.122,0,0,1-.536.055,1.031,1.031,0,0,1-.783-.291,1.061,1.061,0,0,1-.278-.764,2.574,2.574,0,0,1,.021-.3q.021-.173.1-.515l.408-1.665c.035-.154.064-.291.087-.41a1.827,1.827,0,0,0,.034-.341.568.568,0,0,0-.1-.391.575.575,0,0,0-.4-.1,1.286,1.286,0,0,0-.294.044q-.178.044-.278.072l.079-.338a6.166,6.166,0,0,1,.722-.28,1.812,1.812,0,0,1,.5-.1.843.843,0,0,1,.617.2.758.758,0,0,1,.2.559,2.127,2.127,0,0,1-.021.258,2.621,2.621,0,0,1-.063.325l-.463,1.943q-.052.221-.086.412a1.785,1.785,0,0,0-.034.291.914.914,0,0,0,.152.557.561.561,0,0,0,.483.2,1.545,1.545,0,0,0,.69-.176,2.753,2.753,0,0,0,.711-.533l.914-3.955.916-.063.063.079-.781,3.382q-.053.216-.095.433a1.9,1.9,0,0,0-.042.307.515.515,0,0,0,.129.407.666.666,0,0,0,.427.108,1.8,1.8,0,0,0,.283-.032,1.67,1.67,0,0,0,.283-.068l-.079.336q-.436.179-.727.268a1.845,1.845,0,0,1-.538.089.779.779,0,0,1-.633-.247.87.87,0,0,1-.207-.578" transform="translate(-32.028 -247.208)" fill="#f8f8f8"/>
    <path id="Tracciato_1735" data-name="Tracciato 1735" d="M75.729,297.332h-.037l-.3.26a2.762,2.762,0,0,1-.383.281,2.888,2.888,0,0,1-.464.242,1.6,1.6,0,0,1-1.715-.465,2.353,2.353,0,0,1-.433-1.5,3.562,3.562,0,0,1,.234-1.278,3.73,3.73,0,0,1,.638-1.094,3.107,3.107,0,0,1,.948-.749,2.49,2.49,0,0,1,1.159-.287,2.8,2.8,0,0,1,.72.095,2.346,2.346,0,0,1,.589.231l.41-1.786q.031-.142.044-.221a1.04,1.04,0,0,0,.013-.173.469.469,0,0,0-.076-.289.439.439,0,0,0-.213-.147,1.271,1.271,0,0,0-.346-.063q-.221-.016-.4-.037l.073-.32,2.127-.116.053.079-1.457,6.3q-.042.173-.087.4a1.89,1.89,0,0,0-.045.339.522.522,0,0,0,.126.407.659.659,0,0,0,.426.107,1.782,1.782,0,0,0,.284-.032,1.662,1.662,0,0,0,.283-.068l-.079.336a5.151,5.151,0,0,1-.732.279,2.05,2.05,0,0,1-.536.079.878.878,0,0,1-.6-.2.775.775,0,0,1-.224-.612m.748-3.349a.823.823,0,0,0-.079-.3,1.063,1.063,0,0,0-.174-.261.95.95,0,0,0-.313-.218,1.1,1.1,0,0,0-.455-.087,1.311,1.311,0,0,0-.765.253,2.411,2.411,0,0,0-.634.673,3.494,3.494,0,0,0-.421.975,4.275,4.275,0,0,0-.158,1.144,3.872,3.872,0,0,0,.037.568,1.514,1.514,0,0,0,.142.458.762.762,0,0,0,.283.308.927.927,0,0,0,.488.113,1.387,1.387,0,0,0,.627-.173,3.027,3.027,0,0,0,.754-.6Z" transform="translate(-58.653 -234.881)" fill="#f8f8f8"/>
    <path id="Tracciato_1736" data-name="Tracciato 1736" d="M108.319,297.332h-.037l-.3.26a2.765,2.765,0,0,1-.383.281,2.879,2.879,0,0,1-.464.242,1.6,1.6,0,0,1-1.715-.465,2.353,2.353,0,0,1-.433-1.5,3.566,3.566,0,0,1,.234-1.278,3.734,3.734,0,0,1,.638-1.094,3.106,3.106,0,0,1,.948-.749,2.491,2.491,0,0,1,1.159-.287,2.8,2.8,0,0,1,.72.095,2.347,2.347,0,0,1,.589.231l.41-1.786q.031-.142.045-.221a1.062,1.062,0,0,0,.013-.173.47.47,0,0,0-.076-.289.44.44,0,0,0-.213-.147,1.273,1.273,0,0,0-.346-.063q-.221-.016-.4-.037l.073-.32,2.127-.116.053.079-1.457,6.3q-.042.173-.087.4a1.885,1.885,0,0,0-.045.339.522.522,0,0,0,.126.407.658.658,0,0,0,.425.107,1.782,1.782,0,0,0,.284-.032,1.665,1.665,0,0,0,.283-.068l-.079.336a5.141,5.141,0,0,1-.731.279,2.051,2.051,0,0,1-.537.079.878.878,0,0,1-.6-.2.775.775,0,0,1-.224-.612m.747-3.349a.827.827,0,0,0-.079-.3,1.068,1.068,0,0,0-.174-.261.952.952,0,0,0-.313-.218,1.1,1.1,0,0,0-.455-.087,1.31,1.31,0,0,0-.765.253,2.411,2.411,0,0,0-.634.673,3.488,3.488,0,0,0-.421.975,4.274,4.274,0,0,0-.158,1.144,3.9,3.9,0,0,0,.037.568,1.514,1.514,0,0,0,.142.458.763.763,0,0,0,.283.308.927.927,0,0,0,.488.113,1.387,1.387,0,0,0,.627-.173,3.023,3.023,0,0,0,.754-.6Z" transform="translate(-85.056 -234.881)" fill="#f8f8f8"/>
    <path id="Tracciato_1737" data-name="Tracciato 1737" d="M140.17,298.2l-.079.336a6.9,6.9,0,0,1-.772.271,1.983,1.983,0,0,1-.494.076.836.836,0,0,1-.63-.218.746.746,0,0,1-.21-.539,1.572,1.572,0,0,1,.021-.252q.021-.132.068-.331l.555-2.235q.042-.184.081-.394a2,2,0,0,0,.039-.357.569.569,0,0,0-.1-.392.576.576,0,0,0-.4-.1,1.711,1.711,0,0,0-.307.037q-.191.037-.291.063l.079-.336a5.132,5.132,0,0,1,.735-.273,2.069,2.069,0,0,1,.515-.089.828.828,0,0,1,.625.205.771.771,0,0,1,.194.552,2.173,2.173,0,0,1-.021.258,2.711,2.711,0,0,1-.063.326l-.558,2.234q-.052.205-.091.4a1.737,1.737,0,0,0-.039.323.512.512,0,0,0,.133.41.676.676,0,0,0,.432.111,2.169,2.169,0,0,0,.285-.026,1.432,1.432,0,0,0,.285-.063m.373-6.717a.772.772,0,0,1-.194.523.616.616,0,0,1-.483.223.606.606,0,0,1-.462-.213.7.7,0,0,1-.194-.486.728.728,0,0,1,.194-.5.6.6,0,0,1,.462-.215.639.639,0,0,1,.488.2.668.668,0,0,1,.189.47" transform="translate(-111.525 -235.599)" fill="#f8f8f8"/>
    <path id="Tracciato_1738" data-name="Tracciato 1738" d="M154.77,310.269a2.731,2.731,0,0,1-1.295-.276.818.818,0,0,1-.517-.722.606.606,0,0,1,.152-.394.467.467,0,0,1,.373-.184.548.548,0,0,1,.339.1.739.739,0,0,1,.2.229,1.656,1.656,0,0,1,.139.326q.06.189.1.31a.8.8,0,0,0,.218.166.854.854,0,0,0,.4.076,1.183,1.183,0,0,0,.859-.284,1.025,1.025,0,0,0,.291-.769.688.688,0,0,0-.273-.571,2.754,2.754,0,0,0-.814-.392,3.578,3.578,0,0,1-.457-.192,1.724,1.724,0,0,1-.42-.276,1.319,1.319,0,0,1-.3-.4,1.215,1.215,0,0,1-.116-.547,1.468,1.468,0,0,1,.6-1.166,2.259,2.259,0,0,1,1.478-.492q.2,0,.441.021a2.3,2.3,0,0,1,.52.116,1.125,1.125,0,0,1,.42.249.566.566,0,0,1,.173.428.6.6,0,0,1-.144.391.468.468,0,0,1-.381.176.567.567,0,0,1-.32-.084.687.687,0,0,1-.21-.226,1.492,1.492,0,0,1-.136-.3q-.053-.163-.116-.32a.962.962,0,0,0-.179-.058,1.138,1.138,0,0,0-.21-.016,1.032,1.032,0,0,0-.78.277.915.915,0,0,0-.265.656.661.661,0,0,0,.239.555,3.013,3.013,0,0,0,.79.387,2.754,2.754,0,0,1,1.037.59,1.129,1.129,0,0,1,.323.821,1.6,1.6,0,0,1-.614,1.3,2.369,2.369,0,0,1-1.549.5" transform="translate(-123.919 -246.94)" fill="#f8f8f8"/>
    <path id="Tracciato_1739" data-name="Tracciato 1739" d="M180.926,304.394a1.092,1.092,0,0,1-.73-.2.73.73,0,0,1-.231-.58,1.585,1.585,0,0,1,.016-.228q.016-.108.042-.244l.819-3.508h-.94l.111-.478h.959l.366-1.539h.945l-.356,1.539h1.463l-.11.478h-1.45l-.678,2.894q-.047.2-.079.386a1.967,1.967,0,0,0-.031.318.551.551,0,0,0,.144.423.775.775,0,0,0,.523.134,3,3,0,0,0,.383-.034,1.8,1.8,0,0,0,.384-.087l-.089.383q-.368.142-.693.244a2.564,2.564,0,0,1-.767.1" transform="translate(-145.748 -241.112)" fill="#f8f8f8"/>
    <path id="Tracciato_1740" data-name="Tracciato 1740" d="M201.805,309.417h-.037q-.115.095-.275.239a2.513,2.513,0,0,1-.375.276,2.67,2.67,0,0,1-.446.229,1.393,1.393,0,0,1-.525.1,1.437,1.437,0,0,1-1.193-.547,2.344,2.344,0,0,1-.433-1.493,3.441,3.441,0,0,1,.241-1.267,3.77,3.77,0,0,1,.667-1.1,3.178,3.178,0,0,1,.961-.754,2.469,2.469,0,0,1,1.144-.287,2.5,2.5,0,0,1,.711.1,2.074,2.074,0,0,1,.533.226l.964-.247.063.079-.8,3.391q-.042.163-.087.4a2.052,2.052,0,0,0-.045.344.512.512,0,0,0,.126.4.672.672,0,0,0,.426.105,1.809,1.809,0,0,0,.284-.031,1.684,1.684,0,0,0,.284-.068l-.079.336q-.474.189-.705.273a1.664,1.664,0,0,1-.563.084.811.811,0,0,1-.6-.221.839.839,0,0,1-.242-.562m.757-3.323a1.457,1.457,0,0,0-.037-.331.7.7,0,0,0-.152-.295.728.728,0,0,0-.289-.21,1.174,1.174,0,0,0-.462-.079,1.292,1.292,0,0,0-.746.252,2.566,2.566,0,0,0-.651.678,3.534,3.534,0,0,0-.447.968,4.064,4.064,0,0,0-.137,1.719,1.452,1.452,0,0,0,.141.452.729.729,0,0,0,.288.31.934.934,0,0,0,.477.11,1.348,1.348,0,0,0,.616-.166,2.979,2.979,0,0,0,.726-.581Z" transform="translate(-160.833 -246.939)" fill="#f8f8f8"/>
    <path id="Tracciato_1741" data-name="Tracciato 1741" d="M246.568,293.492l-.079.346a3.6,3.6,0,0,0-.425.047,3.553,3.553,0,0,0-.389.079.56.56,0,0,0-.315.21.979.979,0,0,0-.136.312l-1.264,5.446a.47.47,0,0,0-.016.083.741.741,0,0,0-.005.084.378.378,0,0,0,.053.2.422.422,0,0,0,.189.147,1.791,1.791,0,0,0,.346.087q.268.05.4.06l-.079.347h-3.361l.079-.347.42-.031a1.63,1.63,0,0,0,.389-.063.688.688,0,0,0,.31-.2.7.7,0,0,0,.142-.312l1.26-5.452a.909.909,0,0,0,.016-.095.884.884,0,0,0,.005-.095.366.366,0,0,0-.045-.184.385.385,0,0,0-.186-.142,2.138,2.138,0,0,0-.386-.118,3.174,3.174,0,0,0-.36-.066l.079-.346Z" transform="translate(-195.64 -237.773)" fill="#f8f8f8"/>
    <path id="Tracciato_1742" data-name="Tracciato 1742" d="M268.79,304.394a1.092,1.092,0,0,1-.73-.2.73.73,0,0,1-.231-.58,1.591,1.591,0,0,1,.016-.228q.016-.108.042-.244l.819-3.508h-.94l.111-.478h.959l.366-1.539h.945l-.356,1.539h1.463l-.11.478h-1.45l-.678,2.894q-.047.2-.079.386a1.964,1.964,0,0,0-.031.318.551.551,0,0,0,.144.423.775.775,0,0,0,.523.134,3,3,0,0,0,.384-.034,1.8,1.8,0,0,0,.384-.087l-.089.383q-.368.142-.693.244a2.565,2.565,0,0,1-.767.1" transform="translate(-216.931 -241.112)" fill="#f8f8f8"/>
    <path id="Tracciato_1743" data-name="Tracciato 1743" d="M289.669,309.417h-.037q-.115.095-.275.239a2.516,2.516,0,0,1-.375.276,2.67,2.67,0,0,1-.446.229,1.393,1.393,0,0,1-.525.1,1.437,1.437,0,0,1-1.193-.547,2.344,2.344,0,0,1-.433-1.493,3.441,3.441,0,0,1,.241-1.267,3.769,3.769,0,0,1,.667-1.1,3.178,3.178,0,0,1,.961-.754,2.469,2.469,0,0,1,1.144-.287,2.505,2.505,0,0,1,.711.1,2.074,2.074,0,0,1,.533.226l.964-.247.063.079-.8,3.391q-.042.163-.087.4a2.053,2.053,0,0,0-.045.344.512.512,0,0,0,.126.4.672.672,0,0,0,.426.105,1.809,1.809,0,0,0,.284-.031,1.685,1.685,0,0,0,.284-.068l-.079.336q-.474.189-.705.273a1.663,1.663,0,0,1-.563.084.811.811,0,0,1-.6-.221.839.839,0,0,1-.242-.562m.757-3.323a1.454,1.454,0,0,0-.037-.331.7.7,0,0,0-.152-.295.728.728,0,0,0-.289-.21,1.174,1.174,0,0,0-.462-.079,1.292,1.292,0,0,0-.746.252,2.565,2.565,0,0,0-.651.678,3.534,3.534,0,0,0-.447.968,4.064,4.064,0,0,0-.137,1.719,1.451,1.451,0,0,0,.141.452.729.729,0,0,0,.288.31.933.933,0,0,0,.477.11,1.348,1.348,0,0,0,.616-.166,2.979,2.979,0,0,0,.726-.581Z" transform="translate(-232.016 -246.939)" fill="#f8f8f8"/>
    <path id="Tracciato_1744" data-name="Tracciato 1744" d="M322.231,290l-1.468,6.324q-.048.2-.09.4a1.661,1.661,0,0,0-.042.326.512.512,0,0,0,.134.41.68.68,0,0,0,.433.11,2.713,2.713,0,0,0,.312-.026,1.622,1.622,0,0,0,.312-.063l-.079.336q-.473.189-.728.268a1.942,1.942,0,0,1-.575.079.864.864,0,0,1-.638-.218.731.731,0,0,1-.218-.539,1.424,1.424,0,0,1,.024-.252q.024-.131.066-.331l1.28-5.534c.024-.109.041-.184.05-.226a.79.79,0,0,0,.013-.158.56.56,0,0,0-.063-.292.4.4,0,0,0-.179-.155.941.941,0,0,0-.28-.063q-.169-.016-.343-.037l.074-.321,1.954-.115Z" transform="translate(-258.911 -234.881)" fill="#f8f8f8"/>
    <path id="Tracciato_1745" data-name="Tracciato 1745" d="M337.587,298.2l-.079.336a6.9,6.9,0,0,1-.772.271,1.983,1.983,0,0,1-.494.076.836.836,0,0,1-.63-.218.746.746,0,0,1-.21-.539,1.569,1.569,0,0,1,.021-.252q.021-.132.068-.331l.555-2.235q.042-.184.081-.394a2,2,0,0,0,.039-.357.569.569,0,0,0-.1-.392.576.576,0,0,0-.4-.1,1.711,1.711,0,0,0-.307.037q-.191.037-.291.063l.079-.336a5.13,5.13,0,0,1,.735-.273,2.068,2.068,0,0,1,.514-.089.828.828,0,0,1,.625.205.771.771,0,0,1,.194.552,2.162,2.162,0,0,1-.021.258,2.711,2.711,0,0,1-.063.326l-.558,2.234q-.052.205-.091.4a1.736,1.736,0,0,0-.039.323.512.512,0,0,0,.133.41.676.676,0,0,0,.432.111,2.169,2.169,0,0,0,.285-.026,1.433,1.433,0,0,0,.285-.063m.373-6.717a.772.772,0,0,1-.194.523.616.616,0,0,1-.483.223.606.606,0,0,1-.462-.213.7.7,0,0,1-.194-.486.728.728,0,0,1,.194-.5.6.6,0,0,1,.462-.215.639.639,0,0,1,.488.2.668.668,0,0,1,.189.47" transform="translate(-271.462 -235.599)" fill="#f8f8f8"/>
    <path id="Tracciato_1746" data-name="Tracciato 1746" d="M355.124,309.417h-.037q-.115.095-.275.239a2.514,2.514,0,0,1-.375.276,2.668,2.668,0,0,1-.446.229,1.393,1.393,0,0,1-.525.1,1.437,1.437,0,0,1-1.193-.547,2.345,2.345,0,0,1-.433-1.493,3.441,3.441,0,0,1,.241-1.267,3.77,3.77,0,0,1,.667-1.1,3.178,3.178,0,0,1,.961-.754,2.469,2.469,0,0,1,1.144-.287,2.506,2.506,0,0,1,.711.1,2.074,2.074,0,0,1,.533.226l.964-.247.063.079-.8,3.391q-.042.163-.087.4a2.055,2.055,0,0,0-.045.344.512.512,0,0,0,.126.4.672.672,0,0,0,.426.105,1.809,1.809,0,0,0,.284-.031,1.682,1.682,0,0,0,.284-.068l-.079.336q-.474.189-.705.273a1.664,1.664,0,0,1-.563.084.811.811,0,0,1-.6-.221.839.839,0,0,1-.242-.562m.757-3.323a1.454,1.454,0,0,0-.037-.331.7.7,0,0,0-.152-.295.728.728,0,0,0-.289-.21,1.174,1.174,0,0,0-.462-.079,1.292,1.292,0,0,0-.746.252,2.566,2.566,0,0,0-.651.678,3.534,3.534,0,0,0-.447.968,4.066,4.066,0,0,0-.137,1.719,1.453,1.453,0,0,0,.141.452.729.729,0,0,0,.288.31.933.933,0,0,0,.477.11,1.348,1.348,0,0,0,.616-.166,2.979,2.979,0,0,0,.726-.581Z" transform="translate(-285.045 -246.939)" fill="#f8f8f8"/>
    <path id="Tracciato_1747" data-name="Tracciato 1747" d="M390.161,309.5l-.079.336q-.474.189-.738.276a1.7,1.7,0,0,1-.532.087.842.842,0,0,1-.633-.218.747.747,0,0,1-.211-.539,1.687,1.687,0,0,1,.021-.255q.021-.14.069-.329l.519-1.961q.058-.226.092-.41a1.7,1.7,0,0,0,.034-.295.858.858,0,0,0-.167-.557.6.6,0,0,0-.5-.2,1.549,1.549,0,0,0-.714.211,2.644,2.644,0,0,0-.745.61l-.9,3.859H384.7l.788-3.407.076-.365a1.988,1.988,0,0,0,.05-.386.568.568,0,0,0-.1-.394.58.58,0,0,0-.4-.1,1.456,1.456,0,0,0-.3.039q-.179.04-.28.066l.079-.336a5.491,5.491,0,0,1,.729-.273,2.067,2.067,0,0,1,.544-.089.717.717,0,0,1,.6.226,1.028,1.028,0,0,1,.19.626h.031a6.739,6.739,0,0,1,.994-.686,2,2,0,0,1,.953-.223,1.042,1.042,0,0,1,.785.292,1.054,1.054,0,0,1,.283.765q0,.095-.029.337a3.5,3.5,0,0,1-.092.478l-.442,1.688c-.032.112-.062.241-.092.386a1.82,1.82,0,0,0-.044.339.508.508,0,0,0,.131.407.68.68,0,0,0,.431.108,1.715,1.715,0,0,0,.286-.034,1.827,1.827,0,0,0,.287-.071" transform="translate(-311.536 -246.94)" fill="#f8f8f8"/>
    <path id="Tracciato_1748" data-name="Tracciato 1748" d="M422.7,306.872a3.852,3.852,0,0,1-.21,1.241,3.275,3.275,0,0,1-.609,1.088,3.088,3.088,0,0,1-.974.775,2.858,2.858,0,0,1-1.321.292,1.88,1.88,0,0,1-1.415-.562,2.087,2.087,0,0,1-.544-1.514,3.638,3.638,0,0,1,.851-2.366,2.992,2.992,0,0,1,.974-.739,2.848,2.848,0,0,1,1.258-.281,1.894,1.894,0,0,1,1.463.57,2.115,2.115,0,0,1,.528,1.5m-1.072-.2a1.937,1.937,0,0,0-.265-1.12.881.881,0,0,0-.764-.373,1.415,1.415,0,0,0-.822.268,2.1,2.1,0,0,0-.664.873,4.036,4.036,0,0,0-.315,1.018,5.907,5.907,0,0,0-.1,1.033,2.045,2.045,0,0,0,.26,1.138.882.882,0,0,0,.785.387,1.279,1.279,0,0,0,.83-.295,2.224,2.224,0,0,0,.588-.747,4.072,4.072,0,0,0,.347-1.012,5.632,5.632,0,0,0,.121-1.17" transform="translate(-338.342 -246.939)" fill="#f8f8f8"/>
    <path id="Tracciato_1749" data-name="Tracciato 1749" d="M68.268,352.376a3.62,3.62,0,0,1-1.132-.16,3.013,3.013,0,0,1-.785-.37l-.3.383h-.42l.515-2.552h.425a4.789,4.789,0,0,0,.123.856,2.155,2.155,0,0,0,.317.72,1.5,1.5,0,0,0,.572.512,1.883,1.883,0,0,0,.871.181,1.779,1.779,0,0,0,1.253-.433,1.527,1.527,0,0,0,.472-1.184,1.318,1.318,0,0,0-.2-.72,1.29,1.29,0,0,0-.6-.488q-.378-.163-.747-.291a6.75,6.75,0,0,1-.726-.3,1.892,1.892,0,0,1-.76-.649,1.653,1.653,0,0,1-.288-.953,1.97,1.97,0,0,1,.223-.93,2.427,2.427,0,0,1,.591-.735,2.759,2.759,0,0,1,.864-.478,3.01,3.01,0,0,1,1.006-.178,3.447,3.447,0,0,1,.885.11,2.544,2.544,0,0,1,.838.415l.289-.357h.42l-.53,2.474H71.02a7.482,7.482,0,0,0-.081-.835,2.137,2.137,0,0,0-.223-.714,1.252,1.252,0,0,0-.482-.486,1.664,1.664,0,0,0-.823-.176,1.447,1.447,0,0,0-1.458,1.444,1.309,1.309,0,0,0,.155.659,1.13,1.13,0,0,0,.48.439,5.23,5.23,0,0,0,.726.307,6.319,6.319,0,0,1,.679.271,2.736,2.736,0,0,1,.941.683,1.459,1.459,0,0,1,.338.977,2.294,2.294,0,0,1-.241,1.04,2.4,2.4,0,0,1-.646.809,3.12,3.12,0,0,1-.953.53,3.514,3.514,0,0,1-1.163.184" transform="translate(-53.171 -279.181)" fill="#f8f8f8"/>
    <path id="Tracciato_1750" data-name="Tracciato 1750" d="M104.594,358.869a3.852,3.852,0,0,1-.21,1.241,3.275,3.275,0,0,1-.609,1.088,3.091,3.091,0,0,1-.974.776,2.859,2.859,0,0,1-1.321.292,1.88,1.88,0,0,1-1.415-.562,2.087,2.087,0,0,1-.544-1.514,3.639,3.639,0,0,1,.851-2.366,2.992,2.992,0,0,1,.974-.739,2.847,2.847,0,0,1,1.258-.281,1.894,1.894,0,0,1,1.463.57,2.114,2.114,0,0,1,.528,1.5m-1.071-.2a1.936,1.936,0,0,0-.265-1.12.88.88,0,0,0-.764-.373,1.415,1.415,0,0,0-.822.268,2.1,2.1,0,0,0-.664.873,4.038,4.038,0,0,0-.315,1.018,5.905,5.905,0,0,0-.1,1.033,2.045,2.045,0,0,0,.26,1.138.882.882,0,0,0,.785.387,1.279,1.279,0,0,0,.83-.295,2.227,2.227,0,0,0,.588-.747,4.075,4.075,0,0,0,.347-1.012,5.635,5.635,0,0,0,.121-1.17" transform="translate(-80.626 -289.065)" fill="#f8f8f8"/>
    <path id="Tracciato_1751" data-name="Tracciato 1751" d="M134.955,345.35a.62.62,0,0,1-.182.428.587.587,0,0,1-.45.2,1.258,1.258,0,0,1-.342-.047,2.368,2.368,0,0,1-.368-.142,4.881,4.881,0,0,0-.6.4q-.307.239-.669.579.3.778.507,1.275t.355.812a1.453,1.453,0,0,0,.418.559.836.836,0,0,0,.5.166,2.176,2.176,0,0,0,.347-.038,2.4,2.4,0,0,0,.341-.078l-.079.344a5.944,5.944,0,0,1-.768.266,2.381,2.381,0,0,1-.563.068.91.91,0,0,1-.576-.186,1.776,1.776,0,0,1-.459-.675q-.215-.467-.383-.922t-.33-.859l-.606.513-.455,2.04h-.981l1.564-6.764c.025-.108.041-.184.05-.226a.8.8,0,0,0,.013-.158.559.559,0,0,0-.063-.292.4.4,0,0,0-.179-.155.935.935,0,0,0-.28-.063q-.169-.016-.343-.037l.074-.32,1.954-.115.053.079-1.285,5.467h.021q.593-.641,1.079-1.111t1.016-.959a3.9,3.9,0,0,1,.6-.475.923.923,0,0,1,.472-.129.613.613,0,0,1,.431.15.528.528,0,0,1,.163.407" transform="translate(-105.011 -277.007)" fill="#f8f8f8"/>
    <path id="Tracciato_1752" data-name="Tracciato 1752" d="M163.224,361.414h-.037q-.115.094-.275.239a2.5,2.5,0,0,1-.375.276,2.667,2.667,0,0,1-.446.229,1.392,1.392,0,0,1-.525.1,1.437,1.437,0,0,1-1.193-.547,2.344,2.344,0,0,1-.433-1.493,3.441,3.441,0,0,1,.241-1.267,3.771,3.771,0,0,1,.667-1.1,3.176,3.176,0,0,1,.961-.754,2.468,2.468,0,0,1,1.144-.287,2.5,2.5,0,0,1,.711.1,2.073,2.073,0,0,1,.533.226l.964-.247.063.079-.8,3.391q-.042.163-.087.4a2.051,2.051,0,0,0-.045.344.512.512,0,0,0,.126.4.672.672,0,0,0,.426.105,1.8,1.8,0,0,0,.284-.032,1.678,1.678,0,0,0,.284-.068l-.079.336q-.474.189-.705.273a1.665,1.665,0,0,1-.563.084.811.811,0,0,1-.6-.221.839.839,0,0,1-.242-.562m.757-3.323a1.457,1.457,0,0,0-.037-.331.7.7,0,0,0-.152-.295.728.728,0,0,0-.289-.21,1.174,1.174,0,0,0-.462-.079,1.292,1.292,0,0,0-.746.252,2.565,2.565,0,0,0-.651.678,3.534,3.534,0,0,0-.447.968,4.064,4.064,0,0,0-.137,1.719,1.452,1.452,0,0,0,.141.452.728.728,0,0,0,.288.31.933.933,0,0,0,.477.11,1.349,1.349,0,0,0,.616-.166,2.978,2.978,0,0,0,.726-.581Z" transform="translate(-129.576 -289.065)" fill="#f8f8f8"/>
    <path id="Tracciato_1753" data-name="Tracciato 1753" d="M209.865,352.357a3.352,3.352,0,0,1-1.171-.2,2.688,2.688,0,0,1-.945-.589,2.729,2.729,0,0,1-.633-.947,3.348,3.348,0,0,1-.229-1.278,4.95,4.95,0,0,1,.355-1.885,4.882,4.882,0,0,1,.969-1.523,4.4,4.4,0,0,1,1.429-1.018,4.194,4.194,0,0,1,1.738-.371,4.066,4.066,0,0,1,1.242.167,3.194,3.194,0,0,1,.811.369l.294-.357h.42l-.551,2.6h-.431a6.89,6.89,0,0,0-.074-.858,2.076,2.076,0,0,0-.262-.758,1.5,1.5,0,0,0-.562-.542,2.061,2.061,0,0,0-1-.2,2.394,2.394,0,0,0-1.221.334,3.285,3.285,0,0,0-1.011.938,4.585,4.585,0,0,0-.67,1.4,6.12,6.12,0,0,0-.244,1.756,2.819,2.819,0,0,0,.551,1.84,1.86,1.86,0,0,0,1.522.673,2.154,2.154,0,0,0,.8-.137,1.981,1.981,0,0,0,.541-.3q.073-.215.139-.454t.145-.586l.1-.452c.007-.039.015-.084.024-.137a.9.9,0,0,0,.013-.147.583.583,0,0,0-.034-.216.293.293,0,0,0-.165-.142,1.408,1.408,0,0,0-.443-.118q-.291-.04-.448-.05l.079-.357h3.272l-.079.357q-.137.016-.355.05a1.54,1.54,0,0,0-.365.1.624.624,0,0,0-.281.226,1.088,1.088,0,0,0-.139.337l-.137.6q-.121.5-.168.747t-.084.468q-.347.142-.617.247a5.591,5.591,0,0,1-.675.205q-.368.094-.706.147a4.916,4.916,0,0,1-.748.053" transform="translate(-167.61 -279.135)" fill="#f8f8f8"/>
    <path id="Tracciato_1754" data-name="Tracciato 1754" d="M250.423,361.414h-.037q-.115.094-.275.239a2.506,2.506,0,0,1-.375.276,2.668,2.668,0,0,1-.446.229,1.392,1.392,0,0,1-.525.1,1.437,1.437,0,0,1-1.193-.547,2.344,2.344,0,0,1-.433-1.493,3.442,3.442,0,0,1,.241-1.267,3.772,3.772,0,0,1,.667-1.1,3.177,3.177,0,0,1,.961-.754,2.468,2.468,0,0,1,1.144-.287,2.5,2.5,0,0,1,.711.1,2.074,2.074,0,0,1,.533.226l.964-.247.063.079-.8,3.391q-.042.163-.087.4a2.055,2.055,0,0,0-.045.344.512.512,0,0,0,.126.4.672.672,0,0,0,.426.105,1.8,1.8,0,0,0,.284-.032,1.678,1.678,0,0,0,.284-.068l-.079.336q-.474.189-.705.273a1.665,1.665,0,0,1-.563.084.811.811,0,0,1-.6-.221.839.839,0,0,1-.242-.562m.757-3.323a1.457,1.457,0,0,0-.037-.331.7.7,0,0,0-.152-.295.728.728,0,0,0-.289-.21,1.174,1.174,0,0,0-.462-.079,1.292,1.292,0,0,0-.746.252,2.565,2.565,0,0,0-.651.678,3.534,3.534,0,0,0-.447.968,4.064,4.064,0,0,0-.137,1.719,1.452,1.452,0,0,0,.141.452.728.728,0,0,0,.288.31.932.932,0,0,0,.477.11,1.349,1.349,0,0,0,.616-.166,2.98,2.98,0,0,0,.726-.581Z" transform="translate(-200.221 -289.065)" fill="#f8f8f8"/>
    <path id="Tracciato_1755" data-name="Tracciato 1755" d="M284.512,345.35a.62.62,0,0,1-.181.428.587.587,0,0,1-.45.2,1.258,1.258,0,0,1-.342-.047,2.353,2.353,0,0,1-.368-.142,4.878,4.878,0,0,0-.6.4q-.307.239-.669.579.3.778.507,1.275t.355.812a1.452,1.452,0,0,0,.418.559.836.836,0,0,0,.5.166,2.172,2.172,0,0,0,.347-.038,2.4,2.4,0,0,0,.341-.078l-.079.344a5.935,5.935,0,0,1-.768.266,2.381,2.381,0,0,1-.563.068.909.909,0,0,1-.576-.186,1.776,1.776,0,0,1-.459-.675q-.215-.467-.382-.922t-.33-.859l-.606.513-.455,2.04h-.981l1.564-6.764c.024-.108.041-.184.05-.226a.8.8,0,0,0,.013-.158.559.559,0,0,0-.063-.292.4.4,0,0,0-.179-.155.935.935,0,0,0-.28-.063c-.113-.011-.227-.023-.343-.037l.074-.32,1.954-.115.052.079-1.285,5.467h.021q.593-.641,1.079-1.111t1.016-.959a3.9,3.9,0,0,1,.6-.475.922.922,0,0,1,.472-.129.612.612,0,0,1,.43.15.527.527,0,0,1,.163.407" transform="translate(-226.175 -277.007)" fill="#f8f8f8"/>
    <path id="Tracciato_1756" data-name="Tracciato 1756" d="M314.417,345.35a.621.621,0,0,1-.182.428.587.587,0,0,1-.449.2,1.255,1.255,0,0,1-.342-.047,2.354,2.354,0,0,1-.368-.142,4.9,4.9,0,0,0-.6.4q-.307.239-.669.579.3.778.507,1.275t.355.812a1.448,1.448,0,0,0,.418.559.836.836,0,0,0,.5.166,2.177,2.177,0,0,0,.347-.038,2.411,2.411,0,0,0,.341-.078l-.079.344a5.937,5.937,0,0,1-.768.266,2.38,2.38,0,0,1-.562.068.909.909,0,0,1-.576-.186,1.776,1.776,0,0,1-.459-.675q-.215-.467-.382-.922t-.33-.859l-.606.513-.455,2.04h-.981l1.564-6.764c.024-.108.041-.184.05-.226a.814.814,0,0,0,.013-.158.559.559,0,0,0-.063-.292.4.4,0,0,0-.179-.155.934.934,0,0,0-.279-.063c-.113-.011-.227-.023-.343-.037l.074-.32,1.954-.115.053.079-1.285,5.467h.021q.593-.641,1.079-1.111t1.016-.959a3.906,3.906,0,0,1,.6-.475.923.923,0,0,1,.472-.129.612.612,0,0,1,.43.15.527.527,0,0,1,.163.407" transform="translate(-250.402 -277.007)" fill="#f8f8f8"/>
    <path id="Tracciato_1757" data-name="Tracciato 1757" d="M342.685,361.414h-.037q-.115.094-.275.239a2.5,2.5,0,0,1-.375.276,2.669,2.669,0,0,1-.446.229,1.392,1.392,0,0,1-.525.1,1.437,1.437,0,0,1-1.193-.547,2.344,2.344,0,0,1-.433-1.493,3.441,3.441,0,0,1,.241-1.267,3.771,3.771,0,0,1,.667-1.1,3.177,3.177,0,0,1,.961-.754,2.468,2.468,0,0,1,1.144-.287,2.5,2.5,0,0,1,.711.1,2.073,2.073,0,0,1,.533.226l.964-.247.063.079-.8,3.391q-.042.163-.087.4a2.052,2.052,0,0,0-.045.344.512.512,0,0,0,.126.4.671.671,0,0,0,.426.105,1.8,1.8,0,0,0,.284-.032,1.68,1.68,0,0,0,.284-.068l-.079.336q-.474.189-.705.273a1.664,1.664,0,0,1-.563.084.811.811,0,0,1-.6-.221.84.84,0,0,1-.242-.562m.757-3.323a1.457,1.457,0,0,0-.037-.331.7.7,0,0,0-.152-.295.728.728,0,0,0-.289-.21,1.174,1.174,0,0,0-.462-.079,1.292,1.292,0,0,0-.746.252,2.565,2.565,0,0,0-.651.678,3.535,3.535,0,0,0-.447.968,4.063,4.063,0,0,0-.137,1.719,1.451,1.451,0,0,0,.141.452.727.727,0,0,0,.288.31.932.932,0,0,0,.477.11,1.349,1.349,0,0,0,.616-.166,2.978,2.978,0,0,0,.726-.581Z" transform="translate(-274.967 -289.065)" fill="#f8f8f8"/>
    <path id="Tracciato_1758" data-name="Tracciato 1758" d="M374.446,350.195l-.079.336a6.888,6.888,0,0,1-.772.271,1.984,1.984,0,0,1-.494.076.836.836,0,0,1-.63-.218.746.746,0,0,1-.21-.539,1.568,1.568,0,0,1,.021-.252q.021-.132.068-.331l.555-2.235q.042-.184.081-.394a2,2,0,0,0,.039-.357.569.569,0,0,0-.1-.392.577.577,0,0,0-.4-.1,1.718,1.718,0,0,0-.307.037q-.191.037-.291.063l.079-.336a5.136,5.136,0,0,1,.735-.273,2.069,2.069,0,0,1,.514-.089.828.828,0,0,1,.625.205.771.771,0,0,1,.194.552,2.173,2.173,0,0,1-.021.258,2.7,2.7,0,0,1-.063.326l-.558,2.234q-.052.205-.091.4a1.731,1.731,0,0,0-.039.323.512.512,0,0,0,.133.41.676.676,0,0,0,.432.111,2.177,2.177,0,0,0,.285-.026,1.435,1.435,0,0,0,.285-.063m.373-6.717a.772.772,0,0,1-.194.523.616.616,0,0,1-.483.223.606.606,0,0,1-.462-.213.7.7,0,0,1-.194-.486.728.728,0,0,1,.194-.5.6.6,0,0,1,.462-.215.639.639,0,0,1,.488.2.668.668,0,0,1,.189.47" transform="translate(-301.324 -277.724)" fill="#f8f8f8"/>
  </g>
</svg>
