<svg id="Raggruppa_1135" data-name="Raggruppa 1135" xmlns="http://www.w3.org/2000/svg" xmlns:xlink="http://www.w3.org/1999/xlink" width="130.693" height="48.94" viewBox="0 0 130.693 48.94">
  <defs>
    <clipPath id="clip-path">
      <rect id="Rettangolo_341" data-name="Rettangolo 341" width="130.693" height="48.94" fill="#a1a1a1"/>
    </clipPath>
  </defs>
  <g id="Raggruppa_853" data-name="Raggruppa 853" clip-path="url(#clip-path)">
    <path id="Tracciato_1708" data-name="Tracciato 1708" d="M500.058,47.013c.059.118.158.138.276.02a5.931,5.931,0,0,0,.828-.75,3.157,3.157,0,0,0,.73-1.874,4.825,4.825,0,0,0-.316-2.051,1.689,1.689,0,0,0-.3-.434c-.079-.059-.217,0-.217.079a1.127,1.127,0,0,1-.118.3,5.874,5.874,0,0,0-.868,1.815,6.5,6.5,0,0,0-.177,2.032,4.624,4.624,0,0,0,.158.868" transform="translate(-404.388 -33.896)" fill="#a1a1a1"/>
    <path id="Tracciato_1709" data-name="Tracciato 1709" d="M130.524,11.441c-.158-.75-.355-1.815-.414-1.874a.762.762,0,0,1-.158-.434c-.02-.217-.178-.316-.178-.493a1.923,1.923,0,0,0-.1-.671,5.911,5.911,0,0,1-.3-.71c-.039-.079-.138.059-.1.256a49.3,49.3,0,0,1,.02,6.075,47.671,47.671,0,0,1-1.42,6.9,12.484,12.484,0,0,1-1.736,3.412,1.353,1.353,0,0,1-1.775.3,6.827,6.827,0,0,1-2.091-3.906,18.134,18.134,0,0,1-.217-4.833c.079-.552.217-.986.237-1.124s-.059-.454-.217-.493a2.019,2.019,0,0,0-.395-.04,1.761,1.761,0,0,0-.335-.927,7.593,7.593,0,0,0-1.479-.789,5.543,5.543,0,0,0-1.617-.75,4.032,4.032,0,0,0-2.249.493,15.4,15.4,0,0,0-4.478,3.886c-.382.468-.713.89-1,1.273a33.011,33.011,0,0,1-3.811,2.514,19.781,19.781,0,0,1-3.787,1.657c-.316.1-.552-.059-.592-.454a8.642,8.642,0,0,1,1.341-4.458,15.5,15.5,0,0,1,3.807-4.28,4.547,4.547,0,0,1,1.045-.513c.158-.04.277,0,.217.237a19.31,19.31,0,0,1-1.381,2.7c-.237.355-.809,1.322-.868,1.4s.1.158.2.059a2.238,2.238,0,0,1,.572-.256,3.69,3.69,0,0,0,.631-.394,3.026,3.026,0,0,1,.69-.217,4.4,4.4,0,0,0,.651-.394c.118-.1.454-.217.611-.335a6.092,6.092,0,0,0,1.085-1.045,14.362,14.362,0,0,0,1.026-1.736c.138-.276.158-.927-.217-1.065a15.607,15.607,0,0,1-1.992-.769,4.253,4.253,0,0,0-1.578-.75,4.076,4.076,0,0,0-1.775.3,14.039,14.039,0,0,0-4.556,4.182,16.187,16.187,0,0,0-1.232,2.237c-.543.68-1.489,1.882-1.885,2.5-.572.888-1.262,1.854-1.262,1.854a10.355,10.355,0,0,1-.1-2.071c.059-1.164.3-2.959.335-3.274s.039-.651-.355-.75a3.833,3.833,0,0,0-1.164-.118,6.452,6.452,0,0,0-1.44.158c-.177.059-.276.217-.355.454a7.317,7.317,0,0,0-.165,1.826c-.573,1.08-2.184,4.11-2.636,4.9-.552.967-1.657,2.8-1.657,2.8s0-.631.04-1.539a31.925,31.925,0,0,1,.828-5.069,23.621,23.621,0,0,1,2.012-5.207.632.632,0,0,0-.1-.769,3.181,3.181,0,0,0-1.164-.769,3.245,3.245,0,0,0-1.46-.177c-.3.039-.355.276-.493.473s-1.183,2.446-2.071,4.083-2.683,4.5-2.683,4.5.434-1.558.809-2.643a20.857,20.857,0,0,1,1.519-2.88.467.467,0,0,0-.079-.493,2.821,2.821,0,0,0-.848-.552,4.889,4.889,0,0,0-1.164-.217.943.943,0,0,0-.769.276c-.118.079-.809.947-1.519,1.637s-2.88,3.038-2.88,3.038.631-1.361,1.1-2.268S82.927,12.19,83.2,11.8s.493-.533.493-.651a2.328,2.328,0,0,0-.079-.592c-.059-.177-.158-.394-.454-.394s-.966.02-1.44.039A52.789,52.789,0,0,1,76.2,9.8a41.3,41.3,0,0,1-6.056-1.124,7.281,7.281,0,0,1-2.13-1.046c-.125-.072-.184-.04-.2.059a5.212,5.212,0,0,0,.375,1.519A1.117,1.117,0,0,0,69,9.843a8.249,8.249,0,0,0,1.341.138,7.208,7.208,0,0,1,1.157.177,2.061,2.061,0,0,1,.638.329,3.621,3.621,0,0,1,1.243,2.1,12.921,12.921,0,0,1-.651,5.74,10.058,10.058,0,0,1-1.834,3.886c-.394.375-.73.355-.868.118-.089-.152-.868-.809-.651-4.695a9.493,9.493,0,0,1,1.539-5.109A2.106,2.106,0,0,1,72,11.894a1.282,1.282,0,0,1,.552.059c.118.02.237,0,.079-.2a3.836,3.836,0,0,0-1.1-.868,3.477,3.477,0,0,0-1.46-.375,2.888,2.888,0,0,0-2.189.986,4.442,4.442,0,0,0-.615,1.117,6.313,6.313,0,0,0-.437.48,44.326,44.326,0,0,0-2.341,3.919c-1.026,1.867-2.209,4.6-2.209,4.6s.458-3.348,1.052-6.259a66.608,66.608,0,0,1,2.326-8.341c3.143-.291,6.332-.573,8.494-.707a100.233,100.233,0,0,1,13.868.1c3.32.311,4.7,1.176,4.945,1.349s.415.207.381.1A6.126,6.126,0,0,0,93.063,6.8a4.291,4.291,0,0,0-2.305-1.72C89.409,4.7,84.183,4.5,78.3,4.79c-2.648.131-7.672.462-12.117.765A39.408,39.408,0,0,1,68.587.894a.353.353,0,0,0-.131-.368A3.721,3.721,0,0,0,66.877.053S66.194,0,65.825,0a.788.788,0,0,0-.71.289c-.132.184-.289.552-.658,1.289a37.971,37.971,0,0,0-1.6,4.2L58.2,6.1c-3.043.207-8.058.242-10.548-.38a5.547,5.547,0,0,1-3.094-1.581s-.2-.152-.158.138a7,7,0,0,0,.8,2.169c.553.934,1.314,1.48,3.216,1.729a63.545,63.545,0,0,0,7.5-.277c1.107-.072,3.579-.305,6.447-.576-.216.718-.434,1.488-.645,2.3-.268,1.029-.519,2.119-.751,3.232-.152.341-.952,2.119-1.616,3.3-.736,1.315-2.157,3.458-2.485,3.932a7.247,7.247,0,0,1-.881,1.013c-.053.039-.118.039-.118-.079a20.712,20.712,0,0,1,.7-4.853,18.251,18.251,0,0,1,1.769-4.353c.408-.539.618-.921.7-1.026a.252.252,0,0,0-.066-.408,2.971,2.971,0,0,0-1.486-.368,9.392,9.392,0,0,0-1.341,0c-.145.026-.368.079-.447.211a8.8,8.8,0,0,0-.539.894,7.111,7.111,0,0,1-.355.671s-1.657-.381-2.078-.394a1.566,1.566,0,0,0-.986.184,10.474,10.474,0,0,0-4.155,4.09,15.3,15.3,0,0,0-2.064,5.01,3.131,3.131,0,0,0-.043.628,3.352,3.352,0,0,0-.444-.8,1.315,1.315,0,0,0-1.184-.237c-.316.059-1.223.276-2.354.618-1.081.327-2.7,1.059-2.854,1.118s-.237-.04-.138-.158a33.924,33.924,0,0,1,4.28-4.359c1.9-1.6,5.609-4.031,5.865-4.307a.529.529,0,0,0,.013-.7,3.273,3.273,0,0,0-.69-.868,2.19,2.19,0,0,0-.967-.651c-.079,0-.269.18-.434.224-.2.053-2.032.013-4.28.25a19.283,19.283,0,0,0-4.28.809,1.923,1.923,0,0,0-1.131.914,1.993,1.993,0,0,0,.164,1.256,7.722,7.722,0,0,0,.69,1.3c.1.131.217.1.2.02a1.3,1.3,0,0,1-.039-.473A2.369,2.369,0,0,1,38.644,14a5.182,5.182,0,0,1,2.525-1.026,21.99,21.99,0,0,1,3.2-.368c.177.026.138.151,0,.23s-3.077,2.742-4.478,4.063-3.767,4.044-4.537,4.931a9.425,9.425,0,0,0-.883,1.189,33.354,33.354,0,0,1,.56-4.588c.5-2.315,1.194-4.712,1.262-4.918a.548.548,0,0,0-.316-.684,4.66,4.66,0,0,0-1.525-.21,1.232,1.232,0,0,0-.789.394c-.17.18-1.841,2-2.446,2.788s-1.5,1.867-1.5,1.867.815-2.051,1.263-2.919,1.552-2.84,1.683-3.051.322-.625-.026-.868a12,12,0,0,0-2.157-1.1,5.435,5.435,0,0,0-.973-.342c-.105,0-.026.21-.026.21a1.229,1.229,0,0,1-.105.868c-.144.391-.679,1.828-1.28,3.469l-.456.844a38.19,38.19,0,0,1-3.1,4.261,25.861,25.861,0,0,1-3.314,3c-.237.158-.552.316-.658-.131a9.849,9.849,0,0,1,.394-3.472c.087-.342.186-.692.293-1.041l.011-.035a3.664,3.664,0,0,0,.7,0,7.491,7.491,0,0,0,1.552-.421,2.331,2.331,0,0,0,1.341-1.473c.394-.973,1-2.814,1.131-3.366s.263-1.289-.053-1.657-.868-.263-1.1-.316a3.69,3.69,0,0,1-.579-.211c-.684-.184-1.315-.473-1.657-.158a10.041,10.041,0,0,0-1.653,1.876c-1.55.626-4.99,1.94-5.29,2.069-.368.158-3.629,1.446-3.629,1.446s-2.84-1.078-3.6-1.525a10.448,10.448,0,0,1-2.446-1.631A2.223,2.223,0,0,1,5.6,9.021a11.513,11.513,0,0,1,4.6-3.6,10.8,10.8,0,0,1,5.181-.973,3.816,3.816,0,0,1,1.578.368.38.38,0,0,1,.131.473c-.079.211-1.788,3.445-2.235,4.366s-1.394,2.63-1.446,2.762.158.026.342-.132a2.561,2.561,0,0,1,.552-.421c.184-.079.316-.394.5-.5s.237-.158.5-.316a1.214,1.214,0,0,0,.421-.368.958.958,0,0,1,.394-.316c.184-.079.237-.21.447-.342s.447-.526.684-.631a25.369,25.369,0,0,0,2.472-3.1c.736-1.052,1.263-1.578,1-2.288s-.316-.868-.71-1a9.039,9.039,0,0,0-1.1-.368c-.316-.053-1.341-.105-1.341-.105A4,4,0,0,0,14.7,1.1,14.659,14.659,0,0,0,5.7,4.392C2.284,7.311,2.442,8.758,2.442,9.153A4.738,4.738,0,0,0,4.2,13.176,16.679,16.679,0,0,0,8.149,15.6c.263.131,1.473.578,1.473.578s-3.55,1.841-5.313,3.051a32.482,32.482,0,0,0-4.05,3.393.8.8,0,0,0-.211.815,6.757,6.757,0,0,0,1.683,2.551,8.565,8.565,0,0,0,5.523.868,19.381,19.381,0,0,0,7.838-3.077,8.263,8.263,0,0,0,2.6-2.6c.316-.579.71-2.393-.5-3.261a10.538,10.538,0,0,0-2.446-1.289c-.471-.216-1.157-.473-1.157-.473s2.393-1.131,3.761-1.736c1.19-.526,2.418-1.052,2.718-1.18-.087.21-.171.426-.246.654-.127.389-.253.787-.374,1.189-.17.056-.332.111-.441.153-.342.131-1,.447-1.289.6a.379.379,0,0,0-.158.552,1.356,1.356,0,0,0,.579.368,5.856,5.856,0,0,0,.8.167,12.649,12.649,0,0,0-.482,3.988c.184,1.841.421,1.894.631,2.1a3.649,3.649,0,0,0,.842.6,4.044,4.044,0,0,0,.947.421,1.3,1.3,0,0,0,1.078-.289,12.454,12.454,0,0,0,2.63-2.893c.669-.986,1.727-2.7,2.353-3.73-.373,1.051-.682,1.951-.828,2.441a23.072,23.072,0,0,0-.684,2.63c-.026.211-.105.631.184.868a5.366,5.366,0,0,0,2.262,1.026c.158.026.158-.21.184-.421a15.433,15.433,0,0,1,.973-2.63,22.28,22.28,0,0,1,2.025-3.288,6.431,6.431,0,0,1,1.078-1.078c.158-.105.474-.158.447.237S32,19.62,31.793,21.8s-.289,3.735-.263,4.077.058.917.447,1.118a3.461,3.461,0,0,0,1.184.368,4.379,4.379,0,0,0,1.21.013c.237-.053.224-.158.145-.408a8.042,8.042,0,0,1-.145-2.144c.011-.205.025-.509.044-.877a2.7,2.7,0,0,0,.245.509,11.374,11.374,0,0,0,.73.947c.118.138.322.131.677-.053a32.819,32.819,0,0,1,3.623-1.7A19.341,19.341,0,0,1,44.4,22.592a1.586,1.586,0,0,1,1.368.355c.134.175.171.072.151-.066a5.064,5.064,0,0,0-.158-.809l-.011-.034a3.179,3.179,0,0,0,.78.685,4.568,4.568,0,0,0,1.407.671.7.7,0,0,0,.6-.105,31.875,31.875,0,0,0,2.6-2.722c.858-1.042,2.109-2.841,2.109-2.841s-.2,1.946-.237,3.34a12.059,12.059,0,0,0,.066,2.38,1.382,1.382,0,0,0,1.039,1,8.372,8.372,0,0,0,1.026.316.681.681,0,0,0,.71-.276c.25-.355,1.71-3.051,2.617-4.892.588-1.193,1.4-2.775,1.946-3.883-.453,2.526-.817,5.018-1.091,7.066a39.927,39.927,0,0,0-.473,5.47c0,.184.053.342.184.394a8.62,8.62,0,0,0,1.21.368,5.888,5.888,0,0,0,1,.053.492.492,0,0,0,.552-.421c.053-.184.316-1.078.5-1.92a59.91,59.91,0,0,1,2.2-7.3,39.839,39.839,0,0,1,2.141-4.38,15.216,15.216,0,0,0-.142,2.636c.1,3.314.631,3.925.907,4.4a4.638,4.638,0,0,0,2.15,1.558,3.055,3.055,0,0,0,2.663-.138c.627-.4,2.071-2.8,2.742-5.582.68-2.818.552-4.813.04-5.937a7.262,7.262,0,0,0-.879-1.479l.682.1c1.539.217,3.511.316,3.984.375s.434.533.316.927-1.045,2.88-1.894,4.833c-.791,1.821-2.051,4.6-2.15,4.912a.949.949,0,0,0,.237.868,2.95,2.95,0,0,0,1.065.592,1.148,1.148,0,0,0,1.184-.3,28.168,28.168,0,0,1,2.11-3.531,13.656,13.656,0,0,1,2.762-3.215c.237-.2.237,0,.2.1s-.414,1.381-.848,3.038a13.1,13.1,0,0,0-.513,2.84.6.6,0,0,0,.2.454,5.705,5.705,0,0,0,1.1.533c.848.375,1.282.079,1.381-.04s.769-1.282,1.2-2.012,1.854-2.722,1.894-2.8.237-.1.217-.02-.237,1.874-.473,4.044a18.057,18.057,0,0,0,.1,4.675c.1.394.335.513.71.611a8.543,8.543,0,0,0,2.012-.02.618.618,0,0,0,.513-.395c.079-.2.966-2.6,1.972-5.01s2.15-4.675,2.15-4.675l.027-.02c.017.288.04.6.072.928a15.266,15.266,0,0,0,.611,3.629.835.835,0,0,0,.572.552,8.3,8.3,0,0,0,1.006.1,3.645,3.645,0,0,0,.809,0,.348.348,0,0,0,.3-.3c.059-.237.237-.671.493-1.322A14.8,14.8,0,0,1,99.161,19a6.859,6.859,0,0,1,.47-.613c-.065.262-.117.509-.154.731a22.405,22.405,0,0,0-.316,3.55,1.3,1.3,0,0,0,.256.789,6.458,6.458,0,0,0,1.637.848,1.041,1.041,0,0,0,.769-.02c.335-.118,2.978-1.834,3.866-2.446.693-.478,2.337-1.605,3.024-2.076-.079.151-.145.284-.2.4a10.7,10.7,0,0,0-.789,2.111,1.207,1.207,0,0,0,.237,1.144,6.577,6.577,0,0,0,1.7,1.144.82.82,0,0,0,.828-.059c.256-.177,2.7-2.84,3.432-3.531s3.551-3.235,3.906-3.472.572-.474.73-.158c.23.46.572,2.406.907,3.412a10.241,10.241,0,0,0,1.716,3.294,4.361,4.361,0,0,0,2.229,1.322,6.114,6.114,0,0,0,2.544-.1,5.148,5.148,0,0,0,2.663-2.17,15.6,15.6,0,0,0,1.933-5.543,28.874,28.874,0,0,0-.02-6.115M13.909,18.016a1.432,1.432,0,0,1,.658,1.289c-.132,1.026-2,2.683-3.735,3.445s-4.576,1.6-6.1,1.42-1.42-.71-1.184-1.289,2.946-2.814,4.813-3.892,3.419-1.946,3.419-1.946a15.877,15.877,0,0,1,2.13.973m9.52-5.207c.105-.079.289-.184.263.026s-.237,1.526-.421,2.183a2.937,2.937,0,0,1-.789,1.394,2.819,2.819,0,0,1-1.008.288,16.668,16.668,0,0,1,1.113-2.655,5.142,5.142,0,0,1,.841-1.236m28.322,5.3A14.312,14.312,0,0,1,48.3,21.422c-.145.053-.243.02-.224-.158a14.611,14.611,0,0,1,2.3-4.287,12.415,12.415,0,0,1,3.432-3.09c.276-.118.394.026.381.237a15.6,15.6,0,0,1-2.436,3.984m67.115-3.649a.658.658,0,0,0-.493.572,2.947,2.947,0,0,0,.059.572s-2.051,1.519-2.88,2.15-2.683,2.051-2.86,2.11-.276-.039-.237-.177a5.669,5.669,0,0,1,.395-.769,23.364,23.364,0,0,1,4.261-4.359c1.8-1.282,2.979-1.164,3.393-1.085a.707.707,0,0,1,.533.434s-1.756.394-2.17.552" transform="translate(0)" fill="#a1a1a1"/>
    <path id="Tracciato_1710" data-name="Tracciato 1710" d="M222.978,236.464h1.669l.8-4.595h-1.663Zm-2.295-3.366c.434,0,.626.1.626.344a1.076,1.076,0,0,1-.011.13c-.051.265-.231.378-.755.378h-1.2l.152-.851Zm.152,3.366h1.714l-.6-1.545a1.433,1.433,0,0,0,1-1.24,2.714,2.714,0,0,0,.045-.445c0-.868-.665-1.364-2.154-1.364h-2.8l-.806,4.595h1.663l.237-1.353h1.229Zm-7.29-1.872.992-1.81.35,1.81Zm1.709,1.872h1.556l-.913-4.595h-2.5l-2.515,4.595h1.646l.457-.834h2.109Zm-4.544-1.252h-2.859l.09-.5h2.639l.2-1.173h-2.638l.073-.417h2.859l.22-1.257h-4.522l-.806,4.595h4.522Zm-9.726,1.252h4.533l.259-1.5h-2.864l.541-3.1h-1.663Zm-6.128-1.928c0,1.178.846,1.956,2.763,1.956,2.018,0,3-.66,3.248-2.159l.006-.034H199.2l-.006.034c-.079.5-.541.739-1.443.739-.857,0-1.207-.254-1.207-.727a1.5,1.5,0,0,1,.023-.248c.1-.575.5-.834,1.489-.834.784,0,1.207.214,1.207.615a.833.833,0,0,1-.017.152h1.675a1.833,1.833,0,0,0,.034-.361c0-1.116-1.049-1.827-2.768-1.827-1.99,0-3.016.71-3.253,2.064a3.252,3.252,0,0,0-.073.631m-3.992-2.667H189.2a17.224,17.224,0,0,0-.389,2.689c0,1.415.772,1.934,2.515,1.934,2.052,0,2.8-.744,3.18-2.943l.293-1.68h-1.669l-.282,1.652c-.214,1.184-.586,1.533-1.37,1.533-.665,0-.97-.209-.97-.868a17.117,17.117,0,0,1,.355-2.317m-4.516,4.595h1.488l.806-4.595H187.1l-.474,2.667-2.063-2.667h-1.517l-.806,4.595h1.545l.479-2.7Zm-7.8,0h1.669l.8-4.595h-1.663Zm-5.238,0h1.635l1.844-2.627-.462,2.627h1.669l.8-4.595h-2.469l-1.945,2.808-.953-2.808h-2.362l-.806,4.595h1.669l.462-2.65Zm-5.345-3.366c.434,0,.626.1.626.344a1.118,1.118,0,0,1-.011.13c-.051.265-.231.378-.756.378h-1.2l.152-.851Zm.152,3.366h1.714l-.6-1.545a1.433,1.433,0,0,0,1-1.24,2.719,2.719,0,0,0,.045-.445c0-.868-.665-1.364-2.154-1.364h-2.8l-.806,4.595h1.663l.237-1.353h1.229Zm-7.29-1.872.992-1.81.35,1.81Zm1.708,1.872h1.556l-.914-4.595h-2.5l-2.515,4.595h1.646l.457-.834h2.109Zm-5.649-4.076h.023l-.338,2.21h-.124Zm-.6,4.076h.677l.6-4.595h-1.15l-1.009,4.595h.677l.237-1.19h.147Zm-1.652-1.127c-.073.417-.107.451-.214.451h-.135l.569-3.242h.135c.062,0,.1.028.1.13,0,.073,0,.1-.451,2.661m.344-3.467h-.682l-.806,4.595h.812c.631,0,.845-.22.975-.958.507-2.881.507-2.926.507-3.016,0-.474-.282-.62-.806-.62" transform="translate(-124.165 -187.553)" fill="#a1a1a1"/>
    <path id="Tracciato_1711" data-name="Tracciato 1711" d="M176.574,203.1c-.857,0-1.207-.254-1.207-.727a1.546,1.546,0,0,1,.023-.248c.1-.575.5-.834,1.488-.834.857,0,1.207.248,1.207.722a1.534,1.534,0,0,1-.022.254c-.1.575-.5.834-1.488.834m-.13,1.421c1.99,0,3.017-.7,3.253-2.069a3.266,3.266,0,0,0,.073-.626c0-1.178-.846-1.956-2.763-1.956-1.99,0-3.016.7-3.253,2.064a3.339,3.339,0,0,0-.073.631c0,1.178.846,1.956,2.762,1.956m-5.3-3.394c.434,0,.626.1.626.344a1.049,1.049,0,0,1-.011.13c-.051.265-.231.378-.756.378h-1.2l.152-.851Zm.152,3.366h1.714l-.6-1.545a1.434,1.434,0,0,0,1-1.24,2.718,2.718,0,0,0,.045-.445c0-.868-.665-1.364-2.154-1.364h-2.8l-.806,4.595h1.663l.237-1.353h1.229Zm-3.879-1.252h-2.859l.09-.5h2.638l.2-1.173h-2.639l.073-.417h2.858L168,199.9h-4.522l-.806,4.595H167.2Zm-7.25-.631c.44,0,.6.13.6.333a.773.773,0,0,1-.017.113c-.039.242-.237.338-.71.338h-1.319l.141-.784Zm.6-1.257c-.039.214-.209.31-.6.31h-1.133l.124-.7h1.105c.349,0,.519.084.519.287a.566.566,0,0,1-.011.107m.129-1.455h-3.225l-.806,4.595H159.9c1.781,0,2.4-.349,2.565-1.263a1.465,1.465,0,0,0,.023-.243c0-.524-.361-.958-1.291-1.032.829-.09,1.184-.394,1.274-.9a1.624,1.624,0,0,0,.028-.265c0-.558-.417-.891-1.6-.891m-6.252,4.595h1.669l.8-4.595h-1.663Zm-4.984,0H154.2l.259-1.5h-2.864l.541-3.1H150.47Zm-4.7-1.392c-.857,0-1.207-.254-1.207-.727a1.514,1.514,0,0,1,.023-.248c.1-.575.5-.834,1.488-.834.857,0,1.207.248,1.207.722a1.517,1.517,0,0,1-.023.254c-.1.575-.5.834-1.489.834m-.13,1.421c1.99,0,3.016-.7,3.253-2.069a3.27,3.27,0,0,0,.073-.626c0-1.178-.846-1.956-2.763-1.956-1.991,0-3.017.7-3.253,2.064a3.31,3.31,0,0,0-.073.631c0,1.178.846,1.956,2.762,1.956m-4.854-2.227c-.113.643-.536.823-1.4.823h-1.116l.321-1.827H138.9c.767,0,1.117.214,1.117.7a1.7,1.7,0,0,1-.034.3m-.97-2.4H136.37l-.806,4.595h2.661c2.2,0,3.169-.654,3.417-2.052a4,4,0,0,0,.079-.688c0-1.161-.846-1.855-2.706-1.855m-5.5,4.595h1.488l.806-4.595h-1.545l-.474,2.667L131.73,199.9h-1.516l-.807,4.595h1.545l.479-2.7Zm-7.335-1.392c-.857,0-1.207-.254-1.207-.727a1.534,1.534,0,0,1,.023-.248c.1-.575.5-.834,1.488-.834.857,0,1.207.248,1.207.722a1.559,1.559,0,0,1-.023.254c-.1.575-.5.834-1.488.834m-.13,1.421c1.99,0,3.016-.7,3.253-2.069a3.238,3.238,0,0,0,.073-.626c0-1.178-.846-1.956-2.763-1.956-1.99,0-3.016.7-3.253,2.064a3.354,3.354,0,0,0-.073.631c0,1.178.846,1.956,2.763,1.956m-8.31-.028h1.635l1.843-2.627-.462,2.627h1.669l.8-4.595h-2.469l-1.945,2.808-.953-2.808H115.5l-.806,4.595h1.669l.462-2.65Zm-5.063,0h.6l.806-4.595h-.609l-.428,2.424.011-2.424h-.6l-.806,4.595h.609l.406-2.323Zm-1.528-4.595h-.676c-.671,3.806-.671,3.873-.671,3.963,0,.468.254.66.722.66.547,0,.8-.22.93-.958l.643-3.665h-.677l-.614,3.5c-.068.378-.113.451-.214.451-.062,0-.1-.028-.1-.141,0-.068.005-.13.654-3.806m-2.915.677c.057,0,.085.028.085.124a4.711,4.711,0,0,1-.113.739c-.073.417-.1.451-.214.451h-.135l.231-1.314Zm-.468,3.918h.648l.04-2.092c.214-.107.315-.344.4-.806a8.028,8.028,0,0,0,.163-1.071c0-.479-.265-.626-.789-.626h-.7l-.806,4.595h.676l.35-2h.1Zm-1.285-.676H105.8l.254-1.415h.676l.118-.676h-.677l.2-1.15h.676l.119-.677h-1.353l-.806,4.595h1.353Zm-1.956-3.242c.062,0,.1.028.1.13a11.19,11.19,0,0,1-.186,1.15c-.073.417-.1.457-.214.457h-.135l.3-1.736Zm.006-.677h-.7l-.806,4.595h.677l.265-1.505h.135c.632,0,.846-.2.981-.964a12.481,12.481,0,0,0,.237-1.505c0-.474-.265-.62-.79-.62m-4.578,3.445c-.372,0-.552-.118-.552-.485a7.167,7.167,0,0,1,.147-.981c.113-.648.316-.834.733-.834.372,0,.553.124.553.485a6.929,6.929,0,0,1-.147.981c-.118.654-.316.834-.733.834m-.135,1.178a2,2,0,0,0,2.21-1.945,7.637,7.637,0,0,0,.169-1.235c0-.976-.626-1.472-1.787-1.472a2,2,0,0,0-2.2,1.951,7.314,7.314,0,0,0-.175,1.229c0,.975.626,1.471,1.787,1.471m-3.856-.028h1.325l.806-4.595H96.859l-.423,2.391L95.63,199.9H94.288l-.806,4.595h1.235l.445-2.514Zm-4.871-1.657.727-2.063.006,2.063Zm.733,1.657h1.269L93,199.9H90.889l-1.7,4.595h1.325l.259-.744h1.054Zm-6.162,0h.9l1.466-3.016-.53,3.016H88.8l.8-4.595h-2l-1.133,2.374-.276-2.374H84.225l-.806,4.595h1.3l.53-3.01ZM81.282,199.9H79.929a24.863,24.863,0,0,0-.508,3.219c0,1.032.541,1.4,1.714,1.4,1.415,0,1.877-.53,2.17-2.21l.423-2.413H82.375l-.479,2.723c-.1.53-.271.71-.654.71-.3,0-.468-.118-.468-.44,0-.1.006-.186.507-2.994" transform="translate(-64.249 -161.687)" fill="#a1a1a1"/>
    <path id="Tracciato_1712" data-name="Tracciato 1712" d="M201.149,171.125c-.857,0-1.207-.254-1.207-.727a1.524,1.524,0,0,1,.023-.248c.1-.575.5-.834,1.488-.834.857,0,1.207.248,1.207.722a1.54,1.54,0,0,1-.023.254c-.1.575-.5.834-1.488.834m-.13,1.421c1.99,0,3.016-.7,3.253-2.069a3.25,3.25,0,0,0,.073-.626c0-1.178-.846-1.956-2.763-1.956-1.99,0-3.016.7-3.253,2.063a3.346,3.346,0,0,0-.073.631c0,1.178.846,1.957,2.763,1.957m-2.808-3.208.248-1.415h-5.035l-.248,1.415h1.686l-.553,3.18h1.663l.558-3.18Zm-7.735,3.18h1.669l.8-4.595h-1.663Zm-2.295-3.366c.434,0,.626.1.626.344a1.088,1.088,0,0,1-.011.13c-.051.265-.231.378-.756.378h-1.2l.152-.851Zm.152,3.366h1.714l-.6-1.545a1.434,1.434,0,0,0,1-1.24,2.713,2.713,0,0,0,.045-.445c0-.868-.665-1.364-2.154-1.364h-2.8l-.806,4.595h1.663l.237-1.353h1.229Zm-5.813,0h1.669l.8-4.595h-1.663Zm-2.278-3.259c.429,0,.637.135.637.406a.566.566,0,0,1-.017.147c-.051.3-.276.462-.8.462h-1.268l.18-1.015Zm.226-1.336h-2.926l-.806,4.595h1.669l.186-1.071h1.184c1.827,0,2.56-.383,2.763-1.55a2.392,2.392,0,0,0,.056-.507c0-.953-.716-1.466-2.126-1.466m-9.494,1.635c0,.885.744,1.252,2.4,1.252,1.2,0,1.41.09,1.41.282v.011c0,.2-.231.333-1.438.333-1.02,0-1.224-.1-1.224-.4v-.056h-1.409a2.1,2.1,0,0,0-.011.225c0,.936.846,1.342,2.712,1.342,1.99,0,2.949-.429,3.118-1.4a1.715,1.715,0,0,0,.034-.3c0-.868-.834-1.246-2.616-1.246-1.094,0-1.252-.062-1.252-.242v-.006c0-.2.169-.333,1.331-.333,1,0,1.268.164,1.268.428v.011h1.41v-.034c0-.987-.7-1.528-2.627-1.528s-2.92.468-3.073,1.342a1.873,1.873,0,0,0-.034.322M168.4,171.87c-.062,0-.1-.028-.1-.107,0-.107.011-.186.462-2.74.068-.383.107-.451.209-.451.062,0,.1.028.1.107,0,.1-.011.18-.462,2.74-.068.383-.107.451-.209.451m-.073.677c.547,0,.8-.22.93-.959.5-2.847.507-2.943.507-3.061,0-.428-.27-.631-.722-.631-.547,0-.8.22-.93.958-.5,2.847-.508,2.943-.508,3.061,0,.428.271.632.722.632m-2.514-.028h1.353l.118-.677h-.676l.688-3.918h-.676Zm-1.15-1.252H161.8l.09-.5h2.639l.2-1.173H162.1l.073-.417h2.859l.22-1.257h-4.521l-.806,4.595h4.522Zm-7.036-2.114c.434,0,.626.1.626.344a1.091,1.091,0,0,1-.011.13c-.051.265-.231.378-.755.378h-1.2l.152-.851Zm.152,3.366h1.714l-.6-1.545a1.434,1.434,0,0,0,1-1.24,2.721,2.721,0,0,0,.045-.445c0-.868-.665-1.364-2.154-1.364h-2.8l-.806,4.595h1.663l.237-1.353h1.229Zm-7.29-1.872.992-1.81.35,1.81Zm1.708,1.872h1.556l-.913-4.595h-2.5l-2.514,4.595h1.646l.457-.834h2.109Zm-9.495,0h1.635l1.844-2.627-.462,2.627h1.669l.8-4.595h-2.47l-1.945,2.808-.953-2.808h-2.362l-.806,4.595h1.669l.462-2.65Zm-4.758-3.445c.276,0,.389.073.389.282a1.546,1.546,0,0,1-.034.265c-.057.327-.186.383-.508.383h-.524l.164-.93Zm-.028,3.445h1.325l-.406-1.7a1.373,1.373,0,0,0,.812-1.139,3.221,3.221,0,0,0,.068-.6c0-.772-.474-1.156-1.584-1.156h-1.855l-.806,4.595h1.353l.271-1.528h.5Zm-4.629-1.15c-.372,0-.552-.118-.552-.485a7.208,7.208,0,0,1,.146-.981c.113-.648.316-.835.733-.835.372,0,.552.124.552.485a6.909,6.909,0,0,1-.146.981c-.118.654-.316.834-.733.834m-.135,1.178a2,2,0,0,0,2.21-1.945,7.619,7.619,0,0,0,.169-1.235c0-.975-.626-1.471-1.787-1.471a2,2,0,0,0-2.2,1.951,7.262,7.262,0,0,0-.175,1.229c0,.975.626,1.472,1.787,1.472m-2.227-1.77.163-.925h-1.111l.164-.942h1.178l.175-.986h-2.159l-.812,4.595h.986l.3-1.742Zm-4.961-1.162c0,.445.237.688.868.919.5.141.62.209.62.355a4.2,4.2,0,0,1-.068.457.392.392,0,0,1-.451.378c-.248,0-.35-.068-.35-.259a5.209,5.209,0,0,1,.084-.581h-.953a4.389,4.389,0,0,0-.107.75c0,.643.445.914,1.235.914.885,0,1.336-.31,1.477-1.083a5,5,0,0,0,.1-.733c0-.468-.271-.682-.874-.885-.508-.169-.62-.242-.62-.372a2.173,2.173,0,0,1,.056-.372.391.391,0,0,1,.451-.372c.242,0,.35.079.35.259a3.132,3.132,0,0,1-.079.508h.953a3.552,3.552,0,0,0,.1-.693c0-.609-.417-.908-1.218-.908-.829,0-1.353.288-1.494,1.077a4.21,4.21,0,0,0-.085.643m-1.951,1.139.536-1.928-.141,1.928Zm.265,1.765h.936l.271-4.595H123.9l-1.353,4.595h.97l.276-1h.553Zm-2.154-3.918c.056,0,.084.028.084.124a4.723,4.723,0,0,1-.113.738c-.073.417-.1.451-.214.451h-.135l.231-1.314Zm-.468,3.918h.648l.04-2.092c.214-.107.316-.344.4-.806a7.972,7.972,0,0,0,.164-1.071c0-.479-.265-.626-.789-.626h-.7l-.806,4.595h.677l.35-2h.1Zm-.716-3.918.118-.676H119.7l-.118.676h.338l-.688,3.918h.676l.688-3.918Z" transform="translate(-96.459 -135.822)" fill="#a1a1a1"/>
  </g>
</svg>
