<svg id="Raggruppa_852" data-name="Raggruppa 852" xmlns="http://www.w3.org/2000/svg" xmlns:xlink="http://www.w3.org/1999/xlink" width="154.867" height="57.992" viewBox="0 0 154.867 57.992">
  <defs>
    <clipPath id="clip-path">
      <rect id="Rettangolo_341" data-name="Rettangolo 341" width="154.867" height="57.992" fill="#f8f8f8"/>
    </clipPath>
  </defs>
  <g id="Raggruppa_853" data-name="Raggruppa 853" clip-path="url(#clip-path)">
    <path id="Tracciato_1708" data-name="Tracciato 1708" d="M500.091,47.959c.07.14.187.164.327.023a7.027,7.027,0,0,0,.982-.888,3.74,3.74,0,0,0,.865-2.22,5.717,5.717,0,0,0-.374-2.431,2,2,0,0,0-.351-.514c-.094-.07-.257,0-.257.093a1.336,1.336,0,0,1-.14.351,6.96,6.96,0,0,0-1.029,2.15,7.7,7.7,0,0,0-.21,2.408,5.477,5.477,0,0,0,.187,1.028" transform="translate(-386.726 -32.415)" fill="#f8f8f8"/>
    <path id="Tracciato_1709" data-name="Tracciato 1709" d="M154.666,13.557c-.187-.888-.421-2.15-.491-2.221a.9.9,0,0,1-.187-.514c-.024-.257-.211-.374-.211-.584a2.279,2.279,0,0,0-.117-.795,7,7,0,0,1-.351-.841c-.047-.093-.164.07-.117.3a58.421,58.421,0,0,1,.023,7.2,56.489,56.489,0,0,1-1.683,8.181,14.793,14.793,0,0,1-2.057,4.044,1.6,1.6,0,0,1-2.1.351,8.09,8.09,0,0,1-2.478-4.628,21.488,21.488,0,0,1-.257-5.727c.093-.654.257-1.169.28-1.332s-.07-.537-.257-.584a2.392,2.392,0,0,0-.467-.047,2.087,2.087,0,0,0-.4-1.1,9,9,0,0,0-1.753-.935,6.568,6.568,0,0,0-1.917-.888,4.778,4.778,0,0,0-2.665.584,18.247,18.247,0,0,0-5.306,4.6c-.452.555-.845,1.055-1.188,1.508a39.117,39.117,0,0,1-4.516,2.979,23.44,23.44,0,0,1-4.488,1.963c-.374.117-.654-.07-.7-.537a10.24,10.24,0,0,1,1.59-5.283,18.367,18.367,0,0,1,4.511-5.072,5.388,5.388,0,0,1,1.239-.608c.187-.047.328,0,.257.28a22.882,22.882,0,0,1-1.636,3.2c-.28.421-.958,1.566-1.028,1.66s.117.187.234.07a2.652,2.652,0,0,1,.678-.3,4.373,4.373,0,0,0,.748-.467,3.585,3.585,0,0,1,.818-.257,5.216,5.216,0,0,0,.771-.467c.14-.117.538-.257.725-.4a7.218,7.218,0,0,0,1.286-1.239,17.018,17.018,0,0,0,1.215-2.057c.164-.327.187-1.1-.257-1.262a18.494,18.494,0,0,1-2.361-.912,5.04,5.04,0,0,0-1.87-.888,4.83,4.83,0,0,0-2.1.351,16.635,16.635,0,0,0-5.4,4.955,19.181,19.181,0,0,0-1.459,2.651c-.644.806-1.764,2.23-2.234,2.959-.678,1.052-1.5,2.2-1.5,2.2a12.271,12.271,0,0,1-.117-2.454c.07-1.379.351-3.506.4-3.88s.047-.771-.421-.888a4.541,4.541,0,0,0-1.379-.14,7.646,7.646,0,0,0-1.706.187c-.21.07-.327.257-.421.538a8.67,8.67,0,0,0-.2,2.164c-.679,1.28-2.588,4.87-3.123,5.806-.654,1.145-1.963,3.319-1.963,3.319s0-.748.047-1.823a37.83,37.83,0,0,1,.982-6.007,27.99,27.99,0,0,1,2.384-6.171.749.749,0,0,0-.117-.912,3.769,3.769,0,0,0-1.379-.912,3.845,3.845,0,0,0-1.73-.21c-.351.047-.421.327-.584.561s-1.4,2.9-2.454,4.838S100.533,23,100.533,23s.514-1.847.958-3.132a24.715,24.715,0,0,1,1.8-3.412.554.554,0,0,0-.093-.584,3.343,3.343,0,0,0-1.005-.654,5.794,5.794,0,0,0-1.379-.257,1.117,1.117,0,0,0-.912.327c-.14.093-.958,1.122-1.8,1.94s-3.412,3.6-3.412,3.6.748-1.613,1.309-2.688,2.267-3.693,2.595-4.161.584-.631.584-.771a2.759,2.759,0,0,0-.093-.7c-.07-.21-.187-.467-.538-.467s-1.145.023-1.706.047a62.554,62.554,0,0,1-6.545-.467,48.934,48.934,0,0,1-7.176-1.332A8.627,8.627,0,0,1,80.6,9.046c-.148-.086-.218-.047-.234.07a6.176,6.176,0,0,0,.444,1.8,1.323,1.323,0,0,0,.958.748,9.775,9.775,0,0,0,1.59.164,8.541,8.541,0,0,1,1.371.21,2.442,2.442,0,0,1,.756.39,4.291,4.291,0,0,1,1.473,2.485c.327,1.309.093,3.786-.771,6.8a11.919,11.919,0,0,1-2.174,4.6c-.467.444-.865.421-1.028.14-.105-.181-1.029-.958-.771-5.563a11.248,11.248,0,0,1,1.823-6.054,2.5,2.5,0,0,1,1.286-.748,1.519,1.519,0,0,1,.655.07c.14.024.28,0,.093-.234A4.546,4.546,0,0,0,84.756,12.9a4.12,4.12,0,0,0-1.73-.444,3.422,3.422,0,0,0-2.594,1.168,5.263,5.263,0,0,0-.728,1.324,7.481,7.481,0,0,0-.518.569,52.526,52.526,0,0,0-2.774,4.644c-1.215,2.213-2.618,5.454-2.618,5.454s.543-3.967,1.247-7.417A78.927,78.927,0,0,1,77.8,8.317c3.724-.345,7.5-.679,10.065-.838a118.773,118.773,0,0,1,16.433.123c3.934.369,5.573,1.393,5.86,1.6s.492.246.451.123a7.26,7.26,0,0,0-.328-1.27,5.084,5.084,0,0,0-2.731-2.038c-1.6-.451-7.791-.686-14.767-.339-3.138.156-9.091.548-14.358.906A46.7,46.7,0,0,1,81.273,1.06a.418.418,0,0,0-.156-.436,4.41,4.41,0,0,0-1.87-.561S78.437,0,78,0a.934.934,0,0,0-.841.343C77,.561,76.816,1,76.38,1.87a45,45,0,0,0-1.9,4.982l-5.511.381c-3.606.246-9.548.287-12.5-.451A6.573,6.573,0,0,1,52.8,4.908s-.235-.18-.187.164a8.289,8.289,0,0,0,.943,2.571c.656,1.106,1.558,1.754,3.811,2.049a75.3,75.3,0,0,0,8.893-.328C67.576,9.279,70.5,9,73.9,8.682c-.256.851-.514,1.763-.765,2.725-.318,1.219-.615,2.511-.89,3.83-.18.4-1.128,2.511-1.915,3.915-.873,1.558-2.556,4.1-2.945,4.659a8.587,8.587,0,0,1-1.044,1.2c-.062.047-.14.047-.14-.093a24.543,24.543,0,0,1,.834-5.75,21.627,21.627,0,0,1,2.1-5.158c.483-.639.732-1.091.826-1.215a.3.3,0,0,0-.078-.483,3.521,3.521,0,0,0-1.761-.436,11.129,11.129,0,0,0-1.59,0c-.171.031-.436.093-.53.249a10.424,10.424,0,0,0-.639,1.06,8.427,8.427,0,0,1-.421.795s-1.963-.452-2.462-.467a1.855,1.855,0,0,0-1.169.218,12.411,12.411,0,0,0-4.924,4.846,18.127,18.127,0,0,0-2.446,5.937,3.71,3.71,0,0,0-.05.744,3.972,3.972,0,0,0-.526-.946,1.558,1.558,0,0,0-1.4-.28c-.374.07-1.449.327-2.789.732-1.281.388-3.194,1.255-3.381,1.325s-.28-.047-.163-.187A40.2,40.2,0,0,1,50.7,20.733c2.253-1.9,6.646-4.776,6.95-5.1a.627.627,0,0,0,.016-.834,3.878,3.878,0,0,0-.818-1.028A2.6,2.6,0,0,0,55.7,13c-.093,0-.318.213-.514.265-.234.062-2.408.016-5.072.3a22.85,22.85,0,0,0-5.072.958A2.279,2.279,0,0,0,43.7,15.6a2.362,2.362,0,0,0,.195,1.488,9.151,9.151,0,0,0,.818,1.543c.115.155.257.117.234.024a1.537,1.537,0,0,1-.047-.561,2.808,2.808,0,0,1,.888-1.5,6.141,6.141,0,0,1,2.992-1.215,26.057,26.057,0,0,1,3.787-.436c.209.031.164.179,0,.273s-3.646,3.249-5.306,4.815-4.464,4.792-5.376,5.843a11.168,11.168,0,0,0-1.046,1.409,39.523,39.523,0,0,1,.664-5.437c.592-2.743,1.415-5.584,1.5-5.828a.65.65,0,0,0-.374-.81,5.522,5.522,0,0,0-1.808-.249,1.46,1.46,0,0,0-.935.467c-.2.214-2.182,2.369-2.9,3.3s-1.776,2.213-1.776,2.213.966-2.431,1.5-3.459,1.839-3.366,1.994-3.615.381-.741-.031-1.028a14.223,14.223,0,0,0-2.555-1.309,6.44,6.44,0,0,0-1.153-.405c-.125,0-.031.249-.031.249a1.456,1.456,0,0,1-.125,1.029c-.171.463-.8,2.166-1.517,4.111l-.54,1a45.254,45.254,0,0,1-3.677,5.049,30.645,30.645,0,0,1-3.927,3.553c-.28.187-.655.374-.779-.156a11.67,11.67,0,0,1,.467-4.114c.1-.4.22-.82.347-1.233l.013-.041a4.342,4.342,0,0,0,.825,0,8.877,8.877,0,0,0,1.839-.5,2.763,2.763,0,0,0,1.589-1.745c.467-1.153,1.184-3.335,1.34-3.989s.312-1.527-.062-1.963S29.7,12.061,29.415,12a4.372,4.372,0,0,1-.686-.249c-.81-.218-1.558-.561-1.963-.187a11.9,11.9,0,0,0-1.959,2.223c-1.837.741-5.913,2.3-6.269,2.452-.436.187-4.3,1.714-4.3,1.714s-3.366-1.278-4.27-1.808a12.381,12.381,0,0,1-2.9-1.932,2.634,2.634,0,0,1-.436-3.522A13.643,13.643,0,0,1,12.087,6.42a12.8,12.8,0,0,1,6.139-1.153A4.521,4.521,0,0,1,20.1,5.7a.45.45,0,0,1,.156.561c-.093.249-2.119,4.083-2.649,5.174s-1.652,3.116-1.714,3.272.187.031.405-.156a3.035,3.035,0,0,1,.654-.5c.218-.093.374-.467.592-.592s.28-.187.592-.374a1.438,1.438,0,0,0,.5-.436,1.136,1.136,0,0,1,.467-.374c.218-.093.281-.249.53-.405s.53-.623.81-.748a30.061,30.061,0,0,0,2.929-3.677c.873-1.247,1.5-1.87,1.184-2.711s-.374-1.028-.841-1.184A10.711,10.711,0,0,0,22.4,3.117c-.374-.062-1.589-.125-1.589-.125a4.739,4.739,0,0,0-3.4-1.683A17.371,17.371,0,0,0,6.758,5.2c-4.051,3.459-3.864,5.174-3.864,5.641a5.615,5.615,0,0,0,2.088,4.768,19.764,19.764,0,0,0,4.675,2.867c.311.156,1.745.685,1.745.685s-4.207,2.182-6.3,3.615a38.49,38.49,0,0,0-4.8,4.02.949.949,0,0,0-.249.966,8.007,8.007,0,0,0,1.994,3.023A10.149,10.149,0,0,0,8.6,31.819a22.966,22.966,0,0,0,9.287-3.646,9.791,9.791,0,0,0,3.085-3.085c.374-.686.841-2.836-.592-3.864a12.487,12.487,0,0,0-2.9-1.527c-.559-.256-1.371-.561-1.371-.561s2.836-1.34,4.456-2.057c1.41-.624,2.866-1.247,3.221-1.4-.1.249-.2.5-.291.775-.15.461-.3.933-.443,1.408-.2.066-.394.131-.523.181-.405.156-1.184.53-1.527.717a.449.449,0,0,0-.187.654,1.607,1.607,0,0,0,.686.436,6.939,6.939,0,0,0,.945.2,14.988,14.988,0,0,0-.571,4.726c.218,2.182.5,2.244.748,2.493a4.324,4.324,0,0,0,1,.717,4.791,4.791,0,0,0,1.122.5,1.542,1.542,0,0,0,1.278-.343,14.758,14.758,0,0,0,3.116-3.428c.793-1.169,2.046-3.2,2.789-4.42-.442,1.245-.809,2.312-.981,2.892a27.34,27.34,0,0,0-.81,3.116c-.031.249-.125.748.218,1.029a6.359,6.359,0,0,0,2.68,1.215c.187.031.187-.249.218-.5A18.288,18.288,0,0,1,34.4,24.932a26.4,26.4,0,0,1,2.4-3.9,7.62,7.62,0,0,1,1.278-1.278c.187-.125.561-.187.53.28s-.686,3.21-.935,5.8-.343,4.425-.312,4.831.069,1.086.53,1.324a4.1,4.1,0,0,0,1.4.436,5.189,5.189,0,0,0,1.434.016c.28-.062.265-.187.171-.483a9.529,9.529,0,0,1-.171-2.54c.013-.243.029-.6.052-1.039a3.2,3.2,0,0,0,.291.6,13.478,13.478,0,0,0,.865,1.122c.14.164.382.156.8-.062a38.889,38.889,0,0,1,4.293-2.018,22.919,22.919,0,0,1,5.586-1.254,1.879,1.879,0,0,1,1.621.421c.159.207.2.086.179-.078a6,6,0,0,0-.187-.958l-.013-.04a3.767,3.767,0,0,0,.924.812,5.413,5.413,0,0,0,1.667.795.835.835,0,0,0,.717-.125,37.771,37.771,0,0,0,3.08-3.225c1.016-1.235,2.5-3.366,2.5-3.366s-.234,2.306-.281,3.958a14.289,14.289,0,0,0,.078,2.82,1.638,1.638,0,0,0,1.231,1.184,9.92,9.92,0,0,0,1.215.374.807.807,0,0,0,.842-.327c.3-.421,2.026-3.615,3.1-5.8.7-1.414,1.654-3.289,2.306-4.6-.537,2.993-.968,5.946-1.293,8.372a47.312,47.312,0,0,0-.561,6.482c0,.218.062.405.218.467a10.214,10.214,0,0,0,1.434.436,6.977,6.977,0,0,0,1.184.062.583.583,0,0,0,.654-.5c.062-.218.374-1.278.592-2.275a70.991,70.991,0,0,1,2.6-8.653,47.208,47.208,0,0,1,2.537-5.19,18.029,18.029,0,0,0-.168,3.123c.117,3.927.748,4.651,1.075,5.212A5.5,5.5,0,0,0,82.419,28a3.62,3.62,0,0,0,3.155-.164c.743-.476,2.454-3.319,3.249-6.615.805-3.34.654-5.7.047-7.035a8.6,8.6,0,0,0-1.042-1.753l.808.117c1.823.257,4.161.374,4.721.444s.514.631.374,1.1-1.239,3.412-2.244,5.727c-.937,2.158-2.431,5.446-2.548,5.82a1.124,1.124,0,0,0,.281,1.028,3.5,3.5,0,0,0,1.262.7,1.36,1.36,0,0,0,1.4-.351,33.38,33.38,0,0,1,2.5-4.184,16.182,16.182,0,0,1,3.272-3.81c.28-.234.28,0,.234.117s-.491,1.636-1.005,3.6a15.519,15.519,0,0,0-.608,3.366.706.706,0,0,0,.234.538,6.761,6.761,0,0,0,1.309.631c1.005.444,1.519.093,1.636-.047s.912-1.519,1.426-2.384,2.2-3.226,2.244-3.319.28-.117.257-.023-.28,2.221-.561,4.792a21.4,21.4,0,0,0,.117,5.54c.117.467.4.608.841.725a10.123,10.123,0,0,0,2.384-.023.732.732,0,0,0,.608-.468c.093-.234,1.145-3.085,2.337-5.937s2.548-5.54,2.548-5.54l.032-.024c.02.341.047.706.085,1.1a18.089,18.089,0,0,0,.725,4.3.99.99,0,0,0,.678.655,9.831,9.831,0,0,0,1.192.117,4.319,4.319,0,0,0,.958,0,.413.413,0,0,0,.351-.351c.07-.28.28-.795.584-1.566a17.538,17.538,0,0,1,1.239-2.314,8.13,8.13,0,0,1,.557-.726c-.077.31-.139.6-.183.866a26.549,26.549,0,0,0-.374,4.207,1.544,1.544,0,0,0,.3.935,7.653,7.653,0,0,0,1.94,1.005,1.234,1.234,0,0,0,.912-.023c.4-.14,3.529-2.174,4.581-2.9.821-.566,2.77-1.9,3.583-2.46-.094.179-.172.336-.241.473a12.685,12.685,0,0,0-.935,2.5,1.43,1.43,0,0,0,.28,1.356,7.794,7.794,0,0,0,2.01,1.356.971.971,0,0,0,.982-.07c.3-.21,3.2-3.366,4.067-4.184s4.207-3.833,4.628-4.114.678-.561.865-.187c.273.545.678,2.851,1.075,4.044a12.135,12.135,0,0,0,2.033,3.9,5.167,5.167,0,0,0,2.641,1.566,7.245,7.245,0,0,0,3.015-.117,6.1,6.1,0,0,0,3.155-2.571,18.48,18.48,0,0,0,2.291-6.568,34.216,34.216,0,0,0-.023-7.246M16.482,21.348a1.7,1.7,0,0,1,.779,1.527c-.156,1.215-2.369,3.179-4.426,4.083s-5.423,1.9-7.23,1.683S3.922,27.8,4.2,27.113s3.491-3.335,5.7-4.612,4.051-2.306,4.051-2.306a18.814,18.814,0,0,1,2.524,1.153m11.281-6.171c.125-.093.343-.218.312.031s-.28,1.808-.5,2.587a3.48,3.48,0,0,1-.935,1.652,3.34,3.34,0,0,1-1.195.342,19.751,19.751,0,0,1,1.319-3.147,6.093,6.093,0,0,1,1-1.465m33.561,6.28a16.959,16.959,0,0,1-4.094,3.927c-.172.062-.288.023-.265-.187a17.313,17.313,0,0,1,2.727-5.08,14.711,14.711,0,0,1,4.067-3.662c.327-.14.467.031.452.28a18.48,18.48,0,0,1-2.887,4.721m79.529-4.324a.779.779,0,0,0-.584.678,3.492,3.492,0,0,0,.07.678s-2.431,1.8-3.412,2.548-3.179,2.431-3.389,2.5-.327-.047-.28-.21a6.718,6.718,0,0,1,.468-.912,27.685,27.685,0,0,1,5.049-5.166c2.127-1.519,3.529-1.379,4.02-1.286a.838.838,0,0,1,.631.514s-2.08.467-2.571.654" transform="translate(0)" fill="#f8f8f8"/>
    <path id="Tracciato_1710" data-name="Tracciato 1710" d="M235.832,237.319h1.977l.949-5.445h-1.971Zm-2.719-3.988c.514,0,.742.12.742.407a1.274,1.274,0,0,1-.013.154c-.06.314-.274.448-.9.448H231.53l.18-1.009Zm.18,3.988h2.031l-.708-1.83a1.7,1.7,0,0,0,1.189-1.47,3.215,3.215,0,0,0,.053-.528c0-1.029-.788-1.617-2.552-1.617h-3.314l-.955,5.445h1.971l.281-1.6h1.456Zm-8.638-2.218,1.176-2.145.414,2.145Zm2.025,2.218h1.844l-1.082-5.445h-2.966l-2.98,5.445h1.951l.541-.989h2.5Zm-5.385-1.483h-3.387l.107-.588h3.127l.241-1.39h-3.126l.087-.494h3.387l.261-1.49h-5.358l-.955,5.445h5.358Zm-11.525,1.483h5.372l.307-1.777h-3.394l.641-3.668h-1.971Zm-7.262-2.285c0,1.4,1,2.318,3.274,2.318,2.392,0,3.554-.782,3.848-2.559l.007-.04h-1.984l-.007.04c-.093.595-.642.875-1.71.875-1.016,0-1.43-.3-1.43-.862a1.774,1.774,0,0,1,.027-.294c.12-.681.588-.989,1.764-.989.928,0,1.43.254,1.43.728a.986.986,0,0,1-.02.18h1.984a2.171,2.171,0,0,0,.04-.428c0-1.323-1.243-2.165-3.28-2.165-2.358,0-3.574.842-3.855,2.445a3.854,3.854,0,0,0-.087.748m-4.73-3.16h-1.971a20.411,20.411,0,0,0-.461,3.187c0,1.677.915,2.291,2.98,2.291,2.432,0,3.314-.882,3.768-3.487l.347-1.991h-1.977l-.334,1.958c-.254,1.4-.695,1.817-1.623,1.817-.788,0-1.149-.247-1.149-1.029a20.283,20.283,0,0,1,.421-2.746m-5.351,5.445h1.764l.955-5.445h-1.831l-.561,3.16-2.445-3.16h-1.8l-.955,5.445h1.831l.568-3.2Zm-9.246,0h1.977l.949-5.445h-1.971Zm-6.206,0h1.937l2.185-3.113-.548,3.113h1.977l.949-5.445h-2.926l-2.305,3.327-1.129-3.327h-2.8l-.955,5.445h1.977l.548-3.14Zm-6.333-3.988c.515,0,.742.12.742.407a1.325,1.325,0,0,1-.013.154c-.06.314-.274.448-.9.448h-1.416l.18-1.009Zm.18,3.988h2.031l-.708-1.83a1.7,1.7,0,0,0,1.189-1.47,3.221,3.221,0,0,0,.054-.528c0-1.029-.788-1.617-2.552-1.617h-3.314l-.955,5.445h1.971l.28-1.6h1.456Zm-8.638-2.218,1.176-2.145.414,2.145Zm2.024,2.218h1.844l-1.083-5.445H162l-2.98,5.445h1.951l.541-.989h2.5Zm-6.694-4.83h.027l-.4,2.619h-.147Zm-.715,4.83h.8l.715-5.445h-1.363l-1.2,5.445h.8l.281-1.41h.174Zm-1.957-1.336c-.087.494-.127.534-.254.534h-.16l.675-3.842h.16c.074,0,.114.033.114.154,0,.087,0,.12-.534,3.153m.407-4.109h-.808l-.955,5.445h.962c.748,0,1-.26,1.156-1.136.6-3.414.6-3.467.6-3.574,0-.561-.334-.735-.955-.735" transform="translate(-118.742 -179.361)" fill="#f8f8f8"/>
    <path id="Tracciato_1711" data-name="Tracciato 1711" d="M194.544,203.7c-1.015,0-1.43-.3-1.43-.862a1.832,1.832,0,0,1,.027-.294c.12-.681.595-.989,1.764-.989,1.016,0,1.43.294,1.43.855a1.816,1.816,0,0,1-.026.3c-.12.681-.595.989-1.764.989m-.154,1.683c2.358,0,3.574-.835,3.855-2.452a3.869,3.869,0,0,0,.087-.742c0-1.4-1-2.318-3.274-2.318-2.358,0-3.574.835-3.855,2.445a3.956,3.956,0,0,0-.087.748c0,1.4,1,2.318,3.273,2.318m-6.28-4.022c.515,0,.742.12.742.407a1.241,1.241,0,0,1-.014.154c-.06.314-.274.448-.9.448h-1.416l.18-1.009Zm.18,3.988h2.031l-.708-1.83a1.7,1.7,0,0,0,1.189-1.47,3.222,3.222,0,0,0,.054-.528c0-1.029-.788-1.617-2.552-1.617H184.99l-.955,5.445h1.971l.28-1.6h1.456Zm-4.6-1.483h-3.387l.107-.588h3.127l.241-1.39h-3.127l.087-.494h3.387l.261-1.49h-5.358l-.955,5.445h5.358Zm-8.592-.748c.521,0,.715.154.715.394a.917.917,0,0,1-.02.134c-.046.287-.28.4-.842.4h-1.563l.167-.929Zm.715-1.49c-.047.254-.247.367-.715.367H173.76l.147-.835h1.309c.414,0,.615.1.615.341a.67.67,0,0,1-.014.127m.153-1.724H172.15l-.955,5.445h3.588c2.111,0,2.846-.414,3.04-1.5a1.737,1.737,0,0,0,.027-.287c0-.621-.428-1.136-1.53-1.223.982-.107,1.4-.467,1.51-1.069a1.924,1.924,0,0,0,.033-.314c0-.661-.494-1.056-1.891-1.056m-7.409,5.445h1.978l.948-5.445h-1.971Zm-5.906,0h5.371l.307-1.777h-3.394l.641-3.668h-1.971Zm-5.565-1.65c-1.015,0-1.43-.3-1.43-.862a1.794,1.794,0,0,1,.027-.294c.12-.681.594-.989,1.763-.989,1.016,0,1.43.294,1.43.855a1.8,1.8,0,0,1-.027.3c-.12.681-.594.989-1.764.989m-.153,1.683c2.358,0,3.574-.835,3.855-2.452a3.874,3.874,0,0,0,.087-.742c0-1.4-1-2.318-3.274-2.318-2.359,0-3.574.835-3.855,2.445a3.922,3.922,0,0,0-.087.748c0,1.4,1,2.318,3.273,2.318m-5.752-2.639c-.134.762-.635.975-1.657.975h-1.323l.381-2.164H149.9c.909,0,1.323.254,1.323.828a2.019,2.019,0,0,1-.04.361m-1.149-2.839H146.9l-.956,5.445H149.1c2.612,0,3.755-.775,4.049-2.432a4.745,4.745,0,0,0,.094-.815c0-1.376-1-2.2-3.207-2.2m-6.514,5.445h1.764l.956-5.445h-1.831l-.561,3.16L141.4,199.9h-1.8l-.956,5.445h1.831l.568-3.2Zm-8.692-1.65c-1.016,0-1.43-.3-1.43-.862a1.818,1.818,0,0,1,.027-.294c.12-.681.594-.989,1.764-.989,1.015,0,1.43.294,1.43.855a1.847,1.847,0,0,1-.027.3c-.12.681-.595.989-1.764.989m-.154,1.683c2.358,0,3.574-.835,3.855-2.452a3.837,3.837,0,0,0,.087-.742c0-1.4-1-2.318-3.274-2.318-2.358,0-3.574.835-3.855,2.445a3.975,3.975,0,0,0-.087.748c0,1.4,1,2.318,3.274,2.318m-9.847-.033h1.937l2.184-3.113-.548,3.113h1.978l.948-5.445H128.4l-2.3,3.327L124.97,199.9h-2.8l-.955,5.445h1.978l.548-3.14Zm-6,0h.708l.955-5.445h-.722l-.508,2.873.014-2.873h-.709l-.955,5.445h.721l.481-2.752Zm-1.81-5.445h-.8c-.8,4.51-.8,4.59-.8,4.7,0,.555.3.782.855.782.648,0,.949-.261,1.1-1.136l.762-4.343h-.8l-.728,4.142c-.08.447-.134.534-.254.534-.074,0-.114-.034-.114-.167,0-.08.006-.154.775-4.51m-3.454.8c.067,0,.1.033.1.147a5.583,5.583,0,0,1-.134.875c-.087.494-.12.534-.254.534h-.16l.274-1.557Zm-.554,4.643h.768l.047-2.478c.254-.127.374-.407.474-.955a9.514,9.514,0,0,0,.194-1.269c0-.568-.314-.742-.935-.742h-.828l-.956,5.445h.8l.414-2.365h.114Zm-1.523-.8h-.809l.3-1.677h.8l.14-.8h-.8l.241-1.363h.8l.141-.8h-1.6l-.955,5.445h1.6ZM109.17,200.7c.074,0,.113.033.113.153a13.259,13.259,0,0,1-.22,1.363c-.086.494-.12.541-.254.541h-.16l.36-2.058Zm.007-.8h-.828l-.955,5.445h.8l.314-1.784h.161c.748,0,1-.234,1.163-1.142a14.789,14.789,0,0,0,.28-1.784c0-.561-.314-.735-.936-.735m-5.425,4.082c-.441,0-.655-.14-.655-.575a8.491,8.491,0,0,1,.174-1.163c.134-.768.374-.989.868-.989.441,0,.655.147.655.574a8.21,8.21,0,0,1-.174,1.163c-.14.775-.374.989-.868.989m-.16,1.4a2.371,2.371,0,0,0,2.619-2.3,9.049,9.049,0,0,0,.2-1.463c0-1.156-.742-1.744-2.118-1.744-1.577,0-2.332.735-2.612,2.312a8.668,8.668,0,0,0-.207,1.456c0,1.156.742,1.744,2.118,1.744m-4.57-.033h1.57l.955-5.445h-1.463l-.5,2.833-.955-2.833h-1.59l-.955,5.445h1.463l.528-2.979Zm-5.772-1.964.862-2.445.007,2.445Zm.869,1.964h1.5l-.107-5.445H93.01l-2.018,5.445h1.57l.307-.882h1.249Zm-7.3,0h1.062l1.737-3.574-.628,3.574h1.55l.949-5.445H89.115l-1.343,2.813-.327-2.813H85.113l-.955,5.445H85.7l.628-3.567ZM81.626,199.9h-1.6a29.461,29.461,0,0,0-.6,3.815c0,1.223.642,1.664,2.031,1.664,1.677,0,2.225-.628,2.572-2.619l.5-2.859h-1.6l-.568,3.227c-.114.628-.321.842-.775.842-.361,0-.555-.14-.555-.521,0-.114.007-.22.6-3.548" transform="translate(-61.443 -154.625)" fill="#f8f8f8"/>
    <path id="Tracciato_1712" data-name="Tracciato 1712" d="M216.3,171.723c-1.015,0-1.43-.3-1.43-.862a1.806,1.806,0,0,1,.027-.294c.12-.682.595-.989,1.764-.989,1.016,0,1.43.294,1.43.855a1.825,1.825,0,0,1-.027.3c-.12.681-.594.989-1.764.989m-.154,1.684c2.358,0,3.574-.835,3.855-2.452a3.852,3.852,0,0,0,.087-.742c0-1.4-1-2.318-3.274-2.318-2.358,0-3.574.835-3.855,2.445a3.965,3.965,0,0,0-.087.748c0,1.4,1,2.318,3.274,2.318m-3.327-3.8.294-1.677h-5.966l-.294,1.677h2l-.655,3.768h1.971l.661-3.768Zm-9.166,3.768h1.978l.949-5.445h-1.971Zm-2.719-3.988c.515,0,.742.12.742.408a1.287,1.287,0,0,1-.013.154c-.06.314-.274.448-.9.448h-1.416l.18-1.009Zm.181,3.988h2.031l-.708-1.831a1.7,1.7,0,0,0,1.189-1.47,3.214,3.214,0,0,0,.053-.528c0-1.029-.788-1.617-2.552-1.617h-3.314l-.955,5.445h1.971l.281-1.6h1.456Zm-6.888,0H196.2l.949-5.445h-1.971Zm-2.7-3.861c.508,0,.755.16.755.481a.671.671,0,0,1-.02.174c-.06.361-.327.548-.949.548h-1.5l.214-1.2Zm.267-1.583h-3.467l-.955,5.445h1.978l.22-1.269h1.4c2.165,0,3.033-.454,3.274-1.837a2.834,2.834,0,0,0,.067-.6c0-1.129-.849-1.737-2.519-1.737m-11.25,1.937c0,1.049.882,1.483,2.846,1.483,1.416,0,1.67.107,1.67.334v.013c0,.241-.274.394-1.7.394-1.209,0-1.45-.114-1.45-.474v-.067h-1.67a2.49,2.49,0,0,0-.013.267c0,1.109,1,1.59,3.213,1.59,2.358,0,3.494-.508,3.694-1.657a2.033,2.033,0,0,0,.04-.361c0-1.029-.989-1.477-3.1-1.477-1.3,0-1.483-.074-1.483-.287v-.007c0-.234.2-.394,1.577-.394,1.189,0,1.5.194,1.5.508v.013h1.67v-.04c0-1.169-.835-1.81-3.113-1.81s-3.461.554-3.641,1.59a2.218,2.218,0,0,0-.04.381m-3.053,2.739c-.074,0-.12-.034-.12-.127,0-.127.013-.22.548-3.247.08-.454.127-.534.247-.534.073,0,.12.033.12.127,0,.12-.013.214-.548,3.247-.08.454-.127.534-.247.534m-.087.8c.648,0,.949-.261,1.1-1.136.595-3.374.6-3.487.6-3.628,0-.507-.321-.748-.855-.748-.648,0-.949.261-1.1,1.136-.595,3.374-.6,3.487-.6,3.628,0,.508.321.748.855.748m-2.979-.034h1.6l.14-.8h-.8l.815-4.643h-.8Zm-1.363-1.483h-3.387l.107-.588h3.127l.24-1.39h-3.127l.087-.494H173.5l.26-1.49H168.4l-.955,5.445H172.8Zm-8.338-2.505c.514,0,.742.12.742.408a1.29,1.29,0,0,1-.013.154c-.06.314-.274.448-.9.448h-1.417l.18-1.009Zm.18,3.988h2.031l-.708-1.831a1.7,1.7,0,0,0,1.189-1.47,3.224,3.224,0,0,0,.054-.528c0-1.029-.788-1.617-2.552-1.617h-3.314l-.955,5.445h1.971l.28-1.6h1.456Zm-8.638-2.218,1.176-2.145.414,2.145Zm2.024,2.218h1.844l-1.082-5.445h-2.966l-2.98,5.445h1.951l.541-.989h2.5Zm-11.251,0h1.938l2.185-3.113-.548,3.113h1.977l.949-5.445h-2.926l-2.3,3.327-1.129-3.327h-2.8l-.955,5.445H145.4l.548-3.14Zm-5.638-4.082c.327,0,.461.087.461.334a1.832,1.832,0,0,1-.04.314c-.067.388-.221.454-.6.454H140.6l.194-1.1Zm-.033,4.082h1.57l-.481-2.018a1.627,1.627,0,0,0,.962-1.35,3.816,3.816,0,0,0,.08-.708c0-.915-.561-1.37-1.877-1.37h-2.2l-.955,5.445h1.6l.321-1.81h.595Zm-5.485-1.363c-.441,0-.655-.14-.655-.574a8.542,8.542,0,0,1,.174-1.162c.134-.768.374-.989.869-.989.441,0,.655.147.655.575a8.189,8.189,0,0,1-.174,1.162c-.14.775-.374.989-.869.989m-.16,1.4a2.372,2.372,0,0,0,2.619-2.3,9.028,9.028,0,0,0,.2-1.463c0-1.156-.742-1.744-2.118-1.744-1.577,0-2.332.735-2.612,2.312a8.605,8.605,0,0,0-.207,1.456c0,1.156.742,1.744,2.118,1.744m-2.639-2.1.194-1.1h-1.316l.194-1.116h1.4l.207-1.169H131.2l-.962,5.445h1.169l.361-2.064Zm-5.879-1.376c0,.528.281.815,1.029,1.089.595.167.735.247.735.421a4.973,4.973,0,0,1-.08.541.464.464,0,0,1-.534.448c-.294,0-.414-.08-.414-.307a6.173,6.173,0,0,1,.1-.688h-1.129a5.2,5.2,0,0,0-.127.888c0,.762.528,1.082,1.463,1.082,1.049,0,1.583-.368,1.75-1.283a5.922,5.922,0,0,0,.12-.869c0-.554-.321-.808-1.035-1.049-.6-.2-.735-.287-.735-.441a2.575,2.575,0,0,1,.067-.441.463.463,0,0,1,.534-.441c.287,0,.414.093.414.307a3.712,3.712,0,0,1-.093.6H130.4a4.21,4.21,0,0,0,.12-.822c0-.722-.494-1.076-1.443-1.076-.982,0-1.6.341-1.77,1.276a4.989,4.989,0,0,0-.1.761m-2.311,1.35.635-2.285-.167,2.285Zm.314,2.091h1.109l.321-5.445h-1.87l-1.6,5.445h1.149l.327-1.182h.655Zm-2.552-4.643c.067,0,.1.034.1.147a5.6,5.6,0,0,1-.134.875c-.087.494-.12.534-.254.534h-.16l.274-1.557Zm-.555,4.643h.768l.047-2.478c.254-.127.374-.408.474-.955a9.446,9.446,0,0,0,.194-1.269c0-.568-.314-.742-.935-.742h-.828l-.955,5.445h.8l.414-2.365h.113Zm-.848-4.643.14-.8h-1.6l-.14.8h.4l-.815,4.643h.8l.815-4.643Z" transform="translate(-92.245 -129.89)" fill="#f8f8f8"/>
  </g>
</svg>
