<svg id="Raggruppa_1132" data-name="Raggruppa 1132" xmlns="http://www.w3.org/2000/svg" xmlns:xlink="http://www.w3.org/1999/xlink" width="168.702" height="41.083" viewBox="0 0 168.702 41.083">
  <defs>
    <clipPath id="clip-path">
      <rect id="Rettangolo_284" data-name="Rettangolo 284" width="168.702" height="41.082" fill="#a1a1a1"/>
    </clipPath>
  </defs>
  <path id="Tracciato_1545" data-name="Tracciato 1545" d="M46.974,88.223l-8.879,14.2-5.876-2.378,8.879-14.2Z" transform="translate(-24.55 -65.412)" fill="#a1a1a1"/>
  <g id="Raggruppa_705" data-name="Raggruppa 705">
    <g id="Raggruppa_704" data-name="Raggruppa 704" clip-path="url(#clip-path)">
      <path id="Tracciato_1546" data-name="Tracciato 1546" d="M8.261,78.916c.078.685.453,1.327,2.02,2.269C12.136,82.3,12.861,82.2,13.639,82L5.294,91.6,0,88.415Zm1.122-1.459c1.118-1.289,2.383-1.191,4.221-.086,1.908,1.148,2.416,2.017,1.236,3.367-1.128,1.307-2.4,1.179-4.238.075-1.981-1.191-2.387-2.024-1.219-3.356" transform="translate(0 -58.304)" fill="#a1a1a1"/>
      <path id="Tracciato_1547" data-name="Tracciato 1547" d="M104.345,88.522l7.153.483-.352,5.864-1.039,6.8,2.036-6.772,2.409-5.732,7.508.493-8.777,18.024-9.282-.6Z" transform="translate(-79.247 -67.452)" fill="#a1a1a1"/>
      <path id="Tracciato_1548" data-name="Tracciato 1548" d="M161.741,125.425l.109-1.128c.444-3.794,2.563-5.743,6.284-6.013,4.247-.308,6.426,1.774,5.978,5.8L174,125.15a9.534,9.534,0,0,1-.827,3.166c-.868,1.732-2.472,2.63-5.373,2.841-4.141.3-6.487-1.453-6.058-5.732m6.561.034.246-1.668c.079-.661.02-.827-.357-.8-.446.031-.559.208-.635.89l-.249,1.647c-.072.7-.011.889.4.861.377-.026.521-.226.594-.93" transform="translate(-123.205 -90.108)" fill="#a1a1a1"/>
      <path id="Tracciato_1549" data-name="Tracciato 1549" d="M247.5,112.327l-.078-1.131c-.185-3.815,1.586-6.086,5.212-6.963,4.138-1,6.63.7,6.849,4.741l.063,1.069a9.536,9.536,0,0,1-.3,3.259c-.571,1.851-2.007,3-4.834,3.684-4.036.976-6.638-.368-6.917-4.66m6.478-1.043-.031-1.685c-.031-.665-.116-.819-.483-.731-.435.1-.517.3-.48.982l.025,1.665c.044.705.135.879.537.784.368-.087.477-.309.433-1.014" transform="translate(-188.524 -79.209)" fill="#a1a1a1"/>
      <path id="Tracciato_1550" data-name="Tracciato 1550" d="M223.908,94.315l-.245,16.648-6.222,1,.245-16.648Z" transform="translate(-165.686 -71.866)" fill="#a1a1a1"/>
      <path id="Tracciato_1551" data-name="Tracciato 1551" d="M483.486,37.594c-1.923.477-3.115.49-3.865-.171s-1.085-2.012-1.25-4.338l-.1-1.56-1.411.35-.339-4.868a3.345,3.345,0,0,0,1.136-.586,2.212,2.212,0,0,0,.856-1.364,8.4,8.4,0,0,0,.162-1.886l4.4-1.091.189,2.863,1.964-.487.348,5.256-1.944.482.065.874c.049.813.228.921.965.738l1.043-.259.383,5.4Z" transform="translate(-363.096 -16.825)" fill="#a1a1a1"/>
      <path id="Tracciato_1552" data-name="Tracciato 1552" d="M516.08,11.934c-.064-1.714.9-2.516,3-2.991,2.2-.5,3.149-.217,3.232,1.58.115,1.746-.9,2.516-3.017,3-2.261.513-3.133.192-3.212-1.584m3.237,2.3a7.309,7.309,0,0,0,1.633-.521,2.889,2.889,0,0,0,1.366-1.217l.618,12.74-6.043,1.37-.611-12.613c.527.421,1.249.646,3.037.241" transform="translate(-393.239 -6.647)" fill="#a1a1a1"/>
      <path id="Tracciato_1553" data-name="Tracciato 1553" d="M423.425,59.565l-1.23-12.459,5.135-1.436.823,2.4a3.566,3.566,0,0,1,2.724-3.563c2.314-.647,3.581.443,3.855,3.3l.83,8.368-5.541,1.551-.7-7.027c-.072-.571-.393-.547-.555-.5s-.386.186-.314.757l.628,7.034Z" transform="translate(-321.704 -33.773)" fill="#a1a1a1"/>
      <path id="Tracciato_1554" data-name="Tracciato 1554" d="M605.675,19.007c-2.307.389-3.577-.808-3.569-3.674l.08-8.414,5.66-.951-.067,7.087c.009.6.346.579.535.548.167-.027.343-.2.337-.7l.155-7.1,5.728-.966-.093,12.52-5.155.868-.559-2.428a3.319,3.319,0,0,1-3.051,3.207" transform="translate(-458.792 -3.687)" fill="#a1a1a1"/>
      <path id="Tracciato_1555" data-name="Tracciato 1555" d="M371.513,72l-.17-1.12c-.494-3.788,1.087-6.195,4.63-7.363,4.044-1.333,6.665.155,7.211,4.17l.15,1.06a9.538,9.538,0,0,1-.031,3.272c-.42,1.892-1.757,3.154-4.519,4.064-3.944,1.3-6.646.171-7.272-4.083m6.372-1.565-.168-1.677c-.085-.661-.182-.807-.541-.69-.425.138-.492.338-.4,1.018l.16,1.658c.1.7.206.865.6.738.36-.117.451-.347.349-1.046" transform="translate(-282.888 -48.036)" fill="#a1a1a1"/>
      <path id="Tracciato_1556" data-name="Tracciato 1556" d="M657.12,7.593l.043-1.133c.223-3.813,2.225-5.883,5.924-6.368,4.222-.554,6.518,1.4,6.305,5.444l-.051,1.07a9.541,9.541,0,0,1-.642,3.209c-.766,1.78-2.315,2.77-5.2,3.148-4.117.54-6.561-1.074-6.381-5.37m6.552-.347.149-1.679c.04-.665-.028-.826-.4-.779-.443.056-.546.24-.582.925l-.153,1.658c-.031.706.04.889.45.836.375-.048.507-.256.539-.963" transform="translate(-500.704 0)" fill="#a1a1a1"/>
      <path id="Tracciato_1557" data-name="Tracciato 1557" d="M330.711,87.331l-.111-.62-5.462,1.977.086.492c.153.69.078.926-.272,1.069-.382.156-.5,0-.651-.692l-.281-1.641c-.143-.672-.091-.875.323-1.044.35-.143.457,0,.59.648l.087.492,5.463-1.978-.029-.157c-.683-3.99-3.17-5.04-7.015-3.648-3.488,1.263-5.209,3.568-4.554,7.545l.2,1.115c.748,4.235,3.443,5.3,7.348,3.886,2.656-.962,3.983-2.249,4.355-4.132a9.626,9.626,0,0,0-.078-3.312" transform="translate(-242.879 -62.212)" fill="#a1a1a1"/>
      <path id="Tracciato_1558" data-name="Tracciato 1558" d="M546.8,30.558l-.307-12.515,5.227-1.053.644,2.45a3.565,3.565,0,0,1,2.98-3.352c2.355-.475,3.539.706,3.6,3.574l.21,8.407-5.641,1.137-.175-7.059c-.029-.574-.352-.575-.517-.542s-.4.157-.369.731l.107,7.061Z" transform="translate(-416.415 -12.181)" fill="#a1a1a1"/>
    </g>
  </g>
</svg>
