<svg id="Raggruppa_795" data-name="Raggruppa 795" xmlns="http://www.w3.org/2000/svg" xmlns:xlink="http://www.w3.org/1999/xlink" width="226.353" height="55.122" viewBox="0 0 226.353 55.122">
  <defs>
    <clipPath id="clip-path">
      <rect id="Rettangolo_284" data-name="Rettangolo 284" width="226.353" height="55.122" fill="#f8f8f8"/>
    </clipPath>
  </defs>
  <path id="Tracciato_1545" data-name="Tracciato 1545" d="M52.016,89.035,40.1,108.089l-7.884-3.19L44.132,85.845Z" transform="translate(-21.929 -58.429)" fill="#f8f8f8"/>
  <g id="Raggruppa_705" data-name="Raggruppa 705">
    <g id="Raggruppa_704" data-name="Raggruppa 704" clip-path="url(#clip-path)">
      <path id="Tracciato_1546" data-name="Tracciato 1546" d="M11.084,79.736c.1.919.608,1.78,2.71,3.044,2.489,1.5,3.461,1.357,4.505,1.1L7.1,96.752,0,92.481Zm1.5-1.957c1.5-1.729,3.2-1.6,5.663-.115,2.561,1.54,3.242,2.706,1.658,4.518-1.514,1.753-3.221,1.582-5.686.1-2.658-1.6-3.2-2.715-1.635-4.5" transform="translate(0 -52.08)" fill="#f8f8f8"/>
      <path id="Tracciato_1547" data-name="Tracciato 1547" d="M104.462,88.522l9.6.649-.472,7.868-1.394,9.129,2.732-9.086,3.232-7.69,10.074.662-11.777,24.184-12.454-.8Z" transform="translate(-70.787 -60.251)" fill="#f8f8f8"/>
      <path id="Tracciato_1548" data-name="Tracciato 1548" d="M161.758,127.876l.146-1.513c.6-5.09,3.439-7.706,8.432-8.068,5.7-.413,8.622,2.381,8.021,7.783l-.152,1.429a12.793,12.793,0,0,1-1.11,4.248c-1.164,2.324-3.317,3.529-7.209,3.811-5.557.4-8.7-1.95-8.128-7.691m8.8.046.33-2.237c.105-.887.027-1.109-.479-1.074-.6.041-.75.279-.851,1.194l-.334,2.209c-.1.943-.015,1.193.538,1.155.506-.035.7-.3.8-1.247" transform="translate(-110.053 -80.489)" fill="#f8f8f8"/>
      <path id="Tracciato_1549" data-name="Tracciato 1549" d="M247.536,115.188l-.1-1.517c-.249-5.119,2.128-8.166,6.993-9.343,5.553-1.343,8.9.933,9.19,6.361l.085,1.435a12.8,12.8,0,0,1-.4,4.373c-.767,2.484-2.693,4.026-6.486,4.943-5.415,1.309-8.906-.494-9.28-6.252m8.691-1.4-.042-2.261c-.042-.893-.155-1.1-.649-.981-.583.139-.694.4-.644,1.318l.033,2.234c.059.947.181,1.18.72,1.051.493-.117.64-.414.581-1.361" transform="translate(-168.399 -70.754)" fill="#f8f8f8"/>
      <path id="Tracciato_1550" data-name="Tracciato 1550" d="M226.118,94.315l-.329,22.337L217.441,118l.329-22.337Z" transform="translate(-147.999 -64.194)" fill="#f8f8f8"/>
      <path id="Tracciato_1551" data-name="Tracciato 1551" d="M485.868,42.9c-2.58.64-4.179.658-5.185-.229s-1.456-2.7-1.677-5.82l-.14-2.092-1.894.47-.455-6.532a4.488,4.488,0,0,0,1.525-.786,2.968,2.968,0,0,0,1.149-1.83,11.269,11.269,0,0,0,.218-2.531l5.9-1.464.254,3.842,2.635-.653.467,7.053-2.608.647.087,1.173c.066,1.091.306,1.235,1.295.99l1.4-.347.514,7.245Z" transform="translate(-324.336 -15.029)" fill="#f8f8f8"/>
      <path id="Tracciato_1552" data-name="Tracciato 1552" d="M516.081,13.031c-.086-2.3,1.207-3.376,4.02-4.014,2.951-.669,4.225-.291,4.337,2.12.154,2.343-1.207,3.376-4.048,4.02-3.034.688-4.2.257-4.309-2.126m4.343,3.088a9.8,9.8,0,0,0,2.19-.7,3.876,3.876,0,0,0,1.833-1.634l.83,17.094-8.109,1.838L516.348,15.8c.708.564,1.675.867,4.075.323" transform="translate(-351.261 -5.937)" fill="#f8f8f8"/>
      <path id="Tracciato_1553" data-name="Tracciato 1553" d="M423.845,64.773l-1.65-16.716,6.89-1.927,1.1,3.215c.161-2.365,1.2-4.095,3.655-4.781,3.1-.868,4.805.594,5.172,4.426l1.113,11.228L432.7,62.3l-.934-9.429c-.1-.766-.528-.735-.745-.674s-.518.249-.421,1.015l.842,9.437Z" transform="translate(-287.362 -30.168)" fill="#f8f8f8"/>
      <path id="Tracciato_1554" data-name="Tracciato 1554" d="M606.894,23.848c-3.1.522-4.8-1.084-4.788-4.93l.107-11.289,7.594-1.276-.09,9.509c.012.811.465.777.718.736.224-.036.46-.27.452-.934l.208-9.528,7.685-1.3-.125,16.8L611.737,22.8l-.749-3.258c-.331,2.293-1.333,3.838-4.094,4.3" transform="translate(-409.816 -3.294)" fill="#f8f8f8"/>
      <path id="Tracciato_1555" data-name="Tracciato 1555" d="M371.6,75.062l-.227-1.5c-.663-5.082,1.459-8.312,6.213-9.879,5.426-1.788,8.942.209,9.676,5.595l.2,1.423a12.8,12.8,0,0,1-.042,4.391c-.563,2.538-2.357,4.231-6.063,5.453-5.291,1.744-8.917.23-9.757-5.479m8.549-2.1-.225-2.25c-.114-.887-.244-1.083-.726-.926-.57.186-.659.453-.535,1.366l.214,2.224c.136.939.276,1.161.8.99.482-.157.6-.465.469-1.4" transform="translate(-252.69 -42.908)" fill="#f8f8f8"/>
      <path id="Tracciato_1556" data-name="Tracciato 1556" d="M657.123,10.187l.057-1.52c.3-5.116,2.986-7.893,7.949-8.544,5.665-.743,8.746,1.876,8.46,7.3l-.069,1.436a12.8,12.8,0,0,1-.861,4.306c-1.027,2.388-3.106,3.716-6.976,4.224-5.524.725-8.8-1.441-8.561-7.205m8.791-.466.2-2.253c.054-.892-.037-1.109-.54-1.045-.595.076-.733.322-.781,1.242l-.205,2.225c-.042.948.054,1.192.6,1.122.5-.064.681-.344.723-1.291" transform="translate(-447.254 0)" fill="#f8f8f8"/>
      <path id="Tracciato_1557" data-name="Tracciato 1557" d="M334.8,89.274l-.149-.831L327.322,91.1l.116.661c.2.926.105,1.243-.364,1.435-.513.209-.669,0-.873-.928l-.377-2.2c-.191-.9-.122-1.174.433-1.4.47-.192.613-.006.792.87l.116.659,7.329-2.654-.039-.211c-.916-5.353-4.253-6.762-9.412-4.894-4.68,1.695-6.99,4.787-6.11,10.123l.271,1.5c1,5.682,4.619,7.11,9.858,5.214,3.564-1.29,5.344-3.018,5.843-5.544a12.915,12.915,0,0,0-.105-4.444" transform="translate(-216.952 -55.571)" fill="#f8f8f8"/>
      <path id="Tracciato_1558" data-name="Tracciato 1558" d="M546.9,35.538l-.412-16.792,7.014-1.413.864,3.287c.335-2.346,1.5-3.995,4-4.5,3.16-.637,4.748.947,4.832,4.8l.281,11.28-7.568,1.526-.235-9.472c-.04-.771-.472-.772-.693-.727s-.535.21-.495.981l.143,9.474Z" transform="translate(-371.963 -10.88)" fill="#f8f8f8"/>
    </g>
  </g>
</svg>
